<svg width="62" height="65" viewBox="0 0 62 65" fill="none" xmlns="http://www.w3.org/2000/svg">
<g filter="url(#filter0_d_1_67)">
<rect x="3" width="56" height="56" rx="7.78" fill="#0D1114"/>
<rect x="3.5" y="0.5" width="55" height="55" rx="7.28" stroke="white" stroke-opacity="0.11"/>
<g clip-path="url(#clip0_1_67)">
<path d="M32.125 13.375V14.5H14.125V13.375C14.125 12.1319 15.1319 11.125 16.375 11.125H29.875C31.1181 11.125 32.125 12.1319 32.125 13.375Z" fill="#AAB2BD"/>
<path d="M32.125 41.5V42.625C32.125 43.8681 31.1181 44.875 29.875 44.875H16.375C15.1319 44.875 14.125 43.8681 14.125 42.625V40.375H26.5L26.77 40.3188C27.1525 41.0219 27.895 41.5 28.75 41.5H32.125Z" fill="#AAB2BD"/>
<path d="M46.75 26.875H28.75C27.5074 26.875 26.5 25.8676 26.5 24.625C26.5 23.3824 27.5074 22.375 28.75 22.375H44.5C45.7426 22.375 46.75 23.3824 46.75 24.625V26.875Z" fill="#8CC152"/>
<path d="M32.1419 16.7613C31.0844 17.9538 30.4375 19.5287 30.4375 21.25C30.4375 21.6269 30.4713 21.9981 30.5331 22.3581L30.4375 22.375H28.75C27.5069 22.375 26.5 23.3819 26.5 24.625V39.25C26.5 39.6381 26.6012 40.0038 26.77 40.3188L26.5 40.375H14.125V14.5H32.125V16.75L32.1419 16.7613Z" fill="#69D6F4"/>
<path d="M47.875 37V39.25C47.875 40.4931 46.8681 41.5 45.625 41.5H32.125H28.75C27.895 41.5 27.1525 41.0219 26.77 40.3188C26.6012 40.0038 26.5 39.6381 26.5 39.25V24.625C26.5 25.2438 26.7531 25.8062 27.1581 26.2169C27.5688 26.6219 28.1313 26.875 28.75 26.875H33.4581H37.1875H40.9169H45.625C46.8681 26.875 47.875 27.8819 47.875 29.125V31.375H40.5625C39.7863 31.375 39.0831 31.69 38.5712 32.1962C38.065 32.7081 37.75 33.4113 37.75 34.1875C37.75 35.74 39.01 37 40.5625 37H47.875Z" fill="#B4DD7F"/>
<path d="M47.875 31.375V37H40.5625C39.01 37 37.75 35.74 37.75 34.1875C37.75 33.4113 38.065 32.7081 38.5712 32.1962C39.0831 31.69 39.7863 31.375 40.5625 31.375H47.875Z" fill="#8CC152"/>
<path d="M37.1875 26.875H33.4581C31.9337 25.8625 30.8425 24.2425 30.5331 22.3581C30.4713 21.9981 30.4375 21.6269 30.4375 21.25C30.4375 19.5287 31.0844 17.9538 32.1419 16.7613C33.3794 15.3719 35.1794 14.5 37.1875 14.5C40.9169 14.5 43.9375 17.5206 43.9375 21.25C43.9375 23.6012 42.7338 25.6656 40.9169 26.875H37.1875Z" fill="#FCD770"/>
<path d="M21.4375 42.0625H24.8125V43.1875H21.4375V42.0625Z" fill="black"/>
<path d="M47.2951 26.875H47.3125V24.625C47.3125 23.0742 46.0508 21.8125 44.5 21.8125H44.4651C44.4797 21.6252 44.5 21.4396 44.5 21.25C44.5 17.218 41.2195 13.9375 37.1875 13.9375C35.4899 13.9375 33.9301 14.5242 32.6875 15.4979V13.375C32.6875 11.8242 31.4258 10.5625 29.875 10.5625H16.375C14.8242 10.5625 13.5625 11.8242 13.5625 13.375V42.625C13.5625 44.1758 14.8242 45.4375 16.375 45.4375H29.875C31.4258 45.4375 32.6875 44.1758 32.6875 42.625V42.0625H45.625C47.1758 42.0625 48.4375 40.8008 48.4375 39.25V29.125C48.4375 28.2019 47.9841 27.388 47.2951 26.875ZM44.5 22.9375C45.4304 22.9375 46.1875 23.6946 46.1875 24.625V26.3693C46.0058 26.3322 45.8174 26.3125 45.625 26.3125H42.4486C43.357 25.3698 43.996 24.2082 44.2969 22.9375H44.5ZM37.1875 15.0625C40.5991 15.0625 43.375 17.8384 43.375 21.25C43.375 23.2744 42.385 25.1515 40.7284 26.3125H37.75V25.1076C38.7175 24.8562 39.4375 23.9826 39.4375 22.9375C39.4375 21.6966 38.4284 20.6875 37.1875 20.6875C36.5671 20.6875 36.0625 20.1829 36.0625 19.5625C36.0625 18.9421 36.5671 18.4375 37.1875 18.4375C37.8079 18.4375 38.3125 18.9421 38.3125 19.5625H39.4375C39.4375 18.5174 38.7175 17.6438 37.75 17.3924V16.1875H36.625V17.3924C35.6575 17.6438 34.9375 18.5174 34.9375 19.5625C34.9375 20.8034 35.9466 21.8125 37.1875 21.8125C37.8079 21.8125 38.3125 22.3171 38.3125 22.9375C38.3125 23.5579 37.8079 24.0625 37.1875 24.0625C36.5671 24.0625 36.0625 23.5579 36.0625 22.9375H34.9375C34.9375 23.9826 35.6575 24.8562 36.625 25.1076V26.3125H33.6466C31.99 25.1515 31 23.2744 31 21.25C31 17.8384 33.7759 15.0625 37.1875 15.0625ZM25.9943 39.8125H14.6875V15.0625H31.5625V16.5841C30.5095 17.8514 29.875 19.4776 29.875 21.25C29.875 21.4396 29.8953 21.6252 29.9099 21.8125H28.75C27.1992 21.8125 25.9375 23.0742 25.9375 24.625V39.25C25.9375 39.4424 25.9572 39.6308 25.9943 39.8125ZM28.75 22.9375H30.0781C30.1698 23.3239 30.2946 23.6986 30.4465 24.0625H28.75V25.1875H31V25.1223C31.2666 25.5481 31.5743 25.9474 31.9264 26.3125H28.75C27.8196 26.3125 27.0625 25.5554 27.0625 24.625C27.0625 23.6946 27.8196 22.9375 28.75 22.9375ZM16.375 11.6875H29.875C30.8054 11.6875 31.5625 12.4446 31.5625 13.375V13.9375H14.6875V13.375C14.6875 12.4446 15.4446 11.6875 16.375 11.6875ZM31.5625 42.625C31.5625 43.5554 30.8054 44.3125 29.875 44.3125H16.375C15.4446 44.3125 14.6875 43.5554 14.6875 42.625V40.9375H26.5V40.9201C27.013 41.6091 27.8269 42.0625 28.75 42.0625H31.5625V42.625ZM45.625 40.9375H28.75C27.8196 40.9375 27.0625 40.1804 27.0625 39.25V26.8739C27.5328 27.2271 28.1172 27.4375 28.75 27.4375H45.625C46.5554 27.4375 47.3125 28.1946 47.3125 29.125V30.8125H40.5625C38.7012 30.8125 37.1875 32.3262 37.1875 34.1875C37.1875 36.0488 38.7012 37.5625 40.5625 37.5625H47.3125V39.25C47.3125 40.1804 46.5554 40.9375 45.625 40.9375ZM47.3125 31.9375V36.4375H40.5625C39.3216 36.4375 38.3125 35.4284 38.3125 34.1875C38.3125 32.9466 39.3216 31.9375 40.5625 31.9375H47.3125Z" fill="black"/>
<path d="M39.4375 33.625H40.5625V34.75H39.4375V33.625Z" fill="black"/>
<path d="M41.125 20.6875H42.25V21.8125H41.125V20.6875Z" fill="black"/>
<path d="M32.125 20.6875H33.25V21.8125H32.125V20.6875Z" fill="black"/>
<path d="M46.1875 16.1875H47.3125V17.3125H46.1875V16.1875Z" fill="black"/>
<path d="M46.1875 18.4375H47.3125V19.5625H46.1875V18.4375Z" fill="black"/>
<path d="M47.3125 17.3125H48.4375V18.4375H47.3125V17.3125Z" fill="black"/>
<path d="M45.0625 17.3125H46.1875V18.4375H45.0625V17.3125Z" fill="black"/>
<path d="M27.0625 17.3125H28.1875V18.4375H27.0625V17.3125Z" fill="black"/>
<path d="M27.0625 19.5625H28.1875V20.6875H27.0625V19.5625Z" fill="black"/>
<path d="M28.1875 18.4375H29.3125V19.5625H28.1875V18.4375Z" fill="black"/>
<path d="M25.9375 18.4375H27.0625V19.5625H25.9375V18.4375Z" fill="black"/>
<path d="M41.6875 10.5625H42.8125V11.6875H41.6875V10.5625Z" fill="black"/>
<path d="M41.6875 12.8125H42.8125V13.9375H41.6875V12.8125Z" fill="black"/>
<path d="M42.8125 11.6875H43.9375V12.8125H42.8125V11.6875Z" fill="black"/>
<path d="M40.5625 11.6875H41.6875V12.8125H40.5625V11.6875Z" fill="black"/>
</g>
</g>
<defs>
<filter id="filter0_d_1_67" x="0" y="0" width="62" height="65" filterUnits="userSpaceOnUse" color-interpolation-filters="sRGB">
<feFlood flood-opacity="0" result="BackgroundImageFix"/>
<feColorMatrix in="SourceAlpha" type="matrix" values="0 0 0 0 0 0 0 0 0 0 0 0 0 0 0 0 0 0 127 0" result="hardAlpha"/>
<feOffset dy="6"/>
<feGaussianBlur stdDeviation="1.5"/>
<feComposite in2="hardAlpha" operator="out"/>
<feColorMatrix type="matrix" values="0 0 0 0 0 0 0 0 0 0 0 0 0 0 0 0 0 0 0.25 0"/>
<feBlend mode="normal" in2="BackgroundImageFix" result="effect1_dropShadow_1_67"/>
<feBlend mode="normal" in="SourceGraphic" in2="effect1_dropShadow_1_67" result="shape"/>
</filter>
<clipPath id="clip0_1_67">
<rect width="36" height="36" fill="white" transform="translate(13 10)"/>
</clipPath>
</defs>
</svg>
