<svg version="1.1" id="Layer_1" xmlns="http://www.w3.org/2000/svg" xmlns:xlink="http://www.w3.org/1999/xlink" x="0px" y="0px"
	 width="100%" viewBox="0 0 512 512" enable-background="new 0 0 512 512" xml:space="preserve">
<path fill="#000000" opacity="1.000000" stroke="none" 
	d="
M1.000000,195.000000 
	C1.000000,130.000000 1.000000,65.500000 1.000000,1.000000 
	C171.666672,1.000000 342.333344,1.000000 513.000000,1.000000 
	C513.000000,171.666672 513.000000,342.333344 513.000000,513.000000 
	C342.333344,513.000000 171.666672,513.000000 1.000000,513.000000 
	C1.000000,407.166656 1.000000,301.333344 1.000000,195.000000 
M309.071747,11.046658 
	C298.724335,11.089110 288.376953,11.131563 277.101837,11.007190 
	C270.392120,11.061889 263.682373,11.116588 256.046173,11.046362 
	C235.044357,11.092864 214.042557,11.139365 192.108841,11.031119 
	C185.062088,11.079660 178.015335,11.128202 170.074188,11.045477 
	C167.061417,11.091209 164.048645,11.136942 160.105499,11.027461 
	C153.172409,11.027461 146.239304,11.027461 139.134827,11.027461 
	C139.134827,22.073868 139.134827,32.537968 138.992096,43.927120 
	C139.043854,50.954609 139.095627,57.982094 139.022125,65.938263 
	C139.005539,111.605202 138.988937,157.272141 138.042450,203.030884 
	C122.039055,203.091766 106.035660,203.152649 89.185242,203.040848 
	C86.780930,203.334534 84.376617,203.628220 81.209259,204.027298 
	C79.793495,204.323959 78.377724,204.620621 76.204414,204.986282 
	C63.247147,208.760269 54.005432,220.831375 54.004105,234.062469 
	C53.996250,312.340729 54.191582,390.619781 53.868866,468.896698 
	C53.785713,489.066498 68.611206,503.045013 88.198120,503.030365 
	C179.633728,502.962036 271.069427,503.001617 362.505096,502.992462 
	C365.333435,502.992188 368.161743,502.880768 371.918884,502.966125 
	C390.518555,502.977264 409.124634,503.291931 427.715759,502.898499 
	C441.307983,502.610840 453.322632,495.618561 458.751648,480.585175 
	C459.165802,478.851440 459.940063,477.117676 459.940125,475.383942 
	C459.941010,448.879517 459.840820,422.375122 459.896179,394.958099 
	C459.861023,387.962708 459.825836,380.967316 459.953888,373.050812 
	C459.904205,352.078064 459.854523,331.105286 459.961182,309.188690 
	C459.973358,284.040710 460.136292,258.891510 459.939148,233.745178 
	C459.827454,219.502060 448.859131,205.988235 434.252716,204.154724 
	C425.272644,203.027466 416.098602,203.445190 406.081604,203.032410 
	C394.371887,203.099518 382.662140,203.166626 370.026733,203.125153 
	C354.360596,203.050461 338.694427,202.975754 323.256317,202.247360 
	C326.201782,196.843536 329.147247,191.439728 332.730499,185.749344 
	C341.012787,171.441589 349.334442,157.156418 357.560272,142.816269 
	C361.502686,135.943359 365.263794,128.966415 369.753052,121.767639 
	C373.207916,115.533646 376.662781,109.299652 380.727692,102.724998 
	C385.891418,93.773422 391.055176,84.821846 396.532715,75.326271 
	C386.484467,69.739166 376.759186,64.331665 366.786835,58.263195 
	C361.224091,55.161926 355.661377,52.060661 349.764069,48.330299 
	C343.845734,44.948818 337.927429,41.567337 331.365204,37.860504 
	C324.926697,34.228508 318.488220,30.596508 311.669617,26.209192 
	C311.387817,21.475096 311.106018,16.740999 310.910767,11.476443 
	C310.607605,11.376335 310.304413,11.276227 309.071747,11.046658 
z"/>
<path fill="#BE927C" opacity="1.000000" stroke="none" 
	d="
M76.961960,204.917282 
	C78.377724,204.620621 79.793495,204.323959 81.896347,204.209671 
	C85.066383,203.999207 87.549324,203.606369 90.032265,203.213531 
	C106.035660,203.152649 122.039055,203.091766 138.975250,203.026703 
	C158.299942,203.000092 176.691849,202.977661 195.542831,202.993546 
	C215.358292,203.020020 234.714691,203.008179 254.534988,203.014969 
	C277.675354,202.989426 300.351837,202.945236 323.028290,202.901047 
	C338.694427,202.975754 354.360596,203.050461 370.630707,203.487961 
	C371.613190,204.162003 371.943054,204.601959 372.377197,204.765884 
	C388.529633,210.865173 395.967987,221.635773 395.981079,238.976349 
	C395.998901,262.614868 396.021301,286.253387 395.572937,309.943298 
	C375.211731,310.028961 355.313049,309.785706 335.430206,310.238281 
	C327.808044,310.411774 319.753113,310.076416 312.694519,315.137482 
	C285.851807,329.042267 280.810089,362.966522 302.214142,383.760742 
	C310.897858,392.197083 321.530121,395.853577 333.508514,395.881378 
	C354.336517,395.929688 375.164612,395.953583 395.991272,396.457397 
	C395.984436,420.540680 396.072205,444.154968 395.884308,467.767059 
	C395.851898,471.840576 394.649231,475.904785 393.523682,479.977539 
	C386.260742,480.321228 379.461517,480.948578 372.661652,480.955566 
	C302.530762,481.027893 232.399734,480.964508 162.268814,481.029236 
	C147.830933,481.042542 134.096191,478.152588 121.481850,471.169067 
	C92.483925,455.115417 76.395683,430.552795 76.127922,397.216309 
	C75.636925,336.084717 75.979240,274.946320 76.036537,213.810822 
	C76.039314,210.846024 76.639809,207.881775 76.961960,204.917282 
z"/>
<path fill="#B5E08C" opacity="1.000000" stroke="none" 
	d="
M193.040741,11.185867 
	C214.042557,11.139365 235.044357,11.092864 256.515869,11.543055 
	C257.294098,38.991222 276.248779,60.334385 304.343414,64.615623 
	C309.252472,65.363693 310.141907,67.080536 310.122528,71.490501 
	C309.970337,106.118942 310.039276,140.748352 310.038818,175.377472 
	C310.038818,176.376297 310.401764,177.627121 309.937958,178.320847 
	C309.008636,179.710846 307.646210,181.821533 306.423279,181.848434 
	C294.442291,182.112015 282.453186,182.003693 270.466400,182.010345 
	C267.897095,182.011780 266.966248,180.940216 267.368713,178.262695 
	C269.941284,161.145676 263.320221,147.676895 250.363159,137.017929 
	C239.177475,127.816154 219.478912,126.197418 206.670593,133.205383 
	C190.803482,140.027664 178.401382,161.306885 182.630341,179.990845 
	C169.978638,176.502213 161.048233,164.284805 161.017960,150.640320 
	C160.951630,120.748566 160.973816,90.856621 161.021484,60.756836 
	C161.083115,60.548916 161.195511,60.129757 161.554199,60.086628 
	C163.416199,59.382626 165.023193,58.889740 166.407028,58.035378 
	C183.819595,47.284996 193.052200,31.855719 193.040741,11.185867 
M229.131393,67.061409 
	C221.781097,64.714073 215.437744,67.823769 214.962463,74.007431 
	C214.576523,79.028755 217.521896,83.496376 222.060333,84.773689 
	C226.848022,86.121155 232.374100,84.115761 234.278610,80.339737 
	C236.433929,76.066452 234.717972,71.076187 229.131393,67.061409 
z"/>
<path fill="#A87E6B" opacity="1.000000" stroke="none" 
	d="
M76.583191,204.951782 
	C76.639809,207.881775 76.039314,210.846024 76.036537,213.810822 
	C75.979240,274.946320 75.636925,336.084717 76.127922,397.216309 
	C76.395683,430.552795 92.483925,455.115417 121.481850,471.169067 
	C134.096191,478.152588 147.830933,481.042542 162.268814,481.029236 
	C232.399734,480.964508 302.530762,481.027893 372.661652,480.955566 
	C379.461517,480.948578 386.260742,480.321228 393.463531,480.334686 
	C390.390228,490.706635 383.627899,497.414459 373.623108,500.929779 
	C372.644684,501.273529 371.863068,502.177307 370.990082,502.821167 
	C368.161743,502.880768 365.333435,502.992188 362.505096,502.992462 
	C271.069427,503.001617 179.633728,502.962036 88.198120,503.030365 
	C68.611206,503.045013 53.785713,489.066498 53.868866,468.896698 
	C54.191582,390.619781 53.996250,312.340729 54.004105,234.062469 
	C54.005432,220.831375 63.247147,208.760269 76.583191,204.951782 
z"/>
<path fill="#9DCC6B" opacity="1.000000" stroke="none" 
	d="
M206.993744,133.096527 
	C219.478912,126.197418 239.177475,127.816154 250.363159,137.017929 
	C263.320221,147.676895 269.941284,161.145676 267.368713,178.262695 
	C266.966248,180.940216 267.897095,182.011780 270.466400,182.010345 
	C282.453186,182.003693 294.442291,182.112015 306.423279,181.848434 
	C307.646210,181.821533 309.008636,179.710846 309.937958,178.320847 
	C310.401764,177.627121 310.038818,176.376297 310.038818,175.377472 
	C310.039276,140.748352 309.970337,106.118942 310.122528,71.490501 
	C310.141907,67.080536 309.252472,65.363693 304.343414,64.615623 
	C276.248779,60.334385 257.294098,38.991222 256.979126,11.605516 
	C263.682373,11.116588 270.392120,11.061889 277.570496,11.496262 
	C279.464722,26.277489 286.210297,36.686234 300.012207,41.833324 
	C308.120178,44.856991 309.873688,43.498199 310.129333,35.022877 
	C310.210846,32.319908 311.378876,29.649710 312.049713,26.964514 
	C318.488220,30.596508 324.926697,34.228508 331.681183,38.479912 
	C331.988831,39.764786 331.976807,40.430229 331.972748,41.095726 
	C331.684601,88.323212 331.390411,135.550674 331.151459,182.778412 
	C331.145996,183.862625 331.765015,184.950012 332.092743,186.035919 
	C329.147247,191.439728 326.201782,196.843536 323.142303,202.574203 
	C300.351837,202.945236 277.675354,202.989426 254.693893,202.728378 
	C257.248749,198.664154 261.749695,195.935226 262.408569,190.031631 
	C260.410370,190.552948 258.989532,190.898712 257.582733,191.294418 
	C239.485016,196.384720 219.429428,188.203003 209.901428,171.959381 
	C202.562943,159.448502 202.328857,146.472061 206.993744,133.096527 
z"/>
<path fill="#FFDEC7" opacity="1.000000" stroke="none" 
	d="
M313.042084,315.102051 
	C319.753113,310.076416 327.808044,310.411774 335.430206,310.238281 
	C355.313049,309.785706 375.211731,310.028961 396.035767,309.998047 
	C403.641449,309.962036 410.315430,309.922668 417.454956,309.947083 
	C431.881958,310.051422 445.843414,310.091980 459.804840,310.132538 
	C459.854523,331.105286 459.904205,352.078064 459.416809,373.517151 
	C423.785156,373.993073 388.690216,373.912537 353.596375,374.074615 
	C344.631073,374.116028 336.478760,371.936096 329.157349,366.924835 
	C327.398193,365.720703 326.345032,363.485016 325.361511,361.873871 
	C328.194000,362.345520 330.628235,362.895203 333.071289,362.937622 
	C337.218567,363.009644 340.570892,360.642273 341.187042,356.927155 
	C341.750397,353.530518 341.134674,349.301453 339.452484,346.340149 
	C337.598785,343.076904 333.793091,341.438385 329.490051,342.649536 
	C321.613770,344.866516 319.407379,350.903564 322.895264,359.978333 
	C316.284271,356.461578 314.290009,350.149628 312.290192,344.028473 
	C309.132599,334.363373 310.489075,324.686707 313.042084,315.102051 
z"/>
<path fill="#F6CCAF" opacity="1.000000" stroke="none" 
	d="
M324.967194,361.723755 
	C326.345032,363.485016 327.398193,365.720703 329.157349,366.924835 
	C336.478760,371.936096 344.631073,374.116028 353.596375,374.074615 
	C388.690216,373.912537 423.785156,373.993073 459.335205,373.977692 
	C459.825836,380.967316 459.861023,387.962708 459.377106,395.386169 
	C444.905365,395.876190 430.952667,395.938110 416.534607,395.939545 
	C409.377014,395.915283 402.684845,395.951508 395.992645,395.987701 
	C375.164612,395.953583 354.336517,395.929688 333.508514,395.881378 
	C321.530121,395.853577 310.897858,392.197083 302.214142,383.760742 
	C280.810089,362.966522 285.851807,329.042267 312.694519,315.137482 
	C310.489075,324.686707 309.132599,334.363373 312.290192,344.028473 
	C314.290009,350.149628 316.284271,356.461578 323.101929,360.104004 
	C324.099854,360.763672 324.533508,361.243713 324.967194,361.723755 
z"/>
<path fill="#A87E6B" opacity="1.000000" stroke="none" 
	d="
M459.882996,309.660614 
	C445.843414,310.091980 431.881958,310.051422 417.457947,309.486694 
	C416.997284,293.140442 417.127411,277.317017 416.958313,261.496765 
	C416.835785,250.032715 416.867432,238.518967 415.752533,227.132919 
	C415.154419,221.024521 412.404205,215.096588 410.368896,209.175293 
	C409.635223,207.040787 408.152557,205.163742 407.011658,203.169205 
	C416.098602,203.445190 425.272644,203.027466 434.252716,204.154724 
	C448.859131,205.988235 459.827454,219.502060 459.939148,233.745178 
	C460.136292,258.891510 459.973358,284.040710 459.882996,309.660614 
z"/>
<path fill="#9DCC6B" opacity="1.000000" stroke="none" 
	d="
M160.959854,60.964752 
	C160.973816,90.856621 160.951630,120.748566 161.017960,150.640320 
	C161.048233,164.284805 169.978638,176.502213 182.784439,180.329117 
	C185.248230,185.341080 186.931503,190.130630 189.208237,194.619171 
	C190.730026,197.619370 193.095703,200.191528 195.083755,202.955231 
	C176.691849,202.977661 158.299942,203.000092 139.440186,202.980804 
	C138.988937,157.272141 139.005539,111.605202 139.520370,65.469215 
	C146.999023,63.655025 153.979446,62.309887 160.959854,60.964752 
z"/>
<path fill="#A87E6B" opacity="1.000000" stroke="none" 
	d="
M417.000000,396.000031 
	C430.952667,395.938110 444.905365,395.876190 459.311096,395.842468 
	C459.840820,422.375122 459.941010,448.879517 459.940125,475.383942 
	C459.940063,477.117676 459.165802,478.851440 457.952515,480.803986 
	C446.492035,481.015198 435.830658,481.005402 425.169312,481.000671 
	C416.741364,480.996918 416.746735,480.999817 416.988098,472.961823 
	C417.028076,471.630280 416.999695,470.296631 416.999725,468.963959 
	C417.000122,444.642639 417.000000,420.321350 417.000000,396.000031 
z"/>
<path fill="#A07765" opacity="1.000000" stroke="none" 
	d="
M416.534607,395.939545 
	C417.000000,420.321350 417.000122,444.642639 416.999725,468.963959 
	C416.999695,470.296631 417.028076,471.630280 416.988098,472.961823 
	C416.746735,480.999817 416.741364,480.996918 425.169312,481.000671 
	C435.830658,481.005402 446.492035,481.015198 457.628723,481.032532 
	C453.322632,495.618561 441.307983,502.610840 427.715759,502.898499 
	C409.124634,503.291931 390.518555,502.977264 371.454468,502.893646 
	C371.863068,502.177307 372.644684,501.273529 373.623108,500.929779 
	C383.627899,497.414459 390.390228,490.706635 393.926971,480.330444 
	C394.649231,475.904785 395.851898,471.840576 395.884308,467.767059 
	C396.072205,444.154968 395.984436,420.540680 395.991272,396.457458 
	C402.684845,395.951508 409.377014,395.915283 416.534607,395.939545 
z"/>
<path fill="#B5E08C" opacity="1.000000" stroke="none" 
	d="
M332.411621,185.892639 
	C331.765015,184.950012 331.145996,183.862625 331.151459,182.778412 
	C331.390411,135.550674 331.684601,88.323212 331.972748,41.095726 
	C331.976807,40.430229 331.988831,39.764786 332.003113,38.642586 
	C337.927429,41.567337 343.845734,44.948818 349.670105,48.877480 
	C347.051208,57.591476 342.646057,65.695351 342.370148,73.937447 
	C341.671936,94.794739 351.434448,110.865654 369.106995,122.036606 
	C365.263794,128.966415 361.502686,135.943359 357.560272,142.816269 
	C349.334442,157.156418 341.012787,171.441589 332.411621,185.892639 
z"/>
<path fill="#A07765" opacity="1.000000" stroke="none" 
	d="
M406.546631,203.100800 
	C408.152557,205.163742 409.635223,207.040787 410.368896,209.175293 
	C412.404205,215.096588 415.154419,221.024521 415.752533,227.132919 
	C416.867432,238.518967 416.835785,250.032715 416.958313,261.496765 
	C417.127411,277.317017 416.997284,293.140442 416.992371,309.422913 
	C410.315430,309.922668 403.641449,309.962036 396.504608,309.946655 
	C396.021301,286.253387 395.998901,262.614868 395.981079,238.976349 
	C395.967987,221.635773 388.529633,210.865173 372.377197,204.765884 
	C371.943054,204.601959 371.613190,204.162003 371.093567,203.542252 
	C382.662140,203.166626 394.371887,203.099518 406.546631,203.100800 
z"/>
<path fill="#9DCC6B" opacity="1.000000" stroke="none" 
	d="
M192.574799,11.108494 
	C193.052200,31.855719 183.819595,47.284996 166.407028,58.035378 
	C165.023193,58.889740 163.416199,59.382626 161.496277,59.608109 
	C161.079666,51.797260 161.079666,44.421803 161.079666,35.733013 
	C153.658157,40.803284 146.997208,44.032917 139.134827,43.002068 
	C139.134827,32.537968 139.134827,22.073868 139.134827,11.027461 
	C146.239304,11.027461 153.172409,11.027461 160.563141,11.562031 
	C161.020798,19.368196 161.020798,26.639793 161.020798,33.911388 
	C168.237823,27.566490 171.556641,20.139887 170.968582,11.176744 
	C178.015335,11.128202 185.062088,11.079660 192.574799,11.108494 
z"/>
<path fill="#9DCC6C" opacity="1.000000" stroke="none" 
	d="
M369.430054,121.902122 
	C351.434448,110.865654 341.671936,94.794739 342.370148,73.937447 
	C342.646057,65.695351 347.051208,57.591476 349.837402,49.192032 
	C355.661377,52.060661 361.224091,55.161926 366.895905,58.989433 
	C366.253906,62.251637 365.371155,64.757004 364.773621,67.328629 
	C361.452606,81.620941 367.084503,97.449272 380.117645,103.065659 
	C376.662781,109.299652 373.207916,115.533646 369.430054,121.902122 
z"/>
<path fill="#B4DF8B" opacity="1.000000" stroke="none" 
	d="
M380.422668,102.895332 
	C367.084503,97.449272 361.452606,81.620941 364.773621,67.328629 
	C365.371155,64.757004 366.253906,62.251637 367.019470,59.319920 
	C376.759186,64.331665 386.484467,69.739166 396.532715,75.326271 
	C391.055176,84.821846 385.891418,93.773422 380.422668,102.895332 
z"/>
<path fill="#B5E08C" opacity="1.000000" stroke="none" 
	d="
M311.859680,26.586853 
	C311.378876,29.649710 310.210846,32.319908 310.129333,35.022877 
	C309.873688,43.498199 308.120178,44.856991 300.012207,41.833324 
	C286.210297,36.686234 279.464722,26.277489 278.034332,11.579675 
	C288.376953,11.131563 298.724335,11.089110 309.653473,11.268948 
	C310.407043,11.691127 310.603363,11.863016 310.824219,12.006905 
	C311.106018,16.740999 311.387817,21.475096 311.859680,26.586853 
z"/>
<path fill="#84B749" opacity="1.000000" stroke="none" 
	d="
M139.063461,43.464592 
	C146.997208,44.032917 153.658157,40.803284 161.079666,35.733013 
	C161.079666,44.421803 161.079666,51.797260 161.137589,59.651237 
	C161.195511,60.129757 161.083115,60.548916 161.021484,60.756832 
	C153.979446,62.309887 146.999023,63.655025 139.583008,65.004875 
	C139.095627,57.982094 139.043854,50.954609 139.063461,43.464592 
z"/>
<path fill="#B4DF8B" opacity="1.000000" stroke="none" 
	d="
M170.521393,11.111111 
	C171.556641,20.139887 168.237823,27.566490 161.020798,33.911388 
	C161.020798,26.639793 161.020798,19.368196 161.028336,11.639637 
	C164.048645,11.136942 167.061417,11.091209 170.521393,11.111111 
z"/>
<path fill="#A87E6B" opacity="1.000000" stroke="none" 
	d="
M89.608749,203.127197 
	C87.549324,203.606369 85.066383,203.999207 82.277870,204.156982 
	C84.376617,203.628220 86.780930,203.334534 89.608749,203.127197 
z"/>
<path fill="#A6D578" opacity="1.000000" stroke="none" 
	d="
M310.867493,11.741674 
	C310.603363,11.863016 310.407043,11.691127 310.118225,11.333677 
	C310.304413,11.276227 310.607605,11.376335 310.867493,11.741674 
z"/>
<path fill="#84B749" opacity="1.000000" stroke="none" 
	d="
M195.542831,202.993546 
	C193.095703,200.191528 190.730026,197.619370 189.208237,194.619171 
	C186.931503,190.130630 185.248230,185.341080 183.158447,180.341293 
	C178.401382,161.306885 190.803482,140.027664 206.670593,133.205383 
	C202.328857,146.472061 202.562943,159.448502 209.901428,171.959381 
	C219.429428,188.203003 239.485016,196.384720 257.582733,191.294418 
	C258.989532,190.898712 260.410370,190.552948 262.408569,190.031631 
	C261.749695,195.935226 257.248749,198.664154 254.229980,202.709747 
	C234.714691,203.008179 215.358292,203.020020 195.542831,202.993546 
z"/>
<path fill="#84B749" opacity="1.000000" stroke="none" 
	d="
M229.481918,67.235504 
	C234.717972,71.076187 236.433929,76.066452 234.278610,80.339737 
	C232.374100,84.115761 226.848022,86.121155 222.060333,84.773689 
	C217.521896,83.496376 214.576523,79.028755 214.962463,74.007431 
	C215.437744,67.823769 221.781097,64.714073 229.481918,67.235504 
z"/>
<path fill="#EDBA97" opacity="1.000000" stroke="none" 
	d="
M325.361511,361.873871 
	C324.533508,361.243713 324.099854,360.763672 323.459503,360.157959 
	C319.407379,350.903564 321.613770,344.866516 329.490051,342.649536 
	C333.793091,341.438385 337.598785,343.076904 339.452484,346.340149 
	C341.134674,349.301453 341.750397,353.530518 341.187042,356.927155 
	C340.570892,360.642273 337.218567,363.009644 333.071289,362.937622 
	C330.628235,362.895203 328.194000,362.345520 325.361511,361.873871 
z"/>
</svg>