<svg width="30" height="30" viewBox="0 0 30 30" fill="none" xmlns="http://www.w3.org/2000/svg">
<path d="M13.75 15.9375C17.0292 15.9375 19.6875 13.2792 19.6875 10C19.6875 6.72081 17.0292 4.0625 13.75 4.0625C10.4708 4.0625 7.8125 6.72081 7.8125 10C7.8125 13.2792 10.4708 15.9375 13.75 15.9375Z" fill="#01A4F5"/>
<path d="M26.25 16.0125L24.8875 14.65C23.9375 13.7 22.375 13.6875 21.4125 14.65L16.3875 19.675C16.0375 20.025 15.8 20.475 15.7125 20.95L14.9875 24.8125C14.925 25.1125 15.025 25.4375 15.25 25.65C15.425 25.825 15.6625 25.925 15.9125 25.925C15.975 25.925 16.025 25.925 16.0875 25.9125L19.95 25.1875C20.4375 25.1 20.875 24.8625 21.225 24.5125L26.25 19.4875C27.2125 18.525 27.2125 16.975 26.25 16.0125Z" fill="#01A4F5"/>
<path d="M13.8625 20.6125C14.025 19.75 14.4375 18.975 15.0625 18.35L15.6 17.8125H10.0125C6.7875 17.8125 3.9875 20 3.2125 23.125L2.85 24.6C2.775 24.875 2.85 25.175 3.025 25.4C3.2 25.625 3.475 25.7625 3.7625 25.7625H13.2C13.0875 25.35 13.05 24.9125 13.1375 24.4875L13.875 20.6125H13.8625Z" fill="#01A4F5"/>
</svg>
