<svg version="1.1" id="Layer_1" xmlns="http://www.w3.org/2000/svg" xmlns:xlink="http://www.w3.org/1999/xlink" x="0px" y="0px"
	 width="100%" viewBox="0 0 512 512" enable-background="new 0 0 512 512" xml:space="preserve">
<path fill="#000000" opacity="1.000000" stroke="none" 
	d="
M338.000000,513.000000 
	C225.360703,513.000000 113.221397,513.000000 1.041047,513.000000 
	C1.041047,342.402344 1.041047,171.804672 1.041047,1.103501 
	C171.555969,1.103501 342.112030,1.103501 512.834045,1.103501 
	C512.834045,171.666534 512.834045,342.333252 512.834045,513.000000 
	C454.804657,513.000000 396.652313,513.000000 338.000000,513.000000 
M213.500000,459.997742 
	C221.332672,459.997772 229.165359,459.998322 236.998032,459.997681 
	C245.246902,459.997009 246.994202,458.199554 246.998520,449.687347 
	C247.003326,440.188782 247.512512,430.655457 246.872269,421.200256 
	C246.035263,408.839142 251.122467,399.367218 259.453522,391.039062 
	C286.441895,364.060028 313.402802,337.053497 340.430908,310.114349 
	C345.619110,304.943268 345.445526,301.179932 340.107941,296.878387 
	C332.149414,290.464661 323.669037,284.468597 314.710999,279.575836 
	C299.000763,270.995087 281.721863,267.276428 263.902649,267.086029 
	C234.410446,266.770844 204.911926,266.902313 175.417023,267.043640 
	C160.461792,267.115295 145.757980,268.847443 131.184753,272.778717 
	C108.336281,278.942291 90.285866,291.921722 76.394653,310.467468 
	C62.259331,329.339111 55.908337,351.445953 54.165081,374.693451 
	C53.119129,388.641846 53.436897,402.736969 58.027855,416.266083 
	C61.864807,427.573181 67.566841,437.575989 77.268936,445.126129 
	C91.389977,456.115021 107.618950,459.914459 125.013206,459.972565 
	C154.175171,460.070007 183.337708,459.998291 213.500000,459.997742 
M203.283112,54.901829 
	C198.353683,55.881397 193.273865,56.392612 188.520126,57.919258 
	C164.187775,65.733513 146.655670,81.333435 136.068863,104.649734 
	C128.338730,121.674500 126.794090,139.602859 130.480133,157.588181 
	C134.722275,178.286835 145.706329,195.204697 162.648087,208.236542 
	C181.717316,222.904861 203.636429,227.741898 226.670471,224.640839 
	C253.439774,221.036880 274.263916,206.985596 288.368164,183.349319 
	C300.853546,162.426010 303.176819,140.090179 297.367615,117.079918 
	C292.881958,99.312134 283.113525,84.398422 268.428009,72.812767 
	C249.409485,57.808701 227.960510,52.031036 203.283112,54.901829 
M277.999603,432.503601 
	C277.999603,445.254456 277.999603,458.005341 277.999603,470.996460 
	C295.677246,470.996460 312.650757,471.037170 329.623047,470.913757 
	C330.884521,470.904602 332.371002,469.966187 333.357574,469.039093 
	C341.450958,461.433807 349.580811,453.859650 357.454132,446.029205 
	C380.484222,423.124420 403.402985,400.107697 426.353821,377.123322 
	C427.365997,376.109711 428.263702,374.981812 429.278961,373.834564 
	C411.803223,356.346802 394.577087,339.187164 377.474915,321.904816 
	C375.087799,319.492554 373.451202,319.621002 371.411591,322.063019 
	C368.984344,324.969269 366.552368,327.894104 363.882568,330.571716 
	C338.831421,355.696686 314.050446,381.105652 288.448914,405.658356 
	C280.589050,413.196167 276.133728,420.711060 277.999603,432.503601 
M401.484985,291.984283 
	C397.101654,296.204834 392.718292,300.425385 388.268524,304.709930 
	C406.210327,322.665100 423.427856,339.817535 440.522095,357.092010 
	C442.901550,359.496521 444.402344,359.253204 446.603119,356.967529 
	C452.606720,350.732361 458.880096,344.757507 464.908691,338.545715 
	C472.742432,330.473877 472.700745,316.376617 464.819092,308.355927 
	C456.767609,300.162445 448.653046,292.028320 440.439636,283.997528 
	C434.267456,277.962555 426.965759,276.770721 418.665405,278.908356 
	C411.222382,280.825165 407.161835,286.794647 401.484985,291.984283 
z"/>
<path fill="#3A6CE9" opacity="1.000000" stroke="none" 
	d="
M213.000000,459.997742 
	C183.337708,459.998291 154.175171,460.070007 125.013206,459.972565 
	C107.618950,459.914459 91.389977,456.115021 77.268936,445.126129 
	C67.566841,437.575989 61.864807,427.573181 58.027855,416.266083 
	C53.436897,402.736969 53.119129,388.641846 54.165081,374.693451 
	C55.908337,351.445953 62.259331,329.339111 76.394653,310.467468 
	C90.285866,291.921722 108.336281,278.942291 131.184753,272.778717 
	C145.757980,268.847443 160.461792,267.115295 175.417023,267.043640 
	C204.911926,266.902313 234.410446,266.770844 263.902649,267.086029 
	C281.721863,267.276428 299.000763,270.995087 314.710999,279.575836 
	C323.669037,284.468597 332.149414,290.464661 340.107941,296.878387 
	C345.445526,301.179932 345.619110,304.943268 340.430908,310.114349 
	C313.402802,337.053497 286.441895,364.060028 259.453522,391.039062 
	C251.122467,399.367218 246.035263,408.839142 246.872269,421.200256 
	C247.512512,430.655457 247.003326,440.188782 246.998520,449.687347 
	C246.994202,458.199554 245.246902,459.997009 236.998032,459.997681 
	C229.165359,459.998322 221.332672,459.997772 213.000000,459.997742 
z"/>
<path fill="#396CE8" opacity="1.000000" stroke="none" 
	d="
M203.678360,54.667049 
	C227.960510,52.031036 249.409485,57.808701 268.428009,72.812767 
	C283.113525,84.398422 292.881958,99.312134 297.367615,117.079918 
	C303.176819,140.090179 300.853546,162.426010 288.368164,183.349319 
	C274.263916,206.985596 253.439774,221.036880 226.670471,224.640839 
	C203.636429,227.741898 181.717316,222.904861 162.648087,208.236542 
	C145.706329,195.204697 134.722275,178.286835 130.480133,157.588181 
	C126.794090,139.602859 128.338730,121.674500 136.068863,104.649734 
	C146.655670,81.333435 164.187775,65.733513 188.520126,57.919258 
	C193.273865,56.392612 198.353683,55.881397 203.678360,54.667049 
z"/>
<path fill="#396CE8" opacity="1.000000" stroke="none" 
	d="
M277.999603,432.004883 
	C276.133728,420.711060 280.589050,413.196167 288.448914,405.658356 
	C314.050446,381.105652 338.831421,355.696686 363.882568,330.571716 
	C366.552368,327.894104 368.984344,324.969269 371.411591,322.063019 
	C373.451202,319.621002 375.087799,319.492554 377.474915,321.904816 
	C394.577087,339.187164 411.803223,356.346802 429.278961,373.834564 
	C428.263702,374.981812 427.365997,376.109711 426.353821,377.123322 
	C403.402985,400.107697 380.484222,423.124420 357.454132,446.029205 
	C349.580811,453.859650 341.450958,461.433807 333.357574,469.039093 
	C332.371002,469.966187 330.884521,470.904602 329.623047,470.913757 
	C312.650757,471.037170 295.677246,470.996460 277.999603,470.996460 
	C277.999603,458.005341 277.999603,445.254456 277.999603,432.004883 
z"/>
<path fill="#396CE8" opacity="1.000000" stroke="none" 
	d="
M401.747498,291.747253 
	C407.161835,286.794647 411.222382,280.825165 418.665405,278.908356 
	C426.965759,276.770721 434.267456,277.962555 440.439636,283.997528 
	C448.653046,292.028320 456.767609,300.162445 464.819092,308.355927 
	C472.700745,316.376617 472.742432,330.473877 464.908691,338.545715 
	C458.880096,344.757507 452.606720,350.732361 446.603119,356.967529 
	C444.402344,359.253204 442.901550,359.496521 440.522095,357.092010 
	C423.427856,339.817535 406.210327,322.665100 388.268524,304.709930 
	C392.718292,300.425385 397.101654,296.204834 401.747498,291.747253 
z"/>
</svg>