<svg version="1.1" id="Layer_1" xmlns="http://www.w3.org/2000/svg" xmlns:xlink="http://www.w3.org/1999/xlink" x="0px" y="0px"
	 width="100%" viewBox="0 0 512 512" enable-background="new 0 0 512 512" xml:space="preserve">
<path fill="#000000" opacity="1.000000" stroke="none" 
	d="
M11.000000,513.000000 
	C7.668533,513.000000 4.337065,513.000000 1.004199,513.000000 
	C1.002799,342.430725 1.002799,171.861481 1.002799,1.000000 
	C86.354546,1.000000 171.709427,1.000000 257.853516,1.269789 
	C256.798218,2.804488 254.778519,3.876278 253.137283,5.365240 
	C241.323074,16.083256 229.550415,26.847765 217.834457,37.673168 
	C207.667496,47.067337 197.608841,56.578621 187.468796,66.002060 
	C183.130066,70.034157 178.333847,73.646362 174.440598,78.062180 
	C171.397247,81.514015 169.426270,85.911293 166.512115,89.935509 
	C154.733719,90.039398 143.422043,90.096260 131.633667,90.088028 
	C112.133148,90.022949 93.109306,90.022949 74.152802,90.022949 
	C74.152802,110.525841 74.152802,130.300919 74.079155,150.534637 
	C74.065300,167.436172 74.125092,183.879089 74.124611,200.758072 
	C73.994102,209.805496 73.923859,218.416840 73.480804,227.029938 
	C53.246082,235.061325 33.372482,243.062454 13.554017,251.197891 
	C12.469687,251.642990 11.129653,253.197769 11.115266,254.252472 
	C10.945539,266.695190 11.006165,279.141083 11.006165,292.041290 
	C17.648098,292.041290 23.774990,292.041290 29.944199,292.505005 
	C29.986519,301.205627 29.986519,309.442505 29.986519,318.075073 
	C35.674179,318.075073 40.787075,318.075073 45.942131,318.537292 
	C45.953346,360.977020 45.922405,402.954529 45.430645,444.961487 
	C39.066181,444.990997 33.162533,444.990997 26.907537,444.990997 
	C26.907537,455.388733 26.907537,465.150391 26.446960,474.944519 
	C21.084772,474.977020 16.183161,474.977020 11.000000,474.977020 
	C11.000000,488.157013 11.000000,500.578522 11.000000,513.000000 
z"/>
<path fill="#000000" opacity="1.000000" stroke="none" 
	d="
M503.000000,1.000000 
	C506.330780,1.000000 509.661591,1.000000 512.996216,1.000000 
	C513.000000,171.533554 513.000000,342.067108 512.995850,512.600647 
	C512.995850,512.733765 512.933167,512.866882 512.899780,513.000000 
	C496.578949,513.000000 480.258148,513.000000 463.474945,512.531372 
	C462.969696,500.023041 462.926819,487.983276 462.719543,475.546783 
	C457.476532,475.150055 452.397980,475.150055 447.000977,475.150055 
	C447.000977,466.135040 447.048370,457.864532 446.957031,449.595551 
	C446.940674,448.115082 446.350647,446.640991 445.560089,445.095703 
	C439.092438,444.999298 433.090210,444.971161 427.050842,444.479187 
	C427.024078,402.043488 427.034393,360.071533 427.507904,318.056732 
	C433.223175,318.013855 438.475281,318.013855 444.096375,318.013855 
	C444.096375,308.934540 444.096375,300.482819 444.558716,292.023010 
	C450.937744,292.014893 456.854401,292.014893 463.016174,292.014893 
	C463.016174,279.159058 463.102875,267.030182 462.890076,254.906540 
	C462.867279,253.608627 461.369507,251.760864 460.090973,251.163727 
	C455.385681,248.966080 450.490082,247.173828 445.656036,245.254349 
	C432.819244,240.157089 419.977264,235.073013 407.063446,229.519958 
	C406.940796,219.682236 406.892029,210.308258 406.916626,200.474945 
	C407.002930,183.381622 407.015839,166.747650 407.367004,149.967834 
	C410.160645,148.698227 413.040131,148.063934 414.998657,146.366806 
	C423.971985,138.591232 434.081604,135.078934 445.925201,136.977539 
	C446.558594,137.079071 447.238983,136.887497 448.368469,136.901917 
	C466.774292,136.971466 484.709198,136.971466 503.000000,136.971466 
	C503.000000,91.263733 503.000000,46.131866 503.000000,1.000000 
z"/>
<path fill="#EFCDB1" opacity="1.000000" stroke="none" 
	d="
M447.897491,136.832367 
	C447.238983,136.887497 446.558594,137.079071 445.925201,136.977539 
	C434.081604,135.078934 423.971985,138.591232 414.998657,146.366806 
	C413.040131,148.063934 410.160645,148.698227 407.415558,149.840759 
	C407.125824,149.859528 407.015137,149.610687 407.005066,149.168579 
	C406.994110,140.168106 406.993164,131.609756 407.216980,122.786728 
	C415.232544,117.247292 423.146637,112.142937 430.766235,106.631470 
	C435.077423,103.513084 432.141663,100.826767 429.666107,98.060738 
	C427.131012,95.228165 425.411285,95.005226 422.477112,97.868179 
	C410.126373,109.919037 394.952332,115.442444 377.876190,115.972511 
	C357.780029,116.596321 340.351654,108.552773 323.433990,98.945717 
	C321.181732,97.666718 318.953064,96.346146 316.313019,94.812164 
	C315.398956,97.255074 314.722534,99.062920 313.639435,100.912689 
	C291.846100,105.702034 270.459442,110.449448 248.672897,115.211540 
	C244.443207,115.114502 240.613358,115.002800 236.545395,114.670792 
	C225.582428,109.865479 221.320297,101.360924 221.966492,90.087364 
	C224.455826,88.635826 227.440704,87.689514 228.445786,85.728500 
	C231.578415,79.616402 236.366165,76.151360 242.734756,74.182343 
	C264.834900,67.349503 286.917633,60.457893 308.948547,53.406021 
	C312.039612,52.416607 315.084198,50.775784 317.669250,48.805382 
	C325.836121,42.580368 334.873962,38.802788 345.116760,38.002712 
	C349.174713,37.685741 352.080902,35.828117 351.772034,31.569073 
	C351.473206,27.448023 348.514313,25.105604 344.433716,26.082184 
	C336.110168,28.074207 327.728973,30.096085 319.726837,33.063778 
	C314.536957,34.988503 310.289886,39.533379 305.076843,41.303741 
	C285.223755,48.045853 265.081909,53.934418 245.195770,60.583977 
	C238.344971,62.874756 231.448257,65.720581 225.425720,69.627930 
	C217.137085,75.005501 215.306030,83.862366 219.494949,89.937386 
	C201.680161,89.951500 184.329483,89.919991 166.978806,89.888474 
	C169.426270,85.911293 171.397247,81.514015 174.440598,78.062180 
	C178.333847,73.646362 183.130066,70.034157 187.468796,66.002060 
	C197.608841,56.578621 207.667496,47.067337 217.834457,37.673168 
	C229.550415,26.847765 241.323074,16.083256 253.137283,5.365240 
	C254.778519,3.876278 256.798218,2.804488 258.321350,1.269789 
	C321.020905,1.000000 384.041779,1.000000 447.494812,1.467489 
	C447.917114,46.900776 447.907318,91.866570 447.897491,136.832367 
z"/>
<path fill="#0A9BD8" opacity="1.000000" stroke="none" 
	d="
M11.468657,513.000000 
	C11.000000,500.578522 11.000000,488.157013 11.000000,474.977020 
	C16.183161,474.977020 21.084772,474.977020 26.767483,475.221680 
	C29.517206,475.644196 31.485701,475.975677 33.454468,475.977264 
	C71.237137,476.008026 109.019836,475.990784 146.802536,476.002106 
	C208.885437,476.020721 270.968323,476.052643 332.869141,476.360870 
	C325.107819,481.937622 317.704193,487.508820 309.907471,492.461243 
	C298.755676,499.544769 287.316467,506.175751 276.000000,513.000000 
	C187.979111,513.000000 99.958206,513.000000 11.468657,513.000000 
z"/>
<path fill="#F04930" opacity="1.000000" stroke="none" 
	d="
M448.368469,136.901917 
	C447.907318,91.866570 447.917114,46.900776 447.963470,1.467489 
	C466.020905,1.000000 484.041779,1.000000 502.531342,1.000000 
	C503.000000,46.131866 503.000000,91.263733 503.000000,136.971466 
	C484.709198,136.971466 466.774292,136.971466 448.368469,136.901917 
M469.372101,122.856926 
	C473.205597,123.183083 477.039062,123.509232 481.088196,123.853729 
	C481.088196,119.029488 481.088196,115.154442 481.088196,111.291672 
	C476.956848,111.291672 473.212006,111.291672 469.110535,111.291672 
	C469.110535,115.080177 469.110535,118.541046 469.372101,122.856926 
z"/>
<path fill="#158DB7" opacity="1.000000" stroke="none" 
	d="
M276.468658,513.000000 
	C287.316467,506.175751 298.755676,499.544769 309.907471,492.461243 
	C317.704193,487.508820 325.107819,481.937622 333.179138,476.325958 
	C334.086639,475.977570 334.502106,475.945984 335.394165,475.942078 
	C372.588898,475.967010 409.307068,475.964233 446.489990,475.972229 
	C452.264496,475.969818 457.574249,475.956665 462.883972,475.943542 
	C462.926819,487.983276 462.969696,500.023041 463.006287,512.531372 
	C400.979095,513.000000 338.958221,513.000000 276.468658,513.000000 
z"/>
<path fill="#8DC63F" opacity="1.000000" stroke="none" 
	d="
M249.072754,115.196869 
	C270.459442,110.449448 291.846100,105.702034 313.659790,101.350433 
	C313.035278,106.210381 314.855713,108.852516 319.023010,110.635460 
	C323.587128,112.588196 327.890594,115.143692 332.343628,117.364319 
	C337.503113,119.937218 342.701782,122.431526 348.046295,125.264603 
	C363.124573,145.046539 382.900330,152.635376 407.015137,149.610687 
	C407.015137,149.610687 407.125824,149.859528 407.077271,149.986603 
	C407.015839,166.747650 407.002930,183.381622 406.519470,200.397385 
	C369.421021,194.537247 335.789917,224.667297 336.424133,260.183167 
	C324.950470,260.331177 313.936737,260.437836 302.468262,260.456726 
	C299.521393,260.341431 297.029297,260.291046 294.537170,260.289703 
	C243.684204,260.262268 192.831253,260.240479 142.004074,259.751434 
	C141.846756,256.633850 141.903854,253.939972 141.444107,251.337387 
	C135.579926,218.140335 108.371887,197.534698 74.184875,200.321991 
	C74.125092,183.879089 74.065300,167.436172 74.513145,150.564255 
	C106.476349,149.411697 132.175369,122.410591 132.110352,90.153122 
	C143.422043,90.096260 154.733719,90.039398 166.512115,89.935516 
	C184.329483,89.919991 201.680161,89.951500 219.758331,90.003448 
	C220.842636,90.058716 221.199432,90.093529 221.556244,90.128349 
	C221.320297,101.360924 225.582428,109.865479 236.170135,114.726074 
	C232.529739,115.928429 228.904526,116.539223 225.544266,117.836418 
	C210.611176,123.601204 201.162796,134.872452 194.326141,149.076385 
	C189.294510,149.048981 184.711380,149.048981 180.200516,149.048981 
	C180.200516,153.459641 180.200516,157.039047 180.200516,161.191803 
	C184.028732,161.191803 187.487152,161.191803 190.955032,161.596130 
	C190.582306,164.438263 190.200119,166.876068 189.362976,169.290192 
	C180.806244,169.266510 172.704453,169.266510 164.487854,169.266510 
	C164.487854,173.795624 164.487854,177.641968 164.487854,181.844452 
	C173.236359,181.844452 181.534424,181.844452 189.896454,182.252228 
	C190.284912,185.080963 190.609406,187.501907 190.476547,189.933258 
	C186.443787,189.943665 182.868378,189.943665 179.273071,189.943665 
	C179.273071,194.383743 179.273071,198.054916 179.273071,201.992996 
	C184.683319,201.992996 189.625793,201.992996 194.738342,202.268982 
	C197.213287,206.579193 199.226059,210.816833 201.870819,214.614349 
	C218.061279,237.861725 247.086411,243.093307 269.213501,226.743805 
	C277.845428,220.365738 283.572174,211.628372 288.532654,202.048752 
	C295.518188,202.073685 302.041534,202.073685 308.510620,202.073685 
	C308.510620,197.561630 308.510620,194.006546 308.510620,189.871048 
	C302.726624,189.871048 297.303436,189.871048 291.886688,189.459961 
	C292.275299,186.650391 292.657501,184.251877 293.505432,181.863586 
	C303.467621,181.877960 312.967163,181.743774 322.458862,181.957611 
	C326.020325,182.037857 327.329895,180.779892 326.922760,177.353516 
	C326.786102,176.203537 326.788574,175.010452 326.922882,173.859879 
	C327.313232,170.515015 326.192657,169.077011 322.538147,169.164185 
	C312.713959,169.398468 302.881561,169.288132 292.906311,168.934387 
	C292.469391,166.123489 292.178528,163.692795 292.364288,161.229797 
	C296.655609,161.182541 300.495819,161.410400 304.270416,161.013931 
	C305.502838,160.884491 307.350006,159.261826 307.548126,158.090683 
	C308.028290,155.252167 307.704193,152.277603 307.704193,149.059509 
	C300.615723,149.059509 294.329498,149.059509 287.858765,148.758865 
	C279.965424,131.384583 267.623322,119.688087 249.072754,115.196869 
z"/>
<path fill="#01C6E1" opacity="1.000000" stroke="none" 
	d="
M334.917542,475.914398 
	C334.502106,475.945984 334.086639,475.977570 333.361206,476.044037 
	C270.968323,476.052643 208.885437,476.020721 146.802536,476.002106 
	C109.019836,475.990784 71.237137,476.008026 33.454468,475.977264 
	C31.485701,475.975677 29.517206,475.644196 27.228062,475.189148 
	C26.907537,465.150391 26.907537,455.388733 26.907537,444.990997 
	C33.162533,444.990997 39.066181,444.990997 45.905281,444.980988 
	C60.595982,444.957642 74.351227,444.944305 88.568108,444.960999 
	C112.650681,444.971283 136.271622,444.951538 160.367172,444.951294 
	C174.263779,444.957764 187.685760,444.944763 201.568787,444.961426 
	C225.650528,444.971313 249.271225,444.951508 273.366516,444.951019 
	C287.596344,444.957275 301.351593,444.944214 315.567932,444.960999 
	C333.345215,445.040283 350.661407,445.089691 367.820190,445.423767 
	C361.571411,451.531128 355.547791,457.426910 349.366638,463.152618 
	C344.653809,467.518311 339.741241,471.668396 334.917542,475.914398 
z"/>
<path fill="#0A9BD8" opacity="1.000000" stroke="none" 
	d="
M141.978287,260.217560 
	C192.831253,260.240479 243.684204,260.262268 294.537170,260.289703 
	C297.029297,260.291046 299.521393,260.341431 302.388855,260.753510 
	C295.981476,265.520416 289.514374,270.527679 282.346436,274.147156 
	C269.783966,280.490662 256.791687,285.983032 243.516098,291.898376 
	C234.731430,291.990967 226.410126,292.017151 217.615326,292.024719 
	C192.398666,292.018372 167.655502,292.030701 142.449493,292.024841 
	C129.359879,292.017365 116.733101,292.028046 103.631363,292.018799 
	C78.738220,292.013000 54.320049,292.027130 29.901880,292.041290 
	C23.774990,292.041290 17.648098,292.041290 11.006165,292.041290 
	C11.006165,279.141083 10.945539,266.695190 11.115266,254.252472 
	C11.129653,253.197769 12.469687,251.642990 13.554017,251.197891 
	C33.372482,243.062454 53.246082,235.061325 73.556969,227.490326 
	C74.005951,238.539642 74.005951,249.130325 74.005951,260.110413 
	C76.628708,260.329010 78.735710,260.650604 80.843643,260.656830 
	C95.772804,260.700958 110.702324,260.720703 125.631363,260.659149 
	C131.080856,260.636688 136.529343,260.371857 141.978287,260.217560 
z"/>
<path fill="#0A9BD8" opacity="1.000000" stroke="none" 
	d="
M88.106461,444.930969 
	C74.351227,444.944305 60.595982,444.957642 46.366096,444.951477 
	C45.922405,402.954529 45.953346,360.977020 46.330498,318.365784 
	C47.965008,317.496643 49.252312,317.063354 50.541759,317.056915 
	C61.466675,317.002075 72.392319,316.983185 83.316811,317.070679 
	C84.916489,317.083466 86.511223,317.713684 88.062378,318.520966 
	C88.046501,360.966156 88.076485,402.948547 88.106461,444.930969 
z"/>
<path fill="#CFD2D2" opacity="1.000000" stroke="none" 
	d="
M142.004074,259.751434 
	C136.529343,260.371857 131.080856,260.636688 125.631363,260.659149 
	C110.702324,260.720703 95.772804,260.700958 80.843643,260.656830 
	C78.735710,260.650604 76.628708,260.329010 74.005951,260.110413 
	C74.005951,249.130325 74.005951,238.539642 73.929779,227.488556 
	C73.923859,218.416840 73.994102,209.805496 74.124619,200.758072 
	C108.371887,197.534698 135.579926,218.140335 141.444107,251.337387 
	C141.903854,253.939972 141.846756,256.633850 142.004074,259.751434 
z"/>
<path fill="#D0D3D3" opacity="1.000000" stroke="none" 
	d="
M131.633667,90.088036 
	C132.175369,122.410591 106.476349,149.411697 74.586792,150.105621 
	C74.152802,130.300919 74.152802,110.525841 74.152802,90.022949 
	C93.109306,90.022949 112.133148,90.022949 131.633667,90.088036 
z"/>
<path fill="#01C6E1" opacity="1.000000" stroke="none" 
	d="
M88.108246,318.058228 
	C86.511223,317.713684 84.916489,317.083466 83.316811,317.070679 
	C72.392319,316.983185 61.466675,317.002075 50.541759,317.056915 
	C49.252312,317.063354 47.965008,317.496643 46.288338,317.903564 
	C40.787075,318.075073 35.674179,318.075073 29.986519,318.075073 
	C29.986519,309.442505 29.986519,301.205627 29.944199,292.505005 
	C54.320049,292.027130 78.738220,292.013000 103.585297,292.482605 
	C104.014214,301.202209 104.014214,309.438049 104.014214,318.058228 
	C98.331856,318.058228 93.220047,318.058228 88.108246,318.058228 
z"/>
<path fill="#178FB7" opacity="1.000000" stroke="none" 
	d="
M243.979477,291.831970 
	C256.791687,285.983032 269.783966,280.490662 282.346436,274.147156 
	C289.514374,270.527679 295.981476,265.520416 302.843597,260.841248 
	C313.936737,260.437836 324.950470,260.331177 336.897095,260.246918 
	C360.673126,260.269287 383.516266,260.269287 407.137329,260.269287 
	C407.137329,249.790253 407.137329,239.886963 407.137329,229.983688 
	C419.977264,235.073013 432.819244,240.157089 445.656036,245.254349 
	C450.490082,247.173828 455.385681,248.966080 460.090973,251.163727 
	C461.369507,251.760864 462.867279,253.608627 462.890076,254.906540 
	C463.102875,267.030182 463.016174,279.159058 463.016174,292.014893 
	C456.854401,292.014893 450.937744,292.014893 444.084839,291.993927 
	C418.404419,291.992096 393.660278,292.011261 368.452606,292.022278 
	C355.693604,292.019623 343.398102,292.025085 330.628387,291.999603 
	C305.732086,291.989044 281.309998,292.009430 256.431458,292.021973 
	C251.976501,291.953400 247.977982,291.892700 243.979477,291.831970 
z"/>
<path fill="#0A9BD8" opacity="1.000000" stroke="none" 
	d="
M427.044739,318.099609 
	C427.034393,360.071533 427.024078,402.043488 426.577698,444.496704 
	C412.731628,444.966156 399.321686,444.954315 385.948486,444.479889 
	C385.977051,402.047974 385.968872,360.078644 386.278625,317.835632 
	C399.509277,317.426605 412.421936,317.278992 425.335022,317.196564 
	C425.902954,317.192932 426.474731,317.785034 427.044739,318.099609 
z"/>
<path fill="#D1D3D3" opacity="1.000000" stroke="none" 
	d="
M407.063446,229.519958 
	C407.137329,239.886963 407.137329,249.790253 407.137329,260.269287 
	C383.516266,260.269287 360.673126,260.269287 337.357056,260.205505 
	C335.789917,224.667297 369.421021,194.537247 406.446045,200.856720 
	C406.892029,210.308258 406.940796,219.682236 407.063446,229.519958 
z"/>
<path fill="#04AEB2" opacity="1.000000" stroke="none" 
	d="
M385.911713,444.942444 
	C399.321686,444.954315 412.731628,444.966156 426.614777,444.960510 
	C433.090210,444.971161 439.092438,444.999298 445.553680,445.553650 
	C446.016846,456.040405 446.021027,466.000946 446.025208,475.961487 
	C409.307068,475.964233 372.588898,475.967010 335.394165,475.942078 
	C339.741241,471.668396 344.653809,467.518311 349.366638,463.152618 
	C355.547791,457.426910 361.571411,451.531128 368.284912,445.357117 
	C374.575256,444.984619 380.243500,444.963531 385.911713,444.942444 
z"/>
<path fill="#01C6E1" opacity="1.000000" stroke="none" 
	d="
M427.507904,318.056732 
	C426.474731,317.785034 425.902954,317.192932 425.335022,317.196564 
	C412.421936,317.278992 399.509277,317.426605 385.815460,317.788574 
	C379.780853,318.015198 374.527374,318.015198 368.916138,318.015198 
	C368.916138,308.936951 368.916138,300.483673 368.916138,292.030426 
	C393.660278,292.011261 418.404419,291.992096 443.622467,292.002014 
	C444.096375,300.482819 444.096375,308.934540 444.096375,318.013855 
	C438.475281,318.013855 433.223175,318.013855 427.507904,318.056732 
z"/>
<path fill="#00B6CF" opacity="1.000000" stroke="none" 
	d="
M446.489990,475.972229 
	C446.021027,466.000946 446.016846,456.040405 446.019073,445.621887 
	C446.350647,446.640991 446.940674,448.115082 446.957031,449.595551 
	C447.048370,457.864532 447.000977,466.135040 447.000977,475.150055 
	C452.397980,475.150055 457.476532,475.150055 462.719543,475.546814 
	C457.574249,475.956665 452.264496,475.969818 446.489990,475.972229 
z"/>
<path fill="#FEBA26" opacity="1.000000" stroke="none" 
	d="
M194.774658,149.103790 
	C201.162796,134.872452 210.611176,123.601204 225.544266,117.836418 
	C228.904526,116.539223 232.529739,115.928429 236.408264,114.946381 
	C240.613358,115.002800 244.443207,115.114502 248.672897,115.211540 
	C267.623322,119.688087 279.965424,131.384583 287.887421,149.130096 
	C289.362976,153.622009 290.625305,157.442062 291.887665,161.262100 
	C292.178528,163.692795 292.469391,166.123489 292.853790,169.367004 
	C292.978119,174.070999 293.008911,177.962189 293.039673,181.853378 
	C292.657501,184.251877 292.275299,186.650391 291.665833,189.754822 
	C290.315887,194.315094 289.193176,198.169449 288.070496,202.023819 
	C283.572174,211.628372 277.845428,220.365738 269.213501,226.743805 
	C247.086411,243.093307 218.061279,237.861725 201.870819,214.614349 
	C199.226059,210.816833 197.213287,206.579193 194.664581,201.867020 
	C193.258469,197.433670 192.096176,193.678253 190.933884,189.922852 
	C190.609406,187.501907 190.284912,185.080963 189.938660,181.803711 
	C189.883896,177.069550 189.850906,173.191727 189.817932,169.313889 
	C190.200119,166.876068 190.582306,164.438263 191.112335,161.239914 
	C192.431671,156.687515 193.603165,152.895660 194.774658,149.103790 
z"/>
<path fill="#D8B59A" opacity="1.000000" stroke="none" 
	d="
M221.966492,90.087364 
	C221.199432,90.093529 220.842636,90.058716 220.222443,89.957825 
	C215.306030,83.862366 217.137085,75.005501 225.425720,69.627930 
	C231.448257,65.720581 238.344971,62.874756 245.195770,60.583977 
	C265.081909,53.934418 285.223755,48.045853 305.076843,41.303741 
	C310.289886,39.533379 314.536957,34.988503 319.726837,33.063778 
	C327.728973,30.096085 336.110168,28.074207 344.433716,26.082184 
	C348.514313,25.105604 351.473206,27.448023 351.772034,31.569073 
	C352.080902,35.828117 349.174713,37.685741 345.116760,38.002712 
	C334.873962,38.802788 325.836121,42.580368 317.669250,48.805382 
	C315.084198,50.775784 312.039612,52.416607 308.948547,53.406021 
	C286.917633,60.457893 264.834900,67.349503 242.734756,74.182343 
	C236.366165,76.151360 231.578415,79.616402 228.445786,85.728500 
	C227.440704,87.689514 224.455826,88.635826 221.966492,90.087364 
z"/>
<path fill="#D8B49A" opacity="1.000000" stroke="none" 
	d="
M347.883423,124.959953 
	C342.701782,122.431526 337.503113,119.937218 332.343628,117.364319 
	C327.890594,115.143692 323.587128,112.588196 319.023010,110.635460 
	C314.855713,108.852516 313.035278,106.210381 314.066437,101.308502 
	C314.722534,99.062920 315.398956,97.255074 316.313019,94.812164 
	C318.953064,96.346146 321.181732,97.666718 323.433990,98.945717 
	C340.351654,108.552773 357.780029,116.596321 377.876190,115.972511 
	C394.952332,115.442444 410.126373,109.919037 422.477112,97.868179 
	C425.411285,95.005226 427.131012,95.228165 429.666107,98.060738 
	C432.141663,100.826767 435.077423,103.513084 430.766235,106.631470 
	C423.146637,112.142937 415.232544,117.247292 406.827789,122.787033 
	C405.568024,123.180107 404.895203,123.231422 404.280304,123.447533 
	C390.750397,128.202759 376.897675,129.193588 362.765717,127.081802 
	C357.809937,126.341232 352.844482,125.665367 347.883423,124.959953 
z"/>
<path fill="#D0D3D2" opacity="1.000000" stroke="none" 
	d="
M348.046295,125.264603 
	C352.844482,125.665367 357.809937,126.341232 362.765717,127.081802 
	C376.897675,129.193588 390.750397,128.202759 404.280304,123.447533 
	C404.895203,123.231422 405.568024,123.180107 406.603058,123.051712 
	C406.993164,131.609756 406.994110,140.168106 407.005066,149.168579 
	C382.900330,152.635376 363.124573,145.046539 348.046295,125.264603 
z"/>
<path fill="#D2CDCD" opacity="1.000000" stroke="none" 
	d="
M469.241333,122.429420 
	C469.110535,118.541046 469.110535,115.080177 469.110535,111.291672 
	C473.212006,111.291672 476.956848,111.291672 481.088196,111.291672 
	C481.088196,115.154442 481.088196,119.029488 481.088196,123.853729 
	C477.039062,123.509232 473.205597,123.183083 469.241333,122.429420 
z"/>
<path fill="#CDD2CB" opacity="1.000000" stroke="none" 
	d="
M293.505432,181.863586 
	C293.008911,177.962189 292.978119,174.070999 292.999878,169.747208 
	C302.881561,169.288132 312.713959,169.398468 322.538147,169.164185 
	C326.192657,169.077011 327.313232,170.515015 326.922882,173.859879 
	C326.788574,175.010452 326.786102,176.203537 326.922760,177.353516 
	C327.329895,180.779892 326.020325,182.037857 322.458862,181.957611 
	C312.967163,181.743774 303.467621,181.877960 293.505432,181.863586 
z"/>
<path fill="#CDD2CA" opacity="1.000000" stroke="none" 
	d="
M189.362976,169.290192 
	C189.850906,173.191727 189.883896,177.069550 189.874695,181.395920 
	C181.534424,181.844452 173.236359,181.844452 164.487854,181.844452 
	C164.487854,177.641968 164.487854,173.795624 164.487854,169.266510 
	C172.704453,169.266510 180.806244,169.266510 189.362976,169.290192 
z"/>
<path fill="#D1D3D0" opacity="1.000000" stroke="none" 
	d="
M288.532654,202.048752 
	C289.193176,198.169449 290.315887,194.315094 291.659424,190.165894 
	C297.303436,189.871048 302.726624,189.871048 308.510620,189.871048 
	C308.510620,194.006546 308.510620,197.561630 308.510620,202.073685 
	C302.041534,202.073685 295.518188,202.073685 288.532654,202.048752 
z"/>
<path fill="#D0D2CF" opacity="1.000000" stroke="none" 
	d="
M292.364288,161.229797 
	C290.625305,157.442062 289.362976,153.622009 288.071960,149.430740 
	C294.329498,149.059509 300.615723,149.059509 307.704193,149.059509 
	C307.704193,152.277603 308.028290,155.252167 307.548126,158.090683 
	C307.350006,159.261826 305.502838,160.884491 304.270416,161.013931 
	C300.495819,161.410400 296.655609,161.182541 292.364288,161.229797 
z"/>
<path fill="#D2D3D2" opacity="1.000000" stroke="none" 
	d="
M190.476547,189.933258 
	C192.096176,193.678253 193.258469,197.433670 194.494507,201.591034 
	C189.625793,201.992996 184.683319,201.992996 179.273071,201.992996 
	C179.273071,198.054916 179.273071,194.383743 179.273071,189.943665 
	C182.868378,189.943665 186.443787,189.943665 190.476547,189.933258 
z"/>
<path fill="#D2D3D2" opacity="1.000000" stroke="none" 
	d="
M194.326141,149.076385 
	C193.603165,152.895660 192.431671,156.687515 191.102875,160.835602 
	C187.487152,161.191803 184.028732,161.191803 180.200516,161.191803 
	C180.200516,157.039047 180.200516,153.459641 180.200516,149.048981 
	C184.711380,149.048981 189.294510,149.048981 194.326141,149.076385 
z"/>
<path fill="#000000" opacity="1.000000" stroke="none" 
	d="
M243.516098,291.898376 
	C247.977982,291.892700 251.976501,291.953400 256.480011,292.486206 
	C256.985016,301.197418 256.985016,309.436615 256.985016,318.064392 
	C262.672058,318.064392 267.786163,318.064392 272.942261,318.527283 
	C272.953461,360.970703 272.922668,402.951172 272.891907,444.931702 
	C249.271225,444.951508 225.650528,444.971313 201.523529,444.499756 
	C201.026245,402.039642 201.035294,360.070892 201.507507,318.058167 
	C207.221771,318.014160 212.472885,318.014160 218.088837,318.014160 
	C218.088837,308.941254 218.088837,300.492310 218.088837,292.043365 
	C226.410126,292.017151 234.731430,291.990967 243.516098,291.898376 
z"/>
<path fill="#000000" opacity="1.000000" stroke="none" 
	d="
M88.062378,318.520996 
	C93.220047,318.058228 98.331856,318.058228 104.014214,318.058228 
	C104.014214,309.438049 104.014214,301.202209 104.060272,292.502563 
	C116.733101,292.028046 129.359879,292.017365 142.487732,292.488556 
	C142.988831,301.214600 142.988831,309.458771 142.988831,318.097839 
	C149.042191,318.097839 154.497330,318.097839 159.972687,318.559998 
	C159.959473,360.992004 159.926010,402.961884 159.892548,444.931763 
	C136.271622,444.951538 112.650681,444.971283 88.568100,444.960999 
	C88.076485,402.948547 88.046501,360.966156 88.062378,318.520996 
z"/>
<path fill="#000000" opacity="1.000000" stroke="none" 
	d="
M368.452606,292.022278 
	C368.916138,300.483673 368.916138,308.936951 368.916138,318.015198 
	C374.527374,318.015198 379.780853,318.015198 385.497528,318.062256 
	C385.968872,360.078644 385.977051,402.047974 385.948486,444.479858 
	C380.243500,444.963531 374.575256,444.984619 368.442322,445.072388 
	C350.661407,445.089691 333.345215,445.040283 315.522644,444.499390 
	C315.044800,402.029755 315.073334,360.051575 315.562439,318.041809 
	C320.932800,318.010162 325.842590,318.010162 331.102631,318.010162 
	C331.102631,308.917389 331.102631,300.473969 331.102631,292.030548 
	C343.398102,292.025085 355.693604,292.019623 368.452606,292.022278 
z"/>
<path fill="#0A9BD8" opacity="1.000000" stroke="none" 
	d="
M315.101807,318.073425 
	C315.073334,360.051575 315.044800,402.029755 315.061554,444.469543 
	C301.351593,444.944214 287.596344,444.957275 273.366516,444.950989 
	C272.922668,402.951172 272.953461,360.970703 273.328705,318.351318 
	C274.632416,317.490265 275.590851,317.078979 276.551056,317.074738 
	C287.971344,317.024231 299.392151,316.997620 310.812073,317.074738 
	C312.244171,317.084381 313.671997,317.725128 315.101807,318.073425 
z"/>
<path fill="#0A9BD8" opacity="1.000000" stroke="none" 
	d="
M160.367172,444.951294 
	C159.926010,402.961884 159.959473,360.992004 160.292114,318.287354 
	C173.505554,317.420837 186.419724,317.276855 199.334274,317.198090 
	C199.902451,317.194611 200.474243,317.787201 201.044357,318.102173 
	C201.035294,360.070892 201.026245,402.039642 201.062469,444.470032 
	C187.685760,444.944763 174.263779,444.957764 160.367172,444.951294 
z"/>
<path fill="#01C6E1" opacity="1.000000" stroke="none" 
	d="
M201.507507,318.058167 
	C200.474243,317.787201 199.902451,317.194611 199.334274,317.198090 
	C186.419724,317.276855 173.505554,317.420837 160.271896,317.825226 
	C154.497330,318.097839 149.042191,318.097839 142.988831,318.097839 
	C142.988831,309.458771 142.988831,301.214600 142.950592,292.506714 
	C167.655502,292.030701 192.398666,292.018372 217.615326,292.024719 
	C218.088837,300.492310 218.088837,308.941254 218.088837,318.014160 
	C212.472885,318.014160 207.221771,318.014160 201.507507,318.058167 
z"/>
<path fill="#01C6E1" opacity="1.000000" stroke="none" 
	d="
M315.562439,318.041809 
	C313.671997,317.725128 312.244171,317.084381 310.812073,317.074738 
	C299.392151,316.997620 287.971344,317.024231 276.551056,317.074738 
	C275.590851,317.078979 274.632416,317.490265 273.286713,317.888397 
	C267.786163,318.064392 262.672058,318.064392 256.985016,318.064392 
	C256.985016,309.436615 256.985016,301.197418 256.936462,292.494019 
	C281.309998,292.009430 305.732086,291.989044 330.628387,291.999603 
	C331.102631,300.473969 331.102631,308.917389 331.102631,318.010162 
	C325.842590,318.010162 320.932800,318.010162 315.562439,318.041809 
z"/>
</svg>