<svg version="1.1" id="Layer_1" xmlns="http://www.w3.org/2000/svg" xmlns:xlink="http://www.w3.org/1999/xlink" x="0px" y="0px"
	 width="100%" viewBox="0 0 512 512" enable-background="new 0 0 512 512" xml:space="preserve">
<path fill="#000000" opacity="1.000000" stroke="none" 
	d="
M306.000000,513.000000 
	C204.024765,513.000000 102.549522,513.000000 1.037143,513.000000 
	C1.037143,342.399750 1.037143,171.799469 1.037143,1.099597 
	C171.558578,1.099597 342.117249,1.099597 512.837952,1.099597 
	C512.837952,171.666550 512.837952,342.333252 512.837952,513.000000 
	C444.132782,513.000000 375.316376,513.000000 306.000000,513.000000 
M320.905579,97.018646 
	C320.905579,97.018646 321.024902,97.053001 320.085754,97.000900 
	C277.716400,97.018311 235.347046,97.035721 193.096008,97.017258 
	C193.096008,97.017258 193.076904,96.895111 193.021576,96.071754 
	C192.850403,86.823975 186.986343,81.011429 177.791885,81.002541 
	C166.999985,80.992119 156.164276,81.598770 145.429703,80.814247 
	C136.531067,80.163895 127.819252,87.882362 127.998177,96.987854 
	C120.009361,97.669487 111.776756,97.345673 104.075432,99.212990 
	C76.031693,106.012665 53.110622,120.714203 36.552547,144.843338 
	C23.320749,164.125259 16.417004,185.190628 16.970510,208.654694 
	C17.154974,216.474365 16.990316,224.302078 17.001228,232.126083 
	C17.051840,268.413422 17.108061,304.700745 16.989111,341.912476 
	C17.323400,350.818939 16.703630,359.886139 18.171829,368.601562 
	C22.483274,394.194794 37.038441,412.778839 59.741608,424.900848 
	C76.422546,433.807343 94.489883,435.107300 112.678398,431.793671 
	C125.864113,429.391510 138.265076,423.898865 147.950638,414.384735 
	C175.626465,387.198822 202.967270,359.669800 230.237778,332.076019 
	C233.204605,329.074005 234.854111,324.770111 238.035614,321.006317 
	C250.985611,321.027618 263.935608,321.048920 276.996368,321.796448 
	C279.871490,325.905365 282.228546,330.526489 285.704163,334.041656 
	C312.065247,360.702637 338.645538,387.146912 365.157043,413.659210 
	C366.099274,414.601440 366.935303,415.684967 367.992706,416.471649 
	C387.324890,430.853790 408.941528,436.156158 432.635590,431.950928 
	C458.216705,427.410767 476.624786,412.781769 488.931152,390.240601 
	C497.355164,374.810638 497.849762,357.999512 496.960052,340.068268 
	C496.973480,296.449280 496.749512,252.828354 497.104218,209.212143 
	C497.272247,188.554306 492.363251,169.530899 481.985565,151.784897 
	C471.113922,133.194214 456.009766,119.003029 437.009430,109.061348 
	C420.798553,100.579208 403.471771,96.341156 385.024384,96.043411 
	C384.840668,86.813461 378.962982,81.010994 369.762451,81.002449 
	C358.969940,80.992424 348.133423,81.600197 337.398529,80.813866 
	C328.492096,80.161484 319.767761,87.972763 320.905579,97.018646 
z"/>
<path fill="#D7E6F0" opacity="1.000000" stroke="none" 
	d="
M276.885590,321.070221 
	C263.935608,321.048920 250.985611,321.027618 237.100067,321.017334 
	C227.501617,321.019562 218.830093,320.763123 210.177994,321.064240 
	C199.179398,321.447021 189.408447,325.099640 181.409866,333.000397 
	C164.590363,349.614227 147.764557,366.222595 130.826202,382.714935 
	C102.062637,410.721100 52.633224,405.645111 29.687559,372.629974 
	C22.978048,362.976044 19.361929,352.316132 17.162273,340.988068 
	C17.108061,304.700745 17.051840,268.413422 17.001228,232.126083 
	C16.990316,224.302078 17.154974,216.474365 16.970510,208.654694 
	C16.417004,185.190628 23.320749,164.125259 36.552547,144.843338 
	C53.110622,120.714203 76.031693,106.012665 104.075432,99.212990 
	C111.776756,97.345673 120.009361,97.669487 128.926926,96.980476 
	C150.929413,96.947105 172.003159,96.921104 193.076904,96.895111 
	C193.076904,96.895111 193.096008,97.017258 193.188416,97.366653 
	C197.196564,109.368088 201.113281,121.019806 205.027725,132.672287 
	C207.831451,141.018433 213.290115,144.984253 222.158539,144.992203 
	C245.447418,145.013062 268.736359,145.015823 292.025238,144.990479 
	C300.574463,144.981171 306.208496,140.912445 308.905823,132.932831 
	C312.948273,120.973824 316.985474,109.013031 321.024902,97.053001 
	C321.024902,97.053001 320.905579,97.018646 321.386414,96.999084 
	C342.940308,96.940361 364.013367,96.901184 385.086456,96.862015 
	C403.471771,96.341156 420.798553,100.579208 437.009430,109.061348 
	C456.009766,119.003029 471.113922,133.194214 481.985565,151.784897 
	C492.363251,169.530899 497.272247,188.554306 497.104218,209.212143 
	C496.749512,252.828354 496.973480,296.449280 496.677246,340.844452 
	C493.802948,360.044983 485.467468,375.243256 470.737244,386.719696 
	C443.755341,407.741486 405.886688,405.377563 381.662933,381.229309 
	C367.284027,366.895203 352.948547,352.517578 338.585602,338.167450 
	C329.200775,328.791016 318.774414,321.336853 304.842072,321.046326 
	C295.527435,320.852051 286.204712,321.048553 276.885590,321.070221 
M150.095779,175.519897 
	C149.139069,173.586899 148.306854,171.579727 147.206192,169.732498 
	C137.374252,153.231720 117.160210,146.176880 99.079308,152.886108 
	C81.408913,159.443039 70.322151,178.115143 73.418442,196.103653 
	C77.562889,220.181702 99.991638,234.978241 123.243607,228.973999 
	C146.021484,223.092163 158.198151,199.421402 150.095779,175.519897 
M309.454193,226.767670 
	C308.356049,227.148483 307.241272,227.487518 306.162201,227.916321 
	C287.442596,235.355087 277.179138,255.682373 282.295197,275.165009 
	C287.284790,294.165985 306.142670,307.155701 325.330566,304.808716 
	C345.743622,302.311859 361.048096,285.378052 360.971252,265.104126 
	C360.867096,237.622070 334.826935,219.411377 309.454193,226.767670 
M184.667297,304.019806 
	C186.795410,304.343536 188.919968,304.920319 191.052231,304.950409 
	C206.353470,305.166382 218.696686,299.247253 226.799896,286.147858 
	C235.327560,272.362274 235.189560,258.135040 227.020401,244.088013 
	C218.417572,229.295288 199.771210,221.885986 182.526596,226.342285 
	C166.054337,230.598999 153.226166,246.818176 153.002853,263.670288 
	C152.743744,283.226654 164.297943,298.322815 184.667297,304.019806 
M300.514313,195.987747 
	C306.947693,188.566910 306.547089,179.540100 299.494507,173.008240 
	C293.437347,167.398315 283.940613,167.644073 277.919617,173.566528 
	C271.648956,179.734573 271.251404,189.280640 277.006348,195.494919 
	C283.538239,202.548157 292.562317,202.948425 300.514313,195.987747 
M228.690567,200.592651 
	C229.323990,200.386337 229.968674,200.209137 230.589096,199.969223 
	C236.839249,197.552292 240.834137,191.979950 240.996277,185.471024 
	C241.160690,178.870575 237.330444,172.777664 231.479660,170.332611 
	C225.018738,167.632584 218.470627,168.937088 213.589584,173.896637 
	C208.807388,178.755753 207.644852,185.534561 210.505859,191.877945 
	C213.405975,198.308044 219.192596,201.286484 228.690567,200.592651 
M386.601898,226.602066 
	C391.284851,234.110138 397.587158,237.037811 404.923401,235.113144 
	C411.784485,233.313126 416.797638,227.290421 416.969360,220.371094 
	C417.138092,213.573059 413.955719,208.550842 408.087097,205.368668 
	C402.691681,202.443085 395.393341,203.358215 390.812469,207.423035 
	C385.100037,212.491943 383.601166,218.717651 386.601898,226.602066 
M411.305481,167.870941 
	C418.803253,160.015396 418.893799,150.427521 411.533203,143.762054 
	C404.902557,137.757568 394.779907,138.472015 388.840271,145.363678 
	C383.714355,151.311157 383.691833,159.880157 388.786255,165.926849 
	C394.281342,172.449066 402.628082,173.359695 411.305481,167.870941 
M444.407349,198.896500 
	C449.967010,191.635056 450.492004,184.455688 445.909149,178.359314 
	C441.423035,172.391647 433.891937,170.085953 427.286224,172.828873 
	C421.059540,175.414398 417.419922,180.148544 417.072266,186.899185 
	C416.736237,193.423965 419.622681,198.528503 425.407440,201.636688 
	C431.991150,205.174133 438.193054,204.084091 444.407349,198.896500 
M359.260925,200.358994 
	C366.745728,204.778137 372.850616,204.783829 378.719818,200.377106 
	C383.623779,196.695099 386.061188,189.799805 384.519836,183.969147 
	C382.836792,177.602509 377.377502,172.613800 371.362518,171.946014 
	C364.145630,171.144775 357.849884,174.375641 354.773315,180.459229 
	C351.368500,187.192047 352.652588,193.583054 359.260925,200.358994 
z"/>
<path fill="#A5C3DC" opacity="1.000000" stroke="none" 
	d="
M276.940979,321.433319 
	C286.204712,321.048553 295.527435,320.852051 304.842072,321.046326 
	C318.774414,321.336853 329.200775,328.791016 338.585602,338.167450 
	C352.948547,352.517578 367.284027,366.895203 381.662933,381.229309 
	C405.886688,405.377563 443.755341,407.741486 470.737244,386.719696 
	C485.467468,375.243256 493.802948,360.044983 496.615570,341.309387 
	C497.849762,357.999512 497.355164,374.810638 488.931152,390.240601 
	C476.624786,412.781769 458.216705,427.410767 432.635590,431.950928 
	C408.941528,436.156158 387.324890,430.853790 367.992706,416.471649 
	C366.935303,415.684967 366.099274,414.601440 365.157043,413.659210 
	C338.645538,387.146912 312.065247,360.702637 285.704163,334.041656 
	C282.228546,330.526489 279.871490,325.905365 276.940979,321.433319 
z"/>
<path fill="#A5C3DC" opacity="1.000000" stroke="none" 
	d="
M17.075691,341.450256 
	C19.361929,352.316132 22.978048,362.976044 29.687559,372.629974 
	C52.633224,405.645111 102.062637,410.721100 130.826202,382.714935 
	C147.764557,366.222595 164.590363,349.614227 181.409866,333.000397 
	C189.408447,325.099640 199.179398,321.447021 210.177994,321.064240 
	C218.830093,320.763123 227.501617,321.019562 236.639587,321.049194 
	C234.854111,324.770111 233.204605,329.074005 230.237778,332.076019 
	C202.967270,359.669800 175.626465,387.198822 147.950638,414.384735 
	C138.265076,423.898865 125.864113,429.391510 112.678398,431.793671 
	C94.489883,435.107300 76.422546,433.807343 59.741608,424.900848 
	C37.038441,412.778839 22.483274,394.194794 18.171829,368.601562 
	C16.703630,359.886139 17.323400,350.818939 17.075691,341.450256 
z"/>
<path fill="#A5C3DC" opacity="1.000000" stroke="none" 
	d="
M320.555328,97.026947 
	C316.985474,109.013031 312.948273,120.973824 308.905823,132.932831 
	C306.208496,140.912445 300.574463,144.981171 292.025238,144.990479 
	C268.736359,145.015823 245.447418,145.013062 222.158539,144.992203 
	C213.290115,144.984253 207.831451,141.018433 205.027725,132.672287 
	C201.113281,121.019806 197.196564,109.368088 193.129242,97.384590 
	C235.347046,97.035721 277.716400,97.018311 320.555328,97.026947 
z"/>
<path fill="#555A6E" opacity="1.000000" stroke="none" 
	d="
M193.049240,96.483429 
	C172.003159,96.921104 150.929413,96.947105 129.384430,96.917633 
	C127.819252,87.882362 136.531067,80.163895 145.429703,80.814247 
	C156.164276,81.598770 166.999985,80.992119 177.791885,81.002541 
	C186.986343,81.011429 192.850403,86.823975 193.049240,96.483429 
z"/>
<path fill="#555A6E" opacity="1.000000" stroke="none" 
	d="
M385.055420,96.452713 
	C364.013367,96.901184 342.940308,96.940361 321.395203,96.937622 
	C319.767761,87.972763 328.492096,80.161484 337.398529,80.813866 
	C348.133423,81.600197 358.969940,80.992424 369.762451,81.002449 
	C378.962982,81.010994 384.840668,86.813461 385.055420,96.452713 
z"/>
<path fill="#473E4D" opacity="1.000000" stroke="none" 
	d="
M150.229706,175.887009 
	C158.198151,199.421402 146.021484,223.092163 123.243607,228.973999 
	C99.991638,234.978241 77.562889,220.181702 73.418442,196.103653 
	C70.322151,178.115143 81.408913,159.443039 99.079308,152.886108 
	C117.160210,146.176880 137.374252,153.231720 147.206192,169.732498 
	C148.306854,171.579727 149.139069,173.586899 150.229706,175.887009 
M122.778748,168.438477 
	C119.235123,167.690231 115.615608,166.049850 112.160622,166.343735 
	C94.475853,167.847885 84.721649,183.648666 91.167442,199.988190 
	C94.380760,208.133636 100.906120,212.635040 109.252075,213.850769 
	C118.364716,215.178192 126.409813,212.422745 132.096222,204.760117 
	C141.414886,192.202957 136.766266,175.223618 122.778748,168.438477 
z"/>
<path fill="#473E4D" opacity="1.000000" stroke="none" 
	d="
M309.839722,226.634140 
	C334.826935,219.411377 360.867096,237.622070 360.971252,265.104126 
	C361.048096,285.378052 345.743622,302.311859 325.330566,304.808716 
	C306.142670,307.155701 287.284790,294.165985 282.295197,275.165009 
	C277.179138,255.682373 287.442596,235.355087 306.162201,227.916321 
	C307.241272,227.487518 308.356049,227.148483 309.839722,226.634140 
M299.076263,274.200043 
	C299.600281,275.238770 300.083984,276.300201 300.654724,277.312592 
	C305.242523,285.450500 316.635284,290.694336 325.341980,288.693237 
	C335.881561,286.270874 344.463470,276.710419 344.987549,266.807617 
	C345.521759,256.713837 340.039093,247.751877 330.585571,243.266159 
	C322.083801,239.232056 312.360260,240.654968 305.549194,246.929916 
	C297.274292,254.553513 295.070282,263.166107 299.076263,274.200043 
z"/>
<path fill="#A5C3DC" opacity="1.000000" stroke="none" 
	d="
M184.249084,303.984192 
	C164.297943,298.322815 152.743744,283.226654 153.002853,263.670288 
	C153.226166,246.818176 166.054337,230.598999 182.526596,226.342285 
	C199.771210,221.885986 218.417572,229.295288 227.020401,244.088013 
	C235.189560,258.135040 235.327560,272.362274 226.799896,286.147858 
	C218.696686,299.247253 206.353470,305.166382 191.052231,304.950409 
	C188.919968,304.920319 186.795410,304.343536 184.249084,303.984192 
M214.296021,277.004150 
	C222.561386,276.872040 224.975037,274.443481 225.003265,266.225281 
	C225.008423,264.725372 225.049271,263.223572 224.991699,261.725800 
	C224.775360,256.096863 221.892288,253.178986 216.253189,253.018753 
	C212.647339,252.916290 209.036209,252.999542 205.001846,252.999542 
	C205.001846,248.861725 205.072632,245.393906 204.986084,241.930038 
	C204.838348,236.017853 201.924057,233.166183 195.957733,233.006317 
	C193.959244,232.952774 191.956726,232.949387 189.958466,233.007202 
	C184.033340,233.178574 181.145798,236.058350 181.012650,242.007599 
	C180.932571,245.586411 180.997925,249.168488 180.997925,252.995865 
	C177.315399,252.995865 174.491943,252.987518 171.668533,252.997467 
	C163.504288,253.026230 161.022034,255.540237 160.996689,263.796783 
	C160.992081,265.296692 160.950211,266.798553 161.008560,268.296265 
	C161.227371,273.912445 164.119888,276.824127 169.768387,276.981720 
	C173.372375,277.082306 176.981445,277.000580 180.160339,277.000580 
	C180.641144,277.831451 180.787994,277.968048 180.791290,278.108093 
	C180.869583,281.435822 180.901703,284.764893 181.004929,288.091766 
	C181.187958,293.990814 184.085770,296.836639 190.063431,296.993744 
	C192.061966,297.046265 194.064590,297.052673 196.062668,296.992249 
	C201.967026,296.813721 204.852951,293.917114 204.987122,287.957886 
	C205.067627,284.382050 205.001907,280.802979 205.001907,277.004272 
	C208.379150,277.004272 210.872528,277.004272 214.296021,277.004150 
z"/>
<path fill="#A6C4DC" opacity="1.000000" stroke="none" 
	d="
M300.250885,196.251007 
	C292.562317,202.948425 283.538239,202.548157 277.006348,195.494919 
	C271.251404,189.280640 271.648956,179.734573 277.919617,173.566528 
	C283.940613,167.644073 293.437347,167.398315 299.494507,173.008240 
	C306.547089,179.540100 306.947693,188.566910 300.250885,196.251007 
z"/>
<path fill="#A6C4DC" opacity="1.000000" stroke="none" 
	d="
M228.293640,200.710953 
	C219.192596,201.286484 213.405975,198.308044 210.505859,191.877945 
	C207.644852,185.534561 208.807388,178.755753 213.589584,173.896637 
	C218.470627,168.937088 225.018738,167.632584 231.479660,170.332611 
	C237.330444,172.777664 241.160690,178.870575 240.996277,185.471024 
	C240.834137,191.979950 236.839249,197.552292 230.589096,199.969223 
	C229.968674,200.209137 229.323990,200.386337 228.293640,200.710953 
z"/>
<path fill="#03D2D2" opacity="1.000000" stroke="none" 
	d="
M386.418274,226.256073 
	C383.601166,218.717651 385.100037,212.491943 390.812469,207.423035 
	C395.393341,203.358215 402.691681,202.443085 408.087097,205.368668 
	C413.955719,208.550842 417.138092,213.573059 416.969360,220.371094 
	C416.797638,227.290421 411.784485,233.313126 404.923401,235.113144 
	C397.587158,237.037811 391.284851,234.110138 386.418274,226.256073 
z"/>
<path fill="#03D2D2" opacity="1.000000" stroke="none" 
	d="
M411.010498,168.095123 
	C402.628082,173.359695 394.281342,172.449066 388.786255,165.926849 
	C383.691833,159.880157 383.714355,151.311157 388.840271,145.363678 
	C394.779907,138.472015 404.902557,137.757568 411.533203,143.762054 
	C418.893799,150.427521 418.803253,160.015396 411.010498,168.095123 
z"/>
<path fill="#FE7092" opacity="1.000000" stroke="none" 
	d="
M444.142517,199.155151 
	C438.193054,204.084091 431.991150,205.174133 425.407440,201.636688 
	C419.622681,198.528503 416.736237,193.423965 417.072266,186.899185 
	C417.419922,180.148544 421.059540,175.414398 427.286224,172.828873 
	C433.891937,170.085953 441.423035,172.391647 445.909149,178.359314 
	C450.492004,184.455688 449.967010,191.635056 444.142517,199.155151 
z"/>
<path fill="#FE7092" opacity="1.000000" stroke="none" 
	d="
M358.970032,200.128693 
	C352.652588,193.583054 351.368500,187.192047 354.773315,180.459229 
	C357.849884,174.375641 364.145630,171.144775 371.362518,171.946014 
	C377.377502,172.613800 382.836792,177.602509 384.519836,183.969147 
	C386.061188,189.799805 383.623779,196.695099 378.719818,200.377106 
	C372.850616,204.783829 366.745728,204.778137 358.970032,200.128693 
z"/>
<path fill="#555A6E" opacity="1.000000" stroke="none" 
	d="
M123.124603,168.605988 
	C136.766266,175.223618 141.414886,192.202957 132.096222,204.760117 
	C126.409813,212.422745 118.364716,215.178192 109.252075,213.850769 
	C100.906120,212.635040 94.380760,208.133636 91.167442,199.988190 
	C84.721649,183.648666 94.475853,167.847885 112.160622,166.343735 
	C115.615608,166.049850 119.235123,167.690231 123.124603,168.605988 
z"/>
<path fill="#555A6E" opacity="1.000000" stroke="none" 
	d="
M298.914368,273.844604 
	C295.070282,263.166107 297.274292,254.553513 305.549194,246.929916 
	C312.360260,240.654968 322.083801,239.232056 330.585571,243.266159 
	C340.039093,247.751877 345.521759,256.713837 344.987549,266.807617 
	C344.463470,276.710419 335.881561,286.270874 325.341980,288.693237 
	C316.635284,290.694336 305.242523,285.450500 300.654724,277.312592 
	C300.083984,276.300201 299.600281,275.238770 298.914368,273.844604 
z"/>
<path fill="#565B6F" opacity="1.000000" stroke="none" 
	d="
M213.830963,277.004211 
	C210.872528,277.004272 208.379150,277.004272 205.001907,277.004272 
	C205.001907,280.802979 205.067627,284.382050 204.987122,287.957886 
	C204.852951,293.917114 201.967026,296.813721 196.062668,296.992249 
	C194.064590,297.052673 192.061966,297.046265 190.063431,296.993744 
	C184.085770,296.836639 181.187958,293.990814 181.004929,288.091766 
	C180.901703,284.764893 180.869583,281.435822 180.791290,278.108093 
	C180.787994,277.968048 180.641144,277.831451 180.160339,277.000580 
	C176.981445,277.000580 173.372375,277.082306 169.768387,276.981720 
	C164.119888,276.824127 161.227371,273.912445 161.008560,268.296265 
	C160.950211,266.798553 160.992081,265.296692 160.996689,263.796783 
	C161.022034,255.540237 163.504288,253.026230 171.668533,252.997467 
	C174.491943,252.987518 177.315399,252.995865 180.997925,252.995865 
	C180.997925,249.168488 180.932571,245.586411 181.012650,242.007599 
	C181.145798,236.058350 184.033340,233.178574 189.958466,233.007202 
	C191.956726,232.949387 193.959244,232.952774 195.957733,233.006317 
	C201.924057,233.166183 204.838348,236.017853 204.986084,241.930038 
	C205.072632,245.393906 205.001846,248.861725 205.001846,252.999542 
	C209.036209,252.999542 212.647339,252.916290 216.253189,253.018753 
	C221.892288,253.178986 224.775360,256.096863 224.991699,261.725800 
	C225.049271,263.223572 225.008423,264.725372 225.003265,266.225281 
	C224.975037,274.443481 222.561386,276.872040 213.830963,277.004211 
z"/>
</svg>