<svg width="24" height="24" viewBox="0 0 24 24" fill="none" xmlns="http://www.w3.org/2000/svg">
<path d="M22.4743 18.7506L21.6643 12.4349C21.5533 11.4245 21.0962 10.4837 20.3704 9.77213C19.8715 9.29792 19.266 8.95057 18.6048 8.75934C17.9437 8.56811 17.2462 8.53861 16.5713 8.67332C15.4374 8.81525 14.7273 9.63989 13.736 10.0122C12.6717 10.3968 11.5102 10.4192 10.4319 10.076C9.36566 9.73486 8.62123 8.82485 7.43154 8.67333C6.756 8.53846 6.05795 8.56788 5.39615 8.7591C4.73435 8.95033 4.12819 9.29777 3.62869 9.77216C2.90393 10.4834 2.44577 11.4222 2.33105 12.4312L1.52472 18.7506C1.44636 19.3877 1.58211 20.0328 1.9106 20.5843C2.2391 21.1358 2.74168 21.5624 3.33923 21.797C3.93678 22.0315 4.59536 22.0607 5.2113 21.8799C5.82724 21.699 6.36556 21.3185 6.74151 20.7982L8.30166 18.6118C8.07725 18.4463 7.89734 18.2278 7.77801 17.9758C7.65869 17.7239 7.60367 17.4462 7.61787 17.1678C7.63208 16.8893 7.71507 16.6187 7.85942 16.3802C8.00377 16.1417 8.20498 15.9426 8.44507 15.8008C8.68515 15.6591 8.95663 15.579 9.23522 15.5678C9.5138 15.5566 9.79082 15.6147 10.0415 15.7367C10.2922 15.8588 10.5087 16.041 10.6717 16.2672C10.8348 16.4934 10.9392 16.7565 10.9757 17.0329H13.0196C13.0559 16.7567 13.16 16.4938 13.3227 16.2677C13.4854 16.0416 13.7016 15.8594 13.9519 15.7372C14.2023 15.6151 14.479 15.5569 14.7573 15.5678C15.0356 15.5787 15.3069 15.6584 15.5469 15.7998C15.7869 15.9412 15.9882 16.1398 16.1326 16.378C16.2771 16.6161 16.3603 16.8863 16.3749 17.1645C16.3894 17.4427 16.3348 17.7201 16.2159 17.972C16.097 18.2239 15.9176 18.4424 15.6936 18.608L17.2576 20.7983C19.0069 23.2272 22.8499 21.7146 22.4743 18.7506ZM8.08788 13.2263H6.96277V14.3514C6.95897 14.4483 6.91779 14.54 6.84787 14.6072C6.77796 14.6744 6.68473 14.712 6.58774 14.712C6.49074 14.712 6.39752 14.6744 6.3276 14.6072C6.25768 14.54 6.21651 14.4483 6.2127 14.3514V13.2263H5.08763C4.99034 13.223 4.89813 13.182 4.83046 13.1121C4.76279 13.0421 4.72497 12.9486 4.72496 12.8512C4.72496 12.7539 4.76278 12.6603 4.83044 12.5904C4.89811 12.5204 4.99031 12.4794 5.0876 12.4762H6.2127V11.3511C6.21625 11.254 6.25732 11.162 6.32726 11.0946C6.3972 11.0272 6.49057 10.9895 6.58772 10.9895C6.68488 10.9895 6.77825 11.0272 6.84819 11.0946C6.91814 11.162 6.95921 11.2539 6.96277 11.351V12.4761H8.08788C8.18646 12.4775 8.28054 12.5176 8.34977 12.5878C8.41899 12.658 8.45781 12.7526 8.45781 12.8512C8.45781 12.9498 8.41899 13.0444 8.34977 13.1146C8.28054 13.1848 8.18646 13.2249 8.08788 13.2263ZM12.9484 14.4151C12.9161 14.4722 12.8692 14.5197 12.8126 14.5527C12.7559 14.5856 12.6914 14.6029 12.6258 14.6027H11.0207C10.9222 14.6011 10.8284 14.5609 10.7593 14.4907C10.6902 14.4206 10.6515 14.3261 10.6515 14.2276C10.6515 14.1291 10.6902 14.0346 10.7593 13.9645C10.8284 13.8943 10.9223 13.8541 11.0207 13.8526H12.6258C12.6914 13.8531 12.7557 13.8708 12.8124 13.9039C12.869 13.937 12.9159 13.9844 12.9486 14.0413C12.9812 14.0982 12.9984 14.1626 12.9983 14.2282C12.9983 14.2938 12.9811 14.3583 12.9484 14.4151ZM13.5409 12.5437C13.5087 12.6008 13.4618 12.6483 13.4051 12.6812C13.3484 12.7142 13.284 12.7314 13.2184 12.7312H10.4281C10.3297 12.7297 10.2358 12.6895 10.1667 12.6193C10.0976 12.5492 10.0589 12.4546 10.0589 12.3562C10.0589 12.2577 10.0976 12.1632 10.1667 12.093C10.2358 12.0228 10.3297 11.9827 10.4282 11.9811H13.2184C13.284 11.9817 13.3482 11.9995 13.4048 12.0326C13.4614 12.0658 13.5083 12.1131 13.5409 12.17C13.5735 12.2269 13.5907 12.2913 13.5907 12.3568C13.5907 12.4224 13.5735 12.4868 13.5409 12.5437ZM15.8962 13.32C15.773 13.3183 15.6555 13.2681 15.569 13.1804C15.4825 13.0926 15.434 12.9744 15.434 12.8512C15.434 12.728 15.4825 12.6098 15.569 12.522C15.6555 12.4343 15.773 12.3842 15.8962 12.3824C16.0194 12.3842 16.1369 12.4343 16.2234 12.522C16.3099 12.6098 16.3584 12.728 16.3584 12.8512C16.3584 12.9744 16.3099 13.0927 16.2234 13.1804C16.1369 13.2681 16.0194 13.3183 15.8962 13.32ZM17.1676 14.5952C17.0444 14.5934 16.9268 14.5432 16.8403 14.4555C16.7538 14.3678 16.7054 14.2495 16.7054 14.1263C16.7054 14.0031 16.7539 13.8849 16.8403 13.7972C16.9268 13.7095 17.0444 13.6593 17.1676 13.6576C17.2907 13.6594 17.4081 13.7097 17.4945 13.7974C17.5809 13.8851 17.6293 14.0032 17.6293 14.1264C17.6293 14.2495 17.5808 14.3676 17.4945 14.4553C17.4081 14.5431 17.2907 14.5933 17.1676 14.5952ZM17.1676 12.0449C17.0444 12.0431 16.9268 11.993 16.8403 11.9052C16.7538 11.8175 16.7054 11.6993 16.7054 11.5761C16.7054 11.4529 16.7539 11.3346 16.8403 11.2469C16.9268 11.1592 17.0444 11.109 17.1676 11.1073C17.2907 11.1092 17.4081 11.1594 17.4945 11.2471C17.5809 11.3348 17.6293 11.453 17.6293 11.5761C17.6293 11.6992 17.5808 11.8174 17.4945 11.9051C17.4081 11.9928 17.2907 12.043 17.1676 12.0449ZM18.4427 13.32C18.3195 13.3183 18.202 13.2681 18.1155 13.1804C18.029 13.0926 17.9805 12.9744 17.9805 12.8512C17.9805 12.728 18.029 12.6098 18.1155 12.522C18.202 12.4343 18.3195 12.3842 18.4427 12.3824C18.5659 12.3842 18.6834 12.4343 18.7699 12.522C18.8564 12.6098 18.9049 12.728 18.9049 12.8512C18.9049 12.9744 18.8564 13.0927 18.7699 13.1804C18.6834 13.2681 18.5659 13.3183 18.4427 13.32ZM10.1956 9.16838V8.86083C10.1961 8.58745 10.3049 8.3254 10.4982 8.13209C10.6915 7.93879 10.9536 7.82997 11.227 7.82949H11.6468V7.33535C11.6468 6.63801 12.109 6.07069 12.6771 6.07069H13.1624C13.5191 6.01834 13.5187 5.11178 13.1624 5.05948H11.6252C11.0572 5.05948 10.595 4.49215 10.595 3.79482V2.36246C10.5965 2.26397 10.6366 2.17003 10.7068 2.10091C10.777 2.03179 10.8715 1.99305 10.97 1.99304C11.0685 1.99304 11.163 2.03178 11.2332 2.10089C11.3034 2.17 11.3436 2.26395 11.3451 2.36243V3.79482C11.3451 4.10429 11.5135 4.30939 11.6252 4.30939H13.1624C14.514 4.35702 14.5126 6.77365 13.1624 6.82077H12.6771C12.5654 6.82077 12.3969 7.02587 12.3969 7.33536V7.82947H12.8621C13.1355 7.82995 13.3976 7.93876 13.5909 8.13207C13.7842 8.32538 13.893 8.58743 13.8935 8.86081V9.12334C13.3205 9.40964 12.6902 9.56242 12.0497 9.57021C11.4093 9.578 10.7754 9.44065 10.1956 9.16838ZM10.1281 16.8041C10.2391 17.0141 10.2664 17.2584 10.2047 17.4877C10.1429 17.7171 9.99662 17.9146 9.7952 18.0405C9.59377 18.1664 9.35216 18.2114 9.11892 18.1664C8.88569 18.1214 8.67813 17.9898 8.53797 17.798C8.46175 17.6937 8.40784 17.5748 8.37961 17.4487C8.35138 17.3227 8.34943 17.1922 8.3739 17.0653C8.39836 16.9385 8.44871 16.818 8.5218 16.7115C8.59488 16.605 8.68914 16.5146 8.79869 16.4462C8.90824 16.3777 9.03072 16.3325 9.1585 16.3135C9.28627 16.2945 9.4166 16.302 9.54135 16.3356C9.66609 16.3692 9.78257 16.4281 9.88353 16.5087C9.98448 16.5893 10.0677 16.6899 10.1281 16.8041ZM14.6923 18.1917C14.4454 18.1891 14.2095 18.0891 14.0358 17.9136C13.8622 17.738 13.7648 17.5011 13.7648 17.2542C13.7648 17.0072 13.8622 16.7703 14.0358 16.5947C14.2095 16.4192 14.4454 16.3192 14.6923 16.3166C14.9392 16.3192 15.1751 16.4192 15.3488 16.5947C15.5224 16.7702 15.6198 17.0072 15.6199 17.2541C15.6199 17.5011 15.5224 17.738 15.3488 17.9136C15.1751 18.0891 14.9392 18.1891 14.6923 18.1917ZM4.96006 8.10698L4.96008 7.72445C4.96346 7.4479 5.04783 7.17841 5.20275 6.94931C5.35767 6.72021 5.57634 6.54153 5.83173 6.43539C6.08711 6.32924 6.36801 6.30028 6.63968 6.35208C6.91135 6.40388 7.16188 6.53417 7.36029 6.72684C7.51685 6.89328 7.63495 7.09206 7.70624 7.30916C7.77753 7.52625 7.80027 7.75635 7.77285 7.9832C7.52631 7.92458 7.2755 7.88571 7.02278 7.86695C6.326 7.80308 5.62355 7.88482 4.96006 8.10698ZM16.2299 7.9832C16.0898 5.69314 19.3176 5.82635 19.0427 8.10698C18.1345 7.8069 17.161 7.76406 16.2299 7.9832Z" fill="url(#paint0_linear_1_34)"/>
<defs>
<linearGradient id="paint0_linear_1_34" x1="1.5" y1="12" x2="22.5" y2="12" gradientUnits="userSpaceOnUse">
<stop stop-color="#00C0FF"/>
<stop offset="1" stop-color="#5558FF"/>
</linearGradient>
</defs>
</svg>
