<svg version="1.1" id="Layer_1" xmlns="http://www.w3.org/2000/svg" xmlns:xlink="http://www.w3.org/1999/xlink" x="0px" y="0px"
	 width="100%" viewBox="0 0 512 512" enable-background="new 0 0 512 512" xml:space="preserve">
<path fill="#000000" opacity="1.000000" stroke="none" 
	d="
M513.000000,188.000000 
	C513.000000,296.640259 513.000000,404.780518 513.000000,512.960388 
	C342.401398,512.960388 171.802780,512.960388 1.102087,512.960388 
	C1.102087,342.443115 1.102087,171.886124 1.102087,1.164572 
	C171.666534,1.164572 342.333252,1.164572 513.000000,1.164572 
	C513.000000,63.197178 513.000000,125.348587 513.000000,188.000000 
M263.921722,397.985413 
	C331.816101,397.985413 399.710480,397.985413 467.793823,397.985413 
	C467.793823,392.858582 467.793823,388.124359 467.793823,382.999390 
	C460.143921,382.999390 452.692688,383.056030 445.242859,382.979523 
	C440.252747,382.928284 437.230164,380.422577 436.854279,376.282043 
	C436.409821,371.386108 439.621490,368.092560 445.174866,368.024078 
	C452.753784,367.930573 460.334717,368.000763 467.648682,368.000763 
	C467.648682,362.560944 467.648682,357.823883 467.648682,353.000153 
	C402.359192,353.000153 337.420807,352.997833 272.482422,353.007294 
	C269.322693,353.007751 266.162964,353.111694 262.076599,353.013702 
	C208.301010,353.009155 154.525436,353.004028 100.749855,353.003540 
	C99.418503,353.003510 98.082024,352.988800 96.756630,353.092316 
	C87.783150,353.793030 80.007973,359.873596 78.039429,368.000000 
	C79.900627,368.000000 81.685997,368.000000 83.471367,368.000000 
	C138.245911,368.000000 193.020447,367.992554 247.794983,368.025848 
	C250.103165,368.027252 252.411102,368.407379 255.238693,369.025085 
	C260.537781,373.944061 260.392700,377.641174 253.835236,382.617493 
	C247.941559,382.617493 242.047867,382.617493 236.320007,382.617493 
	C236.320007,388.376404 236.320007,393.102722 236.320007,397.832031 
	C245.424774,397.832031 254.209839,397.832031 263.921722,397.985413 
M196.959061,277.968872 
	C278.450439,277.979279 359.941803,277.989471 441.433167,278.000366 
	C449.388336,278.001434 453.131805,280.505463 452.970154,285.710907 
	C452.814392,290.724731 449.239838,292.999298 441.498047,292.999390 
	C363.672852,293.000305 285.847626,292.998779 208.022415,293.006744 
	C206.026093,293.006958 204.029755,293.107727 201.099960,293.028748 
	C166.600784,293.020477 132.101517,292.969177 97.602585,293.056763 
	C93.127579,293.068115 88.597130,293.469788 84.189346,294.243317 
	C46.482555,300.860687 17.464571,333.709503 16.064981,371.192474 
	C14.567392,411.300018 40.279228,446.109314 78.736221,455.512146 
	C85.846207,457.250549 93.295700,457.600433 100.747429,458.612793 
	C100.747429,442.654449 100.747429,428.050171 100.747429,413.186371 
	C99.051430,413.092163 97.589890,413.021118 96.129730,412.928314 
	C76.739738,411.695831 61.217827,395.382324 61.012920,376.024017 
	C60.791546,355.109680 77.402084,338.114838 98.568825,338.044373 
	C138.900848,337.910126 179.233627,338.014465 219.566101,337.990479 
	C227.726410,337.985626 235.886658,337.851196 244.971771,337.893280 
	C246.970215,337.928864 248.968674,337.995392 250.967117,337.995544 
	C324.769257,338.000854 398.571411,338.002899 472.373566,337.997864 
	C489.100494,337.996735 497.996918,329.134003 497.997772,312.469391 
	C498.002411,222.174210 498.002167,131.879028 497.998108,41.583836 
	C497.997345,24.833803 489.175964,16.003042 472.441162,16.001944 
	C398.639008,15.997095 324.836853,15.997830 251.034714,16.009291 
	C248.705460,16.009653 246.376236,16.149008 243.118423,16.040169 
	C222.794144,16.026587 202.469742,15.972234 182.145691,16.035852 
	C178.349716,16.047737 174.684158,15.321025 173.511414,11.560396 
	C172.421951,8.066771 170.474686,7.793308 167.608780,7.970774 
	C165.285309,8.114650 162.912323,7.768775 160.627441,8.098439 
	C159.443512,8.269256 157.741028,9.211021 157.410675,10.188888 
	C155.851166,14.805232 152.575394,16.055653 148.117767,16.032753 
	C131.791885,15.948884 115.465172,15.953551 99.139061,16.009130 
	C52.539928,16.167759 16.064102,52.559868 16.019310,99.094406 
	C15.949072,172.062927 15.999006,245.031540 16.009424,318.000122 
	C16.009621,319.373596 16.150904,320.747070 16.267630,322.871796 
	C39.234001,290.055878 70.373924,276.675018 109.089417,277.819824 
	C138.046280,278.675995 167.051849,277.885468 196.959061,277.968872 
M370.500000,413.000305 
	C325.760284,413.000305 281.020569,413.000305 236.240509,413.000305 
	C236.240509,428.302155 236.240509,442.896942 236.240509,457.999695 
	C238.423218,457.999695 240.374359,457.999664 242.325485,457.999664 
	C285.475952,457.999664 328.626678,458.069092 371.776672,457.923553 
	C378.118530,457.902161 383.585388,458.355591 384.699219,465.847717 
	C389.709503,465.847717 394.188263,465.847717 398.935791,465.847717 
	C400.006073,458.966522 404.653961,457.858948 410.685974,457.918549 
	C431.842651,458.127563 453.002777,457.958618 474.161285,458.025299 
	C480.063019,458.043915 485.346375,456.485077 489.879059,452.691071 
	C497.232819,446.535736 499.835144,436.774506 496.593018,427.823914 
	C493.405487,419.024048 485.135529,413.059814 475.460876,413.037842 
	C440.807373,412.959137 406.153656,413.002869 370.500000,413.000305 
M152.642776,474.145752 
	C155.240540,470.682373 157.835251,467.216705 160.436646,463.756042 
	C166.284836,455.976349 170.668167,455.921600 176.411682,463.568909 
	C183.311035,472.755188 190.178177,481.965759 197.112411,491.125580 
	C198.309769,492.707245 199.577560,494.351288 201.148849,495.511353 
	C205.078156,498.412292 209.485611,498.904236 213.875427,496.700928 
	C219.016541,494.120514 221.034973,489.677277 221.025681,484.002899 
	C220.972260,451.347931 221.001892,418.692902 220.987427,386.037872 
	C220.987015,385.098785 220.809097,384.159790 220.724075,383.320618 
	C185.666214,383.320618 150.943863,383.320618 116.000282,383.320618 
	C116.000282,417.110504 115.984932,450.580170 116.012955,484.049805 
	C116.018715,490.925598 118.903427,495.253113 124.561203,497.234406 
	C130.105316,499.175934 135.091446,497.421509 139.311386,491.891083 
	C143.654037,486.199799 147.903061,480.437073 152.642776,474.145752 
M80.847473,382.995697 
	C79.918663,383.042389 78.989853,383.089081 77.986359,383.139526 
	C80.721458,392.786682 90.152107,398.689880 100.792694,397.583069 
	C100.792694,392.861847 100.792694,388.126160 100.792694,382.995636 
	C94.318542,382.995636 88.047806,382.995636 80.847473,382.995697 
z"/>
<path fill="#8288CB" opacity="1.000000" stroke="none" 
	d="
M244.046997,16.223568 
	C246.376236,16.149008 248.705460,16.009653 251.034714,16.009291 
	C324.836853,15.997830 398.639008,15.997095 472.441162,16.001944 
	C489.175964,16.003042 497.997345,24.833803 497.998108,41.583836 
	C498.002167,131.879028 498.002411,222.174210 497.997772,312.469391 
	C497.996918,329.134003 489.100494,337.996735 472.373566,337.997864 
	C398.571411,338.002899 324.769257,338.000854 250.967117,337.995544 
	C248.968674,337.995392 246.970215,337.928864 244.435883,337.507812 
	C237.191788,332.374268 230.129898,328.047363 223.857712,322.780151 
	C214.271500,314.729919 206.918762,304.795258 202.033432,293.161591 
	C204.029755,293.107727 206.026093,293.006958 208.022415,293.006744 
	C285.847626,292.998779 363.672852,293.000305 441.498047,292.999390 
	C449.239838,292.999298 452.814392,290.724731 452.970154,285.710907 
	C453.131805,280.505463 449.388336,278.001434 441.433167,278.000366 
	C359.941803,277.989471 278.450439,277.979279 196.484863,277.492645 
	C195.342621,273.281921 194.240921,269.565369 194.085251,265.809631 
	C193.550217,252.900558 193.346268,239.977737 193.364532,226.911407 
	C194.997574,226.442108 196.295532,226.166855 197.564728,225.793732 
	C207.104370,222.989182 214.108185,215.023544 214.909973,206.096024 
	C215.697510,197.327408 210.806671,189.512985 201.489822,184.773788 
	C198.995026,183.504745 196.419800,182.393860 193.900314,180.737732 
	C194.320969,176.477478 194.722809,172.689850 195.489441,168.936905 
	C197.463226,169.754929 199.131744,170.436996 200.669922,171.340836 
	C205.116196,173.953430 209.111694,173.448349 211.627396,169.849487 
	C214.226395,166.131470 213.421494,161.489807 208.778961,158.873398 
	C203.801804,156.068420 198.294342,154.204391 193.021957,151.465744 
	C193.025574,149.006424 193.140060,147.003128 193.002121,145.017380 
	C192.698364,140.644272 192.267227,136.280014 192.090729,131.645630 
	C204.122314,123.024109 206.749878,110.638916 199.025635,98.694084 
	C198.239502,92.473427 200.822067,86.148834 195.939056,80.701462 
	C196.047852,78.776985 195.878586,77.210342 196.280533,75.807358 
	C201.931656,56.082741 212.333832,39.495213 228.891785,27.075390 
	C233.860977,23.348074 238.990784,19.834864 244.046997,16.223568 
M311.083588,107.273285 
	C309.328369,114.477768 311.244751,120.845329 315.947235,126.298454 
	C328.378326,140.713837 352.769714,140.668533 365.133301,126.239235 
	C369.321075,121.351784 371.217377,115.612617 370.199310,109.127502 
	C368.281891,96.913879 357.585693,88.264656 342.401276,86.736397 
	C336.488281,78.867264 328.547028,75.870766 319.176666,78.370750 
	C310.435944,80.702751 305.153076,86.817131 303.700928,95.920486 
	C302.703278,102.175018 304.686646,104.991516 311.083588,107.273285 
M316.564117,226.949768 
	C317.562927,226.927795 318.564941,226.949997 319.560028,226.877350 
	C341.905182,225.246170 357.514252,205.405533 354.048462,183.051117 
	C350.778076,161.957001 329.554077,148.018021 308.300446,153.005859 
	C290.198059,157.254135 278.505951,173.900146 279.929901,193.396866 
	C281.232849,211.236862 296.250702,225.328720 316.564117,226.949768 
M417.171570,173.659485 
	C415.952179,161.173157 406.471069,152.279861 393.956879,151.997742 
	C388.792877,151.881332 383.623260,151.901382 378.458038,151.979340 
	C372.822754,152.064407 369.998322,154.674774 369.975891,160.149307 
	C369.895966,179.648666 369.869965,199.149231 370.052460,218.647186 
	C370.072174,220.752655 371.013947,223.628159 372.547729,224.741013 
	C374.408356,226.091049 378.013184,227.110535 379.669342,226.170166 
	C381.999420,224.847137 384.297150,221.756210 384.705536,219.125809 
	C385.488861,214.080109 384.933472,208.826569 384.933472,202.494370 
	C391.314087,209.741562 396.712982,215.861526 402.097961,221.993744 
	C406.885498,227.445572 410.952332,228.396652 414.786865,224.935608 
	C418.447021,221.631927 417.933472,217.243164 413.241699,211.891525 
	C409.077850,207.142105 404.900696,202.404343 400.502960,197.403915 
	C410.676788,192.888138 417.290314,186.096161 417.171570,173.659485 
M463.968933,214.357300 
	C461.708282,198.195831 465.855072,183.952957 476.595093,171.604584 
	C478.216278,169.740631 479.379486,167.471680 480.706573,165.359909 
	C484.023224,160.082108 483.530945,155.737930 479.363159,153.205170 
	C475.359589,150.772247 471.434509,152.116577 468.130951,157.134659 
	C464.306030,162.944702 460.533234,168.789062 456.509338,174.969437 
	C452.232086,168.471176 448.270782,162.330811 444.179810,156.278061 
	C441.158630,151.808090 436.834778,150.707993 433.140778,153.269974 
	C429.524200,155.778244 428.911285,159.883682 431.571503,164.274124 
	C432.863464,166.406296 434.045349,168.665298 435.666168,170.528412 
	C446.977631,183.530777 451.137421,198.456406 449.105347,215.569901 
	C448.206970,223.135971 451.284241,226.842392 456.293518,226.929825 
	C461.467346,227.020126 463.937164,223.279129 463.968933,214.357300 
M233.838562,166.968399 
	C236.114517,166.968399 238.390472,166.968399 241.069351,166.968399 
	C241.069351,169.129166 241.069321,170.756790 241.069366,172.384430 
	C241.069809,187.367706 241.047684,202.351044 241.081696,217.334244 
	C241.095581,223.442337 244.039062,227.035080 248.780350,226.925430 
	C253.331146,226.820175 256.056702,223.367355 256.068451,217.505997 
	C256.098541,202.522781 256.079437,187.539444 256.079987,172.556168 
	C256.080048,170.790405 256.079987,169.024643 256.079987,166.967178 
	C259.041901,166.967178 261.356171,167.001709 263.669098,166.960358 
	C269.329987,166.859116 272.888733,163.842743 272.793823,159.269943 
	C272.702362,154.865646 269.287354,152.004944 263.853394,151.976166 
	C253.864838,151.923309 243.875671,151.931381 233.886978,151.970398 
	C228.121399,151.992920 225.041473,154.415619 224.796478,158.963150 
	C224.547684,163.581146 227.141159,166.123825 233.838562,166.968399 
M236.262985,92.322746 
	C230.603622,96.441483 230.177200,100.646400 234.925186,105.514450 
	C246.481567,117.363029 265.723114,117.597260 277.587830,106.033775 
	C281.666962,102.058205 282.324219,97.530228 279.305634,94.199516 
	C276.241974,90.819069 271.805969,91.093750 267.502228,94.930382 
	C260.670349,101.020767 252.496307,100.820091 245.413239,95.074463 
	C243.238647,93.310478 239.863541,93.026482 236.262985,92.322746 
z"/>
<path fill="#676FB2" opacity="1.000000" stroke="none" 
	d="
M193.016144,227.060165 
	C193.346268,239.977737 193.550217,252.900558 194.085251,265.809631 
	C194.240921,269.565369 195.342621,273.281921 196.023193,277.422302 
	C167.051849,277.885468 138.046280,278.675995 109.089417,277.819824 
	C70.373924,276.675018 39.234001,290.055878 16.267630,322.871796 
	C16.150904,320.747070 16.009621,319.373596 16.009424,318.000122 
	C15.999006,245.031540 15.949072,172.062927 16.019310,99.094406 
	C16.064102,52.559868 52.539928,16.167759 99.139061,16.009130 
	C115.465172,15.953551 131.791885,15.948884 148.117767,16.032753 
	C152.575394,16.055653 155.851166,14.805232 157.410675,10.188888 
	C157.741028,9.211021 159.443512,8.269256 160.627441,8.098439 
	C162.912323,7.768775 165.285309,8.114650 167.608780,7.970774 
	C170.474686,7.793308 172.421951,8.066771 173.511414,11.560396 
	C174.684158,15.321025 178.349716,16.047737 182.145691,16.035852 
	C202.469742,15.972234 222.794144,16.026587 243.582703,16.131866 
	C238.990784,19.834864 233.860977,23.348074 228.891785,27.075390 
	C212.333832,39.495213 201.931656,56.082741 196.280533,75.807358 
	C195.878586,77.210342 196.047852,78.776985 195.562164,80.587189 
	C188.202850,78.577873 184.964706,80.632935 183.227844,88.202423 
	C172.606873,85.657990 162.949814,86.850731 154.206116,92.907600 
	C139.940262,102.789742 139.824738,121.232361 154.158264,130.967209 
	C166.383652,139.270264 179.128281,138.861328 191.888077,131.912155 
	C192.267227,136.280014 192.698364,140.644272 193.002121,145.017380 
	C193.140060,147.003128 193.025574,149.006424 192.566391,151.523499 
	C187.221344,152.726028 182.035263,152.594559 177.515289,154.265198 
	C169.364929,157.277634 164.838562,163.768051 164.400528,172.566147 
	C163.989471,180.822922 168.658066,187.335464 177.079666,190.937195 
	C182.402237,193.213516 187.747772,195.436172 193.062225,198.168564 
	C193.025894,202.781433 193.010345,206.908646 192.672119,211.263474 
	C185.433044,212.780319 179.797028,210.281448 174.447220,206.050644 
	C172.443542,204.466064 169.335800,203.088913 166.961105,203.395554 
	C160.963287,204.170090 159.155640,211.437988 163.604385,216.109085 
	C171.598663,224.502991 181.785629,227.238602 193.016144,227.060165 
M88.501846,180.920303 
	C84.392677,180.920303 80.283501,180.920303 75.702103,180.920303 
	C75.702103,173.485992 75.884453,166.681122 75.642075,159.891418 
	C75.461243,154.825958 72.217133,151.841675 67.800575,152.005310 
	C63.548595,152.162842 60.910294,155.074615 60.747478,160.030762 
	C60.627232,163.691055 60.712177,167.358215 60.712505,171.022324 
	C60.713928,186.844650 60.665272,202.667267 60.749744,218.489166 
	C60.778828,223.936935 64.391556,227.456696 68.969841,226.882629 
	C73.141670,226.359528 75.629028,223.153152 75.704048,217.801682 
	C75.803734,210.690964 75.728645,203.577789 75.728645,196.347168 
	C84.815079,196.347168 93.336174,196.347168 102.067116,196.347168 
	C102.067116,204.079987 101.966240,211.402603 102.102264,218.720810 
	C102.194328,223.673935 105.391640,226.963623 109.666702,226.929901 
	C113.937103,226.896210 117.027145,223.589325 117.043396,218.608246 
	C117.106964,199.122009 117.117516,179.635117 116.989632,160.149506 
	C116.977486,158.298813 116.407112,155.663849 115.135063,154.787170 
	C113.032463,153.338120 110.033989,152.135834 107.617386,152.442093 
	C103.980217,152.903000 102.145943,156.026779 102.101357,159.751129 
	C102.018402,166.679642 102.077560,173.609863 102.077560,180.920242 
	C97.430069,180.920242 93.462692,180.920242 88.501846,180.920303 
M147.001801,174.501892 
	C147.001663,170.172974 147.026230,165.843903 146.995483,161.515198 
	C146.951843,155.372620 144.099960,151.870987 139.298172,151.998413 
	C134.682571,152.120911 132.018250,155.488678 132.009613,161.415298 
	C131.982407,180.062912 131.983582,198.710602 132.008698,217.358231 
	C132.016922,223.458160 134.967392,227.062119 139.698334,226.920898 
	C144.258316,226.784805 146.978210,223.325256 146.991241,217.458298 
	C147.022293,203.472626 147.001587,189.486832 147.001801,174.501892 
z"/>
<path fill="#676FB1" opacity="1.000000" stroke="none" 
	d="
M201.566696,293.095154 
	C206.918762,304.795258 214.271500,314.729919 223.857712,322.780151 
	C230.129898,328.047363 237.191788,332.374268 243.973450,337.449402 
	C235.886658,337.851196 227.726410,337.985626 219.566101,337.990479 
	C179.233627,338.014465 138.900848,337.910126 98.568825,338.044373 
	C77.402084,338.114838 60.791546,355.109680 61.012920,376.024017 
	C61.217827,395.382324 76.739738,411.695831 96.129730,412.928314 
	C97.589890,413.021118 99.051430,413.092163 100.747429,413.186371 
	C100.747429,428.050171 100.747429,442.654449 100.747429,458.612793 
	C93.295700,457.600433 85.846207,457.250549 78.736221,455.512146 
	C40.279228,446.109314 14.567392,411.300018 16.064981,371.192474 
	C17.464571,333.709503 46.482555,300.860687 84.189346,294.243317 
	C88.597130,293.469788 93.127579,293.068115 97.602585,293.056763 
	C132.101517,292.969177 166.600784,293.020477 201.566696,293.095154 
z"/>
<path fill="#676FB2" opacity="1.000000" stroke="none" 
	d="
M371.000000,413.000305 
	C406.153656,413.002869 440.807373,412.959137 475.460876,413.037842 
	C485.135529,413.059814 493.405487,419.024048 496.593018,427.823914 
	C499.835144,436.774506 497.232819,446.535736 489.879059,452.691071 
	C485.346375,456.485077 480.063019,458.043915 474.161285,458.025299 
	C453.002777,457.958618 431.842651,458.127563 410.685974,457.918549 
	C404.653961,457.858948 400.006073,458.966522 398.935791,465.847717 
	C394.188263,465.847717 389.709503,465.847717 384.699219,465.847717 
	C383.585388,458.355591 378.118530,457.902161 371.776672,457.923553 
	C328.626678,458.069092 285.475952,457.999664 242.325485,457.999664 
	C240.374359,457.999664 238.423218,457.999695 236.240509,457.999695 
	C236.240509,442.896942 236.240509,428.302155 236.240509,413.000305 
	C281.020569,413.000305 325.760284,413.000305 371.000000,413.000305 
z"/>
<path fill="#FF8E9E" opacity="1.000000" stroke="none" 
	d="
M152.417908,474.425690 
	C147.903061,480.437073 143.654037,486.199799 139.311386,491.891083 
	C135.091446,497.421509 130.105316,499.175934 124.561203,497.234406 
	C118.903427,495.253113 116.018715,490.925598 116.012955,484.049805 
	C115.984932,450.580170 116.000282,417.110504 116.000282,383.320618 
	C150.943863,383.320618 185.666214,383.320618 220.724075,383.320618 
	C220.809097,384.159790 220.987015,385.098785 220.987427,386.037872 
	C221.001892,418.692902 220.972260,451.347931 221.025681,484.002899 
	C221.034973,489.677277 219.016541,494.120514 213.875427,496.700928 
	C209.485611,498.904236 205.078156,498.412292 201.148849,495.511353 
	C199.577560,494.351288 198.309769,492.707245 197.112411,491.125580 
	C190.178177,481.965759 183.311035,472.755188 176.411682,463.568909 
	C170.668167,455.921600 166.284836,455.976349 160.436646,463.756042 
	C157.835251,467.216705 155.240540,470.682373 152.417908,474.425690 
z"/>
<path fill="#EFEDFF" opacity="1.000000" stroke="none" 
	d="
M263.003235,353.167480 
	C266.162964,353.111694 269.322693,353.007751 272.482422,353.007294 
	C337.420807,352.997833 402.359192,353.000153 467.648682,353.000153 
	C467.648682,357.823883 467.648682,362.560944 467.648682,368.000763 
	C460.334717,368.000763 452.753784,367.930573 445.174866,368.024078 
	C439.621490,368.092560 436.409821,371.386108 436.854279,376.282043 
	C437.230164,380.422577 440.252747,382.928284 445.242859,382.979523 
	C452.692688,383.056030 460.143921,382.999390 467.793823,382.999390 
	C467.793823,388.124359 467.793823,392.858582 467.793823,397.985413 
	C399.710480,397.985413 331.816101,397.985413 263.288666,397.627808 
	C260.008453,392.310669 257.361328,387.351166 254.714172,382.391663 
	C260.392700,377.641174 260.537781,373.944061 255.055389,368.400665 
	C257.582489,362.906677 260.292877,358.037079 263.003235,353.167480 
z"/>
<path fill="#D4D4FF" opacity="1.000000" stroke="none" 
	d="
M262.539917,353.090576 
	C260.292877,358.037079 257.582489,362.906677 254.795624,368.193665 
	C252.411102,368.407379 250.103165,368.027252 247.794983,368.025848 
	C193.020447,367.992554 138.245911,368.000000 83.471367,368.000000 
	C81.685997,368.000000 79.900627,368.000000 78.039429,368.000000 
	C80.007973,359.873596 87.783150,353.793030 96.756630,353.092316 
	C98.082024,352.988800 99.418503,353.003510 100.749855,353.003540 
	C154.525436,353.004028 208.301010,353.009155 262.539917,353.090576 
z"/>
<path fill="#D4D4FF" opacity="1.000000" stroke="none" 
	d="
M254.274704,382.504578 
	C257.361328,387.351166 260.008453,392.310669 262.825256,397.551086 
	C254.209839,397.832031 245.424774,397.832031 236.320007,397.832031 
	C236.320007,393.102722 236.320007,388.376404 236.320007,382.617493 
	C242.047867,382.617493 247.941559,382.617493 254.274704,382.504578 
z"/>
<path fill="#D2D2FC" opacity="1.000000" stroke="none" 
	d="
M81.312271,382.995667 
	C88.047806,382.995636 94.318542,382.995636 100.792694,382.995636 
	C100.792694,388.126160 100.792694,392.861847 100.792694,397.583069 
	C90.152107,398.689880 80.721458,392.786682 77.986359,383.139526 
	C78.989853,383.089081 79.918663,383.042389 81.312271,382.995667 
z"/>
<path fill="#020203" opacity="1.000000" stroke="none" 
	d="
M316.112213,226.936966 
	C296.250702,225.328720 281.232849,211.236862 279.929901,193.396866 
	C278.505951,173.900146 290.198059,157.254135 308.300446,153.005859 
	C329.554077,148.018021 350.778076,161.957001 354.048462,183.051117 
	C357.514252,205.405533 341.905182,225.246170 319.560028,226.877350 
	C318.564941,226.949997 317.562927,226.927795 316.112213,226.936966 
M305.203430,208.447449 
	C316.216217,214.270615 327.798096,212.283417 334.773499,203.373795 
	C341.632965,194.612244 341.138672,182.204437 333.609009,174.141190 
	C324.711151,164.612808 309.582611,164.575073 300.758881,174.059235 
	C291.380798,184.139221 293.046265,198.912369 305.203430,208.447449 
z"/>
<path fill="#010102" opacity="1.000000" stroke="none" 
	d="
M417.191071,174.107315 
	C417.290314,186.096161 410.676788,192.888138 400.502960,197.403915 
	C404.900696,202.404343 409.077850,207.142105 413.241699,211.891525 
	C417.933472,217.243164 418.447021,221.631927 414.786865,224.935608 
	C410.952332,228.396652 406.885498,227.445572 402.097961,221.993744 
	C396.712982,215.861526 391.314087,209.741562 384.933472,202.494370 
	C384.933472,208.826569 385.488861,214.080109 384.705536,219.125809 
	C384.297150,221.756210 381.999420,224.847137 379.669342,226.170166 
	C378.013184,227.110535 374.408356,226.091049 372.547729,224.741013 
	C371.013947,223.628159 370.072174,220.752655 370.052460,218.647186 
	C369.869965,199.149231 369.895966,179.648666 369.975891,160.149307 
	C369.998322,154.674774 372.822754,152.064407 378.458038,151.979340 
	C383.623260,151.901382 388.792877,151.881332 393.956879,151.997742 
	C406.471069,152.279861 415.952179,161.173157 417.191071,174.107315 
M390.410889,166.962006 
	C388.668701,166.962006 386.926483,166.962006 385.327728,166.962006 
	C385.327728,172.754471 385.327728,177.812454 385.327728,183.017502 
	C388.490234,183.017502 391.310974,183.191330 394.102234,182.978622 
	C398.830902,182.618301 402.113159,179.291443 402.166840,175.117035 
	C402.218292,171.117752 399.226685,167.802322 394.799652,167.077957 
	C393.664795,166.892273 392.483002,166.993408 390.410889,166.962006 
z"/>
<path fill="#020203" opacity="1.000000" stroke="none" 
	d="
M193.364532,226.911407 
	C181.785629,227.238602 171.598663,224.502991 163.604385,216.109085 
	C159.155640,211.437988 160.963287,204.170090 166.961105,203.395554 
	C169.335800,203.088913 172.443542,204.466064 174.447220,206.050644 
	C179.797028,210.281448 185.433044,212.780319 193.039551,211.274353 
	C195.811325,208.825363 199.842438,206.229630 199.510132,204.447464 
	C199.031845,201.882324 195.380234,199.908875 193.083008,197.682892 
	C187.747772,195.436172 182.402237,193.213516 177.079666,190.937195 
	C168.658066,187.335464 163.989471,180.822922 164.400528,172.566147 
	C164.838562,163.768051 169.364929,157.277634 177.515289,154.265198 
	C182.035263,152.594559 187.221344,152.726028 192.562744,151.987488 
	C198.294342,154.204391 203.801804,156.068420 208.778961,158.873398 
	C213.421494,161.489807 214.226395,166.131470 211.627396,169.849487 
	C209.111694,173.448349 205.116196,173.953430 200.669922,171.340836 
	C199.131744,170.436996 197.463226,169.754929 195.286987,168.603699 
	C190.588577,168.295868 186.401123,167.999100 182.361115,168.636749 
	C181.173355,168.824188 179.702438,171.646118 179.671112,173.285706 
	C179.647430,174.524994 181.473358,176.299026 182.886581,176.968170 
	C186.427292,178.644669 190.201157,179.828751 193.881485,181.210358 
	C196.419800,182.393860 198.995026,183.504745 201.489822,184.773788 
	C210.806671,189.512985 215.697510,197.327408 214.909973,206.096024 
	C214.108185,215.023544 207.104370,222.989182 197.564728,225.793732 
	C196.295532,226.166855 194.997574,226.442108 193.364532,226.911407 
z"/>
<path fill="#FDDADF" opacity="1.000000" stroke="none" 
	d="
M192.090729,131.645630 
	C179.128281,138.861328 166.383652,139.270264 154.158264,130.967209 
	C139.824738,121.232361 139.940262,102.789742 154.206116,92.907600 
	C162.949814,86.850731 172.606873,85.657990 183.317291,88.641701 
	C183.835480,92.259636 183.705490,95.421478 183.945007,98.555084 
	C184.078674,100.303711 184.291168,102.660522 185.417801,103.581131 
	C187.306183,105.124237 189.982773,106.626175 192.275177,106.550728 
	C196.474411,106.412514 198.304184,103.006752 199.128204,99.162811 
	C206.749878,110.638916 204.122314,123.024109 192.090729,131.645630 
z"/>
<path fill="#FDD9DF" opacity="1.000000" stroke="none" 
	d="
M342.994446,87.066788 
	C357.585693,88.264656 368.281891,96.913879 370.199310,109.127502 
	C371.217377,115.612617 369.321075,121.351784 365.133301,126.239235 
	C352.769714,140.668533 328.378326,140.713837 315.947235,126.298454 
	C311.244751,120.845329 309.328369,114.477768 311.440704,106.793686 
	C316.338715,105.593353 317.653168,102.445190 318.685089,98.387230 
	C319.223785,96.268860 321.484772,93.857025 323.534271,93.088753 
	C325.135681,92.488441 327.971313,93.768578 329.574921,95.061180 
	C330.725800,95.988861 330.791656,98.304382 331.265625,100.021713 
	C332.426331,104.227188 334.977020,106.611488 339.518341,106.250221 
	C343.566315,105.928207 346.478271,102.851547 345.989319,98.420624 
	C345.564697,94.572708 344.035492,90.846680 342.994446,87.066788 
z"/>
<path fill="#020203" opacity="1.000000" stroke="none" 
	d="
M463.968262,214.831635 
	C463.937164,223.279129 461.467346,227.020126 456.293518,226.929825 
	C451.284241,226.842392 448.206970,223.135971 449.105347,215.569901 
	C451.137421,198.456406 446.977631,183.530777 435.666168,170.528412 
	C434.045349,168.665298 432.863464,166.406296 431.571503,164.274124 
	C428.911285,159.883682 429.524200,155.778244 433.140778,153.269974 
	C436.834778,150.707993 441.158630,151.808090 444.179810,156.278061 
	C448.270782,162.330811 452.232086,168.471176 456.509338,174.969437 
	C460.533234,168.789062 464.306030,162.944702 468.130951,157.134659 
	C471.434509,152.116577 475.359589,150.772247 479.363159,153.205170 
	C483.530945,155.737930 484.023224,160.082108 480.706573,165.359909 
	C479.379486,167.471680 478.216278,169.740631 476.595093,171.604584 
	C465.855072,183.952957 461.708282,198.195831 463.968262,214.831635 
z"/>
<path fill="#010202" opacity="1.000000" stroke="none" 
	d="
M233.398560,166.966873 
	C227.141159,166.123825 224.547684,163.581146 224.796478,158.963150 
	C225.041473,154.415619 228.121399,151.992920 233.886978,151.970398 
	C243.875671,151.931381 253.864838,151.923309 263.853394,151.976166 
	C269.287354,152.004944 272.702362,154.865646 272.793823,159.269943 
	C272.888733,163.842743 269.329987,166.859116 263.669098,166.960358 
	C261.356171,167.001709 259.041901,166.967178 256.079987,166.967178 
	C256.079987,169.024643 256.080048,170.790405 256.079987,172.556168 
	C256.079437,187.539444 256.098541,202.522781 256.068451,217.505997 
	C256.056702,223.367355 253.331146,226.820175 248.780350,226.925430 
	C244.039062,227.035080 241.095581,223.442337 241.081696,217.334244 
	C241.047684,202.351044 241.069809,187.367706 241.069366,172.384430 
	C241.069321,170.756790 241.069351,169.129166 241.069351,166.968399 
	C238.390472,166.968399 236.114517,166.968399 233.398560,166.966873 
z"/>
<path fill="#030304" opacity="1.000000" stroke="none" 
	d="
M342.697876,86.901596 
	C344.035492,90.846680 345.564697,94.572708 345.989319,98.420624 
	C346.478271,102.851547 343.566315,105.928207 339.518341,106.250221 
	C334.977020,106.611488 332.426331,104.227188 331.265625,100.021713 
	C330.791656,98.304382 330.725800,95.988861 329.574921,95.061180 
	C327.971313,93.768578 325.135681,92.488441 323.534271,93.088753 
	C321.484772,93.857025 319.223785,96.268860 318.685089,98.387230 
	C317.653168,102.445190 316.338715,105.593353 311.427734,106.417648 
	C304.686646,104.991516 302.703278,102.175018 303.700928,95.920486 
	C305.153076,86.817131 310.435944,80.702751 319.176666,78.370750 
	C328.547028,75.870766 336.488281,78.867264 342.697876,86.901596 
z"/>
<path fill="#020304" opacity="1.000000" stroke="none" 
	d="
M236.650574,92.193756 
	C239.863541,93.026482 243.238647,93.310478 245.413239,95.074463 
	C252.496307,100.820091 260.670349,101.020767 267.502228,94.930382 
	C271.805969,91.093750 276.241974,90.819069 279.305634,94.199516 
	C282.324219,97.530228 281.666962,102.058205 277.587830,106.033775 
	C265.723114,117.597260 246.481567,117.363029 234.925186,105.514450 
	C230.177200,100.646400 230.603622,96.441483 236.650574,92.193756 
z"/>
<path fill="#040404" opacity="1.000000" stroke="none" 
	d="
M199.025635,98.694084 
	C198.304184,103.006752 196.474411,106.412514 192.275177,106.550728 
	C189.982773,106.626175 187.306183,105.124237 185.417801,103.581131 
	C184.291168,102.660522 184.078674,100.303711 183.945007,98.555084 
	C183.705490,95.421478 183.835480,92.259636 183.721588,88.670319 
	C184.964706,80.632935 188.202850,78.577873 195.549713,81.021118 
	C200.822067,86.148834 198.239502,92.473427 199.025635,98.694084 
z"/>
<path fill="#636BAC" opacity="1.000000" stroke="none" 
	d="
M193.900314,180.737732 
	C190.201157,179.828751 186.427292,178.644669 182.886581,176.968170 
	C181.473358,176.299026 179.647430,174.524994 179.671112,173.285706 
	C179.702438,171.646118 181.173355,168.824188 182.361115,168.636749 
	C186.401123,167.999100 190.588577,168.295868 194.922195,168.569031 
	C194.722809,172.689850 194.320969,176.477478 193.900314,180.737732 
z"/>
<path fill="#020203" opacity="1.000000" stroke="none" 
	d="
M88.998581,180.920273 
	C93.462692,180.920242 97.430069,180.920242 102.077560,180.920242 
	C102.077560,173.609863 102.018402,166.679642 102.101357,159.751129 
	C102.145943,156.026779 103.980217,152.903000 107.617386,152.442093 
	C110.033989,152.135834 113.032463,153.338120 115.135063,154.787170 
	C116.407112,155.663849 116.977486,158.298813 116.989632,160.149506 
	C117.117516,179.635117 117.106964,199.122009 117.043396,218.608246 
	C117.027145,223.589325 113.937103,226.896210 109.666702,226.929901 
	C105.391640,226.963623 102.194328,223.673935 102.102264,218.720810 
	C101.966240,211.402603 102.067116,204.079987 102.067116,196.347168 
	C93.336174,196.347168 84.815079,196.347168 75.728645,196.347168 
	C75.728645,203.577789 75.803734,210.690964 75.704048,217.801682 
	C75.629028,223.153152 73.141670,226.359528 68.969841,226.882629 
	C64.391556,227.456696 60.778828,223.936935 60.749744,218.489166 
	C60.665272,202.667267 60.713928,186.844650 60.712505,171.022324 
	C60.712177,167.358215 60.627232,163.691055 60.747478,160.030762 
	C60.910294,155.074615 63.548595,152.162842 67.800575,152.005310 
	C72.217133,151.841675 75.461243,154.825958 75.642075,159.891418 
	C75.884453,166.681122 75.702103,173.485992 75.702103,180.920303 
	C80.283501,180.920303 84.392677,180.920303 88.998581,180.920273 
z"/>
<path fill="#010101" opacity="1.000000" stroke="none" 
	d="
M147.001801,175.001495 
	C147.001587,189.486832 147.022293,203.472626 146.991241,217.458298 
	C146.978210,223.325256 144.258316,226.784805 139.698334,226.920898 
	C134.967392,227.062119 132.016922,223.458160 132.008698,217.358231 
	C131.983582,198.710602 131.982407,180.062912 132.009613,161.415298 
	C132.018250,155.488678 134.682571,152.120911 139.298172,151.998413 
	C144.099960,151.870987 146.951843,155.372620 146.995483,161.515198 
	C147.026230,165.843903 147.001663,170.172974 147.001801,175.001495 
z"/>
<path fill="#7C82C3" opacity="1.000000" stroke="none" 
	d="
M193.062225,198.168564 
	C195.380234,199.908875 199.031845,201.882324 199.510132,204.447464 
	C199.842438,206.229630 195.811325,208.825363 193.362213,211.046722 
	C193.010345,206.908646 193.025894,202.781433 193.062225,198.168564 
z"/>
<path fill="#8187C9" opacity="1.000000" stroke="none" 
	d="
M304.896667,208.244049 
	C293.046265,198.912369 291.380798,184.139221 300.758881,174.059235 
	C309.582611,164.575073 324.711151,164.612808 333.609009,174.141190 
	C341.138672,182.204437 341.632965,194.612244 334.773499,203.373795 
	C327.798096,212.283417 316.216217,214.270615 304.896667,208.244049 
z"/>
<path fill="#8086C8" opacity="1.000000" stroke="none" 
	d="
M390.866821,166.962402 
	C392.483002,166.993408 393.664795,166.892273 394.799652,167.077957 
	C399.226685,167.802322 402.218292,171.117752 402.166840,175.117035 
	C402.113159,179.291443 398.830902,182.618301 394.102234,182.978622 
	C391.310974,183.191330 388.490234,183.017502 385.327728,183.017502 
	C385.327728,177.812454 385.327728,172.754471 385.327728,166.962006 
	C386.926483,166.962006 388.668701,166.962006 390.866821,166.962402 
z"/>
</svg>