<svg version="1.1" id="Layer_1" xmlns="http://www.w3.org/2000/svg" xmlns:xlink="http://www.w3.org/1999/xlink" x="0px" y="0px"
	 width="100%" viewBox="0 0 512 512" enable-background="new 0 0 512 512" xml:space="preserve">
<path fill="#FFFFFF" opacity="1.000000" stroke="none" 
	d="
M365.000000,0.999999 
	C414.298492,1.000000 463.596954,1.000000 512.947754,1.000000 
	C512.947754,171.666656 512.947754,342.333313 512.947754,513.000000 
	C509.968750,513.000000 506.970917,513.000000 503.583405,512.670776 
	C504.804016,510.247375 506.414337,508.153229 508.280396,505.903625 
	C508.609406,505.181763 508.682678,504.615356 508.826782,503.582275 
	C508.921112,488.158447 508.982208,473.201294 508.959442,458.244232 
	C508.923340,434.482025 508.831268,410.719849 508.822968,386.664337 
	C508.595428,385.897491 508.307770,385.424011 507.970154,384.600708 
	C506.057404,379.816254 503.233246,376.520874 497.986908,375.748047 
	C497.664520,375.221008 497.379272,375.119537 496.553223,375.167664 
	C482.440063,375.148499 468.792999,375.190002 454.674011,375.153290 
	C423.235138,375.049957 392.266144,375.210510 361.302704,374.867279 
	C353.703888,374.783051 347.178497,375.937714 342.092834,381.536926 
	C342.012909,348.126892 341.619202,315.174286 342.218506,282.239777 
	C342.410370,271.696228 334.509277,263.644745 324.991730,264.899078 
	C320.419861,265.501648 315.692688,264.925446 311.021057,264.424133 
	C311.001862,254.184174 311.048676,244.402725 310.974121,234.622192 
	C310.927551,228.514481 306.487854,224.106537 300.388336,224.015442 
	C293.263947,223.909027 286.138214,223.890701 279.008789,223.416779 
	C277.837097,215.001709 276.669434,207.004059 275.502380,199.006348 
	C274.001923,188.723755 272.501923,178.441101 271.354980,168.054047 
	C287.502686,160.688202 302.709808,152.595337 313.491699,138.235626 
	C318.670563,145.730118 327.278809,148.783310 335.535461,146.153610 
	C345.208954,143.072647 350.153351,136.139267 350.000305,125.869995 
	C349.937378,121.647514 347.190887,118.303833 343.538147,118.002747 
	C338.487488,117.586418 335.103729,120.118279 333.937439,124.566429 
	C333.307007,126.970863 331.853516,129.159500 330.634491,131.734619 
	C324.720123,126.482857 324.605957,120.811325 329.955963,115.656219 
	C338.409821,107.510353 346.985718,99.470062 355.847137,91.773300 
	C368.253204,80.997803 378.854309,68.996658 385.702209,53.812408 
	C393.529266,36.456966 387.054504,13.204272 370.056366,3.598752 
	C368.407837,2.667176 366.687164,1.863199 365.000000,0.999999 
z"/>
<path fill="#FFFFFF" opacity="1.000000" stroke="none" 
	d="
M13.000000,513.000000 
	C9.002597,513.000000 5.005194,513.000000 1.005843,513.000000 
	C1.003895,342.446716 1.003895,171.893463 1.003895,1.000000 
	C50.687042,1.000000 100.374863,1.000000 150.385468,1.333110 
	C138.179581,5.378817 131.715714,15.194389 128.253067,26.515079 
	C123.577858,41.800125 128.957428,55.757187 137.834808,68.162567 
	C149.361725,84.270432 164.846252,96.523064 179.707047,109.338882 
	C184.097626,113.125282 188.182236,117.178085 189.614807,123.145874 
	C190.423370,126.514206 189.556427,129.313263 186.195206,130.197845 
	C182.996033,131.039780 182.375351,128.353210 181.950195,125.812431 
	C181.739761,124.554871 181.075104,123.372009 180.605774,122.159302 
	C179.040924,118.116013 175.613632,117.557495 172.050522,118.083488 
	C168.548340,118.600479 166.476929,120.667068 165.897293,124.558067 
	C164.301239,135.272629 173.270294,146.441040 184.056061,147.034744 
	C192.119064,147.478592 197.991989,143.704529 203.013107,138.301666 
	C209.787933,149.337326 219.778732,155.959549 231.165924,161.335999 
	C235.868408,163.832291 240.432800,165.998062 244.986420,168.566956 
	C243.763092,176.460495 242.443100,183.935455 241.363586,191.444992 
	C239.813492,202.228409 238.438614,213.037033 236.525085,223.901276 
	C229.075043,223.978470 222.086838,223.902451 215.104080,224.062775 
	C213.414413,224.101562 211.610703,224.659042 210.086288,225.427841 
	C204.492844,228.248779 204.295639,233.799637 204.091705,238.921722 
	C203.747879,247.558075 203.979889,256.217346 203.505981,264.920929 
	C197.898987,264.983307 192.754303,264.918976 187.612946,265.021332 
	C182.781281,265.117523 178.353485,266.695343 176.362183,271.304382 
	C174.668411,275.224731 173.252060,279.601105 173.145996,283.811798 
	C172.732605,300.224884 172.889191,316.652344 172.532959,332.936646 
	C169.846344,331.190765 167.460526,329.582703 164.982162,327.743408 
	C164.679810,327.164062 164.390182,327.074677 163.556152,327.170166 
	C149.414337,327.114746 135.737091,327.133179 121.591507,327.086456 
	C87.965736,327.014160 54.808281,326.997650 21.650837,327.006287 
	C13.098834,327.008514 7.001039,333.093536 7.000684,341.549164 
	C6.998498,393.701477 7.095020,445.854187 6.873015,498.005554 
	C6.846684,504.191101 7.764115,509.296936 13.000000,513.000000 
z"/>
<path fill="#FC477E" opacity="1.000000" stroke="none" 
	d="
M172.833786,333.074432 
	C172.889191,316.652344 172.732605,300.224884 173.145996,283.811798 
	C173.252060,279.601105 174.668411,275.224731 176.362183,271.304382 
	C178.353485,266.695343 182.781281,265.117523 187.612946,265.021332 
	C192.754303,264.918976 197.898987,264.983307 203.971634,264.980011 
	C222.595520,264.970154 240.289993,264.955139 258.453003,264.974548 
	C268.957733,265.060791 278.993866,265.112549 289.020752,265.622559 
	C289.007629,348.387207 289.003815,430.693604 289.000000,513.000000 
	C250.979111,513.000000 212.958206,513.000000 174.447098,512.747559 
	C173.904770,512.334473 173.852646,512.173828 173.860962,511.547302 
	C173.931976,453.869293 173.944031,396.657074 173.942932,339.444885 
	C173.942917,338.287231 173.789703,337.129547 173.723755,335.740570 
	C173.579544,335.223083 173.341949,335.034882 173.003723,334.631653 
	C172.931717,333.903931 172.882751,333.489166 172.833786,333.074432 
M269.791260,379.500000 
	C269.789886,368.837433 269.912109,358.171997 269.668396,347.514984 
	C269.626617,345.687897 268.410126,342.842041 267.049194,342.343842 
	C265.163239,341.653442 262.098480,342.018555 260.473358,343.208527 
	C256.480743,346.131989 252.831436,349.604553 249.419113,353.211090 
	C247.254166,355.499268 244.390503,358.555603 247.519180,361.731171 
	C250.720886,364.980927 253.480347,362.517517 255.746674,359.743774 
	C255.901901,359.553772 256.309387,359.569885 257.208679,359.322754 
	C257.208679,361.209717 257.207520,362.943085 257.208893,364.676483 
	C257.223145,382.835938 257.141632,400.996246 257.303711,419.154388 
	C257.361633,425.645752 261.139648,428.003448 266.597046,424.930023 
	C268.145599,424.057922 269.472687,421.366302 269.515930,419.477386 
	C269.813354,406.489624 269.743011,393.493469 269.791260,379.500000 
z"/>
<path fill="#7FD19B" opacity="1.000000" stroke="none" 
	d="
M13.468657,513.000000 
	C7.764115,509.296936 6.846684,504.191101 6.873015,498.005554 
	C7.095020,445.854187 6.998498,393.701477 7.000684,341.549164 
	C7.001039,333.093536 13.098834,327.008514 21.650837,327.006287 
	C54.808281,326.997650 87.965736,327.014160 121.561386,327.543579 
	C121.999733,389.710571 121.999863,451.355286 122.000000,513.000000 
	C85.979103,513.000000 49.958210,513.000000 13.468657,513.000000 
M79.649597,439.995636 
	C77.876175,439.995636 76.102753,439.995636 74.405586,439.995636 
	C73.623047,432.471588 74.981735,430.169189 82.589981,424.250549 
	C89.931564,418.539398 97.571625,413.115417 104.313866,406.752838 
	C114.505348,397.135345 114.197617,377.586121 101.771271,370.429901 
	C92.625587,365.162964 82.850365,364.468445 73.488007,369.627899 
	C66.949936,373.230927 62.847916,378.979889 62.974659,387.002106 
	C63.033272,390.711670 64.991547,393.593353 68.296242,393.689697 
	C71.579071,393.785339 75.089310,392.543335 75.118469,387.604523 
	C75.146446,382.865143 77.962990,379.357697 82.484489,378.124908 
	C89.577957,376.190918 95.067017,378.311859 97.763351,383.338531 
	C100.822052,389.040741 98.575684,397.702850 92.613777,402.495544 
	C86.421188,407.473663 80.117310,412.313690 73.845512,417.192780 
	C65.442665,423.729736 59.681271,431.442139 60.904263,442.960693 
	C61.507866,448.645691 63.086903,450.907990 68.703178,450.943298 
	C81.196587,451.021729 93.691055,450.923889 106.184563,450.994171 
	C110.081085,451.016083 112.041458,449.493134 112.065392,445.402130 
	C112.090080,441.183197 109.917900,439.924164 106.099060,439.966675 
	C97.604263,440.061249 89.107697,439.995819 79.649597,439.995636 
z"/>
<path fill="#99E2FF" opacity="1.000000" stroke="none" 
	d="
M342.164032,382.001373 
	C347.178497,375.937714 353.703888,374.783051 361.302704,374.867279 
	C392.266144,375.210510 423.235138,375.049957 454.650696,375.599609 
	C455.399536,421.749451 455.699768,467.374725 456.000000,513.000000 
	C418.312439,513.000000 380.624878,513.000000 342.460663,512.531372 
	C341.982971,497.278107 341.961395,482.493347 341.985260,467.708679 
	C342.031311,439.139557 342.102997,410.570465 342.164032,382.001373 
M443.186584,443.595215 
	C443.583038,442.642761 443.730865,441.430969 444.413269,440.776855 
	C454.268219,431.330444 451.898987,409.958099 440.033936,405.147888 
	C431.841888,401.826721 423.135132,401.677612 414.783966,405.150665 
	C407.966370,407.985901 403.900635,413.253265 403.063324,420.649567 
	C402.391846,426.580444 404.681427,428.622864 410.522888,427.995331 
	C413.867584,427.636047 414.804321,425.652496 415.154083,422.613586 
	C415.649567,418.308777 417.867371,414.681458 422.405518,414.246735 
	C427.349670,413.773132 432.996643,412.260010 436.664124,417.498322 
	C442.066956,425.215240 437.142609,436.431976 428.036224,438.201385 
	C426.147644,438.568298 423.821808,440.737030 423.189545,442.585663 
	C422.194885,445.493927 424.094299,447.599701 427.254517,448.215515 
	C428.221161,448.403900 429.147980,448.838409 430.118134,448.960388 
	C436.600098,449.775330 440.335663,452.794495 440.818207,458.639008 
	C441.440979,466.182068 439.933075,473.729614 434.252716,476.050385 
	C424.966858,479.844360 416.021179,476.473328 413.238739,467.084930 
	C411.795746,462.216064 408.318390,462.738129 404.911987,463.053619 
	C401.093048,463.407288 400.740509,466.432770 401.096375,469.412292 
	C401.757263,474.945618 404.394745,479.425232 408.795959,482.880341 
	C415.121979,487.846497 422.487000,488.280304 430.097656,488.044739 
	C440.466125,487.723755 449.635559,481.774078 451.761719,472.781860 
	C454.816528,459.862061 453.868195,449.990570 443.186584,443.595215 
z"/>
<path fill="#D82665" opacity="1.000000" stroke="none" 
	d="
M342.092834,381.536926 
	C342.102997,410.570465 342.031311,439.139557 341.985260,467.708679 
	C341.961395,482.493347 341.982971,497.278107 341.992004,512.531372 
	C324.645782,513.000000 307.291534,513.000000 289.468658,513.000000 
	C289.003815,430.693604 289.007629,348.387207 289.484070,265.566650 
	C296.983063,264.996033 304.009430,264.939545 311.035828,264.883057 
	C315.692688,264.925446 320.419861,265.501648 324.991730,264.899078 
	C334.509277,263.644745 342.410370,271.696228 342.218506,282.239777 
	C341.619202,315.174286 342.012909,348.126892 342.092834,381.536926 
z"/>
<path fill="#F4B425" opacity="1.000000" stroke="none" 
	d="
M244.997208,168.163818 
	C240.432800,165.998062 235.868408,163.832291 231.490128,161.217377 
	C234.700119,159.022659 237.797684,157.392273 240.735580,155.512360 
	C256.566833,145.382187 265.841827,132.329407 265.236969,112.078407 
	C264.213074,77.797211 265.029968,43.461033 265.535400,9.107928 
	C280.335876,9.127388 294.673981,9.186887 309.148743,9.427883 
	C309.518311,9.824687 309.793152,9.940290 310.469604,9.986253 
	C313.578583,12.339499 316.327881,14.662684 319.287018,17.163179 
	C327.426117,9.826419 337.794495,4.647273 349.000000,1.000000 
	C354.022095,1.000000 359.044189,1.000000 364.533142,0.999999 
	C366.687164,1.863199 368.407837,2.667176 370.056366,3.598752 
	C387.054504,13.204272 393.529266,36.456966 385.702209,53.812408 
	C378.854309,68.996658 368.253204,80.997803 355.847137,91.773300 
	C346.985718,99.470062 338.409821,107.510353 329.955963,115.656219 
	C324.605957,120.811325 324.720123,126.482857 330.634491,131.734619 
	C331.853516,129.159500 333.307007,126.970863 333.937439,124.566429 
	C335.103729,120.118279 338.487488,117.586418 343.538147,118.002747 
	C347.190887,118.303833 349.937378,121.647514 350.000305,125.869995 
	C350.153351,136.139267 345.208954,143.072647 335.535461,146.153610 
	C327.278809,148.783310 318.670563,145.730118 313.491699,138.235626 
	C302.709808,152.595337 287.502686,160.688202 270.981323,168.007660 
	C261.853607,172.796249 253.434525,172.826859 244.997208,168.163818 
M357.014740,67.479576 
	C360.616394,62.804325 364.945068,58.509331 367.638733,53.359207 
	C371.136414,46.671783 374.550446,39.638992 372.038696,31.431719 
	C369.961792,24.645231 363.138733,16.969738 358.026031,17.053276 
	C345.120819,17.264137 335.593323,24.543306 326.912262,32.976475 
	C325.681671,34.171883 326.176727,37.677479 326.716553,39.909843 
	C326.946136,40.859150 329.862457,42.193905 330.652496,41.748352 
	C332.115326,40.923344 333.365662,39.060600 333.898621,37.375229 
	C335.335846,32.830025 339.046051,29.711626 342.834656,30.409706 
	C347.346191,31.240988 350.418945,35.181458 349.957520,40.168968 
	C349.069855,49.763435 340.494537,60.737564 326.800629,58.030571 
	C323.885620,57.454338 321.030396,56.575550 318.398560,55.900513 
	C318.398560,71.448708 318.398560,86.948326 318.398560,103.754150 
	C331.683838,91.288078 344.100677,79.636909 357.014740,67.479576 
z"/>
<path fill="#3CAB8B" opacity="1.000000" stroke="none" 
	d="
M122.468658,513.000000 
	C121.999863,451.355286 121.999733,389.710571 122.029716,327.608734 
	C135.737091,327.133179 149.414337,327.114746 163.685974,327.350555 
	C164.502808,327.818970 164.767593,327.942230 165.074707,327.974640 
	C167.460526,329.582703 169.846344,331.190765 172.532959,332.936646 
	C172.882751,333.489166 172.931717,333.903931 173.053558,334.840149 
	C173.247681,335.634247 173.441513,335.837677 173.707962,335.971893 
	C173.789703,337.129547 173.942917,338.287231 173.942932,339.444885 
	C173.944031,396.657074 173.931976,453.869293 173.678192,511.666962 
	C173.216995,512.459167 173.071991,512.708313 173.000000,513.000000 
	C156.312439,513.000000 139.624878,513.000000 122.468658,513.000000 
z"/>
<path fill="#66BBDD" opacity="1.000000" stroke="none" 
	d="
M456.468658,513.000000 
	C455.699768,467.374725 455.399536,421.749451 455.122620,375.677856 
	C468.792999,375.190002 482.440063,375.148499 496.686768,375.349426 
	C497.514343,375.809448 497.785156,375.933258 498.098846,375.963287 
	C503.233246,376.520874 506.057404,379.816254 507.973297,384.883423 
	C508.271881,385.996552 508.517365,386.477112 508.762817,386.957672 
	C508.831268,410.719849 508.923340,434.482025 508.959442,458.244232 
	C508.982208,473.201294 508.921112,488.158447 508.624390,503.774170 
	C508.242310,504.974884 508.133484,505.516998 508.024689,506.059082 
	C506.414337,508.153229 504.804016,510.247375 503.096863,512.670776 
	C487.645782,513.000000 472.291534,513.000000 456.468658,513.000000 
z"/>
<path fill="#F4B425" opacity="1.000000" stroke="none" 
	d="
M202.991684,137.943817 
	C197.991989,143.704529 192.119064,147.478592 184.056061,147.034744 
	C173.270294,146.441040 164.301239,135.272629 165.897293,124.558067 
	C166.476929,120.667068 168.548340,118.600479 172.050522,118.083488 
	C175.613632,117.557495 179.040924,118.116013 180.605774,122.159302 
	C181.075104,123.372009 181.739761,124.554871 181.950195,125.812431 
	C182.375351,128.353210 182.996033,131.039780 186.195206,130.197845 
	C189.556427,129.313263 190.423370,126.514206 189.614807,123.145874 
	C188.182236,117.178085 184.097626,113.125282 179.707047,109.338882 
	C164.846252,96.523064 149.361725,84.270432 137.834808,68.162567 
	C128.957428,55.757187 123.577858,41.800125 128.253067,26.515079 
	C131.715714,15.194389 138.179581,5.378817 150.854126,1.333110 
	C156.022095,1.000000 161.044189,1.000000 166.698578,1.345551 
	C169.805725,2.441924 172.521255,2.770554 174.712128,4.019497 
	C182.565720,8.496591 190.241745,13.285165 198.112976,18.270073 
	C205.340454,23.280022 205.185776,30.348293 205.156540,37.789333 
	C205.132004,44.025951 203.346085,48.996998 198.877640,53.191769 
	C198.068481,53.951389 197.609680,55.084225 196.602417,56.039551 
	C180.776611,63.996937 165.460953,52.261108 165.963638,39.413589 
	C166.187424,33.694248 168.289261,30.869780 173.432892,30.230057 
	C176.936417,29.794317 180.509338,33.221420 182.123032,37.600384 
	C182.764206,39.340309 184.880936,40.536480 186.325882,41.980209 
	C187.548218,40.269085 189.724167,38.571358 189.748459,36.843395 
	C189.777969,34.743816 188.530594,31.971968 186.899918,30.617483 
	C180.104813,24.973299 172.959229,19.790359 164.133286,17.559952 
	C159.207367,16.315123 154.564590,16.636038 150.630859,19.963890 
	C143.881973,25.673319 141.223434,37.663643 144.640686,46.148678 
	C149.095703,57.210442 156.902374,66.007111 165.050430,74.269371 
	C173.718185,83.058617 183.358810,90.891396 192.629700,99.079475 
	C193.921677,100.220566 195.528198,101.005524 197.019775,102.314468 
	C198.980209,106.084694 201.181564,109.373413 202.785156,112.931526 
	C206.502014,121.178535 205.292938,129.583908 202.991684,137.943817 
z"/>
<path fill="#FFFFFF" opacity="1.000000" stroke="none" 
	d="
M197.984909,17.955963 
	C190.241745,13.285165 182.565720,8.496591 174.712128,4.019497 
	C172.521255,2.770554 169.805725,2.441924 167.165436,1.345551 
	C227.354233,1.000000 287.708466,1.000000 348.531342,1.000000 
	C337.794495,4.647273 327.426117,9.826419 319.287018,17.163179 
	C316.327881,14.662684 313.578583,12.339499 310.360687,9.761116 
	C309.673553,9.165661 309.380219,9.079151 309.012054,9.246387 
	C294.673981,9.186887 280.335876,9.127388 265.065552,9.041698 
	C246.182861,9.010438 228.232407,8.986330 210.282013,9.010155 
	C203.584183,9.019046 199.135132,12.310249 197.984909,17.955963 
z"/>
<path fill="#4EA28A" opacity="1.000000" stroke="none" 
	d="
M173.250000,513.000000 
	C173.071991,512.708313 173.216995,512.459167 173.617783,512.132812 
	C173.852646,512.173828 173.904770,512.334473 173.978439,512.747559 
	C174.000000,513.000000 173.500000,513.000000 173.250000,513.000000 
z"/>
<path fill="#FF8533" opacity="1.000000" stroke="none" 
	d="
M311.021057,264.424133 
	C304.009430,264.939545 296.983063,264.996033 289.493347,265.108429 
	C278.993866,265.112549 268.957733,265.060791 258.458191,264.511902 
	C258.002167,250.731277 258.009491,237.447754 258.480042,224.097992 
	C265.633209,223.965897 272.323151,223.900040 279.013062,223.834183 
	C286.138214,223.890701 293.263947,223.909027 300.388336,224.015442 
	C306.487854,224.106537 310.927551,228.514481 310.974121,234.622192 
	C311.048676,244.402725 311.001862,254.184174 311.021057,264.424133 
z"/>
<path fill="#E4EAF7" opacity="1.000000" stroke="none" 
	d="
M279.008789,223.416779 
	C272.323151,223.900040 265.633209,223.965897 258.014404,224.032776 
	C250.386642,223.967499 243.687790,223.901184 236.988953,223.834869 
	C238.438614,213.037033 239.813492,202.228409 241.363586,191.444992 
	C242.443100,183.935455 243.763092,176.460495 244.986420,168.566956 
	C253.434525,172.826859 261.853607,172.796249 270.628113,168.112076 
	C272.501923,178.441101 274.001923,188.723755 275.502380,199.006348 
	C276.669434,207.004059 277.837097,215.001709 279.008789,223.416779 
z"/>
<path fill="#71C3E4" opacity="1.000000" stroke="none" 
	d="
M508.822937,386.664337 
	C508.517365,386.477112 508.271881,385.996552 508.023254,385.233276 
	C508.307770,385.424011 508.595428,385.897491 508.822937,386.664337 
z"/>
<path fill="#71C3E4" opacity="1.000000" stroke="none" 
	d="
M508.280396,505.903625 
	C508.133484,505.516998 508.242310,504.974884 508.553528,504.240875 
	C508.682678,504.615356 508.609406,505.181763 508.280396,505.903625 
z"/>
<path fill="#74C6E6" opacity="1.000000" stroke="none" 
	d="
M497.986908,375.748047 
	C497.785156,375.933258 497.514343,375.809448 497.152832,375.410095 
	C497.379272,375.119537 497.664520,375.221008 497.986908,375.748047 
z"/>
<path fill="#FCDF6C" opacity="1.000000" stroke="none" 
	d="
M198.112976,18.270073 
	C199.135132,12.310249 203.584183,9.019046 210.282013,9.010155 
	C228.232407,8.986330 246.182861,9.010438 264.603149,9.081738 
	C265.029968,43.461033 264.213074,77.797211 265.236969,112.078407 
	C265.841827,132.329407 256.566833,145.382187 240.735580,155.512360 
	C237.797684,157.392273 234.700119,159.022659 231.352051,160.886841 
	C219.778732,155.959549 209.787933,149.337326 203.013107,138.301666 
	C205.292938,129.583908 206.502014,121.178535 202.785156,112.931526 
	C201.181564,109.373413 198.980209,106.084694 197.024078,101.849037 
	C196.994888,86.031242 196.992004,71.038002 196.989136,56.044762 
	C197.609680,55.084225 198.068481,53.951389 198.877640,53.191769 
	C203.346085,48.996998 205.132004,44.025951 205.156540,37.789333 
	C205.185776,30.348293 205.340454,23.280022 198.112976,18.270073 
z"/>
<path fill="#FFA63B" opacity="1.000000" stroke="none" 
	d="
M236.525085,223.901276 
	C243.687790,223.901184 250.386642,223.967499 257.551147,224.099030 
	C258.009491,237.447754 258.002167,250.731277 257.989655,264.477478 
	C240.289993,264.955139 222.595520,264.970154 204.435394,264.926086 
	C203.979889,256.217346 203.747879,247.558075 204.091705,238.921722 
	C204.295639,233.799637 204.492844,228.248779 210.086288,225.427841 
	C211.610703,224.659042 213.414413,224.101562 215.104080,224.062775 
	C222.086838,223.902451 229.075043,223.978470 236.525085,223.901276 
z"/>
<path fill="#4AB48E" opacity="1.000000" stroke="none" 
	d="
M164.982162,327.743408 
	C164.767593,327.942230 164.502808,327.818970 164.150543,327.424438 
	C164.390182,327.074677 164.679810,327.164062 164.982162,327.743408 
z"/>
<path fill="#F8FBFF" opacity="1.000000" stroke="none" 
	d="
M269.791138,380.000000 
	C269.743011,393.493469 269.813354,406.489624 269.515930,419.477386 
	C269.472687,421.366302 268.145599,424.057922 266.597046,424.930023 
	C261.139648,428.003448 257.361633,425.645752 257.303711,419.154388 
	C257.141632,400.996246 257.223145,382.835938 257.208893,364.676483 
	C257.207520,362.943085 257.208679,361.209717 257.208679,359.322754 
	C256.309387,359.569885 255.901901,359.553772 255.746674,359.743774 
	C253.480347,362.517517 250.720886,364.980927 247.519180,361.731171 
	C244.390503,358.555603 247.254166,355.499268 249.419113,353.211090 
	C252.831436,349.604553 256.480743,346.131989 260.473358,343.208527 
	C262.098480,342.018555 265.163239,341.653442 267.049194,342.343842 
	C268.410126,342.842041 269.626617,345.687897 269.668396,347.514984 
	C269.912109,358.171997 269.789886,368.837433 269.791138,380.000000 
z"/>
<path fill="#4EA28A" opacity="1.000000" stroke="none" 
	d="
M173.723755,335.740570 
	C173.441513,335.837677 173.247681,335.634247 173.076584,335.153137 
	C173.341949,335.034882 173.579544,335.223083 173.723755,335.740570 
z"/>
<path fill="#F6FAFE" opacity="1.000000" stroke="none" 
	d="
M80.130722,439.995605 
	C89.107697,439.995819 97.604263,440.061249 106.099060,439.966675 
	C109.917900,439.924164 112.090080,441.183197 112.065392,445.402130 
	C112.041458,449.493134 110.081085,451.016083 106.184563,450.994171 
	C93.691055,450.923889 81.196587,451.021729 68.703178,450.943298 
	C63.086903,450.907990 61.507866,448.645691 60.904263,442.960693 
	C59.681271,431.442139 65.442665,423.729736 73.845512,417.192780 
	C80.117310,412.313690 86.421188,407.473663 92.613777,402.495544 
	C98.575684,397.702850 100.822052,389.040741 97.763351,383.338531 
	C95.067017,378.311859 89.577957,376.190918 82.484489,378.124908 
	C77.962990,379.357697 75.146446,382.865143 75.118469,387.604523 
	C75.089310,392.543335 71.579071,393.785339 68.296242,393.689697 
	C64.991547,393.593353 63.033272,390.711670 62.974659,387.002106 
	C62.847916,378.979889 66.949936,373.230927 73.488007,369.627899 
	C82.850365,364.468445 92.625587,365.162964 101.771271,370.429901 
	C114.197617,377.586121 114.505348,397.135345 104.313866,406.752838 
	C97.571625,413.115417 89.931564,418.539398 82.589981,424.250549 
	C74.981735,430.169189 73.623047,432.471588 74.405586,439.995636 
	C76.102753,439.995636 77.876175,439.995636 80.130722,439.995605 
z"/>
<path fill="#F6FBFF" opacity="1.000000" stroke="none" 
	d="
M443.479553,443.768646 
	C453.868195,449.990570 454.816528,459.862061 451.761719,472.781860 
	C449.635559,481.774078 440.466125,487.723755 430.097656,488.044739 
	C422.487000,488.280304 415.121979,487.846497 408.795959,482.880341 
	C404.394745,479.425232 401.757263,474.945618 401.096375,469.412292 
	C400.740509,466.432770 401.093048,463.407288 404.911987,463.053619 
	C408.318390,462.738129 411.795746,462.216064 413.238739,467.084930 
	C416.021179,476.473328 424.966858,479.844360 434.252716,476.050385 
	C439.933075,473.729614 441.440979,466.182068 440.818207,458.639008 
	C440.335663,452.794495 436.600098,449.775330 430.118134,448.960388 
	C429.147980,448.838409 428.221161,448.403900 427.254517,448.215515 
	C424.094299,447.599701 422.194885,445.493927 423.189545,442.585663 
	C423.821808,440.737030 426.147644,438.568298 428.036224,438.201385 
	C437.142609,436.431976 442.066956,425.215240 436.664124,417.498322 
	C432.996643,412.260010 427.349670,413.773132 422.405518,414.246735 
	C417.867371,414.681458 415.649567,418.308777 415.154083,422.613586 
	C414.804321,425.652496 413.867584,427.636047 410.522888,427.995331 
	C404.681427,428.622864 402.391846,426.580444 403.063324,420.649567 
	C403.900635,413.253265 407.966370,407.985901 414.783966,405.150665 
	C423.135132,401.677612 431.841888,401.826721 440.033936,405.147888 
	C451.898987,409.958099 454.268219,431.330444 444.413269,440.776855 
	C443.730865,441.430969 443.583038,442.642761 443.479553,443.768646 
z"/>
<path fill="#FFFFFF" opacity="1.000000" stroke="none" 
	d="
M356.766113,67.732658 
	C344.100677,79.636909 331.683838,91.288078 318.398560,103.754150 
	C318.398560,86.948326 318.398560,71.448708 318.398560,55.900513 
	C321.030396,56.575550 323.885620,57.454338 326.800629,58.030571 
	C340.494537,60.737564 349.069855,49.763435 349.957520,40.168968 
	C350.418945,35.181458 347.346191,31.240988 342.834656,30.409706 
	C339.046051,29.711626 335.335846,32.830025 333.898621,37.375229 
	C333.365662,39.060600 332.115326,40.923344 330.652496,41.748352 
	C329.862457,42.193905 326.946136,40.859150 326.716553,39.909843 
	C326.176727,37.677479 325.681671,34.171883 326.912262,32.976475 
	C335.593323,24.543306 345.120819,17.264137 358.026031,17.053276 
	C363.138733,16.969738 369.961792,24.645231 372.038696,31.431719 
	C374.550446,39.638992 371.136414,46.671783 367.638733,53.359207 
	C364.945068,58.509331 360.616394,62.804325 356.766113,67.732658 
z"/>
<path fill="#F6C039" opacity="1.000000" stroke="none" 
	d="
M309.148743,9.427883 
	C309.380219,9.079151 309.673553,9.165661 310.001038,9.731054 
	C309.793152,9.940290 309.518311,9.824687 309.148743,9.427883 
z"/>
<path fill="#FFFFFF" opacity="1.000000" stroke="none" 
	d="
M196.602417,56.039551 
	C196.992004,71.038002 196.994888,86.031242 196.993439,101.489914 
	C195.528198,101.005524 193.921677,100.220566 192.629700,99.079475 
	C183.358810,90.891396 173.718185,83.058617 165.050430,74.269371 
	C156.902374,66.007111 149.095703,57.210442 144.640686,46.148678 
	C141.223434,37.663643 143.881973,25.673319 150.630859,19.963890 
	C154.564590,16.636038 159.207367,16.315123 164.133286,17.559952 
	C172.959229,19.790359 180.104813,24.973299 186.899918,30.617483 
	C188.530594,31.971968 189.777969,34.743816 189.748459,36.843395 
	C189.724167,38.571358 187.548218,40.269085 186.325882,41.980209 
	C184.880936,40.536480 182.764206,39.340309 182.123032,37.600384 
	C180.509338,33.221420 176.936417,29.794317 173.432892,30.230057 
	C168.289261,30.869780 166.187424,33.694248 165.963638,39.413589 
	C165.460953,52.261108 180.776611,63.996937 196.602417,56.039551 
z"/>
</svg>