<svg width="30" height="30" viewBox="0 0 30 30" fill="none" xmlns="http://www.w3.org/2000/svg">
<g clip-path="url(#clip0_1_164)">
<path fill-rule="evenodd" clip-rule="evenodd" d="M16.4382 2.09407C17.0759 2.24583 17.6849 2.49866 18.2431 2.84237L19.416 2.32148L20.7983 3.70382L20.2775 4.87634C20.6214 5.43462 20.8742 6.04388 21.026 6.68179L22.2226 7.14234V9.09726L21.0257 9.55792C20.8739 10.1957 20.6211 10.8047 20.2774 11.3628L20.7983 12.5357L19.4159 13.9181L18.2434 13.3973C17.6852 13.7411 17.0759 13.9939 16.438 14.1457L15.9773 15.3423H14.0224L13.5617 14.1454C12.924 13.9936 12.3149 13.7408 11.7568 13.3971L10.5839 13.918L9.20157 12.5357L9.72235 11.3631C9.37852 10.8049 9.12569 10.1955 8.97393 9.55769L7.77733 9.09708V7.14216L8.97411 6.6815C9.12586 6.04376 9.3787 5.43456 9.72246 4.8764L9.20163 3.70364L10.584 2.3213L11.7568 2.8422C12.315 2.49849 12.9241 2.24566 13.5618 2.0939L14.0225 0.897003H15.9773L16.4382 2.09407Z" fill="#FFE177"/>
<path fill-rule="evenodd" clip-rule="evenodd" d="M11.757 13.3972L10.5841 13.9181L10.4035 13.7375L11.5031 13.2491C11.5866 13.3005 11.6712 13.3498 11.757 13.3972ZM16.4382 2.09408C17.0759 2.24584 17.6849 2.49867 18.2431 2.84238L17.9097 2.99045C17.3515 2.6468 16.4886 2.2459 15.851 2.09414L15.3903 0.897247H15.9775L16.4382 2.09408ZM18.2435 13.3973C17.6852 13.7411 17.0759 13.9939 16.438 14.1457L15.9774 15.3423H15.3902L15.8508 14.1457C16.4886 13.9939 17.3517 13.593 17.91 13.2492L18.2435 13.3973ZM10.4034 2.50201L10.584 2.32143L11.7569 2.84233C11.6712 2.88961 11.5866 2.93895 11.5031 2.99039L10.4034 2.50201ZM19.0093 2.50201L19.416 2.32143L20.7983 3.70377L20.2775 4.87629C20.6214 5.43457 20.8742 6.04383 21.026 6.68174L22.2226 7.14229V9.09721L21.0257 9.55787C20.8739 10.1956 20.6211 10.8046 20.2774 11.3628L20.7983 12.5357L19.4159 13.918L19.0093 13.7374L20.211 12.5357L19.6901 11.3628C20.0339 10.8046 20.2866 10.1955 20.4384 9.55787L21.6353 9.09721V7.14229L20.4387 6.68174C20.287 6.04389 20.0341 5.43457 19.6903 4.87629L20.2111 3.70377L19.0093 2.50201Z" fill="#FFD064"/>
<path d="M16.0248 12.4566C18.4231 11.8897 19.9078 9.48585 19.3409 7.08751C18.7739 4.68916 16.3701 3.20451 13.9718 3.77143C11.5734 4.33836 10.0888 6.74218 10.6557 9.14053C11.2226 11.5389 13.6265 13.0235 16.0248 12.4566Z" fill="#ECEFF1"/>
<path fill-rule="evenodd" clip-rule="evenodd" d="M15 3.65665C12.535 3.65665 10.537 5.65464 10.537 8.11973C10.537 10.5848 12.535 12.5828 15 12.5828C15.1195 12.5828 15.2379 12.578 15.355 12.5687C13.056 12.3878 11.247 10.4652 11.247 8.11967C11.247 5.77405 13.056 3.85153 15.355 3.67059C15.2379 3.66145 15.1195 3.65665 15 3.65665Z" fill="#D1D1D6"/>
<path fill-rule="evenodd" clip-rule="evenodd" d="M15.311 5.86694L15.6963 7.06049C15.7406 7.19796 15.8634 7.28714 16.0078 7.2869L17.2621 7.2845C17.4062 7.28421 17.5289 7.37309 17.5734 7.51026C17.618 7.64737 17.571 7.79139 17.4543 7.87594L16.4381 8.61124C16.3211 8.6959 16.2742 8.84028 16.3191 8.97751L16.709 10.1696C16.7538 10.3066 16.7071 10.4507 16.5905 10.5355C16.4739 10.6202 16.3224 10.6201 16.2059 10.5351L15.1927 9.79594C15.076 9.71081 14.9242 9.71081 14.8075 9.79594L13.7943 10.5351C13.6778 10.6201 13.5263 10.6202 13.4097 10.5355C13.293 10.4507 13.2464 10.3066 13.2911 10.1696L13.681 8.97751C13.7259 8.84028 13.6789 8.6959 13.562 8.61124L12.5459 7.87594C12.429 7.79145 12.3821 7.64743 12.4267 7.51026C12.4712 7.37315 12.5939 7.28421 12.7381 7.2845L13.9923 7.2869C14.1367 7.28719 14.2595 7.19796 14.3039 7.06055L14.6892 5.86694C14.7335 5.72971 14.856 5.64059 15.0002 5.64053C15.1442 5.64059 15.2667 5.72971 15.311 5.86694Z" fill="#6CF5C2"/>
<path fill-rule="evenodd" clip-rule="evenodd" d="M1.37209 29.0908L11.4897 29.0907C11.766 29.0907 11.9705 28.8404 11.9153 28.5697C11.3951 26.0167 9.13746 24.0957 6.4309 24.0957C3.72428 24.0957 1.4666 26.0168 0.946466 28.5698C0.891329 28.8404 1.09588 29.0908 1.37209 29.0908Z" fill="#8AC9FE"/>
<path fill-rule="evenodd" clip-rule="evenodd" d="M10.5005 29.0907H11.4897C11.766 29.0907 11.9705 28.8404 11.9153 28.5697C11.3951 26.0167 9.13746 24.0956 6.4309 24.0956C6.2642 24.0956 6.09926 24.1029 5.93631 24.1172C8.41969 24.3346 10.438 26.1739 10.9261 28.5696C10.9813 28.8404 10.7767 29.0907 10.5005 29.0907Z" fill="#60B7FF"/>
<path d="M9.22111 21.7151C9.47118 20.1724 8.42334 18.7191 6.88068 18.4691C5.33802 18.219 3.88473 19.2668 3.63465 20.8095C3.38457 22.3522 4.43242 23.8054 5.97508 24.0555C7.51773 24.3056 8.97103 23.2578 9.22111 21.7151Z" fill="#F6DCCD"/>
<path fill-rule="evenodd" clip-rule="evenodd" d="M6.4309 18.4356C7.99389 18.4356 9.26092 19.7026 9.26092 21.2656C9.26092 22.8285 7.99389 24.0956 6.4309 24.0956C6.29707 24.0956 6.16547 24.0861 6.03662 24.0681C7.41293 23.8762 8.47236 22.6948 8.47236 21.2656C8.47236 19.8364 7.41293 18.655 6.03662 18.4631C6.16553 18.4451 6.29713 18.4356 6.4309 18.4356Z" fill="#F1CBBC"/>
<path fill-rule="evenodd" clip-rule="evenodd" d="M18.5103 29.0908L28.6279 29.0907C28.9042 29.0907 29.1087 28.8404 29.0535 28.5697C28.5333 26.0167 26.2757 24.0957 23.5691 24.0957C20.8625 24.0957 18.6049 26.0168 18.0847 28.5698C18.0295 28.8404 18.2341 29.0908 18.5103 29.0908Z" fill="#8AC9FE"/>
<path fill-rule="evenodd" clip-rule="evenodd" d="M27.6387 29.0907H28.6279C28.9042 29.0907 29.1087 28.8404 29.0535 28.5697C28.5333 26.0167 26.2757 24.0956 23.5691 24.0956C23.4024 24.0956 23.2375 24.1029 23.0745 24.1172C25.5579 24.3346 27.5762 26.1739 28.0643 28.5696C28.1195 28.8404 27.9149 29.0907 27.6387 29.0907Z" fill="#60B7FF"/>
<path d="M26.3232 21.9276C26.6827 20.4068 25.7413 18.8826 24.2205 18.5231C22.6997 18.1636 21.1755 19.105 20.816 20.6258C20.4565 22.1466 21.3979 23.6708 22.9187 24.0303C24.4395 24.3898 25.9637 23.4484 26.3232 21.9276Z" fill="#F6DCCD"/>
<path fill-rule="evenodd" clip-rule="evenodd" d="M23.5691 18.4356C25.1321 18.4356 26.3991 19.7026 26.3991 21.2656C26.3991 22.8285 25.1321 24.0956 23.5691 24.0956C23.4353 24.0956 23.3037 24.0861 23.1748 24.0681C24.5511 23.8762 25.6106 22.6948 25.6106 21.2656C25.6106 19.8364 24.5511 18.655 23.1748 18.4631C23.3037 18.4451 23.4353 18.4356 23.5691 18.4356Z" fill="#F1CBBC"/>
<path fill-rule="evenodd" clip-rule="evenodd" d="M9.03797 29.1029H20.9621C21.2877 29.1029 21.5287 28.8078 21.4637 28.4888C20.8507 25.48 18.1898 23.2159 15.0001 23.2159C11.8102 23.2159 9.14941 25.48 8.53635 28.4889C8.47131 28.8078 8.71242 29.1029 9.03797 29.1029Z" fill="#FFE177"/>
<path fill-rule="evenodd" clip-rule="evenodd" d="M19.7962 29.1028H20.962C21.2876 29.1028 21.5286 28.8078 21.4637 28.4887C20.8506 25.4799 18.1898 23.2158 15 23.2158C14.8035 23.2158 14.6091 23.2245 14.4171 23.2413C17.3439 23.4976 19.7225 25.6652 20.2978 28.4887C20.3629 28.8078 20.1218 29.1028 19.7962 29.1028Z" fill="#FFD064"/>
<path d="M18.2875 20.4117C18.5823 18.5937 17.3473 16.8809 15.5292 16.5862C13.7111 16.2914 11.9983 17.5264 11.7036 19.3444C11.4089 21.1625 12.6438 22.8753 14.4619 23.17C16.28 23.4647 17.9928 22.2298 18.2875 20.4117Z" fill="#F6DCCD"/>
<path fill-rule="evenodd" clip-rule="evenodd" d="M15.0001 16.5452C16.8421 16.5452 18.3354 18.0384 18.3354 19.8804C18.3354 21.7225 16.8421 23.2158 15.0001 23.2158C14.8423 23.2158 14.6872 23.2046 14.5354 23.1834C16.1574 22.9572 17.406 21.5648 17.406 19.8804C17.406 18.1961 16.1574 16.8037 14.5354 16.5775C14.6872 16.5564 14.8423 16.5452 15.0001 16.5452Z" fill="#F1CBBC"/>
<path fill-rule="evenodd" clip-rule="evenodd" d="M15.311 5.86694L15.6963 7.06049C15.7384 7.19092 15.8511 7.27794 15.986 7.2862L15.6407 7.28684C15.4963 7.28714 15.3735 7.1979 15.3291 7.06044L14.9438 5.86688C14.9204 5.7944 14.8751 5.73534 14.8164 5.69573C14.8689 5.66034 14.932 5.64053 15 5.64053C15.1442 5.64059 15.2667 5.72971 15.311 5.86694ZM16.9167 7.28514C17.0513 7.2934 17.1639 7.38006 17.2062 7.51026C17.2507 7.64737 17.2038 7.79139 17.087 7.87594L16.0709 8.61124C15.9539 8.6959 15.907 8.84028 15.9519 8.97751L16.3417 10.1696C16.3866 10.3066 16.3399 10.4507 16.2233 10.5355C16.2205 10.5375 16.2176 10.5394 16.2148 10.5414C16.33 10.6201 16.4767 10.6181 16.5904 10.5355C16.7071 10.4507 16.7537 10.3066 16.7089 10.1696L16.319 8.97751C16.2741 8.84028 16.321 8.6959 16.438 8.61124L17.4541 7.87594C17.571 7.79145 17.6179 7.64743 17.5733 7.51026C17.5288 7.37309 17.4061 7.28421 17.262 7.2845L16.9167 7.28514ZM14.8164 9.78962C14.8134 9.79167 14.8105 9.79378 14.8075 9.79594L13.7942 10.5351C13.6805 10.618 13.5335 10.6202 13.418 10.5414C13.421 10.5394 13.4241 10.5373 13.427 10.5351L14.4403 9.79594C14.554 9.71298 14.701 9.71087 14.8164 9.78962ZM12.7161 7.28514C12.7233 7.28467 12.7306 7.28444 12.738 7.2845L13.647 7.28626C13.6398 7.28672 13.6324 7.28696 13.6251 7.2869L12.7161 7.28514Z" fill="#00E499"/>
<path fill-rule="evenodd" clip-rule="evenodd" d="M13.9921 7.79607C14.3396 7.79607 14.6429 7.57465 14.7504 7.24482L14.9987 6.46992L15.2496 7.24482C15.3571 7.57465 15.6605 7.79607 16.0079 7.79607L16.8214 7.79443L16.1623 8.27174C15.8811 8.47523 15.7652 8.83342 15.8728 9.16354L16.1265 9.93756L15.4674 9.4575C15.3295 9.3552 15.1641 9.30416 14.9986 9.30416C14.8359 9.30416 14.6705 9.35514 14.5298 9.4575L13.8735 9.93756L14.1272 9.16354C14.2348 8.83348 14.1162 8.47529 13.8377 8.27174L13.1759 7.79443L13.9921 7.79607ZM13.2035 8.97076L12.845 10.0641C12.7375 10.3934 12.8532 10.7513 13.1346 10.9551C13.2724 11.0566 13.4379 11.1073 13.6005 11.1073C13.766 11.1073 13.9287 11.0563 14.0694 10.9543L14.9987 10.2762L15.9307 10.9543C16.2092 11.1583 16.5843 11.1586 16.8655 10.9548C17.1468 10.7513 17.2626 10.3934 17.155 10.0641L16.7965 8.97076L17.7286 8.296C18.0099 8.09303 18.1257 7.73514 18.0182 7.4059C17.9134 7.07689 17.6073 6.85605 17.2626 6.85605C17.2626 6.85605 17.2626 6.85605 17.2598 6.85605L16.1099 6.85828L15.757 5.76328C15.6495 5.43375 15.3461 5.21232 14.9987 5.21232C14.6539 5.21232 14.3507 5.43375 14.2431 5.76328L13.8901 6.85828L12.7375 6.85605C12.39 6.85605 12.0867 7.07695 11.9791 7.40566C11.8744 7.7352 11.9902 8.09314 12.2714 8.29605L13.2035 8.97076ZM14.9987 4.16578C12.7982 4.16578 11.0057 5.95764 11.0057 8.16006C11.0057 10.3628 12.7981 12.1546 14.9987 12.1546C17.202 12.1546 18.9943 10.3628 18.9943 8.16006C18.9943 5.95764 17.2019 4.16578 14.9987 4.16578ZM14.9987 13.092C17.7203 13.092 19.9319 10.8796 19.9319 8.16006C19.9319 5.44055 17.7203 3.22822 14.9987 3.22822C12.2797 3.22822 10.0682 5.44061 10.0682 8.16006C10.0682 10.8795 12.2797 13.092 14.9987 13.092ZM8.24543 7.50457V8.81578L9.14162 9.16072C9.285 9.21615 9.39533 9.33914 9.43113 9.48973C9.569 10.0793 9.80344 10.6407 10.1205 11.1578C10.2032 11.2893 10.2142 11.4526 10.1508 11.5938L9.75926 12.4723L10.6886 13.3994L11.5655 13.0092C11.7061 12.9466 11.8716 12.9574 12.0012 13.0385C12.5196 13.357 13.0821 13.5897 13.6695 13.7297C13.8212 13.7656 13.9425 13.8731 13.9976 14.0173L14.3451 14.9141H15.6549L15.9996 14.0176C16.0547 13.8734 16.1788 13.7658 16.3305 13.73C16.9179 13.5896 17.4804 13.3571 17.9961 13.0386C18.1284 12.9573 18.2912 12.9465 18.4345 13.0092L19.3114 13.3993L20.238 12.4723L19.8492 11.5934C19.7858 11.452 19.7968 11.289 19.8795 11.1575C20.1966 10.6399 20.4282 10.0787 20.5689 9.48973C20.6048 9.33943 20.7123 9.21621 20.8557 9.16072L21.7547 8.81549V7.50457L20.8585 7.15963C20.7124 7.10391 20.6048 6.98092 20.5689 6.83062C20.4311 6.24105 20.1967 5.67961 19.8795 5.16228C19.7968 5.03074 19.7858 4.8675 19.8492 4.72635L20.238 3.84809L19.3114 2.92072L18.4345 3.3109C18.2912 3.37377 18.1284 3.36299 17.9961 3.28166C17.4804 2.96314 16.9179 2.7307 16.3305 2.59031C16.1789 2.55445 16.0548 2.44693 15.9996 2.30268L15.6549 1.40619H14.3451L13.9976 2.30268C13.9425 2.44687 13.8212 2.55445 13.6695 2.59031C13.0822 2.73064 12.5196 2.96314 12.0012 3.28166C11.8716 3.36299 11.7061 3.37377 11.5655 3.3109L10.6886 2.92072L9.75926 3.84809L10.1508 4.72664C10.2142 4.86785 10.2032 5.03109 10.1205 5.16264C9.80338 5.67996 9.569 6.24141 9.43113 6.83039C9.39527 6.98098 9.28775 7.10396 9.14162 7.15939L8.24543 7.50457ZM7.6084 9.57498L8.57906 9.94893C8.7252 10.4674 8.92928 10.9651 9.19676 11.4339L8.77207 12.3858C8.6949 12.5631 8.73346 12.7704 8.86857 12.9078L10.2529 14.2899C10.3907 14.4272 10.5976 14.4656 10.774 14.387L11.7254 13.964C12.1942 14.229 12.6933 14.4353 13.2117 14.5795L13.584 15.5512C13.6556 15.7321 13.8294 15.8515 14.0224 15.8515H15.9775C16.1705 15.8515 16.3443 15.7321 16.416 15.5512L16.7882 14.5798C17.3067 14.4358 17.8058 14.2293 18.2745 13.9643L19.2259 14.3871C19.4024 14.4656 19.6092 14.4273 19.7471 14.29L21.1286 12.9076C21.2665 12.7706 21.3051 12.5632 21.2251 12.3859L20.8032 11.4335C21.0679 10.9646 21.2747 10.4672 21.4181 9.94934L22.3915 9.57516C22.5708 9.50566 22.6921 9.33164 22.6921 9.13781V7.18301C22.6921 6.98889 22.5708 6.81516 22.3915 6.74537L21.4181 6.37143C21.2747 5.85328 21.0679 5.35553 20.8032 4.88648L21.2251 3.93457C21.3051 3.75727 21.2665 3.5499 21.1286 3.41285L19.7471 2.03051C19.6092 1.89346 19.4024 1.85484 19.2259 1.93371L18.2745 2.35646C17.8029 2.09145 17.3066 1.8852 16.7882 1.741L16.416 0.769219C16.3443 0.588164 16.1706 0.46875 15.9776 0.46875H14.0225C13.8295 0.46875 13.6557 0.588164 13.584 0.769043L13.2118 1.74082C12.6933 1.88502 12.1942 2.09133 11.7254 2.35629L10.7741 1.93354C10.5976 1.85467 10.3908 1.89328 10.2529 2.03033L8.86863 3.41268C8.73352 3.54973 8.6949 3.75709 8.77213 3.93439L9.19682 4.8866C8.92934 5.35564 8.72525 5.85311 8.57912 6.37125L7.60846 6.74519C7.42647 6.81498 7.30787 6.98871 7.30787 7.18283V9.13764C7.30787 9.33146 7.42641 9.50549 7.6084 9.57498ZM21.8814 28.5937C21.6967 27.4945 21.25 26.4613 20.5854 25.575C21.4458 24.9438 22.4909 24.6005 23.569 24.6005C25.9819 24.6005 28.0225 26.2839 28.5133 28.5937H21.8814ZM6.43096 24.6005C7.50914 24.6005 8.55152 24.9438 9.41461 25.5751C8.75004 26.4613 8.30332 27.4946 8.11857 28.5938H1.4867C1.97479 26.284 4.01813 24.6005 6.43096 24.6005ZM4.10637 21.3381C4.10637 20.0561 5.14875 19.0132 6.43102 19.0132C7.71328 19.0132 8.75561 20.0561 8.75561 21.3381C8.75561 22.6201 7.71328 23.6624 6.43102 23.663C5.14869 23.6624 4.10637 22.6201 4.10637 21.3381ZM14.9987 23.7197C13.2008 23.7206 11.5765 24.5031 10.4653 25.762C10.4542 25.7794 10.4405 25.7964 10.4266 25.813C10.4129 25.8276 10.399 25.8414 10.3853 25.8544C9.73447 26.6215 9.27123 27.5561 9.0699 28.5937H11.9239H20.9301C20.7288 27.5561 20.2655 26.6215 19.6147 25.8544C19.601 25.8414 19.5871 25.8277 19.5734 25.813C19.5595 25.7965 19.5458 25.7794 19.5347 25.762C18.4235 24.5031 16.7993 23.7206 15.0013 23.7197C15.0013 23.7197 15.0013 23.7197 14.9987 23.7197ZM12.1749 19.9587C12.1749 18.4018 13.4434 17.135 14.9987 17.135C16.5567 17.135 17.8223 18.4018 17.8223 19.9587C17.8223 21.5151 16.5567 22.7819 15.0013 22.7824C15.0013 22.7824 15.0013 22.7824 14.9986 22.7824C13.4406 22.7819 12.1749 21.5151 12.1749 19.9587ZM21.2445 21.3381C21.2445 20.0561 22.2868 19.0132 23.569 19.0132C24.8513 19.0132 25.8936 20.0561 25.8936 21.3381C25.8936 22.6201 24.8513 23.6624 23.569 23.663C22.2868 23.6624 21.2445 22.6201 21.2445 21.3381ZM29.5281 29.0126C29.2744 26.6279 27.6502 24.7014 25.4855 23.9748C26.3017 23.3811 26.8312 22.4209 26.8312 21.338C26.8312 19.5393 25.3669 18.0756 23.569 18.0756C21.7712 18.0756 20.3069 19.5393 20.3069 21.338C20.3069 22.422 20.8391 23.3841 21.6553 23.9776C21.0514 24.1805 20.4834 24.4786 19.9704 24.8636C19.8767 24.7682 19.7802 24.6749 19.6809 24.5842C18.9226 23.8978 18.0319 23.3935 17.0723 23.0957C18.0871 22.422 18.7599 21.2677 18.7599 19.9587C18.7599 17.8845 17.075 16.1974 14.9986 16.1974C12.9249 16.1974 11.2373 17.8845 11.2373 19.9587C11.2373 21.2677 11.9101 22.422 12.9277 23.0957C11.968 23.3934 11.0773 23.8978 10.319 24.5842C10.2197 24.6749 10.1232 24.7681 10.0267 24.8636C9.51381 24.4786 8.9458 24.1805 8.34463 23.9776C9.16084 23.3841 9.69305 22.422 9.69305 21.338C9.69305 19.5393 8.22879 18.0756 6.4309 18.0756C4.6302 18.0756 3.16875 19.5393 3.16875 21.338C3.16875 22.4209 3.6982 23.3811 4.51166 23.9748C2.34973 24.7014 0.725567 26.6278 0.471857 29.0126C0.458087 29.1452 0.499454 29.277 0.587696 29.376C0.678692 29.475 0.805548 29.5313 0.937911 29.5313H8.52387H18.076H29.062C29.1944 29.5313 29.3212 29.4751 29.4122 29.376C29.5005 29.277 29.5419 29.1452 29.5281 29.0126Z" fill="#242222"/>
</g>
<defs>
<clipPath id="clip0_1_164">
<rect width="30" height="30" fill="white"/>
</clipPath>
</defs>
</svg>
