<svg width="18" height="19" viewBox="0 0 18 19" fill="none" xmlns="http://www.w3.org/2000/svg">
<g clip-path="url(#clip0_1_112)">
<path fill-rule="evenodd" clip-rule="evenodd" d="M8.87084 15.6332V16.5302C8.87084 17.2496 8.51231 17.8706 7.88931 18.2303C7.58957 18.4033 7.25502 18.4999 6.90817 18.5C6.561 18.5002 6.22656 18.4035 5.92661 18.2303L1.93792 15.9274C1.31484 15.5677 0.95639 14.9468 0.95639 14.2274V2.46305C0.95639 1.38056 1.83698 0.5 2.91945 0.5H11.704C12.7865 0.5 13.6672 1.38049 13.6672 2.46305V4.94294C13.6672 5.29869 13.3783 5.58753 13.0226 5.58753C12.6667 5.58753 12.3781 5.29872 12.3781 4.94294V2.46305C12.3781 2.09135 12.0757 1.7889 11.704 1.7889H4.00644L7.88931 4.03106C8.5121 4.39071 8.87084 5.01157 8.87084 5.73076V14.3441H11.704C12.0756 14.3441 12.3781 14.0419 12.3781 13.6701V11.4962C12.3781 11.1402 12.6666 10.8516 13.0226 10.8516C13.3785 10.8516 13.6672 11.1403 13.6672 11.4962V13.6701C13.6672 14.7527 12.7865 15.6332 11.704 15.6332H8.87084ZM14.8433 8.71102L14.1334 9.42086C13.8818 9.67255 13.8818 10.0806 14.1334 10.3323C14.2546 10.4535 14.4179 10.5209 14.5892 10.5209C14.7607 10.5209 14.9238 10.4537 15.0451 10.3323L16.8549 8.52216C17.1065 8.27052 17.1065 7.8627 16.8549 7.61105L15.0451 5.80121C14.7934 5.54949 14.3853 5.5496 14.1335 5.80118C13.8819 6.05261 13.8819 6.46081 14.1335 6.71232L14.8433 7.42198H10.0881C9.73195 7.42198 9.4436 7.71055 9.4436 8.06661C9.4436 8.42267 9.73199 8.71106 10.0881 8.71106H14.8433V8.71102Z" fill="white"/>
</g>
<defs>
<clipPath id="clip0_1_112">
<rect width="18" height="18" fill="white" transform="translate(0 0.5)"/>
</clipPath>
</defs>
</svg>
