<svg version="1.1" id="Layer_1" xmlns="http://www.w3.org/2000/svg" xmlns:xlink="http://www.w3.org/1999/xlink" x="0px" y="0px"
	 width="100%" viewBox="0 0 512 512" enable-background="new 0 0 512 512" xml:space="preserve">
<path fill="#030202" opacity="1.000000" stroke="none" 
	d="
M1.000000,175.000000 
	C1.000000,116.666664 1.000000,58.833332 1.000000,1.000000 
	C171.666672,1.000000 342.333344,1.000000 513.000000,1.000000 
	C513.000000,171.666672 513.000000,342.333344 513.000000,513.000000 
	C342.333344,513.000000 171.666672,513.000000 1.000000,513.000000 
	C1.000000,400.500000 1.000000,288.000000 1.000000,175.000000 
M53.981544,207.725189 
	C53.154961,212.969803 49.789352,214.911224 44.809353,214.892151 
	C35.355850,214.855972 25.902105,214.881668 16.342598,214.881668 
	C16.342598,243.190536 16.342598,271.069000 16.342598,298.827606 
	C44.446407,298.827606 72.212906,298.827606 100.054977,298.827606 
	C100.054977,270.795685 100.054977,243.053375 100.054977,215.524963 
	C99.664177,215.207016 99.535583,215.010681 99.405518,215.009705 
	C92.408234,214.956726 85.410477,214.950638 78.413513,214.872803 
	C72.277191,214.804550 70.264389,213.109955 69.041092,206.283859 
	C70.196762,201.392609 73.472000,199.729370 78.257202,199.832626 
	C85.517776,199.989258 92.784225,199.873566 99.910004,199.873566 
	C99.910004,171.356262 99.910004,143.503189 99.910004,115.622742 
	C71.771568,115.622742 44.049576,115.622742 16.297932,115.622742 
	C16.297932,143.787003 16.297932,171.662064 16.297932,199.873184 
	C25.879974,199.873184 35.173199,200.016693 44.459072,199.817581 
	C49.748516,199.704147 53.086044,201.668060 53.981544,207.725189 
M115.328972,161.499878 
	C115.328972,240.400711 115.328972,319.301544 115.328972,398.374695 
	C210.044266,398.374695 304.078247,398.374695 398.242249,398.374695 
	C398.242249,303.925903 398.242249,209.774048 398.242249,115.713531 
	C303.778687,115.713531 209.744476,115.713531 115.329056,115.713531 
	C115.329056,130.896515 115.329056,145.698196 115.328972,161.499878 
M446.500031,314.127716 
	C435.719421,314.127716 424.938843,314.127716 413.991028,314.127716 
	C413.991028,342.494110 413.991028,370.359985 413.991028,398.440430 
	C442.040771,398.440430 469.774109,398.440430 497.997864,398.440430 
	C497.997864,394.112152 497.995941,389.995483 497.998291,385.878815 
	C498.002808,378.014069 498.691620,376.959259 505.805542,373.975342 
	C505.805542,369.393219 505.805542,364.786163 505.805542,360.256165 
	C498.824158,357.540955 498.013275,356.372620 497.998779,349.183228 
	C497.993073,346.352478 497.997864,343.521698 497.997864,340.690948 
	C497.997864,331.932129 497.997864,323.173309 497.997864,314.127716 
	C480.748322,314.127716 464.124207,314.127716 446.500031,314.127716 
M314.127655,69.499962 
	C314.127655,79.619377 314.127655,89.738792 314.127655,99.972107 
	C342.519226,99.972107 370.392273,99.972107 398.397034,99.972107 
	C398.397034,71.873993 398.397034,44.129063 398.397034,16.305670 
	C370.235107,16.305670 342.344452,16.305670 314.127655,16.305670 
	C314.127655,33.904552 314.127655,51.202251 314.127655,69.499962 
M150.499878,100.324654 
	C166.787537,100.324654 183.075195,100.324654 199.537079,100.324654 
	C199.537079,71.974617 199.537079,44.105431 199.537079,16.195992 
	C171.423981,16.195992 143.646576,16.195992 115.700317,16.195992 
	C115.700317,44.251667 115.700317,72.112556 115.700317,100.324715 
	C127.209633,100.324715 138.354752,100.324715 150.499878,100.324654 
M79.499664,398.665955 
	C86.291168,398.665955 93.082672,398.665955 99.975327,398.665955 
	C99.975327,370.236328 99.975327,342.356384 99.975327,314.384949 
	C71.882507,314.384949 44.140991,314.384949 16.305073,314.384949 
	C16.305073,342.527802 16.305073,370.412567 16.305073,398.665894 
	C37.236923,398.665894 57.868324,398.665894 79.499664,398.665955 
M317.666504,413.694366 
	C313.599121,413.115417 314.115845,415.920227 314.117279,418.431335 
	C314.131744,443.576202 314.121521,468.721039 314.139496,493.865906 
	C314.140411,495.140442 314.335663,496.414856 314.435730,497.632202 
	C342.624817,497.632202 370.488342,497.632202 398.339020,497.632202 
	C398.339020,469.544617 398.339020,441.822510 398.339020,413.693085 
	C371.543762,413.693085 345.088654,413.693085 317.666504,413.694366 
M487.459900,115.332870 
	C463.008850,115.332870 438.557800,115.332870 414.039825,115.332870 
	C414.039825,143.781357 414.039825,171.663635 414.039825,199.601227 
	C442.147766,199.601227 469.889984,199.601227 497.677124,199.601227 
	C497.677124,171.443817 497.677124,143.558441 497.677124,115.332916 
	C494.387817,115.332916 491.414856,115.332916 487.459900,115.332870 
M141.500061,413.693054 
	C132.912766,413.693054 124.325470,413.693054 115.605774,413.693054 
	C115.605774,442.143616 115.605774,469.867035 115.605774,497.683777 
	C143.765320,497.683777 171.636810,497.683777 199.596161,497.683777 
	C199.596161,469.645813 199.596161,441.921265 199.596161,413.692902 
	C180.381790,413.692902 161.440933,413.692902 141.500061,413.693054 
M241.499893,100.315376 
	C260.575104,100.315376 279.650330,100.315376 298.765381,100.315376 
	C298.765381,71.897461 298.765381,44.059048 298.765381,16.265190 
	C270.689911,16.265190 242.965790,16.265190 215.226212,16.265190 
	C215.226212,44.381210 215.226212,72.236916 215.226212,100.315460 
	C223.878067,100.315460 232.188980,100.315460 241.499893,100.315376 
M497.993500,234.500397 
	C497.993500,228.057114 497.993500,221.613831 497.993500,215.137192 
	C469.656921,215.137192 441.899200,215.137192 413.914032,215.137192 
	C413.914032,243.130264 413.914032,270.869476 413.914032,298.778046 
	C442.011322,298.778046 469.879181,298.778046 497.993500,298.778046 
	C497.993500,277.460266 497.993500,256.480225 497.993500,234.500397 
M299.107941,439.500000 
	C299.107941,431.054199 299.107941,422.608368 299.107941,414.057495 
	C270.764740,414.057495 243.043015,414.057495 215.196701,414.057495 
	C215.196701,442.128632 215.196701,469.860504 215.196701,497.694214 
	C243.239929,497.694214 270.977600,497.694214 299.108002,497.694214 
	C299.108002,478.432831 299.108002,459.466431 299.107941,439.500000 
M100.331825,32.500954 
	C100.331825,27.086180 100.331825,21.671406 100.331825,16.002237 
	C84.769203,16.002237 69.806061,15.911359 54.844437,16.023672 
	C32.749439,16.189531 16.167786,32.858181 16.019175,55.014294 
	C15.926485,68.833168 15.993379,82.653175 16.014675,96.472633 
	C16.016613,97.730766 16.208689,98.988602 16.297966,100.070763 
	C44.439621,100.070763 72.185669,100.070763 100.331833,100.070763 
	C100.331833,77.708328 100.331833,55.604622 100.331825,32.500954 
M480.318451,22.082962 
	C473.512177,17.773165 466.065430,15.922488 458.030884,15.977010 
	C444.700592,16.067465 431.369232,15.994557 418.038330,16.011829 
	C416.612152,16.013678 415.186157,16.157434 413.951843,16.224884 
	C413.951843,44.449856 413.951843,72.212723 413.951843,100.151825 
	C441.995605,100.151825 469.756775,100.151825 497.800232,100.151825 
	C497.869293,98.590019 497.988342,97.129280 497.989929,95.668411 
	C498.004456,82.504158 497.937408,69.339531 498.014801,56.175720 
	C498.098236,41.983036 492.539124,30.717218 480.318451,22.082962 
M419.506073,413.669464 
	C417.719208,413.669464 415.932343,413.669464 413.920837,413.669464 
	C413.920837,441.959381 413.920837,469.808411 413.920837,497.880188 
	C430.456757,497.880188 446.771423,498.482910 463.021271,497.714142 
	C479.980591,496.911865 494.643738,483.809540 496.924774,466.981201 
	C498.500000,455.360046 497.768005,443.420929 497.979584,431.622345 
	C498.086151,425.679077 497.998169,419.732300 497.998169,413.669434 
	C471.775452,413.669434 446.139343,413.669434 419.506073,413.669464 
M34.500435,413.669769 
	C28.420635,413.669769 22.340836,413.669769 16.002571,413.669769 
	C16.002571,429.063232 15.941746,443.858490 16.016699,458.653076 
	C16.131760,481.364288 32.709404,497.864929 55.519875,497.984558 
	C69.171646,498.056152 82.824112,498.006012 96.476219,497.984253 
	C97.733070,497.982269 98.989609,497.788605 100.068970,497.698730 
	C100.068970,469.556732 100.068970,441.812500 100.068970,413.669739 
	C78.373413,413.669739 56.936924,413.669739 34.500435,413.669769 
z"/>
<path fill="#BDDF9D" opacity="1.000000" stroke="none" 
	d="
M115.329010,160.999878 
	C115.329056,145.698196 115.329056,130.896515 115.329056,115.713531 
	C209.744476,115.713531 303.778687,115.713531 398.242249,115.713531 
	C398.242249,209.774048 398.242249,303.925903 398.242249,398.374695 
	C304.078247,398.374695 210.044266,398.374695 115.328972,398.374695 
	C115.328972,319.301544 115.328972,240.400711 115.329010,160.999878 
M262.131470,348.230316 
	C268.905701,358.960205 278.574860,364.224670 291.325592,364.114258 
	C307.306793,363.975922 323.290222,364.112427 339.272491,364.071991 
	C358.322815,364.023773 372.020020,351.261108 372.523407,332.311523 
	C372.974213,315.342468 372.960938,298.343140 372.524963,281.373260 
	C372.042664,262.599060 358.630249,249.610794 339.926697,249.367233 
	C323.447632,249.152634 306.960968,249.136505 290.482452,249.370377 
	C271.290070,249.642731 257.997955,263.212036 257.899139,282.348297 
	C257.814911,298.663239 257.560242,314.988861 258.062805,331.288757 
	C258.231079,336.746826 260.502472,342.140076 262.131470,348.230316 
M256.120514,227.471222 
	C256.119995,212.811356 256.159729,198.151367 256.109161,183.491669 
	C256.039490,163.299011 242.751907,149.967072 222.680908,149.925507 
	C207.021576,149.893082 191.362076,149.908264 175.702682,149.921890 
	C154.683182,149.940186 141.447632,163.134674 141.368973,184.222794 
	C141.311798,199.548813 141.310501,214.875381 141.367905,230.201401 
	C141.446564,251.200974 154.777557,264.591370 175.684540,264.669739 
	C191.177155,264.727783 206.670746,264.753876 222.162506,264.625214 
	C225.625778,264.596466 229.192474,264.270752 232.524597,263.381348 
	C247.966843,259.259460 256.099121,247.066193 256.120514,227.471222 
z"/>
<path fill="#ACC8F8" opacity="1.000000" stroke="none" 
	d="
M447.000061,314.127716 
	C464.124207,314.127716 480.748322,314.127716 497.997864,314.127716 
	C497.997864,323.173309 497.997864,331.932129 497.997864,340.690948 
	C497.997864,343.521698 497.993073,346.352478 497.998779,349.183228 
	C498.013275,356.372620 498.824158,357.540955 505.805542,360.256165 
	C505.805542,364.786163 505.805542,369.393219 505.805542,373.975342 
	C498.691620,376.959259 498.002808,378.014069 497.998291,385.878815 
	C497.995941,389.995483 497.997864,394.112152 497.997864,398.440430 
	C469.774109,398.440430 442.040771,398.440430 413.991028,398.440430 
	C413.991028,370.359985 413.991028,342.494110 413.991028,314.127716 
	C424.938843,314.127716 435.719421,314.127716 447.000061,314.127716 
z"/>
<path fill="#CBB9E9" opacity="1.000000" stroke="none" 
	d="
M54.140221,206.994843 
	C53.086044,201.668060 49.748516,199.704147 44.459072,199.817581 
	C35.173199,200.016693 25.879974,199.873184 16.297932,199.873184 
	C16.297932,171.662064 16.297932,143.787003 16.297932,115.622742 
	C44.049576,115.622742 71.771568,115.622742 99.910004,115.622742 
	C99.910004,143.503189 99.910004,171.356262 99.910004,199.873566 
	C92.784225,199.873566 85.517776,199.989258 78.257202,199.832626 
	C73.472000,199.729370 70.196762,201.392609 68.488266,206.641998 
	C63.337029,206.998367 58.738625,206.996597 54.140221,206.994843 
z"/>
<path fill="#BAABEB" opacity="1.000000" stroke="none" 
	d="
M54.060883,207.360016 
	C58.738625,206.996597 63.337029,206.998367 68.391014,206.997101 
	C70.264389,213.109955 72.277191,214.804550 78.413513,214.872803 
	C85.410477,214.950638 92.408234,214.956726 99.405518,215.009705 
	C99.535583,215.010681 99.664177,215.207016 100.054977,215.524963 
	C100.054977,243.053375 100.054977,270.795685 100.054977,298.827606 
	C72.212906,298.827606 44.446407,298.827606 16.342598,298.827606 
	C16.342598,271.069000 16.342598,243.190536 16.342598,214.881668 
	C25.902105,214.881668 35.355850,214.855972 44.809353,214.892151 
	C49.789352,214.911224 53.154961,212.969803 54.060883,207.360016 
z"/>
<path fill="#F3DB80" opacity="1.000000" stroke="none" 
	d="
M314.127655,68.999954 
	C314.127655,51.202251 314.127655,33.904552 314.127655,16.305670 
	C342.344452,16.305670 370.235107,16.305670 398.397034,16.305670 
	C398.397034,44.129063 398.397034,71.873993 398.397034,99.972107 
	C370.392273,99.972107 342.519226,99.972107 314.127655,99.972107 
	C314.127655,89.738792 314.127655,79.619377 314.127655,68.999954 
z"/>
<path fill="#F3DB80" opacity="1.000000" stroke="none" 
	d="
M149.999878,100.324684 
	C138.354752,100.324715 127.209633,100.324715 115.700317,100.324715 
	C115.700317,72.112556 115.700317,44.251667 115.700317,16.195992 
	C143.646576,16.195992 171.423981,16.195992 199.537079,16.195992 
	C199.537079,44.105431 199.537079,71.974617 199.537079,100.324654 
	C183.075195,100.324654 166.787537,100.324654 149.999878,100.324684 
z"/>
<path fill="#CBB9E9" opacity="1.000000" stroke="none" 
	d="
M78.999695,398.665924 
	C57.868324,398.665894 37.236923,398.665894 16.305073,398.665894 
	C16.305073,370.412567 16.305073,342.527802 16.305073,314.384949 
	C44.140991,314.384949 71.882507,314.384949 99.975327,314.384949 
	C99.975327,342.356384 99.975327,370.236328 99.975327,398.665955 
	C93.082672,398.665955 86.291168,398.665955 78.999695,398.665924 
z"/>
<path fill="#E07E82" opacity="1.000000" stroke="none" 
	d="
M318.150024,413.693726 
	C345.088654,413.693085 371.543762,413.693085 398.339020,413.693085 
	C398.339020,441.822510 398.339020,469.544617 398.339020,497.632202 
	C370.488342,497.632202 342.624817,497.632202 314.435730,497.632202 
	C314.335663,496.414856 314.140411,495.140442 314.139496,493.865906 
	C314.121521,468.721039 314.131744,443.576202 314.117279,418.431335 
	C314.115845,415.920227 313.599121,413.115417 318.150024,413.693726 
z"/>
<path fill="#ACC8F8" opacity="1.000000" stroke="none" 
	d="
M487.950897,115.332893 
	C491.414856,115.332916 494.387817,115.332916 497.677124,115.332916 
	C497.677124,143.558441 497.677124,171.443817 497.677124,199.601227 
	C469.889984,199.601227 442.147766,199.601227 414.039825,199.601227 
	C414.039825,171.663635 414.039825,143.781357 414.039825,115.332870 
	C438.557800,115.332870 463.008850,115.332870 487.950897,115.332893 
z"/>
<path fill="#E07E82" opacity="1.000000" stroke="none" 
	d="
M142.000061,413.692993 
	C161.440933,413.692902 180.381790,413.692902 199.596161,413.692902 
	C199.596161,441.921265 199.596161,469.645813 199.596161,497.683777 
	C171.636810,497.683777 143.765320,497.683777 115.605774,497.683777 
	C115.605774,469.867035 115.605774,442.143616 115.605774,413.693054 
	C124.325470,413.693054 132.912766,413.693054 142.000061,413.692993 
z"/>
<path fill="#F1CD6B" opacity="1.000000" stroke="none" 
	d="
M240.999878,100.315414 
	C232.188980,100.315460 223.878067,100.315460 215.226212,100.315460 
	C215.226212,72.236916 215.226212,44.381210 215.226212,16.265190 
	C242.965790,16.265190 270.689911,16.265190 298.765381,16.265190 
	C298.765381,44.059048 298.765381,71.897461 298.765381,100.315376 
	C279.650330,100.315376 260.575104,100.315376 240.999878,100.315414 
z"/>
<path fill="#94AFE5" opacity="1.000000" stroke="none" 
	d="
M497.993500,235.000275 
	C497.993500,256.480225 497.993500,277.460266 497.993500,298.778046 
	C469.879181,298.778046 442.011322,298.778046 413.914032,298.778046 
	C413.914032,270.869476 413.914032,243.130264 413.914032,215.137192 
	C441.899200,215.137192 469.656921,215.137192 497.993500,215.137192 
	C497.993500,221.613831 497.993500,228.057114 497.993500,235.000275 
z"/>
<path fill="#C8646D" opacity="1.000000" stroke="none" 
	d="
M299.107971,440.000000 
	C299.108002,459.466431 299.108002,478.432831 299.108002,497.694214 
	C270.977600,497.694214 243.239929,497.694214 215.196701,497.694214 
	C215.196701,469.860504 215.196701,442.128632 215.196701,414.057495 
	C243.043015,414.057495 270.764740,414.057495 299.107941,414.057495 
	C299.107941,422.608368 299.107941,431.054199 299.107971,440.000000 
z"/>
<path fill="#F4F7F7" opacity="1.000000" stroke="none" 
	d="
M100.331833,33.000935 
	C100.331833,55.604622 100.331833,77.708328 100.331833,100.070763 
	C72.185669,100.070763 44.439621,100.070763 16.297966,100.070763 
	C16.208689,98.988602 16.016613,97.730766 16.014675,96.472633 
	C15.993379,82.653175 15.926485,68.833168 16.019175,55.014294 
	C16.167786,32.858181 32.749439,16.189531 54.844437,16.023672 
	C69.806061,15.911359 84.769203,16.002237 100.331825,16.002237 
	C100.331825,21.671406 100.331825,27.086180 100.331833,33.000935 
M39.741951,55.129425 
	C50.215469,55.235714 60.689388,55.444912 71.162338,55.404297 
	C76.297142,55.384388 79.501671,52.414600 79.630775,48.156895 
	C79.764595,43.743687 76.390076,40.527042 71.079765,40.456188 
	C61.598328,40.329681 52.113991,40.425983 42.630882,40.416050 
	C38.535496,40.411762 35.343845,42.019039 34.298119,46.116184 
	C33.252491,50.212929 35.154881,53.190487 39.741951,55.129425 
M61.477051,76.828568 
	C64.633530,76.828102 67.792480,76.907074 70.945946,76.809341 
	C76.237885,76.645332 79.659836,73.588066 79.631866,69.190849 
	C79.603477,64.726845 76.297241,61.865948 70.854370,61.828171 
	C61.551510,61.763603 52.247631,61.770523 42.944656,61.826591 
	C37.444382,61.859737 34.150032,64.604256 34.041115,69.043060 
	C33.927044,73.691742 37.348881,76.721298 43.041203,76.807251 
	C48.854454,76.895042 54.670052,76.827896 61.477051,76.828568 
z"/>
<path fill="#F4F7F7" opacity="1.000000" stroke="none" 
	d="
M480.620941,22.287796 
	C492.539124,30.717218 498.098236,41.983036 498.014801,56.175720 
	C497.937408,69.339531 498.004456,82.504158 497.989929,95.668411 
	C497.988342,97.129280 497.869293,98.590019 497.800232,100.151825 
	C469.756775,100.151825 441.995605,100.151825 413.951843,100.151825 
	C413.951843,72.212723 413.951843,44.449856 413.951843,16.224884 
	C415.186157,16.157434 416.612152,16.013678 418.038330,16.011829 
	C431.369232,15.994557 444.700592,16.067465 458.030884,15.977010 
	C466.065430,15.922488 473.512177,17.773165 480.620941,22.287796 
M472.541809,37.771404 
	C470.284729,38.995911 467.645599,39.815338 465.839874,41.518406 
	C459.620300,47.384369 453.691864,53.559063 446.830750,60.440365 
	C446.830750,55.227264 446.951080,51.275623 446.800446,47.334339 
	C446.610352,42.359425 443.493103,39.093853 439.227631,39.107777 
	C434.965088,39.121693 431.906403,42.415295 431.863953,47.400944 
	C431.777496,57.554333 431.764221,67.709717 431.867401,77.862793 
	C431.921204,83.152939 434.625977,85.936241 439.835358,85.997337 
	C449.988098,86.116409 460.143738,86.094948 470.297058,86.006042 
	C475.320679,85.962051 478.606689,82.956238 478.698090,78.673477 
	C478.792847,74.230789 475.355804,71.147888 470.060333,71.049408 
	C466.168793,70.977036 462.274841,71.035217 457.123169,71.035217 
	C464.449310,63.808983 470.912201,57.626236 477.149078,51.223301 
	C482.401428,45.831100 480.633545,39.924381 472.541809,37.771404 
z"/>
<path fill="#F4F7F7" opacity="1.000000" stroke="none" 
	d="
M420.004639,413.669434 
	C446.139343,413.669434 471.775452,413.669434 497.998169,413.669434 
	C497.998169,419.732300 498.086151,425.679077 497.979584,431.622345 
	C497.768005,443.420929 498.500000,455.360046 496.924774,466.981201 
	C494.643738,483.809540 479.980591,496.911865 463.021271,497.714142 
	C446.771423,498.482910 430.456757,497.880188 413.920837,497.880188 
	C413.920837,469.808411 413.920837,441.959381 413.920837,413.669464 
	C415.932343,413.669464 417.719208,413.669464 420.004639,413.669434 
M478.023834,442.629822 
	C470.656494,429.134949 456.849670,423.548676 443.564789,428.687531 
	C430.568146,433.714905 423.252625,447.330994 426.490326,460.467529 
	C430.337769,476.078156 446.003723,485.186035 461.125854,480.604034 
	C476.850830,475.839294 484.379639,459.522339 478.023834,442.629822 
z"/>
<path fill="#F5F7F7" opacity="1.000000" stroke="none" 
	d="
M35.000435,413.669739 
	C56.936924,413.669739 78.373413,413.669739 100.068970,413.669739 
	C100.068970,441.812500 100.068970,469.556732 100.068970,497.698730 
	C98.989609,497.788605 97.733070,497.982269 96.476219,497.984253 
	C82.824112,498.006012 69.171646,498.056152 55.519875,497.984558 
	C32.709404,497.864929 16.131760,481.364288 16.016699,458.653076 
	C15.941746,443.858490 16.002571,429.063232 16.002571,413.669769 
	C22.340836,413.669769 28.420635,413.669769 35.000435,413.669739 
M63.978138,476.431274 
	C64.053185,483.086334 66.197998,486.803711 70.764595,486.771820 
	C80.306145,486.705200 78.634178,478.925720 79.209908,473.087067 
	C89.395317,472.762756 92.883171,470.769684 92.943581,465.471527 
	C93.000771,460.457092 90.096275,458.763092 79.221710,457.548798 
	C79.221710,455.163666 79.221710,452.762299 79.221710,450.385651 
	C89.864471,449.403320 92.847565,447.839264 92.834282,442.889618 
	C92.829727,441.194519 92.235817,438.543701 91.098396,437.985352 
	C87.429642,436.184662 83.382462,435.154907 79.175652,433.724091 
	C78.520493,424.351379 76.781631,420.898102 71.729073,421.164795 
	C62.646572,421.644257 64.227608,429.078857 63.814972,434.677917 
	C60.972012,434.677917 58.572155,434.677917 56.201717,434.677917 
	C55.842709,424.653381 54.142597,421.469666 49.124386,421.093719 
	C43.880703,420.700928 41.903576,423.869019 40.657238,434.661163 
	C30.209982,435.760498 27.258829,437.298004 27.225281,442.148102 
	C27.213562,443.842194 27.800278,446.503265 28.934658,447.065063 
	C32.594795,448.877716 36.637028,449.918884 40.752407,451.333130 
	C40.752407,452.979401 40.752407,455.379333 40.752407,457.748199 
	C30.570913,458.321289 27.153770,459.901764 27.236828,464.790741 
	C27.396618,474.196533 35.099995,472.704651 40.977077,473.127075 
	C41.206646,483.169556 43.029018,486.691772 48.164291,486.785034 
	C49.853924,486.815674 52.525063,486.230835 53.086792,485.101501 
	C54.904205,481.447510 55.950172,477.409821 57.377930,473.274963 
	C59.021824,474.135590 62.856152,470.394318 63.978138,476.431274 
z"/>
<path fill="#040403" opacity="1.000000" stroke="none" 
	d="
M261.971985,347.896637 
	C260.502472,342.140076 258.231079,336.746826 258.062805,331.288757 
	C257.560242,314.988861 257.814911,298.663239 257.899139,282.348297 
	C257.997955,263.212036 271.290070,249.642731 290.482452,249.370377 
	C306.960968,249.136505 323.447632,249.152634 339.926697,249.367233 
	C358.630249,249.610794 372.042664,262.599060 372.524963,281.373260 
	C372.960938,298.343140 372.974213,315.342468 372.523407,332.311523 
	C372.020020,351.261108 358.322815,364.023773 339.272491,364.071991 
	C323.290222,364.112427 307.306793,363.975922 291.325592,364.114258 
	C278.574860,364.224670 268.905701,358.960205 261.971985,347.896637 
M285.295807,265.029846 
	C277.930969,267.427429 273.183563,272.365997 273.041199,280.171906 
	C272.717285,297.935638 272.810608,315.710815 273.007477,333.478302 
	C273.086853,340.644318 277.973358,346.154663 285.643585,348.569641 
	C287.624908,348.738739 289.605865,349.049438 291.587616,349.054565 
	C307.243317,349.094879 322.899231,349.090576 338.555023,349.072479 
	C350.939209,349.058167 357.571289,342.428558 357.615570,329.911774 
	C357.670349,314.422699 357.681580,298.933044 357.613312,283.444061 
	C357.558746,271.071838 350.789551,264.377197 338.378143,264.343414 
	C322.889008,264.301239 307.399506,264.305573 291.910522,264.367615 
	C289.945496,264.375458 287.982391,264.852661 285.295807,265.029846 
z"/>
<path fill="#040403" opacity="1.000000" stroke="none" 
	d="
M256.120483,227.964691 
	C256.099121,247.066193 247.966843,259.259460 232.524597,263.381348 
	C229.192474,264.270752 225.625778,264.596466 222.162506,264.625214 
	C206.670746,264.753876 191.177155,264.727783 175.684540,264.669739 
	C154.777557,264.591370 141.446564,251.200974 141.367905,230.201401 
	C141.310501,214.875381 141.311798,199.548813 141.368973,184.222794 
	C141.447632,163.134674 154.683182,149.940186 175.702682,149.921890 
	C191.362076,149.908264 207.021576,149.893082 222.680908,149.925507 
	C242.751907,149.967072 256.039490,163.299011 256.109161,183.491669 
	C256.159729,198.151367 256.119995,212.811356 256.120483,227.964691 
M169.341736,165.278748 
	C161.508377,167.688828 156.665741,172.957870 156.504684,181.131378 
	C156.161087,198.568375 156.168167,216.022293 156.531479,233.458862 
	C156.706558,241.861603 162.057495,247.368881 170.778534,249.264984 
	C189.082169,249.347061 207.393570,249.773666 225.686020,249.360489 
	C234.348587,249.164810 240.887726,242.098495 240.991882,233.824417 
	C241.216141,216.009369 241.224121,198.187119 240.974670,180.372650 
	C240.864410,172.499039 234.203064,165.258682 226.457016,165.141937 
	C207.660202,164.858627 188.853699,165.218323 169.341736,165.278748 
z"/>
<path fill="#070808" opacity="1.000000" stroke="none" 
	d="
M39.345001,55.046638 
	C35.154881,53.190487 33.252491,50.212929 34.298119,46.116184 
	C35.343845,42.019039 38.535496,40.411762 42.630882,40.416050 
	C52.113991,40.425983 61.598328,40.329681 71.079765,40.456188 
	C76.390076,40.527042 79.764595,43.743687 79.630775,48.156895 
	C79.501671,52.414600 76.297142,55.384388 71.162338,55.404297 
	C60.689388,55.444912 50.215469,55.235714 39.345001,55.046638 
z"/>
<path fill="#060606" opacity="1.000000" stroke="none" 
	d="
M60.980835,76.828568 
	C54.670052,76.827896 48.854454,76.895042 43.041203,76.807251 
	C37.348881,76.721298 33.927044,73.691742 34.041115,69.043060 
	C34.150032,64.604256 37.444382,61.859737 42.944656,61.826591 
	C52.247631,61.770523 61.551510,61.763603 70.854370,61.828171 
	C76.297241,61.865948 79.603477,64.726845 79.631866,69.190849 
	C79.659836,73.588066 76.237885,76.645332 70.945946,76.809341 
	C67.792480,76.907074 64.633530,76.828102 60.980835,76.828568 
z"/>
<path fill="#030303" opacity="1.000000" stroke="none" 
	d="
M472.944702,37.791656 
	C480.633545,39.924381 482.401428,45.831100 477.149078,51.223301 
	C470.912201,57.626236 464.449310,63.808983 457.123169,71.035217 
	C462.274841,71.035217 466.168793,70.977036 470.060333,71.049408 
	C475.355804,71.147888 478.792847,74.230789 478.698090,78.673477 
	C478.606689,82.956238 475.320679,85.962051 470.297058,86.006042 
	C460.143738,86.094948 449.988098,86.116409 439.835358,85.997337 
	C434.625977,85.936241 431.921204,83.152939 431.867401,77.862793 
	C431.764221,67.709717 431.777496,57.554333 431.863953,47.400944 
	C431.906403,42.415295 434.965088,39.121693 439.227631,39.107777 
	C443.493103,39.093853 446.610352,42.359425 446.800446,47.334339 
	C446.951080,51.275623 446.830750,55.227264 446.830750,60.440365 
	C453.691864,53.559063 459.620300,47.384369 465.839874,41.518406 
	C467.645599,39.815338 470.284729,38.995911 472.944702,37.791656 
z"/>
<path fill="#040404" opacity="1.000000" stroke="none" 
	d="
M478.171448,442.985779 
	C484.379639,459.522339 476.850830,475.839294 461.125854,480.604034 
	C446.003723,485.186035 430.337769,476.078156 426.490326,460.467529 
	C423.252625,447.330994 430.568146,433.714905 443.564789,428.687531 
	C456.849670,423.548676 470.656494,429.134949 478.171448,442.985779 
M446.809723,464.939056 
	C454.682281,468.351318 461.951691,465.954712 464.744781,459.026123 
	C467.449249,452.317383 463.958008,444.839478 457.043976,442.531464 
	C451.582336,440.708282 445.340210,443.105560 442.433319,448.142700 
	C439.330811,453.518768 440.693451,459.510498 446.809723,464.939056 
z"/>
<path fill="#030303" opacity="1.000000" stroke="none" 
	d="
M63.977814,475.975800 
	C62.856152,470.394318 59.021824,474.135590 57.377930,473.274963 
	C55.950172,477.409821 54.904205,481.447510 53.086792,485.101501 
	C52.525063,486.230835 49.853924,486.815674 48.164291,486.785034 
	C43.029018,486.691772 41.206646,483.169556 40.977077,473.127075 
	C35.099995,472.704651 27.396618,474.196533 27.236828,464.790741 
	C27.153770,459.901764 30.570913,458.321289 40.752407,457.748199 
	C40.752407,455.379333 40.752407,452.979401 40.752407,451.333130 
	C36.637028,449.918884 32.594795,448.877716 28.934658,447.065063 
	C27.800278,446.503265 27.213562,443.842194 27.225281,442.148102 
	C27.258829,437.298004 30.209982,435.760498 40.657238,434.661163 
	C41.903576,423.869019 43.880703,420.700928 49.124386,421.093719 
	C54.142597,421.469666 55.842709,424.653381 56.201717,434.677917 
	C58.572155,434.677917 60.972012,434.677917 63.814972,434.677917 
	C64.227608,429.078857 62.646572,421.644257 71.729073,421.164795 
	C76.781631,420.898102 78.520493,424.351379 79.175652,433.724091 
	C83.382462,435.154907 87.429642,436.184662 91.098396,437.985352 
	C92.235817,438.543701 92.829727,441.194519 92.834282,442.889618 
	C92.847565,447.839264 89.864471,449.403320 79.221710,450.385651 
	C79.221710,452.762299 79.221710,455.163666 79.221710,457.548798 
	C90.096275,458.763092 93.000771,460.457092 92.943581,465.471527 
	C92.883171,470.769684 89.395317,472.762756 79.209908,473.087067 
	C78.634178,478.925720 80.306145,486.705200 70.764595,486.771820 
	C66.197998,486.803711 64.053185,483.086334 63.977814,475.975800 
M57.723022,457.967316 
	C59.777702,457.967316 61.832386,457.967316 63.645580,457.967316 
	C63.645580,454.886688 63.645580,452.505188 63.645580,450.023834 
	C62.152962,450.023834 61.005123,449.979675 59.862198,450.035797 
	C58.618950,450.096802 57.380283,450.251007 55.714596,450.403534 
	C56.116524,453.159821 56.459526,455.512054 57.723022,457.967316 
z"/>
<path fill="#F2F5F5" opacity="1.000000" stroke="none" 
	d="
M286.018402,265.112396 
	C287.982391,264.852661 289.945496,264.375458 291.910522,264.367615 
	C307.399506,264.305573 322.889008,264.301239 338.378143,264.343414 
	C350.789551,264.377197 357.558746,271.071838 357.613312,283.444061 
	C357.681580,298.933044 357.670349,314.422699 357.615570,329.911774 
	C357.571289,342.428558 350.939209,349.058167 338.555023,349.072479 
	C322.899231,349.090576 307.243317,349.094879 291.587616,349.054565 
	C289.605865,349.049438 287.624908,348.738739 285.287354,347.936371 
	C280.747101,339.618866 279.944977,331.270508 280.003143,322.723419 
	C280.068878,313.066345 280.085236,303.407898 279.999786,293.751129 
	C279.911255,283.749207 280.173401,273.853027 286.018402,265.112396 
M299.754883,283.414886 
	C299.783386,276.044800 290.871307,273.707428 287.190979,277.582092 
	C285.471466,279.392426 284.150146,283.264923 284.938171,285.328278 
	C285.835205,287.677155 289.094574,290.144226 291.673279,290.599548 
	C295.903076,291.346344 298.712952,288.464020 299.754883,283.414886 
M320.414185,300.945587 
	C319.114349,300.285797 317.879425,299.304108 316.502533,299.026245 
	C312.275726,298.173340 308.492706,300.968964 307.889038,305.135742 
	C307.217194,309.773590 309.941650,313.616760 314.244415,314.100647 
	C318.690186,314.600677 322.596069,311.525818 322.626862,307.046753 
	C322.639526,305.200653 321.550629,303.346954 320.414185,300.945587 
M284.785858,331.789764 
	C285.961853,335.931183 288.996277,338.270477 292.899078,337.081604 
	C295.370270,336.328766 298.147430,333.624634 299.004517,331.172516 
	C300.569092,326.696320 297.033752,322.450317 292.534729,322.026306 
	C288.419861,321.638519 283.437714,325.593597 284.785858,331.789764 
M330.859161,328.750885 
	C330.942413,329.898193 330.757568,331.149811 331.156372,332.174286 
	C332.684875,336.101105 335.745209,337.704285 339.824615,337.034637 
	C343.751740,336.389984 345.952667,333.903656 346.043610,329.902893 
	C346.141510,325.598053 343.688751,323.002258 339.643311,322.386322 
	C335.372070,321.735962 332.303589,323.668182 330.859161,328.750885 
M334.600861,276.680542 
	C330.735596,280.266388 329.821991,284.049713 332.150116,287.503204 
	C334.229950,290.588379 337.242004,291.842529 340.764893,290.594574 
	C344.686646,289.205261 346.407135,286.081879 345.839966,281.983429 
	C345.172913,277.162811 341.310272,275.140442 334.600861,276.680542 
z"/>
<path fill="#DCDAEB" opacity="1.000000" stroke="none" 
	d="
M285.657104,265.071106 
	C280.173401,273.853027 279.911255,283.749207 279.999786,293.751129 
	C280.085236,303.407898 280.068878,313.066345 280.003143,322.723419 
	C279.944977,331.270508 280.747101,339.618866 284.960236,347.671814 
	C277.973358,346.154663 273.086853,340.644318 273.007477,333.478302 
	C272.810608,315.710815 272.717285,297.935638 273.041199,280.171906 
	C273.183563,272.365997 277.930969,267.427429 285.657104,265.071106 
z"/>
<path fill="#F4F7F7" opacity="1.000000" stroke="none" 
	d="
M170.051102,165.318939 
	C188.853699,165.218323 207.660202,164.858627 226.457016,165.141937 
	C234.203064,165.258682 240.864410,172.499039 240.974670,180.372650 
	C241.224121,198.187119 241.216141,216.009369 240.991882,233.824417 
	C240.887726,242.098495 234.348587,249.164810 225.686020,249.360489 
	C207.393570,249.773666 189.082169,249.347061 170.224365,248.808716 
	C165.756226,243.126907 163.874130,237.313232 163.939041,230.722229 
	C164.076691,216.744522 164.182495,202.760529 163.905716,188.786942 
	C163.737305,180.284592 164.724411,172.286636 170.051102,165.318939 
M216.467896,188.978394 
	C217.895004,189.738419 219.250641,190.921768 220.762970,191.177155 
	C224.893036,191.874542 227.872604,190.137802 229.138367,186.030960 
	C230.378601,182.006958 228.574524,178.168488 224.856720,176.590973 
	C221.397461,175.123154 216.723648,176.414505 215.660065,179.955643 
	C214.894058,182.506027 215.832245,185.568283 216.467896,188.978394 
M181.585968,234.909821 
	C184.118927,229.300964 182.767090,224.477188 178.100433,222.989960 
	C174.349762,221.794647 171.142715,222.794800 169.130600,226.275085 
	C167.157654,229.687622 167.568726,233.144669 170.444397,235.798447 
	C173.906509,238.993408 177.608337,238.733521 181.585968,234.909821 
M202.274811,213.870255 
	C206.429489,210.318481 207.516495,206.238937 205.017441,202.682983 
	C202.615234,199.264862 199.275146,198.105423 195.476791,200.100494 
	C191.804260,202.029526 190.476135,205.274063 191.706680,209.322586 
	C193.025726,213.662354 196.303787,215.215820 202.274811,213.870255 
z"/>
<path fill="#D3D0E1" opacity="1.000000" stroke="none" 
	d="
M169.696411,165.298859 
	C164.724411,172.286636 163.737305,180.284592 163.905716,188.786942 
	C164.182495,202.760529 164.076691,216.744522 163.939041,230.722229 
	C163.874130,237.313232 165.756226,243.126907 169.837341,248.650879 
	C162.057495,247.368881 156.706558,241.861603 156.531479,233.458862 
	C156.168167,216.022293 156.161087,198.568375 156.504684,181.131378 
	C156.665741,172.957870 161.508377,167.688828 169.696411,165.298859 
z"/>
<path fill="#F1F4F4" opacity="1.000000" stroke="none" 
	d="
M446.486633,464.741882 
	C440.693451,459.510498 439.330811,453.518768 442.433319,448.142700 
	C445.340210,443.105560 451.582336,440.708282 457.043976,442.531464 
	C463.958008,444.839478 467.449249,452.317383 464.744781,459.026123 
	C461.951691,465.954712 454.682281,468.351318 446.486633,464.741882 
z"/>
<path fill="#EDF0F0" opacity="1.000000" stroke="none" 
	d="
M57.262779,457.915771 
	C56.459526,455.512054 56.116524,453.159821 55.714596,450.403534 
	C57.380283,450.251007 58.618950,450.096802 59.862198,450.035797 
	C61.005123,449.979675 62.152962,450.023834 63.645580,450.023834 
	C63.645580,452.505188 63.645580,454.886688 63.645580,457.967316 
	C61.832386,457.967316 59.777702,457.967316 57.262779,457.915771 
z"/>
<path fill="#080808" opacity="1.000000" stroke="none" 
	d="
M299.716309,283.791229 
	C298.712952,288.464020 295.903076,291.346344 291.673279,290.599548 
	C289.094574,290.144226 285.835205,287.677155 284.938171,285.328278 
	C284.150146,283.264923 285.471466,279.392426 287.190979,277.582092 
	C290.871307,273.707428 299.783386,276.044800 299.716309,283.791229 
z"/>
<path fill="#070707" opacity="1.000000" stroke="none" 
	d="
M320.688477,301.221161 
	C321.550629,303.346954 322.639526,305.200653 322.626862,307.046753 
	C322.596069,311.525818 318.690186,314.600677 314.244415,314.100647 
	C309.941650,313.616760 307.217194,309.773590 307.889038,305.135742 
	C308.492706,300.968964 312.275726,298.173340 316.502533,299.026245 
	C317.879425,299.304108 319.114349,300.285797 320.688477,301.221161 
z"/>
<path fill="#070707" opacity="1.000000" stroke="none" 
	d="
M284.705048,331.428345 
	C283.437714,325.593597 288.419861,321.638519 292.534729,322.026306 
	C297.033752,322.450317 300.569092,326.696320 299.004517,331.172516 
	C298.147430,333.624634 295.370270,336.328766 292.899078,337.081604 
	C288.996277,338.270477 285.961853,335.931183 284.705048,331.428345 
z"/>
<path fill="#070707" opacity="1.000000" stroke="none" 
	d="
M330.915588,328.352295 
	C332.303589,323.668182 335.372070,321.735962 339.643311,322.386322 
	C343.688751,323.002258 346.141510,325.598053 346.043610,329.902893 
	C345.952667,333.903656 343.751740,336.389984 339.824615,337.034637 
	C335.745209,337.704285 332.684875,336.101105 331.156372,332.174286 
	C330.757568,331.149811 330.942413,329.898193 330.915588,328.352295 
z"/>
<path fill="#060606" opacity="1.000000" stroke="none" 
	d="
M334.934357,276.447693 
	C341.310272,275.140442 345.172913,277.162811 345.839966,281.983429 
	C346.407135,286.081879 344.686646,289.205261 340.764893,290.594574 
	C337.242004,291.842529 334.229950,290.588379 332.150116,287.503204 
	C329.821991,284.049713 330.735596,280.266388 334.934357,276.447693 
z"/>
<path fill="#080808" opacity="1.000000" stroke="none" 
	d="
M216.239075,188.690308 
	C215.832245,185.568283 214.894058,182.506027 215.660065,179.955643 
	C216.723648,176.414505 221.397461,175.123154 224.856720,176.590973 
	C228.574524,178.168488 230.378601,182.006958 229.138367,186.030960 
	C227.872604,190.137802 224.893036,191.874542 220.762970,191.177155 
	C219.250641,190.921768 217.895004,189.738419 216.239075,188.690308 
z"/>
<path fill="#080808" opacity="1.000000" stroke="none" 
	d="
M181.322067,235.202423 
	C177.608337,238.733521 173.906509,238.993408 170.444397,235.798447 
	C167.568726,233.144669 167.157654,229.687622 169.130600,226.275085 
	C171.142715,222.794800 174.349762,221.794647 178.100433,222.989960 
	C182.767090,224.477188 184.118927,229.300964 181.322067,235.202423 
z"/>
<path fill="#0A0A0A" opacity="1.000000" stroke="none" 
	d="
M201.911331,213.995636 
	C196.303787,215.215820 193.025726,213.662354 191.706680,209.322586 
	C190.476135,205.274063 191.804260,202.029526 195.476791,200.100494 
	C199.275146,198.105423 202.615234,199.264862 205.017441,202.682983 
	C207.516495,206.238937 206.429489,210.318481 201.911331,213.995636 
z"/>
</svg>