<svg width="30" height="30" viewBox="0 0 30 30" fill="none" xmlns="http://www.w3.org/2000/svg">
<g clip-path="url(#clip0_1_120)">
<path fill-rule="evenodd" clip-rule="evenodd" d="M14.5312 21.0938C13.0664 21.0352 11.7188 20.3906 10.7227 19.3945C11.7188 18.2812 13.4766 17.2852 15 17.2852C16.5234 17.2852 18.2812 18.2227 19.2773 19.3945C18.2812 20.3906 16.9336 21.0352 15.4102 21.0938V22.6172L18.6914 25.8984C18.8086 25.957 18.8672 26.0742 18.8672 26.1914C18.8672 26.25 18.8086 26.4258 18.6914 26.4844L15.293 29.8828C15.2344 29.9414 15.1172 30 15 30C14.8828 30 14.7656 29.9414 14.707 29.8828L11.3086 26.4844C11.1914 26.4258 11.1328 26.25 11.1328 26.1914C11.1328 26.0742 11.1914 25.957 11.3086 25.8984L14.5312 22.6172V21.0938ZM14.5312 7.38281L11.3086 4.16016C11.1328 3.98438 11.1328 3.69141 11.3086 3.51562L14.707 0.117188C14.8828 -0.0585938 15.1172 -0.0585938 15.293 0.117188L18.6914 3.51562C18.8672 3.69141 18.8672 3.98438 18.6914 4.16016L15.4102 7.44141V8.90625C18.457 9.14062 20.8594 11.543 21.0938 14.5898H23.5547C23.7891 13.3008 24.8438 12.3633 26.1328 12.3633C27.5977 12.3633 28.8281 13.5938 28.8281 15C28.8281 16.4648 27.5977 17.6953 26.1328 17.6953C24.8438 17.6953 23.7891 16.6992 23.5547 15.4688H21.0938C20.9766 16.6992 20.5664 17.8125 19.8047 18.75C18.6328 17.4609 16.6992 16.4062 14.9414 16.4062C13.2422 16.4062 11.3086 17.4609 10.1367 18.75C9.43359 17.8125 8.96484 16.6992 8.90625 15.4688H6.44531C6.21094 16.6992 5.15625 17.6953 3.80859 17.6953C2.34375 17.6953 1.17188 16.4648 1.17188 15C1.17188 13.5352 2.40234 12.3633 3.80859 12.3633C5.15625 12.3633 6.21094 13.3594 6.44531 14.5898H8.90625C9.08203 11.543 11.543 9.14062 14.5312 8.90625V7.38281ZM15 15.7031C13.6523 15.7031 12.5391 14.6484 12.5391 13.3008C12.5391 11.9531 13.6523 10.8398 15 10.8398C16.3477 10.8398 17.4023 11.9531 17.4023 13.3008C17.4023 14.6484 16.3477 15.7031 15 15.7031ZM15 11.7188C14.1211 11.7188 13.418 12.4219 13.418 13.3008C13.418 14.1797 14.1211 14.8828 15 14.8828C15.8789 14.8828 16.582 14.1797 16.582 13.3008C16.582 12.4219 15.8789 11.7188 15 11.7188Z" fill="url(#paint0_linear_1_120)"/>
</g>
<defs>
<linearGradient id="paint0_linear_1_120" x1="15" y1="30.0057" x2="15" y2="-0.00574367" gradientUnits="userSpaceOnUse">
<stop stop-color="#1AA8DC"/>
<stop offset="0.490196" stop-color="#AE3B89"/>
<stop offset="1" stop-color="#F26270"/>
</linearGradient>
<clipPath id="clip0_1_120">
<rect width="30" height="30" fill="white"/>
</clipPath>
</defs>
</svg>
