<svg version="1.1" id="Layer_1" xmlns="http://www.w3.org/2000/svg" xmlns:xlink="http://www.w3.org/1999/xlink" x="0px" y="0px"
	 width="100%" viewBox="0 0 512 512" enable-background="new 0 0 512 512" xml:space="preserve">
<path fill="#010101" opacity="1.000000" stroke="none" 
	d="
M513.000000,178.000000 
	C513.000000,289.972778 513.000000,401.445557 513.000000,512.959167 
	C342.402222,512.959167 171.804413,512.959167 1.103307,512.959167 
	C1.103307,342.443909 1.103307,171.887756 1.103307,1.165792 
	C171.666534,1.165792 342.333252,1.165792 513.000000,1.165792 
	C513.000000,59.862217 513.000000,118.681107 513.000000,178.000000 
M330.540161,174.956848 
	C304.870880,151.168243 274.519409,141.171432 240.027588,146.392715 
	C183.080765,155.013153 144.477905,204.698898 148.852264,262.444733 
	C152.411453,309.429413 189.867767,350.774445 236.352188,358.821625 
	C240.911530,359.610901 244.960510,360.337433 245.166733,367.119781 
	C249.006241,365.902496 252.951965,365.819672 254.818893,363.807800 
	C258.318146,360.036896 261.207336,359.625580 264.335724,363.801727 
	C265.176880,364.924622 267.104462,365.741638 268.553436,365.773071 
	C270.379028,365.812683 272.225220,364.902313 274.273529,364.344299 
	C274.505646,360.229950 277.072784,358.769226 280.934845,357.739685 
	C321.379761,346.958069 348.563293,321.604309 359.734344,281.340179 
	C370.932220,240.979248 360.364990,205.398041 330.540161,174.956848 
M96.541634,31.626938 
	C115.194305,40.560993 119.182449,59.381924 106.123215,77.640549 
	C106.725235,77.903885 107.280258,78.159584 107.844948,78.391800 
	C126.776459,86.176895 135.994308,99.959007 136.018738,120.524879 
	C136.023560,124.584686 136.019440,128.644501 136.019440,133.717041 
	C137.883499,131.619720 139.026184,130.461823 140.025284,129.191040 
	C159.675201,104.197395 159.770416,69.135246 140.274689,44.036228 
	C120.726952,18.870245 86.855019,10.243055 57.715771,23.064304 
	C54.470116,24.492390 51.386574,26.459488 48.269707,22.845480 
	C48.010750,22.545225 46.864662,22.669062 46.363495,22.975945 
	C43.776737,24.559929 41.265873,26.267847 37.843658,28.513069 
	C42.893890,29.400610 48.720695,27.647888 48.688507,33.772301 
	C48.653126,40.505257 42.453930,38.503059 38.194939,39.116928 
	C37.562061,43.350422 39.687954,49.682190 32.825562,49.480061 
	C26.568142,49.295742 28.469278,43.322723 27.851818,38.739357 
	C24.929199,42.868423 22.380285,46.469521 19.741280,50.197899 
	C23.143414,52.660923 23.695343,55.410339 22.081369,59.053314 
	C16.905748,70.735451 15.307373,82.998245 17.017332,95.647057 
	C18.930908,109.802055 24.632858,122.198883 35.507507,134.127777 
	C32.877186,107.666206 39.058563,87.088295 65.113487,77.602295 
	C55.504818,64.585098 54.714294,52.296932 62.530552,41.309639 
	C70.004204,30.803951 82.301521,27.089891 96.541634,31.626938 
M470.916107,38.955742 
	C468.993408,37.469162 465.561005,36.120850 465.409973,34.472015 
	C464.764496,27.423775 471.571014,29.855747 475.751617,28.144520 
	C472.276184,25.857267 469.479340,24.016603 466.453674,22.025335 
	C463.764709,25.630972 460.777954,24.748093 456.916565,23.523520 
	C448.588440,20.882420 440.021790,17.905048 431.417236,17.407040 
	C387.393372,14.859058 352.133240,55.463680 360.252075,98.793297 
	C362.671600,111.706024 368.128845,123.186234 378.425842,134.102371 
	C375.627991,107.622429 381.853119,87.110321 407.914124,77.595993 
	C397.134033,63.081291 397.591522,47.976479 408.882019,37.209045 
	C419.341644,27.233995 435.729919,26.748623 446.648926,36.090496 
	C458.854187,46.532852 459.725128,61.548023 449.134399,77.468613 
	C452.517944,79.179642 456.101288,80.610558 459.280579,82.666290 
	C472.136444,90.978897 478.462585,103.023170 478.869781,118.228714 
	C478.998901,123.050903 478.889954,127.879463 478.889954,132.705109 
	C497.837494,111.041580 502.464844,86.995583 492.493225,60.513256 
	C490.933807,56.371834 489.876862,52.932156 494.295502,50.170269 
	C491.529053,46.296360 489.035980,42.805302 486.109894,38.707855 
	C485.600098,43.458538 487.371338,49.602409 480.760406,49.483051 
	C474.334930,49.367039 476.431580,43.300137 475.768280,38.958569 
	C474.346344,38.958569 473.066101,38.958569 470.916107,38.955742 
M361.007019,443.429932 
	C363.849304,454.983978 368.985596,465.275146 377.845642,473.964264 
	C375.585175,448.678619 381.951202,428.334259 407.874146,418.798767 
	C397.219025,404.074524 397.558502,389.404327 408.687805,378.588715 
	C418.748138,368.811920 434.579285,367.881409 445.679291,376.470551 
	C450.999573,380.587402 454.446442,385.966095 455.976044,392.525421 
	C458.288452,402.441895 455.215088,411.021851 448.900665,418.733063 
	C470.220306,427.043854 479.753448,442.516632 478.912964,464.710785 
	C478.798065,467.744934 478.897156,470.787201 478.897156,473.825714 
	C497.902618,452.072388 502.545441,427.950470 492.336853,401.321564 
	C490.866608,397.486542 489.830444,394.157745 494.288513,391.452789 
	C491.613037,387.626160 489.265625,384.268738 486.124207,379.775665 
	C485.807953,385.170105 486.808319,390.477875 481.326416,390.666473 
	C474.066742,390.916229 476.644348,384.207825 475.713959,380.169891 
	C471.440796,379.613373 465.523987,381.625977 465.310425,375.169281 
	C465.109558,369.096191 470.674194,370.260834 475.617523,369.814087 
	C472.747681,367.530701 470.604828,365.648682 468.256073,364.073761 
	C467.619415,363.646881 466.359528,364.140106 465.386963,364.225433 
	C462.825348,364.450104 460.120514,365.327484 457.729584,364.794006 
	C449.837341,363.033020 442.170898,359.711243 434.217773,358.862244 
	C388.326111,353.963348 350.179230,397.762146 361.007019,443.429932 
M153.968277,416.636017 
	C146.507614,371.437561 98.225365,345.309570 55.983608,364.861115 
	C54.058388,365.752228 51.186050,364.611206 48.757000,364.392700 
	C47.783085,364.305084 46.533222,363.706177 45.894444,364.109283 
	C43.499107,365.620880 41.304241,367.450165 38.083332,369.876740 
	C43.285236,370.213928 48.810883,369.164886 48.686607,375.072144 
	C48.544914,381.807556 42.201859,379.418274 38.285793,380.214539 
	C37.541542,384.450989 39.673206,390.412354 33.230095,390.681061 
	C27.204985,390.932404 28.250128,385.177307 27.799519,379.618469 
	C24.538830,384.480469 22.227861,387.926361 19.957996,391.310974 
	C23.723770,395.470337 23.847424,395.915070 21.804888,400.784485 
	C16.084604,414.421661 14.897070,428.489929 18.088839,442.863586 
	C20.705717,454.648285 25.999451,465.089050 35.538166,475.174316 
	C32.856251,448.678741 39.182796,428.283844 65.113594,418.777222 
	C54.297314,404.057190 54.860550,388.773193 66.418854,378.087006 
	C77.010246,368.294678 93.484398,368.077362 104.232735,377.588135 
	C116.300659,388.266510 117.048149,403.242645 106.145691,418.882446 
	C117.337959,422.734833 125.862442,429.655273 131.513031,440.157867 
	C137.235825,450.794708 135.751511,462.374451 136.107361,474.985657 
	C151.046066,457.689819 156.982681,438.987793 153.968277,416.636017 
M125.807396,142.548645 
	C125.872513,134.055435 126.109085,125.559311 125.964714,117.069664 
	C125.714539,102.356956 115.366714,89.212967 100.802078,87.087013 
	C91.202499,85.685791 81.104469,85.575760 71.493263,86.860229 
	C55.881413,88.946655 45.427544,102.113884 45.124840,117.944778 
	C44.997414,124.608818 45.330349,131.288498 45.005985,137.939224 
	C44.826099,141.627563 46.189144,143.670517 49.290741,145.407120 
	C75.082085,159.847839 100.354729,159.221283 125.807396,142.548645 
M60.501373,431.892639 
	C51.795654,437.366913 46.374718,445.216492 45.491322,455.399445 
	C44.731743,464.155243 45.049919,473.019135 45.243069,481.827515 
	C45.272636,483.175781 46.948971,484.856567 48.286407,485.752472 
	C70.194847,500.428101 101.356468,500.390442 123.135361,485.573181 
	C124.579643,484.590546 125.821175,482.253784 125.893463,480.494904 
	C126.193832,473.186707 126.103653,465.856995 125.982147,458.538055 
	C125.768051,445.642212 118.137131,433.369354 105.892174,429.733948 
	C91.054604,425.328857 75.797935,424.769684 60.501373,431.892639 
M404.217773,492.325897 
	C425.613678,500.071320 446.018311,497.813812 465.337677,485.985504 
	C466.974426,484.983429 468.650665,482.595734 468.742035,480.773254 
	C469.116302,473.306702 469.083588,465.803009 468.832153,458.325378 
	C468.305115,442.652435 457.386292,429.820068 441.793732,427.883728 
	C432.974792,426.788574 423.808319,426.839020 414.976166,427.880798 
	C400.822449,429.550262 390.420898,440.328766 388.371552,454.361267 
	C387.656555,459.257141 387.998901,464.318207 387.987823,469.304108 
	C387.951324,485.720947 387.974091,485.721008 404.217773,492.325897 
M403.939880,90.290436 
	C393.165588,97.009041 387.838043,106.696426 387.967072,119.413574 
	C388.034576,126.068108 387.820099,132.730331 388.090546,139.374542 
	C388.157410,141.016205 389.195984,143.195801 390.501648,144.123322 
	C411.829132,159.273743 444.572357,159.322784 466.152374,144.247696 
	C467.494110,143.310410 468.722321,141.209152 468.779633,139.605667 
	C469.046906,132.128525 469.078033,124.629692 468.834076,117.150345 
	C468.335297,101.859261 457.863831,89.306206 442.773071,86.829269 
	C435.790283,85.683151 428.484894,85.682732 421.404266,86.212486 
	C415.741730,86.636131 410.197906,88.646942 403.939880,90.290436 
M99.354263,69.797470 
	C105.252472,61.699627 105.491295,53.380714 100.024582,46.448879 
	C94.940163,40.001820 86.571983,37.626411 79.024864,40.648117 
	C71.660355,43.596706 67.828560,49.280693 67.253265,57.054878 
	C66.729088,64.138329 71.149887,71.233109 77.839912,74.237488 
	C85.686638,77.761330 92.699364,76.177971 99.354263,69.797470 
M446.348358,54.307312 
	C443.222687,42.312843 432.300201,36.370831 421.489960,40.783924 
	C412.698486,44.372887 408.144562,53.845116 410.863800,62.886673 
	C413.539825,71.784676 422.313110,77.339783 431.332214,75.846962 
	C441.091583,74.231621 447.325562,65.733223 446.348358,54.307312 
M103.786964,396.078033 
	C103.431221,394.795197 103.182320,393.470886 102.702637,392.236206 
	C99.252785,383.356689 89.285034,378.540588 80.193207,381.316132 
	C70.904160,384.151855 65.477745,393.920624 67.904770,403.438049 
	C70.233124,412.568512 78.836128,418.254578 88.396667,416.981934 
	C97.819771,415.727631 104.024483,407.686188 103.786964,396.078033 
M429.364166,417.097900 
	C440.403229,415.914337 448.104523,406.843689 446.637573,396.753113 
	C445.184418,386.757446 436.980072,379.995972 427.106140,380.656616 
	C417.526367,381.297577 410.067627,389.237762 410.041718,398.822418 
	C410.014221,409.000000 417.584839,416.507599 429.364166,417.097900 
M258.797089,428.396606 
	C260.323334,426.736115 261.849609,425.075623 263.337433,423.456970 
	C260.868774,420.631470 258.529572,417.954132 256.141510,415.220856 
	C253.608917,418.081665 251.160019,420.847900 248.778381,423.538177 
	C251.405884,426.226562 253.912643,428.791412 256.493347,431.431915 
	C257.141113,430.550934 257.726471,429.754852 258.797089,428.396606 
M250.755753,84.580902 
	C252.723755,86.431671 254.691757,88.282440 256.567444,90.046387 
	C258.809753,87.486481 261.058777,84.918892 263.277557,82.385796 
	C260.877533,79.639343 258.536469,76.960411 256.193481,74.279236 
	C253.890182,76.740379 251.579987,79.061981 249.505768,81.578125 
	C249.181702,81.971230 249.931885,83.249924 250.755753,84.580902 
M84.589211,246.032623 
	C82.485954,248.513626 80.382698,250.994629 78.559891,253.144806 
	C81.286095,255.598602 83.921555,257.970703 86.516380,260.306244 
	C88.297295,258.315338 90.573700,255.770554 93.169426,252.868774 
	C90.449066,250.393738 87.725311,247.915604 84.589211,246.032623 
M425.074341,262.775482 
	C425.571625,263.373932 426.068909,263.972351 426.664062,264.688568 
	C429.189850,261.834625 431.563599,259.152435 433.846283,256.573151 
	C431.364868,253.724716 428.980316,250.987488 426.694641,248.363739 
	C424.203979,251.193344 421.745514,253.986359 419.510315,256.525757 
	C421.284760,258.479553 422.958954,260.322998 425.074341,262.775482 
z"/>
<path fill="#71BFE6" opacity="1.000000" stroke="none" 
	d="
M330.790894,175.205444 
	C360.364990,205.398041 370.932220,240.979248 359.734344,281.340179 
	C348.563293,321.604309 321.379761,346.958069 280.934845,357.739685 
	C277.072784,358.769226 274.505646,360.229950 274.273529,364.344299 
	C272.225220,364.902313 270.379028,365.812683 268.553436,365.773071 
	C267.104462,365.741638 265.176880,364.924622 264.335724,363.801727 
	C261.207336,359.625580 258.318146,360.036896 254.818893,363.807800 
	C252.951965,365.819672 249.006241,365.902496 245.166733,367.119781 
	C244.960510,360.337433 240.911530,359.610901 236.352188,358.821625 
	C189.867767,350.774445 152.411453,309.429413 148.852264,262.444733 
	C144.477905,204.698898 183.080765,155.013153 240.027588,146.392715 
	C274.519409,141.171432 304.870880,151.168243 330.790894,175.205444 
M286.440186,187.031677 
	C287.028320,183.277176 284.842987,181.677322 281.687531,180.571182 
	C269.008606,176.126633 256.032074,174.889618 242.841537,177.321228 
	C205.025604,184.292404 177.803864,217.745178 179.457230,254.990189 
	C181.234573,295.028046 210.324478,326.161438 249.998474,329.118469 
	C282.020996,331.505249 307.037659,318.201263 322.762512,290.383240 
	C338.400391,262.719025 336.147675,234.935760 318.595490,208.401917 
	C316.425110,205.120956 313.818085,203.994736 309.533600,204.902542 
	C307.359070,202.901978 305.184509,200.901428 303.217926,198.192123 
	C302.866180,196.009537 303.176422,192.541473 302.010071,191.940857 
	C300.188019,191.002609 297.365784,192.006638 294.263733,192.025040 
	C291.642975,190.602234 289.022186,189.179413 286.440186,187.031677 
M282.521423,346.064362 
	C300.428680,341.031799 315.426636,331.450165 327.976410,317.713531 
	C358.129395,284.708893 361.499176,233.671600 335.601135,197.460587 
	C332.422546,193.016205 328.798706,188.855576 325.071960,184.851242 
	C322.930786,182.550583 319.991272,182.073914 317.539795,184.586090 
	C315.283691,186.898041 315.695953,189.339890 317.920044,191.622787 
	C319.074829,192.808105 319.983612,194.228897 321.083862,195.472183 
	C339.609528,216.405777 346.526245,240.972870 341.525970,268.144867 
	C335.933411,298.535400 318.265045,320.354279 289.911987,332.875549 
	C276.845337,338.646057 262.896576,341.550659 248.601990,339.021271 
	C238.709091,337.270752 229.017929,334.295258 219.317810,331.577423 
	C214.730652,330.292175 211.111130,331.334778 211.372437,335.070038 
	C211.513718,337.089691 213.727310,339.823090 215.696976,340.724121 
	C236.997437,350.468506 259.034271,352.569824 282.521423,346.064362 
M203.280930,322.515045 
	C200.310287,319.675995 197.621338,316.406647 194.240906,314.193451 
	C192.727127,313.202332 189.090027,313.530945 187.783051,314.739014 
	C186.682388,315.756439 186.712418,319.494232 187.743805,320.997009 
	C189.655670,323.782684 192.442291,326.153931 195.302307,328.030853 
	C196.932510,329.100739 199.960968,329.766418 201.382202,328.937683 
	C202.774216,328.125946 202.926224,325.187805 203.280930,322.515045 
z"/>
<path fill="#ECECEC" opacity="1.000000" stroke="none" 
	d="
M96.189636,31.438553 
	C82.301521,27.089891 70.004204,30.803951 62.530552,41.309639 
	C54.714294,52.296932 55.504818,64.585098 65.113487,77.602295 
	C39.058563,87.088295 32.877186,107.666206 35.507507,134.127777 
	C24.632858,122.198883 18.930908,109.802055 17.017332,95.647057 
	C15.307373,82.998245 16.905748,70.735451 22.081369,59.053314 
	C23.695343,55.410339 23.143414,52.660923 19.741280,50.197899 
	C22.380285,46.469521 24.929199,42.868423 27.851818,38.739357 
	C28.469278,43.322723 26.568142,49.295742 32.825562,49.480061 
	C39.687954,49.682190 37.562061,43.350422 38.194939,39.116928 
	C42.453930,38.503059 48.653126,40.505257 48.688507,33.772301 
	C48.720695,27.647888 42.893890,29.400610 37.843658,28.513069 
	C41.265873,26.267847 43.776737,24.559929 46.363495,22.975945 
	C46.864662,22.669062 48.010750,22.545225 48.269707,22.845480 
	C51.386574,26.459488 54.470116,24.492390 57.715771,23.064304 
	C86.855019,10.243055 120.726952,18.870245 140.274689,44.036228 
	C159.770416,69.135246 159.675201,104.197395 140.025284,129.191040 
	C139.026184,130.461823 137.883499,131.619720 136.019440,133.717041 
	C136.019440,128.644501 136.023560,124.584686 136.018738,120.524879 
	C135.994308,99.959007 126.776459,86.176895 107.844948,78.391800 
	C107.280258,78.159584 106.725235,77.903885 106.123215,77.640549 
	C119.182449,59.381924 115.194305,40.560993 96.189636,31.438553 
z"/>
<path fill="#ECECEC" opacity="1.000000" stroke="none" 
	d="
M471.350983,38.957153 
	C473.066101,38.958569 474.346344,38.958569 475.768280,38.958569 
	C476.431580,43.300137 474.334930,49.367039 480.760406,49.483051 
	C487.371338,49.602409 485.600098,43.458538 486.109894,38.707855 
	C489.035980,42.805302 491.529053,46.296360 494.295502,50.170269 
	C489.876862,52.932156 490.933807,56.371834 492.493225,60.513256 
	C502.464844,86.995583 497.837494,111.041580 478.889954,132.705109 
	C478.889954,127.879463 478.998901,123.050903 478.869781,118.228714 
	C478.462585,103.023170 472.136444,90.978897 459.280579,82.666290 
	C456.101288,80.610558 452.517944,79.179642 449.134399,77.468613 
	C459.725128,61.548023 458.854187,46.532852 446.648926,36.090496 
	C435.729919,26.748623 419.341644,27.233995 408.882019,37.209045 
	C397.591522,47.976479 397.134033,63.081291 407.914124,77.595993 
	C381.853119,87.110321 375.627991,107.622429 378.425842,134.102371 
	C368.128845,123.186234 362.671600,111.706024 360.252075,98.793297 
	C352.133240,55.463680 387.393372,14.859058 431.417236,17.407040 
	C440.021790,17.905048 448.588440,20.882420 456.916565,23.523520 
	C460.777954,24.748093 463.764709,25.630972 466.453674,22.025335 
	C469.479340,24.016603 472.276184,25.857267 475.751617,28.144520 
	C471.571014,29.855747 464.764496,27.423775 465.409973,34.472015 
	C465.561005,36.120850 468.993408,37.469162 471.350983,38.957153 
z"/>
<path fill="#ECECEC" opacity="1.000000" stroke="none" 
	d="
M360.946228,443.014740 
	C350.179230,397.762146 388.326111,353.963348 434.217773,358.862244 
	C442.170898,359.711243 449.837341,363.033020 457.729584,364.794006 
	C460.120514,365.327484 462.825348,364.450104 465.386963,364.225433 
	C466.359528,364.140106 467.619415,363.646881 468.256073,364.073761 
	C470.604828,365.648682 472.747681,367.530701 475.617523,369.814087 
	C470.674194,370.260834 465.109558,369.096191 465.310425,375.169281 
	C465.523987,381.625977 471.440796,379.613373 475.713959,380.169891 
	C476.644348,384.207825 474.066742,390.916229 481.326416,390.666473 
	C486.808319,390.477875 485.807953,385.170105 486.124207,379.775665 
	C489.265625,384.268738 491.613037,387.626160 494.288513,391.452789 
	C489.830444,394.157745 490.866608,397.486542 492.336853,401.321564 
	C502.545441,427.950470 497.902618,452.072388 478.897156,473.825714 
	C478.897156,470.787201 478.798065,467.744934 478.912964,464.710785 
	C479.753448,442.516632 470.220306,427.043854 448.900665,418.733063 
	C455.215088,411.021851 458.288452,402.441895 455.976044,392.525421 
	C454.446442,385.966095 450.999573,380.587402 445.679291,376.470551 
	C434.579285,367.881409 418.748138,368.811920 408.687805,378.588715 
	C397.558502,389.404327 397.219025,404.074524 407.874146,418.798767 
	C381.951202,428.334259 375.585175,448.678619 377.845642,473.964264 
	C368.985596,465.275146 363.849304,454.983978 360.946228,443.014740 
z"/>
<path fill="#ECECEC" opacity="1.000000" stroke="none" 
	d="
M154.007294,417.072083 
	C156.982681,438.987793 151.046066,457.689819 136.107361,474.985657 
	C135.751511,462.374451 137.235825,450.794708 131.513031,440.157867 
	C125.862442,429.655273 117.337959,422.734833 106.145691,418.882446 
	C117.048149,403.242645 116.300659,388.266510 104.232735,377.588135 
	C93.484398,368.077362 77.010246,368.294678 66.418854,378.087006 
	C54.860550,388.773193 54.297314,404.057190 65.113594,418.777222 
	C39.182796,428.283844 32.856251,448.678741 35.538166,475.174316 
	C25.999451,465.089050 20.705717,454.648285 18.088839,442.863586 
	C14.897070,428.489929 16.084604,414.421661 21.804888,400.784485 
	C23.847424,395.915070 23.723770,395.470337 19.957996,391.310974 
	C22.227861,387.926361 24.538830,384.480469 27.799519,379.618469 
	C28.250128,385.177307 27.204985,390.932404 33.230095,390.681061 
	C39.673206,390.412354 37.541542,384.450989 38.285793,380.214539 
	C42.201859,379.418274 48.544914,381.807556 48.686607,375.072144 
	C48.810883,369.164886 43.285236,370.213928 38.083332,369.876740 
	C41.304241,367.450165 43.499107,365.620880 45.894444,364.109283 
	C46.533222,363.706177 47.783085,364.305084 48.757000,364.392700 
	C51.186050,364.611206 54.058388,365.752228 55.983608,364.861115 
	C98.225365,345.309570 146.507614,371.437561 154.007294,417.072083 
z"/>
<path fill="#EEBF20" opacity="1.000000" stroke="none" 
	d="
M125.495728,142.820175 
	C100.354729,159.221283 75.082085,159.847839 49.290741,145.407120 
	C46.189144,143.670517 44.826099,141.627563 45.005985,137.939224 
	C45.330349,131.288498 44.997414,124.608818 45.124840,117.944778 
	C45.427544,102.113884 55.881413,88.946655 71.493263,86.860229 
	C81.104469,85.575760 91.202499,85.685791 100.802078,87.087013 
	C115.366714,89.212967 125.714539,102.356956 125.964714,117.069664 
	C126.109085,125.559311 125.872513,134.055435 125.495728,142.820175 
M75.706360,104.107445 
	C79.319176,104.013954 82.215546,102.624985 81.840111,98.618637 
	C81.434418,94.289345 77.969543,93.747574 74.359291,94.102753 
	C64.907158,95.032669 55.711845,102.495979 54.140957,112.091446 
	C52.894390,119.705872 53.068947,127.617149 53.352585,135.369537 
	C53.417686,137.148911 56.361080,140.019745 58.254658,140.264801 
	C61.368454,140.667755 63.123547,138.079285 63.082386,134.688217 
	C63.023949,129.873306 63.056751,125.056976 63.080700,120.241402 
	C63.125511,111.230324 66.290787,106.958939 75.706360,104.107445 
z"/>
<path fill="#EEBF20" opacity="1.000000" stroke="none" 
	d="
M60.810162,431.690735 
	C75.797935,424.769684 91.054604,425.328857 105.892174,429.733948 
	C118.137131,433.369354 125.768051,445.642212 125.982147,458.538055 
	C126.103653,465.856995 126.193832,473.186707 125.893463,480.494904 
	C125.821175,482.253784 124.579643,484.590546 123.135361,485.573181 
	C101.356468,500.390442 70.194847,500.428101 48.286407,485.752472 
	C46.948971,484.856567 45.272636,483.175781 45.243069,481.827515 
	C45.049919,473.019135 44.731743,464.155243 45.491322,455.399445 
	C46.374718,445.216492 51.795654,437.366913 60.810162,431.690735 
M63.012257,480.904999 
	C63.034481,475.574158 63.044395,470.243256 63.081623,464.912537 
	C63.148346,455.358276 67.234276,450.517120 76.629471,448.938416 
	C79.809875,448.403992 82.112648,446.851837 81.859535,443.441406 
	C81.606674,440.034332 79.247482,438.884766 75.893372,438.887146 
	C64.428673,438.895203 53.736515,449.146149 53.137890,461.214203 
	C52.841099,467.197479 52.807285,473.225098 53.216549,479.194122 
	C53.349869,481.138611 54.826820,483.786652 56.461689,484.649780 
	C59.044197,486.013153 61.643330,484.794556 63.012257,480.904999 
z"/>
<path fill="#EEBF20" opacity="1.000000" stroke="none" 
	d="
M403.848938,492.200073 
	C387.974091,485.721008 387.951324,485.720947 387.987823,469.304108 
	C387.998901,464.318207 387.656555,459.257141 388.371552,454.361267 
	C390.420898,440.328766 400.822449,429.550262 414.976166,427.880798 
	C423.808319,426.839020 432.974792,426.788574 441.793732,427.883728 
	C457.386292,429.820068 468.305115,442.652435 468.832153,458.325378 
	C469.083588,465.803009 469.116302,473.306702 468.742035,480.773254 
	C468.650665,482.595734 466.974426,484.983429 465.337677,485.985504 
	C446.018311,497.813812 425.613678,500.071320 403.848938,492.200073 
M396.195221,468.557251 
	C396.196686,471.715607 396.130585,474.875854 396.217621,478.031860 
	C396.315765,481.591339 397.088440,485.029053 401.530640,484.978760 
	C405.974701,484.928467 406.657593,481.424957 406.722839,477.901672 
	C406.821289,472.584045 406.697632,467.262054 406.814331,461.945129 
	C406.935303,456.434998 409.628723,452.426666 414.626068,450.216370 
	C416.542511,449.368744 419.102570,449.744293 420.782196,448.656158 
	C422.574738,447.494904 424.818329,445.211823 424.742493,443.513184 
	C424.671509,441.922638 422.052979,439.798584 420.129791,439.125000 
	C418.307098,438.486572 415.852417,439.143372 413.812805,439.717651 
	C402.071045,443.023621 396.204773,452.399323 396.195221,468.557251 
z"/>
<path fill="#EEBF20" opacity="1.000000" stroke="none" 
	d="
M404.270630,90.121872 
	C410.197906,88.646942 415.741730,86.636131 421.404266,86.212486 
	C428.484894,85.682732 435.790283,85.683151 442.773071,86.829269 
	C457.863831,89.306206 468.335297,101.859261 468.834076,117.150345 
	C469.078033,124.629692 469.046906,132.128525 468.779633,139.605667 
	C468.722321,141.209152 467.494110,143.310410 466.152374,144.247696 
	C444.572357,159.322784 411.829132,159.273743 390.501648,144.123322 
	C389.195984,143.195801 388.157410,141.016205 388.090546,139.374542 
	C387.820099,132.730331 388.034576,126.068108 387.967072,119.413574 
	C387.838043,106.696426 393.165588,97.009041 404.270630,90.121872 
M406.750702,124.500061 
	C406.755981,122.335968 406.712250,120.170456 406.775360,118.008049 
	C407.003357,110.192276 411.291290,105.165512 419.077454,104.175507 
	C422.722321,103.712074 425.425262,102.662643 425.010834,98.536797 
	C424.550201,93.950912 420.962372,93.805077 417.497833,94.125076 
	C408.211060,94.982826 399.077606,102.291924 397.446350,111.769295 
	C396.107452,119.548187 396.334412,127.650383 396.526886,135.593307 
	C396.564972,137.165237 399.547577,139.785583 401.276489,139.873505 
	C402.918243,139.956985 405.721222,137.631058 406.193512,135.875076 
	C407.075317,132.596237 406.638336,128.962692 406.750702,124.500061 
z"/>
<path fill="#FBB39D" opacity="1.000000" stroke="none" 
	d="
M99.112076,70.070755 
	C92.699364,76.177971 85.686638,77.761330 77.839912,74.237488 
	C71.149887,71.233109 66.729088,64.138329 67.253265,57.054878 
	C67.828560,49.280693 71.660355,43.596706 79.024864,40.648117 
	C86.571983,37.626411 94.940163,40.001820 100.024582,46.448879 
	C105.491295,53.380714 105.252472,61.699627 99.112076,70.070755 
z"/>
<path fill="#FBB39D" opacity="1.000000" stroke="none" 
	d="
M446.450500,54.702599 
	C447.325562,65.733223 441.091583,74.231621 431.332214,75.846962 
	C422.313110,77.339783 413.539825,71.784676 410.863800,62.886673 
	C408.144562,53.845116 412.698486,44.372887 421.489960,40.783924 
	C432.300201,36.370831 443.222687,42.312843 446.450500,54.702599 
z"/>
<path fill="#FBB39D" opacity="1.000000" stroke="none" 
	d="
M103.836182,396.493164 
	C104.024483,407.686188 97.819771,415.727631 88.396667,416.981934 
	C78.836128,418.254578 70.233124,412.568512 67.904770,403.438049 
	C65.477745,393.920624 70.904160,384.151855 80.193207,381.316132 
	C89.285034,378.540588 99.252785,383.356689 102.702637,392.236206 
	C103.182320,393.470886 103.431221,394.795197 103.836182,396.493164 
z"/>
<path fill="#FCB49D" opacity="1.000000" stroke="none" 
	d="
M428.929688,417.110107 
	C417.584839,416.507599 410.014221,409.000000 410.041718,398.822418 
	C410.067627,389.237762 417.526367,381.297577 427.106140,380.656616 
	C436.980072,379.995972 445.184418,386.757446 446.637573,396.753113 
	C448.104523,406.843689 440.403229,415.914337 428.929688,417.110107 
z"/>
<path fill="#E2B51E" opacity="1.000000" stroke="none" 
	d="
M258.554443,428.677673 
	C257.726471,429.754852 257.141113,430.550934 256.493347,431.431915 
	C253.912643,428.791412 251.405884,426.226562 248.778381,423.538177 
	C251.160019,420.847900 253.608917,418.081665 256.141510,415.220856 
	C258.529572,417.954132 260.868774,420.631470 263.337433,423.456970 
	C261.849609,425.075623 260.323334,426.736115 258.554443,428.677673 
z"/>
<path fill="#E2B51E" opacity="1.000000" stroke="none" 
	d="
M250.470551,84.350006 
	C249.931885,83.249924 249.181702,81.971230 249.505768,81.578125 
	C251.579987,79.061981 253.890182,76.740379 256.193481,74.279236 
	C258.536469,76.960411 260.877533,79.639343 263.277557,82.385796 
	C261.058777,84.918892 258.809753,87.486481 256.567444,90.046387 
	C254.691757,88.282440 252.723755,86.431671 250.470551,84.350006 
z"/>
<path fill="#E5B71F" opacity="1.000000" stroke="none" 
	d="
M84.795380,245.735046 
	C87.725311,247.915604 90.449066,250.393738 93.169426,252.868774 
	C90.573700,255.770554 88.297295,258.315338 86.516380,260.306244 
	C83.921555,257.970703 81.286095,255.598602 78.559891,253.144806 
	C80.382698,250.994629 82.485954,248.513626 84.795380,245.735046 
z"/>
<path fill="#E5B71F" opacity="1.000000" stroke="none" 
	d="
M424.853760,262.470947 
	C422.958954,260.322998 421.284760,258.479553 419.510315,256.525757 
	C421.745514,253.986359 424.203979,251.193344 426.694641,248.363739 
	C428.980316,250.987488 431.364868,253.724716 433.846283,256.573151 
	C431.563599,259.152435 429.189850,261.834625 426.664062,264.688568 
	C426.068909,263.972351 425.571625,263.373932 424.853760,262.470947 
z"/>
<path fill="#EDEDED" opacity="1.000000" stroke="none" 
	d="
M303.009979,198.900864 
	C305.184509,200.901428 307.359070,202.901978 309.691284,205.375610 
	C307.254944,208.630478 308.191803,211.219788 310.139954,213.897003 
	C317.246765,223.663300 321.398163,234.586853 322.455627,246.615005 
	C324.107269,265.401428 318.691223,281.919220 306.111359,296.945251 
	C302.144226,280.101471 292.298767,269.277405 276.675995,263.751770 
	C287.421570,248.636612 286.675140,233.015991 274.924225,222.655060 
	C264.076141,213.090179 247.837677,213.183792 237.105499,222.873062 
	C225.436874,233.407776 224.837631,248.684464 235.609528,263.799408 
	C219.967041,269.225677 210.144348,280.027649 206.290634,296.285095 
	C193.810287,285.083313 186.751343,260.266357 190.445602,241.502213 
	C198.534515,200.416473 237.736435,177.218674 277.717865,189.929016 
	C281.219299,191.042145 284.218964,191.344604 286.401428,187.756607 
	C289.022186,189.179413 291.642975,190.602234 294.545715,192.456818 
	C295.142761,194.980713 294.843201,198.380692 295.906525,198.880341 
	C297.848724,199.792953 300.597595,198.988892 303.009979,198.900864 
z"/>
<path fill="#050505" opacity="1.000000" stroke="none" 
	d="
M286.420807,187.394135 
	C284.218964,191.344604 281.219299,191.042145 277.717865,189.929016 
	C237.736435,177.218674 198.534515,200.416473 190.445602,241.502213 
	C186.751343,260.266357 193.810287,285.083313 206.290634,296.285095 
	C210.144348,280.027649 219.967041,269.225677 235.609528,263.799408 
	C224.837631,248.684464 225.436874,233.407776 237.105499,222.873062 
	C247.837677,213.183792 264.076141,213.090179 274.924225,222.655060 
	C286.675140,233.015991 287.421570,248.636612 276.675995,263.751770 
	C292.298767,269.277405 302.144226,280.101471 306.111359,296.945251 
	C318.691223,281.919220 324.107269,265.401428 322.455627,246.615005 
	C321.398163,234.586853 317.246765,223.663300 310.139954,213.897003 
	C308.191803,211.219788 307.254944,208.630478 309.993591,205.545532 
	C313.818085,203.994736 316.425110,205.120956 318.595490,208.401917 
	C336.147675,234.935760 338.400391,262.719025 322.762512,290.383240 
	C307.037659,318.201263 282.020996,331.505249 249.998474,329.118469 
	C210.324478,326.161438 181.234573,295.028046 179.457230,254.990189 
	C177.803864,217.745178 205.025604,184.292404 242.841537,177.321228 
	C256.032074,174.889618 269.008606,176.126633 281.687531,180.571182 
	C284.842987,181.677322 287.028320,183.277176 286.420807,187.394135 
M281.423370,276.980469 
	C277.391693,275.518768 273.418365,273.035767 269.316589,272.801575 
	C259.901031,272.264038 250.289230,271.863770 241.001297,273.159027 
	C226.791412,275.140747 215.944473,288.553101 215.969452,302.573425 
	C215.972610,304.348938 217.161911,306.750122 218.584824,307.801086 
	C239.716690,323.408813 273.008759,323.323669 293.934418,307.602539 
	C295.310364,306.568817 296.393097,304.096130 296.316620,302.349457 
	C295.848724,291.659668 290.824402,283.394012 281.423370,276.980469 
M260.771759,226.088013 
	C259.451996,225.923538 258.136017,225.661255 256.811859,225.610092 
	C246.560226,225.213959 238.097763,233.149628 237.899857,243.302673 
	C237.694061,253.860596 245.780426,262.132751 256.251495,262.076050 
	C264.724365,262.030151 272.248627,256.050110 273.957947,248.003525 
	C275.984680,238.462769 271.477448,230.556274 260.771759,226.088013 
z"/>
<path fill="#C3E4FE" opacity="1.000000" stroke="none" 
	d="
M282.124237,346.158081 
	C259.034271,352.569824 236.997437,350.468506 215.696976,340.724121 
	C213.727310,339.823090 211.513718,337.089691 211.372437,335.070038 
	C211.111130,331.334778 214.730652,330.292175 219.317810,331.577423 
	C229.017929,334.295258 238.709091,337.270752 248.601990,339.021271 
	C262.896576,341.550659 276.845337,338.646057 289.911987,332.875549 
	C318.265045,320.354279 335.933411,298.535400 341.525970,268.144867 
	C346.526245,240.972870 339.609528,216.405777 321.083862,195.472183 
	C319.983612,194.228897 319.074829,192.808105 317.920044,191.622787 
	C315.695953,189.339890 315.283691,186.898041 317.539795,184.586090 
	C319.991272,182.073914 322.930786,182.550583 325.071960,184.851242 
	C328.798706,188.855576 332.422546,193.016205 335.601135,197.460587 
	C361.499176,233.671600 358.129395,284.708893 327.976410,317.713531 
	C315.426636,331.450165 300.428680,341.031799 282.124237,346.158081 
z"/>
<path fill="#C2E4FE" opacity="1.000000" stroke="none" 
	d="
M203.451706,322.848999 
	C202.926224,325.187805 202.774216,328.125946 201.382202,328.937683 
	C199.960968,329.766418 196.932510,329.100739 195.302307,328.030853 
	C192.442291,326.153931 189.655670,323.782684 187.743805,320.997009 
	C186.712418,319.494232 186.682388,315.756439 187.783051,314.739014 
	C189.090027,313.530945 192.727127,313.202332 194.240906,314.193451 
	C197.621338,316.406647 200.310287,319.675995 203.451706,322.848999 
z"/>
<path fill="#060808" opacity="1.000000" stroke="none" 
	d="
M303.113953,198.546494 
	C300.597595,198.988892 297.848724,199.792953 295.906525,198.880341 
	C294.843201,198.380692 295.142761,194.980713 294.897522,192.538177 
	C297.365784,192.006638 300.188019,191.002609 302.010071,191.940857 
	C303.176422,192.541473 302.866180,196.009537 303.113953,198.546494 
z"/>
<path fill="#F9E4AC" opacity="1.000000" stroke="none" 
	d="
M75.313019,104.161011 
	C66.290787,106.958939 63.125511,111.230324 63.080700,120.241402 
	C63.056751,125.056976 63.023949,129.873306 63.082386,134.688217 
	C63.123547,138.079285 61.368454,140.667755 58.254658,140.264801 
	C56.361080,140.019745 53.417686,137.148911 53.352585,135.369537 
	C53.068947,127.617149 52.894390,119.705872 54.140957,112.091446 
	C55.711845,102.495979 64.907158,95.032669 74.359291,94.102753 
	C77.969543,93.747574 81.434418,94.289345 81.840111,98.618637 
	C82.215546,102.624985 79.319176,104.013954 75.313019,104.161011 
z"/>
<path fill="#F9E4AB" opacity="1.000000" stroke="none" 
	d="
M62.940529,481.337860 
	C61.643330,484.794556 59.044197,486.013153 56.461689,484.649780 
	C54.826820,483.786652 53.349869,481.138611 53.216549,479.194122 
	C52.807285,473.225098 52.841099,467.197479 53.137890,461.214203 
	C53.736515,449.146149 64.428673,438.895203 75.893372,438.887146 
	C79.247482,438.884766 81.606674,440.034332 81.859535,443.441406 
	C82.112648,446.851837 79.809875,448.403992 76.629471,448.938416 
	C67.234276,450.517120 63.148346,455.358276 63.081623,464.912537 
	C63.044395,470.243256 63.034481,475.574158 62.940529,481.337860 
z"/>
<path fill="#F9E4AB" opacity="1.000000" stroke="none" 
	d="
M396.195435,468.075439 
	C396.204773,452.399323 402.071045,443.023621 413.812805,439.717651 
	C415.852417,439.143372 418.307098,438.486572 420.129791,439.125000 
	C422.052979,439.798584 424.671509,441.922638 424.742493,443.513184 
	C424.818329,445.211823 422.574738,447.494904 420.782196,448.656158 
	C419.102570,449.744293 416.542511,449.368744 414.626068,450.216370 
	C409.628723,452.426666 406.935303,456.434998 406.814331,461.945129 
	C406.697632,467.262054 406.821289,472.584045 406.722839,477.901672 
	C406.657593,481.424957 405.974701,484.928467 401.530640,484.978760 
	C397.088440,485.029053 396.315765,481.591339 396.217621,478.031860 
	C396.130585,474.875854 396.196686,471.715607 396.195435,468.075439 
z"/>
<path fill="#F9E4AA" opacity="1.000000" stroke="none" 
	d="
M406.750397,124.988403 
	C406.638336,128.962692 407.075317,132.596237 406.193512,135.875076 
	C405.721222,137.631058 402.918243,139.956985 401.276489,139.873505 
	C399.547577,139.785583 396.564972,137.165237 396.526886,135.593307 
	C396.334412,127.650383 396.107452,119.548187 397.446350,111.769295 
	C399.077606,102.291924 408.211060,94.982826 417.497833,94.125076 
	C420.962372,93.805077 424.550201,93.950912 425.010834,98.536797 
	C425.425262,102.662643 422.722321,103.712074 419.077454,104.175507 
	C411.291290,105.165512 407.003357,110.192276 406.775360,118.008049 
	C406.712250,120.170456 406.755981,122.335968 406.750397,124.988403 
z"/>
<path fill="#F95C3D" opacity="1.000000" stroke="none" 
	d="
M281.738403,277.166046 
	C290.824402,283.394012 295.848724,291.659668 296.316620,302.349457 
	C296.393097,304.096130 295.310364,306.568817 293.934418,307.602539 
	C273.008759,323.323669 239.716690,323.408813 218.584824,307.801086 
	C217.161911,306.750122 215.972610,304.348938 215.969452,302.573425 
	C215.944473,288.553101 226.791412,275.140747 241.001297,273.159027 
	C250.289230,271.863770 259.901031,272.264038 269.316589,272.801575 
	C273.418365,273.035767 277.391693,275.518768 281.738403,277.166046 
M236.407822,292.910400 
	C239.969910,291.314819 243.406509,289.233490 247.132141,288.270905 
	C250.356339,287.437805 252.586868,286.129272 252.425720,282.837524 
	C252.259949,279.451569 249.695679,278.167877 246.480301,278.098877 
	C235.761749,277.868866 223.541473,288.287750 222.127930,298.885376 
	C221.727707,301.885834 222.569504,304.297791 225.775406,305.007812 
	C228.797607,305.677124 230.795105,304.350006 231.975647,301.384583 
	C233.065063,298.648193 234.569763,296.077148 236.407822,292.910400 
z"/>
<path fill="#FCB49D" opacity="1.000000" stroke="none" 
	d="
M261.177979,226.192841 
	C271.477448,230.556274 275.984680,238.462769 273.957947,248.003525 
	C272.248627,256.050110 264.724365,262.030151 256.251495,262.076050 
	C245.780426,262.132751 237.694061,253.860596 237.899857,243.302673 
	C238.097763,233.149628 246.560226,225.213959 256.811859,225.610092 
	C258.136017,225.661255 259.451996,225.923538 261.177979,226.192841 
z"/>
<path fill="#FFC8BE" opacity="1.000000" stroke="none" 
	d="
M236.149689,293.171814 
	C234.569763,296.077148 233.065063,298.648193 231.975647,301.384583 
	C230.795105,304.350006 228.797607,305.677124 225.775406,305.007812 
	C222.569504,304.297791 221.727707,301.885834 222.127930,298.885376 
	C223.541473,288.287750 235.761749,277.868866 246.480301,278.098877 
	C249.695679,278.167877 252.259949,279.451569 252.425720,282.837524 
	C252.586868,286.129272 250.356339,287.437805 247.132141,288.270905 
	C243.406509,289.233490 239.969910,291.314819 236.149689,293.171814 
z"/>
</svg>