<svg version="1.1" id="Layer_1" xmlns="http://www.w3.org/2000/svg" xmlns:xlink="http://www.w3.org/1999/xlink" x="0px" y="0px"
	 width="100%" viewBox="0 0 512 512" enable-background="new 0 0 512 512" xml:space="preserve">
<path fill="#000000" opacity="1.000000" stroke="none" 
	d="
M1.000003,376.000000 
	C1.000000,251.088211 1.000000,126.176414 1.000000,1.000000 
	C81.687904,1.000000 162.376099,1.000000 243.609467,1.385067 
	C243.967316,2.034508 243.822937,2.481293 243.586472,2.536984 
	C233.722717,4.859935 225.241104,9.513926 218.326935,17.033020 
	C217.347885,18.097738 215.570557,18.650860 214.062943,18.971092 
	C204.013687,21.105667 195.677597,25.739210 189.920624,34.562893 
	C181.301025,47.774139 179.971649,62.787125 178.470764,77.942230 
	C172.205750,77.992310 166.403091,77.989182 160.600449,78.000374 
	C150.490204,78.019875 142.015381,86.462837 142.007584,96.556137 
	C142.005157,99.702484 142.109390,102.848907 142.086792,106.456963 
	C142.005402,109.917427 142.333527,112.960693 141.938339,115.906944 
	C140.588150,125.973335 151.438797,136.073547 160.856705,135.128510 
	C167.454269,134.466507 174.171997,135.001877 180.908737,135.407135 
	C182.477005,140.535217 183.627670,145.403275 185.535172,149.954086 
	C190.539948,161.894196 198.332367,172.076950 207.184204,181.328476 
	C211.484909,185.823364 216.952225,189.202026 221.934265,193.545502 
	C222.040192,199.347031 222.103241,204.689056 222.094666,210.486664 
	C221.980362,214.946716 221.937698,218.951218 221.505386,222.980453 
	C212.405930,225.995621 203.696121,228.986038 194.610413,232.008453 
	C168.773651,241.815323 144.972839,254.142670 126.466118,274.970551 
	C115.510109,287.300751 109.548729,301.591675 109.080460,317.973175 
	C108.681221,331.939911 108.959236,345.925995 108.474648,359.946289 
	C80.867714,359.992096 53.721363,359.788788 26.581154,360.108063 
	C16.836893,360.222656 8.763326,364.337219 3.881073,373.418457 
	C3.306834,374.486572 1.978670,375.149353 1.000003,376.000000 
z"/>
<path fill="#9FD3FD" opacity="1.000000" stroke="none" 
	d="
M1.000003,376.468658 
	C1.978670,375.149353 3.306834,374.486572 3.881073,373.418457 
	C8.763326,364.337219 16.836893,360.222656 26.581154,360.108063 
	C53.721363,359.788788 80.867714,359.992096 108.845932,360.144653 
	C111.160316,360.438873 112.640350,360.697662 114.120529,360.698486 
	C153.557281,360.720490 192.994049,360.719696 232.430817,360.700897 
	C233.917343,360.700195 235.403793,360.480560 237.352448,360.490601 
	C250.233261,360.519318 262.651917,360.420441 275.516235,360.450592 
	C280.969147,360.499054 285.976410,360.418457 291.435120,360.467316 
	C320.463898,360.637024 349.041168,360.687836 377.618439,360.701019 
	C380.430481,360.702301 383.242645,360.473053 386.504700,360.475586 
	C397.660889,360.356689 408.367065,360.112976 419.534088,359.927490 
	C430.663177,360.041290 441.331421,360.096832 452.101501,360.274109 
	C452.203339,360.395874 452.650330,360.455750 452.650330,360.455750 
	C452.650330,360.455750 453.009766,360.169373 453.335480,360.105988 
	C454.099457,360.085480 454.537689,360.128357 455.089325,360.495789 
	C456.041534,361.253693 456.863495,361.724121 457.721802,362.114685 
	C466.165588,365.957062 472.403687,371.922455 473.830811,381.339203 
	C474.837189,387.979401 474.630127,394.803467 474.506622,401.638062 
	C465.397003,401.767365 456.743317,401.698181 448.095154,401.884125 
	C443.551880,401.981812 440.406006,405.257324 440.365356,409.382324 
	C440.324493,413.528290 443.425537,416.750549 447.946533,417.061768 
	C450.212952,417.217804 452.498962,417.088959 455.343048,417.088959 
	C455.343048,419.532440 455.342987,421.318115 455.343048,423.103790 
	C455.343384,435.749451 455.328186,448.395111 455.350159,461.040741 
	C455.362732,468.281952 458.171936,472.105133 463.311096,471.989563 
	C468.320068,471.876923 470.935883,468.216217 470.950195,461.251556 
	C470.964203,454.429596 470.953644,447.607574 470.953735,440.785583 
	C470.953827,433.003235 470.953796,425.220886 470.953796,417.375366 
	C472.673492,417.375366 473.814850,417.375366 474.954529,417.820496 
	C474.960358,438.841583 475.221039,459.422119 474.848022,479.991180 
	C474.702972,487.989777 475.001526,496.715363 468.814850,502.967041 
	C464.864380,506.959015 459.648529,509.698792 455.000000,513.000000 
	C308.979095,513.000000 162.958206,513.000000 16.787281,512.731934 
	C11.786452,507.553986 6.941134,502.638580 2.056448,497.762665 
	C1.919630,497.626038 1.361620,497.911377 0.999999,498.000000 
	C1.000000,457.645782 1.000000,417.291534 1.000003,376.468658 
M333.975525,470.731171 
	C335.235626,470.310272 336.513214,469.935211 337.753174,469.461548 
	C354.362640,463.116333 363.669617,445.316071 359.303223,428.271179 
	C354.693329,410.275696 338.320160,399.439728 319.602112,401.996521 
	C302.672668,404.308990 289.334320,420.440582 290.132446,438.013702 
	C291.200409,461.528717 313.432983,475.868347 333.975525,470.731171 
M379.375305,425.502014 
	C379.380646,437.983337 379.292816,450.465698 379.434174,462.945465 
	C379.496490,468.444458 382.953644,472.013641 387.467773,471.833221 
	C391.882050,471.656738 394.818146,468.216553 394.943939,462.915314 
	C395.027496,459.394592 394.959808,455.870270 394.959808,450.972290 
	C400.752594,457.562622 405.416473,462.976685 410.203064,468.280060 
	C414.039032,472.530212 418.431427,472.991821 422.000366,469.718597 
	C425.302185,466.690247 425.323212,462.243500 421.876740,458.167542 
	C418.014832,453.600372 414.026245,449.140259 409.925140,444.441498 
	C411.099854,443.726074 412.059326,443.127136 413.032471,442.551270 
	C421.872589,437.320251 426.002533,428.437805 424.014954,418.920013 
	C422.114532,409.819702 414.198029,402.708405 404.317017,401.812744 
	C398.867493,401.318726 393.343384,401.392639 387.863556,401.559875 
	C382.392761,401.726837 379.675415,404.514648 379.439423,410.027039 
	C379.233215,414.844543 379.383148,419.677338 379.375305,425.502014 
M57.817448,455.894623 
	C51.677673,456.911438 46.344803,455.373108 41.680847,451.162018 
	C37.380470,447.279236 33.025101,447.292816 29.850336,450.914551 
	C26.894737,454.286224 27.310579,458.731689 31.178406,462.416962 
	C38.304237,469.206482 46.945961,472.350403 56.683887,471.737946 
	C68.096848,471.020111 77.000267,463.308624 78.725159,453.305359 
	C80.366020,443.789398 74.553772,435.047607 63.371998,430.337036 
	C59.389236,428.659210 55.305672,427.217682 51.344318,425.493256 
	C49.233086,424.574188 45.490799,424.136871 47.009113,420.834198 
	C47.852768,418.999115 51.242493,417.052551 53.224922,417.293518 
	C57.187084,417.775085 61.114620,419.421600 64.790359,421.152222 
	C69.170074,423.214294 73.463058,422.674957 75.823296,419.089264 
	C78.193642,415.488159 77.260735,411.039703 73.280891,408.186310 
	C66.104530,403.041107 58.160690,400.668640 49.274162,401.947479 
	C39.672939,403.329224 32.249031,410.367157 31.096928,419.257141 
	C29.945805,428.139557 34.470043,435.152771 44.114574,439.261078 
	C48.855621,441.280670 53.792007,442.892670 58.370197,445.219879 
	C60.343967,446.223206 62.843689,448.540680 62.889755,450.318542 
	C62.934689,452.052704 60.154278,453.860046 57.817448,455.894623 
M118.808273,456.151276 
	C111.565170,454.452332 109.147400,451.584778 109.127312,444.486481 
	C109.095230,433.153900 109.164978,421.820862 109.094307,410.488617 
	C109.058594,404.762024 106.081253,401.550873 101.218506,401.685150 
	C96.592201,401.812897 93.881088,404.919556 93.850304,410.481750 
	C93.783920,422.480652 93.732491,434.481232 93.859245,446.479187 
	C94.007629,460.523804 105.601059,471.694489 119.977104,471.858093 
	C134.989334,472.028931 147.006668,460.910950 147.168732,446.493988 
	C147.301727,434.662811 147.236145,422.828888 147.187164,410.996460 
	C147.161591,404.820221 144.316574,401.539917 139.320938,401.680969 
	C134.578094,401.814880 131.945114,405.046417 131.921234,410.976715 
	C131.877640,421.809235 131.915588,432.642059 131.904633,443.474762 
	C131.895767,452.238831 128.567963,455.685577 118.808273,456.151276 
M167.380524,433.499939 
	C167.383453,443.144806 167.307541,452.790558 167.418594,462.434174 
	C167.486313,468.314911 170.777893,472.003510 175.446716,471.836853 
	C180.007523,471.674011 182.883835,468.137390 182.954742,462.460297 
	C183.014038,457.711609 182.966919,452.961609 182.966919,447.947479 
	C186.205246,447.947479 188.689758,448.038239 191.165833,447.932220 
	C203.562912,447.401398 213.451736,437.766083 213.954727,425.787079 
	C214.472916,413.446045 205.382278,402.940857 192.773056,401.763794 
	C187.494110,401.271027 182.141159,401.417175 176.825806,401.506683 
	C170.214630,401.618042 167.518692,404.359894 167.409805,411.048859 
	C167.293427,418.197479 167.381912,425.349426 167.380524,433.499939 
M229.925034,416.553528 
	C229.925812,431.883148 229.899490,447.212799 229.941406,462.542328 
	C229.957001,468.248352 232.892975,471.771027 237.481201,471.836792 
	C242.074280,471.902618 245.121506,468.377991 245.205673,462.739746 
	C245.277023,457.960846 245.220383,453.180023 245.220383,447.916412 
	C248.656555,447.916412 251.467453,448.071930 254.256287,447.889709 
	C266.864380,447.065918 276.328186,436.934418 276.223999,424.486115 
	C276.121063,412.187012 266.791260,402.390472 254.262558,401.725739 
	C248.779266,401.434875 243.263519,401.493439 237.772675,401.684967 
	C232.825867,401.857452 230.207672,404.659973 229.957397,409.579132 
	C229.855911,411.573700 229.930527,413.577271 229.925034,416.553528 
z"/>
<path fill="#000000" opacity="1.000000" stroke="none" 
	d="
M451.999695,360.152374 
	C441.331421,360.096832 430.663177,360.041290 419.521729,359.467407 
	C418.703644,343.680023 418.440308,328.408478 417.990814,313.142456 
	C417.539307,297.808563 410.281616,285.335571 400.619171,274.160675 
	C385.401611,256.561096 365.258484,246.040878 344.642487,236.363693 
	C340.657440,234.493103 336.303833,233.407684 331.956512,231.616089 
	C323.217987,228.478302 314.643158,225.684479 306.040710,222.429596 
	C305.948761,212.637924 305.884491,203.307327 305.927490,193.716919 
	C306.359528,193.020905 306.684326,192.584671 307.474365,192.094513 
	C320.039001,192.026764 332.138611,192.045502 344.237518,191.963333 
	C346.005615,191.951340 347.834930,191.670258 349.526855,191.155396 
	C365.761993,186.214981 373.650665,175.854889 374.408630,158.780151 
	C374.834229,150.394653 374.931580,142.280579 375.352386,134.014282 
	C381.423340,131.705566 385.191986,127.172249 386.511780,121.694786 
	C387.708496,116.728050 386.808960,111.256218 386.901855,105.545883 
	C386.980072,102.594704 386.998322,100.104713 386.998566,97.614731 
	C386.999664,86.231461 378.788513,77.996811 367.434509,78.002174 
	C360.960571,78.005226 354.486603,78.026878 348.008362,77.569809 
	C348.622650,66.378998 347.644897,55.937363 342.639374,46.191235 
	C331.485596,24.474174 312.613678,12.577658 290.324493,4.986512 
	C286.835175,3.798135 283.439148,2.335708 280.000000,1.000002 
	C357.610748,1.000000 435.221527,1.000000 513.000000,1.000000 
	C513.000000,125.687508 513.000000,250.375092 512.721558,375.843811 
	C511.639313,375.448578 510.725861,374.331787 510.049622,373.086212 
	C505.556488,364.810699 498.015228,360.730530 489.222412,360.171997 
	C477.852783,359.449799 466.395508,360.107635 454.975952,360.171265 
	C454.537689,360.128357 454.099457,360.085480 453.084167,360.030457 
	C452.337952,360.062988 452.168823,360.107666 451.999695,360.152374 
z"/>
<path fill="#375E7D" opacity="1.000000" stroke="none" 
	d="
M178.933105,77.895485 
	C179.971649,62.787125 181.301025,47.774139 189.920624,34.562893 
	C195.677597,25.739210 204.013687,21.105667 214.062943,18.971092 
	C215.570557,18.650860 217.347885,18.097738 218.326935,17.033020 
	C225.241104,9.513926 233.722717,4.859935 243.586472,2.536984 
	C243.822937,2.481293 243.967316,2.034508 244.077332,1.385067 
	C245.714355,1.000000 247.428711,1.000000 249.676453,1.355023 
	C250.876663,2.125561 251.497437,2.784962 252.217041,2.920778 
	C268.544861,6.002502 283.306030,12.558169 296.141083,23.124313 
	C311.496674,35.765388 321.018738,51.491459 320.999939,72.010719 
	C320.991119,81.667999 320.994904,91.325287 320.556885,101.031113 
	C307.805023,100.460938 296.319183,96.645172 285.149536,91.782867 
	C274.034393,86.944267 263.127441,81.614685 251.931458,76.977882 
	C239.322754,71.755989 227.218216,73.081276 216.023010,81.182053 
	C204.047470,89.847473 192.048279,98.480179 179.988770,106.653664 
	C179.907288,100.761490 180.012573,95.339279 179.847260,89.925323 
	C179.724670,85.909813 179.250595,81.905045 178.933105,77.895485 
z"/>
<path fill="#85BEEF" opacity="1.000000" stroke="none" 
	d="
M455.089325,360.495789 
	C466.395508,360.107635 477.852783,359.449799 489.222412,360.171997 
	C498.015228,360.730530 505.556488,364.810699 510.049622,373.086212 
	C510.725861,374.331787 511.639313,375.448578 512.721558,376.312439 
	C513.000000,416.020905 513.000000,456.041779 512.712402,496.214355 
	C509.060974,502.769104 504.642578,508.167480 498.086060,511.575684 
	C497.869171,511.688416 498.020386,512.509277 498.000000,513.000000 
	C483.979095,513.000000 469.958221,513.000000 455.468658,513.000000 
	C459.648529,509.698792 464.864380,506.959015 468.814850,502.967041 
	C475.001526,496.715363 474.702972,487.989777 474.848022,479.991180 
	C475.221039,459.422119 474.960358,438.841583 475.373322,417.732483 
	C482.677246,416.893372 485.832092,414.601868 486.020386,409.771271 
	C486.215698,404.761017 483.032257,402.232208 475.929962,401.743561 
	C475.605255,401.721222 475.286407,401.613464 474.964844,401.545441 
	C474.630127,394.803467 474.837189,387.979401 473.830811,381.339203 
	C472.403687,371.922455 466.165588,365.957062 457.721802,362.114685 
	C456.863495,361.724121 456.041534,361.253693 455.089325,360.495789 
z"/>
<path fill="#2C4E66" opacity="1.000000" stroke="none" 
	d="
M320.992981,100.982574 
	C320.994904,91.325287 320.991119,81.667999 320.999939,72.010719 
	C321.018738,51.491459 311.496674,35.765388 296.141083,23.124313 
	C283.306030,12.558169 268.544861,6.002502 252.217041,2.920778 
	C251.497437,2.784962 250.876663,2.125561 250.104919,1.355023 
	C259.687561,1.000000 269.375122,1.000000 279.531342,1.000002 
	C283.439148,2.335708 286.835175,3.798135 290.324493,4.986512 
	C312.613678,12.577658 331.485596,24.474174 342.639374,46.191235 
	C347.644897,55.937363 348.622650,66.378998 348.002991,78.036011 
	C347.947998,86.489426 347.894073,94.006310 347.384399,101.503082 
	C338.254028,101.448494 329.579376,101.414001 320.925934,101.280090 
	C320.947144,101.180672 320.992981,100.982574 320.992981,100.982574 
z"/>
<path fill="#000000" opacity="1.000000" stroke="none" 
	d="
M498.472656,513.000000 
	C498.020386,512.509277 497.869171,511.688416 498.086060,511.575684 
	C504.642578,508.167480 509.060974,502.769104 512.712402,496.683044 
	C513.000000,502.255463 513.000000,507.510956 513.000000,513.000000 
	C508.317657,513.000000 503.631470,513.000000 498.472656,513.000000 
z"/>
<path fill="#000000" opacity="1.000000" stroke="none" 
	d="
M0.999999,498.472656 
	C1.361620,497.911377 1.919630,497.626038 2.056448,497.762665 
	C6.941134,502.638580 11.786452,507.553986 16.318623,512.731934 
	C11.075477,513.000000 6.150953,513.000000 1.000000,513.000000 
	C1.000000,508.316681 1.000000,503.630981 0.999999,498.472656 
z"/>
<path fill="#385F7E" opacity="1.000000" stroke="none" 
	d="
M236.890274,360.362915 
	C235.403793,360.480560 233.917343,360.700195 232.430817,360.700897 
	C192.994049,360.719696 153.557281,360.720490 114.120529,360.698486 
	C112.640350,360.697662 111.160316,360.438873 109.308929,360.101929 
	C108.959236,345.925995 108.681221,331.939911 109.080460,317.973175 
	C109.548729,301.591675 115.510109,287.300751 126.466118,274.970551 
	C144.972839,254.142670 168.773651,241.815323 194.928131,232.151886 
	C196.195587,233.270676 196.804855,234.259705 197.337967,235.288208 
	C204.432709,248.975800 211.608307,262.622833 218.544678,276.390320 
	C220.487122,280.245728 222.677490,281.168671 226.359238,278.835480 
	C228.304550,277.602692 230.469391,276.716339 232.694336,276.037567 
	C235.104324,280.994843 237.355103,285.588074 239.717178,290.532959 
	C242.113556,295.932495 244.398621,300.980469 246.494125,306.415100 
	C245.722382,310.494080 245.140213,314.186310 244.427856,318.238403 
	C241.828522,332.519806 239.359390,346.441345 236.890274,360.362915 
z"/>
<path fill="#FFBC85" opacity="1.000000" stroke="none" 
	d="
M180.059418,107.127167 
	C192.048279,98.480179 204.047470,89.847473 216.023010,81.182053 
	C227.218216,73.081276 239.322754,71.755989 251.931458,76.977882 
	C263.127441,81.614685 274.034393,86.944267 285.149536,91.782867 
	C296.319183,96.645172 307.805023,100.460938 320.556885,101.031113 
	C320.992981,100.982574 320.947144,101.180672 320.947021,101.722672 
	C320.965057,108.596252 320.933929,114.928436 321.012421,121.259262 
	C321.140717,131.607437 319.087494,141.561401 314.088531,150.546371 
	C309.180908,159.367111 303.353546,167.676117 297.485748,176.342651 
	C288.577972,176.526505 280.113953,176.550629 271.650604,176.636948 
	C265.017944,176.704605 261.723633,179.373047 261.835358,184.475998 
	C261.942230,189.357315 265.257416,191.927094 271.512360,192.003311 
	C273.999634,192.033600 276.486420,192.105911 278.797119,192.438263 
	C272.586426,196.143433 266.544128,199.555573 260.521851,203.002716 
	C258.315552,204.265594 256.156738,205.611435 253.584351,206.906067 
	C241.627090,204.856064 231.732941,199.030701 221.891403,193.086014 
	C216.952225,189.202026 211.484909,185.823364 207.184204,181.328476 
	C198.332367,172.076950 190.539948,161.894196 185.535172,149.954086 
	C183.627670,145.403275 182.477005,140.535217 180.950806,134.987152 
	C180.498352,129.778091 180.076477,125.393639 179.732376,120.551010 
	C179.893234,115.770950 179.976318,111.449066 180.059418,107.127167 
z"/>
<path fill="#EEF5FE" opacity="1.000000" stroke="none" 
	d="
M232.535126,275.673584 
	C230.469391,276.716339 228.304550,277.602692 226.359238,278.835480 
	C222.677490,281.168671 220.487122,280.245728 218.544678,276.390320 
	C211.608307,262.622833 204.432709,248.975800 197.337967,235.288208 
	C196.804855,234.259705 196.195587,233.270676 195.304016,232.119873 
	C203.696121,228.986038 212.405930,225.995621 221.695557,223.262238 
	C224.949982,225.738892 227.639359,227.940964 230.296585,230.181152 
	C241.290710,239.449692 252.275085,248.729767 263.000610,258.252930 
	C252.670517,264.224670 242.602829,269.949127 232.535126,275.673584 
z"/>
<path fill="#EA9A59" opacity="1.000000" stroke="none" 
	d="
M221.934265,193.545502 
	C231.732941,199.030701 241.627090,204.856064 253.898697,207.188004 
	C263.217407,208.386368 271.921082,209.103546 280.121918,205.729126 
	C288.826233,202.147568 297.265320,197.921417 305.820221,193.976746 
	C305.884491,203.307327 305.948761,212.637924 305.757690,222.618881 
	C299.009705,228.538177 292.517059,233.807129 286.016846,238.603363 
	C286.009338,232.612320 286.009338,227.093964 286.009338,221.462021 
	C261.933716,228.972382 241.201065,224.100067 222.166306,210.031097 
	C222.103241,204.689056 222.040192,199.347031 221.934265,193.545502 
z"/>
<path fill="#9FD3FD" opacity="1.000000" stroke="none" 
	d="
M179.988770,106.653671 
	C179.976318,111.449066 179.893234,115.770950 179.290039,120.550125 
	C174.480209,121.005829 170.173157,120.754311 165.904114,121.050636 
	C154.218674,121.861771 146.189835,117.145454 142.164795,105.995300 
	C142.109390,102.848907 142.005157,99.702484 142.007584,96.556137 
	C142.015381,86.462837 150.490204,78.019875 160.600449,78.000374 
	C166.403091,77.989182 172.205750,77.992310 178.470764,77.942230 
	C179.250595,81.905045 179.724670,85.909813 179.847260,89.925323 
	C180.012573,95.339279 179.907288,100.761490 179.988770,106.653671 
z"/>
<path fill="#F5A96D" opacity="1.000000" stroke="none" 
	d="
M222.094666,210.486664 
	C241.201065,224.100067 261.933716,228.972382 286.009338,221.462021 
	C286.009338,227.093964 286.009338,232.612320 285.988373,238.825333 
	C285.967407,239.519989 285.906769,239.963470 285.609436,240.109619 
	C278.206116,246.145630 271.100159,252.035461 263.816376,257.990845 
	C263.638580,258.056366 263.263031,258.005615 263.263031,258.005615 
	C252.275085,248.729767 241.290710,239.449692 230.296585,230.181152 
	C227.639359,227.940964 224.949982,225.738892 222.085205,223.237488 
	C221.937698,218.951218 221.980362,214.946716 222.094666,210.486664 
z"/>
<path fill="#85BEEF" opacity="1.000000" stroke="none" 
	d="
M142.086792,106.456963 
	C146.189835,117.145454 154.218674,121.861771 165.904114,121.050636 
	C170.173157,120.754311 174.480209,121.005829 179.212265,121.008293 
	C180.076477,125.393639 180.498352,129.778091 180.878143,134.582520 
	C174.171997,135.001877 167.454269,134.466507 160.856705,135.128510 
	C151.438797,136.073547 140.588150,125.973335 141.938339,115.906944 
	C142.333527,112.960693 142.005402,109.917427 142.086792,106.456963 
z"/>
<path fill="#385F7E" opacity="1.000000" stroke="none" 
	d="
M386.054749,360.350830 
	C383.242645,360.473053 380.430481,360.702301 377.618439,360.701019 
	C349.041168,360.687836 320.463898,360.637024 291.406311,360.104889 
	C290.271423,356.034607 289.632477,352.453247 288.959564,348.878265 
	C286.268036,334.579559 283.565948,320.282867 281.006744,305.655640 
	C283.468384,300.234100 285.791016,295.142273 288.383301,289.837646 
	C290.835663,284.969818 293.018311,280.314850 295.547028,275.759399 
	C298.091705,277.031891 300.314697,278.161743 302.482788,279.388672 
	C305.259003,280.959808 307.178253,280.199738 308.560486,277.429291 
	C312.414856,269.704163 316.309052,261.998871 320.396851,254.225952 
	C320.606140,254.166168 321.010773,254.005539 321.376282,254.058578 
	C327.621338,256.801758 333.705658,259.122406 339.344482,262.246979 
	C361.851929,274.718750 377.481201,292.715240 383.601868,318.244446 
	C386.937592,332.157562 385.723663,346.288361 386.054749,360.350830 
z"/>
<path fill="#2B4D66" opacity="1.000000" stroke="none" 
	d="
M386.504700,360.475616 
	C385.723663,346.288361 386.937592,332.157562 383.601868,318.244446 
	C377.481201,292.715240 361.851929,274.718750 339.344482,262.246979 
	C333.705658,259.122406 327.621338,256.801758 321.394348,253.695251 
	C324.738068,246.172623 328.429169,239.066345 332.120239,231.960068 
	C336.303833,233.407684 340.657440,234.493103 344.642487,236.363693 
	C365.258484,246.040878 385.401611,256.561096 400.619171,274.160675 
	C410.281616,285.335571 417.539307,297.808563 417.990814,313.142456 
	C418.440308,328.408478 418.703644,343.680023 419.060913,359.409180 
	C408.367065,360.112976 397.660889,360.356689 386.504700,360.475616 
z"/>
<path fill="#2D4F68" opacity="1.000000" stroke="none" 
	d="
M333.571320,470.823853 
	C313.432983,475.868347 291.200409,461.528717 290.132446,438.013702 
	C289.334320,420.440582 302.672668,404.308990 319.602112,401.996521 
	C338.320160,399.439728 354.693329,410.275696 359.303223,428.271179 
	C363.669617,445.316071 354.362640,463.116333 337.753174,469.461548 
	C336.513214,469.935211 335.235626,470.310272 333.571320,470.823853 
M309.259552,448.096802 
	C316.083832,456.204803 325.099854,458.514160 333.735870,454.366180 
	C341.870880,450.458801 346.464050,441.388458 344.524323,432.852112 
	C342.648834,424.598450 337.536560,419.267242 329.303619,417.473328 
	C321.235870,415.715393 314.352264,418.414246 309.517670,425.024017 
	C304.287354,432.174835 304.300232,439.841675 309.259552,448.096802 
z"/>
<path fill="#2D5069" opacity="1.000000" stroke="none" 
	d="
M379.375549,425.002686 
	C379.383148,419.677338 379.233215,414.844543 379.439423,410.027039 
	C379.675415,404.514648 382.392761,401.726837 387.863556,401.559875 
	C393.343384,401.392639 398.867493,401.318726 404.317017,401.812744 
	C414.198029,402.708405 422.114532,409.819702 424.014954,418.920013 
	C426.002533,428.437805 421.872589,437.320251 413.032471,442.551270 
	C412.059326,443.127136 411.099854,443.726074 409.925140,444.441498 
	C414.026245,449.140259 418.014832,453.600372 421.876740,458.167542 
	C425.323212,462.243500 425.302185,466.690247 422.000366,469.718597 
	C418.431427,472.991821 414.039032,472.530212 410.203064,468.280060 
	C405.416473,462.976685 400.752594,457.562622 394.959808,450.972290 
	C394.959808,455.870270 395.027496,459.394592 394.943939,462.915314 
	C394.818146,468.216553 391.882050,471.656738 387.467773,471.833221 
	C382.953644,472.013641 379.496490,468.444458 379.434174,462.945465 
	C379.292816,450.465698 379.380646,437.983337 379.375549,425.002686 
M395.756531,417.193573 
	C395.433411,421.346069 395.110291,425.498535 394.764771,429.939026 
	C397.921844,429.939026 400.250580,430.184967 402.505890,429.882782 
	C406.112518,429.399536 408.893677,427.493439 408.930908,423.547913 
	C408.968201,419.594666 406.213318,417.671936 402.612976,417.113037 
	C400.671448,416.811676 398.646484,417.047394 395.756531,417.193573 
z"/>
<path fill="#2D5069" opacity="1.000000" stroke="none" 
	d="
M58.215851,455.764954 
	C60.154278,453.860046 62.934689,452.052704 62.889755,450.318542 
	C62.843689,448.540680 60.343967,446.223206 58.370197,445.219879 
	C53.792007,442.892670 48.855621,441.280670 44.114574,439.261078 
	C34.470043,435.152771 29.945805,428.139557 31.096928,419.257141 
	C32.249031,410.367157 39.672939,403.329224 49.274162,401.947479 
	C58.160690,400.668640 66.104530,403.041107 73.280891,408.186310 
	C77.260735,411.039703 78.193642,415.488159 75.823296,419.089264 
	C73.463058,422.674957 69.170074,423.214294 64.790359,421.152222 
	C61.114620,419.421600 57.187084,417.775085 53.224922,417.293518 
	C51.242493,417.052551 47.852768,418.999115 47.009113,420.834198 
	C45.490799,424.136871 49.233086,424.574188 51.344318,425.493256 
	C55.305672,427.217682 59.389236,428.659210 63.371998,430.337036 
	C74.553772,435.047607 80.366020,443.789398 78.725159,453.305359 
	C77.000267,463.308624 68.096848,471.020111 56.683887,471.737946 
	C46.945961,472.350403 38.304237,469.206482 31.178406,462.416962 
	C27.310579,458.731689 26.894737,454.286224 29.850336,450.914551 
	C33.025101,447.292816 37.380470,447.279236 41.680847,451.162018 
	C46.344803,455.373108 51.677673,456.911438 58.215851,455.764954 
z"/>
<path fill="#2C4E67" opacity="1.000000" stroke="none" 
	d="
M119.229492,456.178802 
	C128.567963,455.685577 131.895767,452.238831 131.904633,443.474762 
	C131.915588,432.642059 131.877640,421.809235 131.921234,410.976715 
	C131.945114,405.046417 134.578094,401.814880 139.320938,401.680969 
	C144.316574,401.539917 147.161591,404.820221 147.187164,410.996460 
	C147.236145,422.828888 147.301727,434.662811 147.168732,446.493988 
	C147.006668,460.910950 134.989334,472.028931 119.977104,471.858093 
	C105.601059,471.694489 94.007629,460.523804 93.859245,446.479187 
	C93.732491,434.481232 93.783920,422.480652 93.850304,410.481750 
	C93.881088,404.919556 96.592201,401.812897 101.218506,401.685150 
	C106.081253,401.550873 109.058594,404.762024 109.094307,410.488617 
	C109.164978,421.820862 109.095230,433.153900 109.127312,444.486481 
	C109.147400,451.584778 111.565170,454.452332 119.229492,456.178802 
z"/>
<path fill="#2E506A" opacity="1.000000" stroke="none" 
	d="
M167.380737,432.999939 
	C167.381912,425.349426 167.293427,418.197479 167.409805,411.048859 
	C167.518692,404.359894 170.214630,401.618042 176.825806,401.506683 
	C182.141159,401.417175 187.494110,401.271027 192.773056,401.763794 
	C205.382278,402.940857 214.472916,413.446045 213.954727,425.787079 
	C213.451736,437.766083 203.562912,447.401398 191.165833,447.932220 
	C188.689758,448.038239 186.205246,447.947479 182.966919,447.947479 
	C182.966919,452.961609 183.014038,457.711609 182.954742,462.460297 
	C182.883835,468.137390 180.007523,471.674011 175.446716,471.836853 
	C170.777893,472.003510 167.486313,468.314911 167.418594,462.434174 
	C167.307541,452.790558 167.383453,443.144806 167.380737,432.999939 
M193.626038,431.771301 
	C197.767288,429.595825 199.333664,426.220093 197.751251,421.811005 
	C196.181900,417.438263 191.537109,416.176880 183.245148,417.598572 
	C183.245148,422.308624 183.245148,427.047272 183.245148,432.009796 
	C186.596481,432.009796 189.692764,432.009796 193.626038,431.771301 
z"/>
<path fill="#2C4E67" opacity="1.000000" stroke="none" 
	d="
M229.925018,416.065125 
	C229.930527,413.577271 229.855911,411.573700 229.957397,409.579132 
	C230.207672,404.659973 232.825867,401.857452 237.772675,401.684967 
	C243.263519,401.493439 248.779266,401.434875 254.262558,401.725739 
	C266.791260,402.390472 276.121063,412.187012 276.223999,424.486115 
	C276.328186,436.934418 266.864380,447.065918 254.256287,447.889709 
	C251.467453,448.071930 248.656555,447.916412 245.220383,447.916412 
	C245.220383,453.180023 245.277023,457.960846 245.205673,462.739746 
	C245.121506,468.377991 242.074280,471.902618 237.481201,471.836792 
	C232.892975,471.771027 229.957001,468.248352 229.941406,462.542328 
	C229.899490,447.212799 229.925812,431.883148 229.925018,416.065125 
M256.255310,417.802368 
	C252.735397,417.461243 249.215469,417.120117 245.549454,416.764832 
	C245.549454,422.436981 245.549454,427.173035 245.549454,431.836029 
	C253.311478,433.438538 257.945343,432.228821 260.008545,428.039734 
	C262.064117,423.866119 260.520142,420.670532 256.255310,417.802368 
z"/>
<path fill="#2E506A" opacity="1.000000" stroke="none" 
	d="
M474.506622,401.638062 
	C475.286407,401.613464 475.605255,401.721222 475.929962,401.743561 
	C483.032257,402.232208 486.215698,404.761017 486.020386,409.771271 
	C485.832092,414.601868 482.677246,416.893372 475.374939,417.287354 
	C473.814850,417.375366 472.673492,417.375366 470.953796,417.375366 
	C470.953796,425.220886 470.953827,433.003235 470.953735,440.785583 
	C470.953644,447.607574 470.964203,454.429596 470.950195,461.251556 
	C470.935883,468.216217 468.320068,471.876923 463.311096,471.989563 
	C458.171936,472.105133 455.362732,468.281952 455.350159,461.040741 
	C455.328186,448.395111 455.343384,435.749451 455.343048,423.103790 
	C455.342987,421.318115 455.343048,419.532440 455.343048,417.088959 
	C452.498962,417.088959 450.212952,417.217804 447.946533,417.061768 
	C443.425537,416.750549 440.324493,413.528290 440.365356,409.382324 
	C440.406006,405.257324 443.551880,401.981812 448.095154,401.884125 
	C456.743317,401.698181 465.397003,401.767365 474.506622,401.638062 
z"/>
<path fill="#E9566A" opacity="1.000000" stroke="none" 
	d="
M237.352448,360.490570 
	C239.359390,346.441345 241.828522,332.519806 244.932297,318.275391 
	C251.229691,317.976105 256.892670,318.041168 262.555084,318.006256 
	C265.539246,317.987854 267.912201,318.840332 268.482727,322.085083 
	C270.722290,334.822906 272.881500,347.574860 275.070557,360.321564 
	C262.651917,360.420441 250.233261,360.519318 237.352448,360.490570 
z"/>
<path fill="#E43950" opacity="1.000000" stroke="none" 
	d="
M275.516235,360.450592 
	C272.881500,347.574860 270.722290,334.822906 268.482727,322.085083 
	C267.912201,318.840332 265.539246,317.987854 262.555084,318.006256 
	C256.892670,318.041168 251.229691,317.976105 245.062500,317.915588 
	C245.140213,314.186310 245.722382,310.494080 246.909363,306.402649 
	C258.632019,305.997437 269.749878,305.991425 280.867737,305.985413 
	C283.565948,320.282867 286.268036,334.579559 288.959564,348.878265 
	C289.632477,352.453247 290.271423,356.034607 290.954834,359.975464 
	C285.976410,360.418457 280.969147,360.499054 275.516235,360.450592 
z"/>
<path fill="#85BEEF" opacity="1.000000" stroke="none" 
	d="
M452.101501,360.274109 
	C452.168823,360.107666 452.337952,360.062988 452.758423,360.093811 
	C453.009766,360.169373 452.650330,360.455750 452.650330,360.455750 
	C452.650330,360.455750 452.203339,360.395874 452.101501,360.274109 
z"/>
<path fill="#375E7D" opacity="1.000000" stroke="none" 
	d="
M278.973419,192.159088 
	C276.486420,192.105911 273.999634,192.033600 271.512360,192.003311 
	C265.257416,191.927094 261.942230,189.357315 261.835358,184.475998 
	C261.723633,179.373047 265.017944,176.704605 271.650604,176.636948 
	C280.113953,176.550629 288.577972,176.526505 297.938171,176.493515 
	C307.898865,176.280548 316.963104,176.049637 326.489502,175.887604 
	C331.767242,175.970688 336.584503,176.072983 341.397980,175.979950 
	C350.182709,175.810196 357.834015,168.286774 357.965515,159.535858 
	C358.087677,151.402130 357.933746,143.264252 358.369934,135.083145 
	C363.895996,134.750061 368.953522,134.462051 374.008057,134.630661 
	C374.030151,143.075378 374.055298,151.063477 374.080414,159.051575 
	C373.650665,175.854889 365.761993,186.214981 349.526855,191.155396 
	C347.834930,191.670258 346.005615,191.951340 344.237518,191.963333 
	C332.138611,192.045502 320.039001,192.026764 307.007507,192.033279 
	C297.041412,192.070358 288.007416,192.114731 278.973419,192.159088 
z"/>
<path fill="#9FD4FE" opacity="1.000000" stroke="none" 
	d="
M347.840149,101.523186 
	C347.894073,94.006310 347.947998,86.489426 348.007294,78.506348 
	C354.486603,78.026878 360.960571,78.005226 367.434509,78.002174 
	C378.788513,77.996811 386.999664,86.231461 386.998566,97.614731 
	C386.998322,100.104713 386.980072,102.594704 386.691223,105.811241 
	C382.326965,116.995880 376.446045,120.995003 365.140594,121.001366 
	C359.482544,121.004555 353.824493,121.006050 348.105164,120.542511 
	C347.975952,113.892212 347.908051,107.707695 347.840149,101.523186 
z"/>
<path fill="#D9EDFE" opacity="1.000000" stroke="none" 
	d="
M331.956512,231.616089 
	C328.429169,239.066345 324.738068,246.172623 321.028870,253.642212 
	C321.010773,254.005539 320.606140,254.166168 320.206512,253.907257 
	C308.506836,249.086716 297.206818,244.525085 285.906769,239.963470 
	C285.906769,239.963470 285.967407,239.519989 285.995911,239.298035 
	C292.517059,233.807129 299.009705,228.538177 305.785339,223.079956 
	C314.643158,225.684479 323.217987,228.478302 331.956512,231.616089 
z"/>
<path fill="#85BEEF" opacity="1.000000" stroke="none" 
	d="
M348.166443,121.008301 
	C353.824493,121.006050 359.482544,121.004555 365.140594,121.001366 
	C376.446045,120.995003 382.326965,116.995880 386.622986,106.272438 
	C386.808960,111.256218 387.708496,116.728050 386.511780,121.694786 
	C385.191986,127.172249 381.423340,131.705566 375.097839,133.974701 
	C374.350281,134.116226 374.180664,134.145126 374.011047,134.174042 
	C368.953522,134.462051 363.895996,134.750061 357.923492,135.026276 
	C353.720917,135.020813 350.433319,135.027145 347.083069,134.610458 
	C347.402405,129.794388 347.784424,125.401344 348.166443,121.008301 
z"/>
<path fill="#F5A96D" opacity="1.000000" stroke="none" 
	d="
M278.797119,192.438263 
	C288.007416,192.114731 297.041412,192.070358 306.542267,192.087219 
	C306.684326,192.584671 306.359528,193.020905 305.927490,193.716949 
	C297.265320,197.921417 288.826233,202.147568 280.121918,205.729126 
	C271.921082,209.103546 263.217407,208.386368 254.290619,207.201385 
	C256.156738,205.611435 258.315552,204.265594 260.521851,203.002716 
	C266.544128,199.555573 272.586426,196.143433 278.797119,192.438263 
z"/>
<path fill="#008080" opacity="1.000000" stroke="none" 
	d="
M374.008057,134.630661 
	C374.180664,134.145126 374.350281,134.116226 374.774414,134.126907 
	C374.931580,142.280579 374.834229,150.394653 374.408630,158.780151 
	C374.055298,151.063477 374.030151,143.075378 374.008057,134.630661 
z"/>
<path fill="#F2A86D" opacity="1.000000" stroke="none" 
	d="
M348.105164,120.542511 
	C347.784424,125.401344 347.402405,129.794388 347.025635,135.006012 
	C344.361511,142.532806 342.236755,149.529572 338.876434,155.871704 
	C335.186981,162.835205 330.359131,169.195572 326.027313,175.818726 
	C316.963104,176.049637 307.898865,176.280548 298.382233,176.360565 
	C303.353546,167.676117 309.180908,159.367111 314.088531,150.546371 
	C319.087494,141.561401 321.140717,131.607437 321.012421,121.259262 
	C320.933929,114.928436 320.965057,108.596252 320.925842,101.822098 
	C329.579376,101.414001 338.254028,101.448494 347.384399,101.503082 
	C347.908051,107.707695 347.975952,113.892212 348.105164,120.542511 
z"/>
<path fill="#E53A51" opacity="1.000000" stroke="none" 
	d="
M295.200958,275.659882 
	C293.018311,280.314850 290.835663,284.969818 288.063751,289.686951 
	C280.548340,285.883087 273.687347,281.890869 266.643372,278.252930 
	C265.159943,277.486786 262.643036,277.328186 261.220337,278.071869 
	C253.904572,281.896149 246.790421,286.106079 239.605865,290.181335 
	C237.355103,285.588074 235.104324,280.994843 232.694351,276.037598 
	C242.602829,269.949127 252.670517,264.224670 263.000610,258.252930 
	C263.263031,258.005615 263.638580,258.056366 264.142334,258.126709 
	C274.831055,264.018005 285.016022,269.838959 295.200958,275.659882 
z"/>
<path fill="#EA5468" opacity="1.000000" stroke="none" 
	d="
M239.717178,290.532959 
	C246.790421,286.106079 253.904572,281.896149 261.220337,278.071869 
	C262.643036,277.328186 265.159943,277.486786 266.643372,278.252930 
	C273.687347,281.890869 280.548340,285.883087 287.794067,289.899811 
	C285.791016,295.142273 283.468384,300.234100 281.006744,305.655640 
	C269.749878,305.991425 258.632019,305.997437 247.098923,306.015930 
	C244.398621,300.980469 242.113556,295.932495 239.717178,290.532959 
z"/>
<path fill="#EEF5FE" opacity="1.000000" stroke="none" 
	d="
M295.547028,275.759399 
	C285.016022,269.838959 274.831055,264.018005 264.320129,258.061188 
	C271.100159,252.035461 278.206116,246.145630 285.609436,240.109619 
	C297.206818,244.525085 308.506836,249.086716 319.997192,253.967041 
	C316.309052,261.998871 312.414856,269.704163 308.560486,277.429291 
	C307.178253,280.199738 305.259003,280.959808 302.482788,279.388672 
	C300.314697,278.161743 298.091705,277.031891 295.547028,275.759399 
z"/>
<path fill="#9ED3FC" opacity="1.000000" stroke="none" 
	d="
M309.057709,447.780212 
	C304.300232,439.841675 304.287354,432.174835 309.517670,425.024017 
	C314.352264,418.414246 321.235870,415.715393 329.303619,417.473328 
	C337.536560,419.267242 342.648834,424.598450 344.524323,432.852112 
	C346.464050,441.388458 341.870880,450.458801 333.735870,454.366180 
	C325.099854,458.514160 316.083832,456.204803 309.057709,447.780212 
z"/>
<path fill="#9ED3FC" opacity="1.000000" stroke="none" 
	d="
M396.207855,417.117188 
	C398.646484,417.047394 400.671448,416.811676 402.612976,417.113037 
	C406.213318,417.671936 408.968201,419.594666 408.930908,423.547913 
	C408.893677,427.493439 406.112518,429.399536 402.505890,429.882782 
	C400.250580,430.184967 397.921844,429.939026 394.764771,429.939026 
	C395.110291,425.498535 395.433411,421.346069 396.207855,417.117188 
z"/>
<path fill="#9ED3FC" opacity="1.000000" stroke="none" 
	d="
M193.207550,431.890564 
	C189.692764,432.009796 186.596481,432.009796 183.245148,432.009796 
	C183.245148,427.047272 183.245148,422.308624 183.245148,417.598572 
	C191.537109,416.176880 196.181900,417.438263 197.751251,421.811005 
	C199.333664,426.220093 197.767288,429.595825 193.207550,431.890564 
z"/>
<path fill="#9ACEF7" opacity="1.000000" stroke="none" 
	d="
M256.622437,417.970703 
	C260.520142,420.670532 262.064117,423.866119 260.008545,428.039734 
	C257.945343,432.228821 253.311478,433.438538 245.549454,431.836029 
	C245.549454,427.173035 245.549454,422.436981 245.549454,416.764832 
	C249.215469,417.120117 252.735397,417.461243 256.622437,417.970703 
z"/>
<path fill="#000000" opacity="1.000000" stroke="none" 
	d="
M326.489502,175.887604 
	C330.359131,169.195572 335.186981,162.835205 338.876434,155.871704 
	C342.236755,149.529572 344.361511,142.532806 347.088318,135.429047 
	C350.433319,135.027145 353.720917,135.020813 357.454956,135.071350 
	C357.933746,143.264252 358.087677,151.402130 357.965515,159.535858 
	C357.834015,168.286774 350.182709,175.810196 341.397980,175.979950 
	C336.584503,176.072983 331.767242,175.970688 326.489502,175.887604 
z"/>
</svg>