<svg width="20" height="20" viewBox="0 0 20 20" fill="none" xmlns="http://www.w3.org/2000/svg">
<path d="M18.5109 17.7209C17.9707 16.1256 17.2984 14.1016 14.6874 14.1016H13.2736C13.6957 13.7638 14.0787 13.3796 14.3806 12.9297H14.6874C16.3028 12.9297 17.6171 11.6154 17.6171 10C17.6171 9.15184 17.6171 8.50434 17.6171 7.65625C17.6171 3.45625 14.1999 0 9.99991 0C5.7042 0 2.32471 3.57086 2.3833 7.75523C2.3826 9.04555 2.38272 8.57641 2.38272 10C2.38272 11.6154 3.69705 12.9297 5.31241 12.9297H5.61916C5.92108 13.3796 6.30409 13.7638 6.72623 14.1016H5.31241C2.70143 14.1016 2.02909 16.1256 1.48893 17.7204C1.10698 18.8476 1.99225 20 3.17123 20H16.8286C18.0116 20 18.8916 18.8434 18.5109 17.7209ZM4.78569 7.07031H4.14053C3.95248 7.07031 3.77467 7.10777 3.60467 7.16273C3.87397 3.63801 6.7633 1.17188 9.99991 1.17188C13.3899 1.17188 16.1707 3.84328 16.4206 7.17059C16.2433 7.11027 16.0567 7.07031 15.8593 7.07031H15.2141C14.9183 4.44082 12.7072 2.34375 9.99991 2.34375C7.2926 2.34375 5.08151 4.44082 4.78569 7.07031ZM9.99991 18.4373L7.65592 15.2734H12.3438L9.99991 18.4373ZM9.99991 14.1016C7.73854 14.1016 5.89834 12.2614 5.89834 10V9.41406H7.65616C8.61787 9.41406 9.46545 8.94199 9.99991 8.2241C10.5344 8.94199 11.3819 9.41406 12.3437 9.41406H14.1015V10C14.1015 10.6314 13.9461 11.2229 13.6901 11.7578H11.1718C10.8479 11.7578 10.5858 12.0199 10.5858 12.3438C10.5858 12.6676 10.8479 12.9258 11.1718 12.9258H12.8613C12.1215 13.6484 11.1131 14.1016 9.99991 14.1016Z" fill="#9C9E9F"/>
</svg>
