<svg version="1.1" id="Layer_1" xmlns="http://www.w3.org/2000/svg" xmlns:xlink="http://www.w3.org/1999/xlink" x="0px" y="0px"
	 width="100%" viewBox="0 0 512 512" enable-background="new 0 0 512 512" xml:space="preserve">
<path fill="#000000" opacity="1.000000" stroke="none" 
	d="
M272.000000,513.000000 
	C181.355331,513.000000 91.210663,513.000000 1.032996,513.000000 
	C1.032996,342.396973 1.032996,171.793930 1.032996,1.095450 
	C171.561356,1.095450 342.122772,1.095450 512.842102,1.095450 
	C512.842102,171.666550 512.842102,342.333252 512.842102,513.000000 
	C432.793915,513.000000 352.646942,513.000000 272.000000,513.000000 
M32.999924,333.500000 
	C32.999935,372.828888 33.002239,412.157806 32.998825,451.486694 
	C32.997459,467.196747 46.836906,480.991669 62.398788,480.993134 
	C192.218399,481.005219 322.038025,480.997955 451.857635,481.002777 
	C466.525238,481.003326 481.022736,466.918304 481.014832,451.719360 
	C480.980652,385.892975 481.003937,320.066620 480.997253,254.240250 
	C480.995697,239.051071 466.995972,225.003601 451.851410,225.002960 
	C321.865143,224.997452 191.878876,224.995865 61.892616,225.005234 
	C46.987766,225.006302 33.013042,239.052231 33.004307,254.008301 
	C32.989021,280.172211 32.999969,306.336090 32.999924,333.500000 
M121.482559,95.042770 
	C120.738174,96.113899 120.059853,97.238876 119.238159,98.247009 
	C115.336678,103.033737 112.271072,107.857132 112.852417,114.674217 
	C113.535851,122.688370 119.283859,128.967209 127.351067,128.996017 
	C133.120651,129.016617 138.890381,129.000031 145.000061,129.000031 
	C145.000061,145.907974 144.986771,162.208725 145.005692,178.509460 
	C145.015121,186.634308 151.219681,192.970169 159.208145,192.991730 
	C171.039429,193.023666 182.870895,193.020798 194.702194,192.992706 
	C202.769028,192.973541 208.980545,186.723953 208.993286,178.614624 
	C209.016571,163.783798 208.993042,148.952896 209.010117,134.122055 
	C209.011963,132.516663 209.152740,130.911453 209.243637,129.000046 
	C215.264969,129.000046 220.905304,128.935822 226.543518,129.017700 
	C232.449203,129.103455 236.673889,126.333038 239.218201,121.250610 
	C243.554428,112.588699 240.408752,105.419876 234.899582,98.263412 
	C220.050980,78.974937 205.236282,59.639187 191.141815,39.800938 
	C184.794937,30.867592 169.067215,30.977264 162.796707,39.929298 
	C149.768585,58.528828 135.656265,76.368919 121.482559,95.042770 
M345.486328,33.000000 
	C336.827484,33.000000 328.130768,33.497063 319.521851,32.841480 
	C312.731537,32.324394 304.539551,40.769405 304.816071,47.614658 
	C305.413727,62.410725 305.000000,77.247650 305.000000,92.067856 
	C305.000000,93.651848 305.000000,95.235840 305.000000,97.000076 
	C298.638519,97.000076 292.986969,97.071358 287.338104,96.980103 
	C281.637726,96.888023 277.519623,99.570381 274.966187,104.378120 
	C270.316010,113.133736 273.502106,120.435257 279.096832,127.730011 
	C293.955841,147.104080 308.525452,166.703049 323.011658,186.358841 
	C329.809052,195.581924 344.203491,195.562775 350.995575,186.318878 
	C364.390198,168.088867 378.119812,150.105118 391.530792,131.886948 
	C396.071259,125.718887 402.152618,120.409103 401.165924,111.236862 
	C400.314209,103.319221 394.696381,97.032356 386.644012,97.004021 
	C380.873230,96.983719 375.102295,97.000084 369.000000,97.000084 
	C369.000000,80.161545 368.944061,63.874973 369.028900,47.589134 
	C369.060669,41.489922 366.374176,36.689335 360.961578,34.750221 
	C356.498016,33.151093 351.333282,33.509220 345.486328,33.000000 
z"/>
<path fill="#3DDC80" opacity="1.000000" stroke="none" 
	d="
M32.999924,333.000000 
	C32.999969,306.336090 32.989021,280.172211 33.004307,254.008301 
	C33.013042,239.052231 46.987766,225.006302 61.892616,225.005234 
	C191.878876,224.995865 321.865143,224.997452 451.851410,225.002960 
	C466.995972,225.003601 480.995697,239.051071 480.997253,254.240250 
	C481.003937,320.066620 480.980652,385.892975 481.014832,451.719360 
	C481.022736,466.918304 466.525238,481.003326 451.857635,481.002777 
	C322.038025,480.997955 192.218399,481.005219 62.398788,480.993134 
	C46.836906,480.991669 32.997459,467.196747 32.998825,451.486694 
	C33.002239,412.157806 32.999935,372.828888 32.999924,333.000000 
M155.500000,257.000000 
	C140.838211,257.000305 126.176376,256.976837 111.514671,257.009735 
	C102.612976,257.029724 97.296227,260.468750 94.320145,268.753235 
	C91.435524,276.783112 86.388947,282.889069 78.458183,285.674622 
	C68.163864,289.290314 65.133133,296.951172 65.107025,306.668152 
	C65.019722,339.157043 65.002960,371.646210 65.034920,404.135193 
	C65.041428,410.755035 68.148659,416.315674 74.190651,418.405823 
	C85.417915,422.289612 91.667053,430.194763 96.564964,440.436035 
	C98.150047,443.750427 102.706955,446.561615 106.475815,447.683441 
	C111.289223,449.116119 116.681221,448.884277 121.824265,448.888733 
	C214.293182,448.969116 306.762177,448.976837 399.231140,448.999481 
	C400.897217,448.999878 402.564606,449.032990 404.229187,448.981110 
	C410.847748,448.774750 416.347076,445.769348 418.454987,439.724426 
	C422.294342,428.714325 429.776306,422.069031 440.191345,417.846008 
	C444.673523,416.028656 447.274353,412.212463 447.886108,407.497223 
	C448.547607,402.398315 448.879425,397.223511 448.899963,392.080017 
	C449.011078,364.256409 448.604492,336.424469 449.176971,308.611908 
	C449.420776,296.766571 446.155457,288.430786 434.109314,284.991638 
	C432.864166,284.636139 431.769501,283.739929 430.618134,283.071960 
	C424.316528,279.416138 421.330353,273.231171 418.527313,266.973785 
	C416.390350,262.203308 412.916595,258.945099 407.833191,258.166229 
	C402.758850,257.388733 397.563538,257.117889 392.420746,257.112366 
	C313.780579,257.027832 235.140274,257.023224 155.500000,257.000000 
z"/>
<path fill="#3DDC80" opacity="1.000000" stroke="none" 
	d="
M121.736076,94.781967 
	C135.656265,76.368919 149.768585,58.528828 162.796707,39.929298 
	C169.067215,30.977264 184.794937,30.867592 191.141815,39.800938 
	C205.236282,59.639187 220.050980,78.974937 234.899582,98.263412 
	C240.408752,105.419876 243.554428,112.588699 239.218201,121.250610 
	C236.673889,126.333038 232.449203,129.103455 226.543518,129.017700 
	C220.905304,128.935822 215.264969,129.000046 209.243637,129.000046 
	C209.152740,130.911453 209.011963,132.516663 209.010117,134.122055 
	C208.993042,148.952896 209.016571,163.783798 208.993286,178.614624 
	C208.980545,186.723953 202.769028,192.973541 194.702194,192.992706 
	C182.870895,193.020798 171.039429,193.023666 159.208145,192.991730 
	C151.219681,192.970169 145.015121,186.634308 145.005692,178.509460 
	C144.986771,162.208725 145.000061,145.907974 145.000061,129.000031 
	C138.890381,129.000031 133.120651,129.016617 127.351067,128.996017 
	C119.283859,128.967209 113.535851,122.688370 112.852417,114.674217 
	C112.271072,107.857132 115.336678,103.033737 119.238159,98.247009 
	C120.059853,97.238876 120.738174,96.113899 121.736076,94.781967 
z"/>
<path fill="#FF7B6C" opacity="1.000000" stroke="none" 
	d="
M345.982788,33.000000 
	C351.333282,33.509220 356.498016,33.151093 360.961578,34.750221 
	C366.374176,36.689335 369.060669,41.489922 369.028900,47.589134 
	C368.944061,63.874973 369.000000,80.161545 369.000000,97.000084 
	C375.102295,97.000084 380.873230,96.983719 386.644012,97.004021 
	C394.696381,97.032356 400.314209,103.319221 401.165924,111.236862 
	C402.152618,120.409103 396.071259,125.718887 391.530792,131.886948 
	C378.119812,150.105118 364.390198,168.088867 350.995575,186.318878 
	C344.203491,195.562775 329.809052,195.581924 323.011658,186.358841 
	C308.525452,166.703049 293.955841,147.104080 279.096832,127.730011 
	C273.502106,120.435257 270.316010,113.133736 274.966187,104.378120 
	C277.519623,99.570381 281.637726,96.888023 287.338104,96.980103 
	C292.986969,97.071358 298.638519,97.000076 305.000000,97.000076 
	C305.000000,95.235840 305.000000,93.651848 305.000000,92.067856 
	C305.000000,77.247650 305.413727,62.410725 304.816071,47.614658 
	C304.539551,40.769405 312.731537,32.324394 319.521851,32.841480 
	C328.130768,33.497063 336.827484,33.000000 345.982788,33.000000 
z"/>
<path fill="#1DBC60" opacity="1.000000" stroke="none" 
	d="
M156.000000,257.000000 
	C235.140274,257.023224 313.780579,257.027832 392.420746,257.112366 
	C397.563538,257.117889 402.758850,257.388733 407.833191,258.166229 
	C412.916595,258.945099 416.390350,262.203308 418.527313,266.973785 
	C421.330353,273.231171 424.316528,279.416138 430.618134,283.071960 
	C431.769501,283.739929 432.864166,284.636139 434.109314,284.991638 
	C446.155457,288.430786 449.420776,296.766571 449.176971,308.611908 
	C448.604492,336.424469 449.011078,364.256409 448.899963,392.080017 
	C448.879425,397.223511 448.547607,402.398315 447.886108,407.497223 
	C447.274353,412.212463 444.673523,416.028656 440.191345,417.846008 
	C429.776306,422.069031 422.294342,428.714325 418.454987,439.724426 
	C416.347076,445.769348 410.847748,448.774750 404.229187,448.981110 
	C402.564606,449.032990 400.897217,448.999878 399.231140,448.999481 
	C306.762177,448.976837 214.293182,448.969116 121.824265,448.888733 
	C116.681221,448.884277 111.289223,449.116119 106.475815,447.683441 
	C102.706955,446.561615 98.150047,443.750427 96.564964,440.436035 
	C91.667053,430.194763 85.417915,422.289612 74.190651,418.405823 
	C68.148659,416.315674 65.041428,410.755035 65.034920,404.135193 
	C65.002960,371.646210 65.019722,339.157043 65.107025,306.668152 
	C65.133133,296.951172 68.163864,289.290314 78.458183,285.674622 
	C86.388947,282.889069 91.435524,276.783112 94.320145,268.753235 
	C97.296227,260.468750 102.612976,257.029724 111.514671,257.009735 
	C126.176376,256.976837 140.838211,257.000305 156.000000,257.000000 
M296.104004,302.383911 
	C269.036407,281.165283 228.006561,285.843201 207.346359,312.503448 
	C185.396530,340.827820 189.251648,381.020325 215.953064,402.234589 
	C244.251907,424.718048 285.156952,420.894562 306.446930,393.775940 
	C329.097839,364.923828 324.799805,324.848877 296.104004,302.383911 
M127.758240,368.962555 
	C138.355209,368.737976 145.572174,361.605957 144.967178,351.956116 
	C144.411224,343.088440 136.559036,336.320862 127.665810,337.044556 
	C119.970879,337.670715 113.693375,343.933838 113.047752,351.629089 
	C112.336296,360.109039 117.416374,366.429535 127.758240,368.962555 
M375.651245,339.979462 
	C374.922882,340.660736 374.156952,341.306366 373.472168,342.028900 
	C368.754059,347.007294 367.683502,353.826508 370.621429,360.037323 
	C373.330444,365.764160 379.635590,369.399078 386.108948,368.966003 
	C392.733307,368.522766 398.437164,363.990784 400.289490,357.481812 
	C402.222565,350.689026 400.335388,344.881226 394.892853,340.532776 
	C389.046387,335.861664 382.684875,335.912323 375.651245,339.979462 
z"/>
<path fill="#3DDC80" opacity="1.000000" stroke="none" 
	d="
M296.396667,302.589630 
	C324.799805,324.848877 329.097839,364.923828 306.446930,393.775940 
	C285.156952,420.894562 244.251907,424.718048 215.953064,402.234589 
	C189.251648,381.020325 185.396530,340.827820 207.346359,312.503448 
	C228.006561,285.843201 269.036407,281.165283 296.396667,302.589630 
z"/>
<path fill="#3CDB7F" opacity="1.000000" stroke="none" 
	d="
M127.342545,368.929810 
	C117.416374,366.429535 112.336296,360.109039 113.047752,351.629089 
	C113.693375,343.933838 119.970879,337.670715 127.665810,337.044556 
	C136.559036,336.320862 144.411224,343.088440 144.967178,351.956116 
	C145.572174,361.605957 138.355209,368.737976 127.342545,368.929810 
z"/>
<path fill="#3CDB7F" opacity="1.000000" stroke="none" 
	d="
M375.956848,339.759644 
	C382.684875,335.912323 389.046387,335.861664 394.892853,340.532776 
	C400.335388,344.881226 402.222565,350.689026 400.289490,357.481812 
	C398.437164,363.990784 392.733307,368.522766 386.108948,368.966003 
	C379.635590,369.399078 373.330444,365.764160 370.621429,360.037323 
	C367.683502,353.826508 368.754059,347.007294 373.472168,342.028900 
	C374.156952,341.306366 374.922882,340.660736 375.956848,339.759644 
z"/>
</svg>