<svg width="24" height="24" viewBox="0 0 24 24" fill="none" xmlns="http://www.w3.org/2000/svg">
<path d="M21.6231 0.609375H2.37684C1.82812 0.609375 1.38136 1.01663 1.38136 1.51716V7.71403C1.38136 8.21461 1.82794 8.62191 2.37684 8.62191H6.19125V17.4907C6.19125 17.5901 6.23076 17.6855 6.30108 17.7558C6.37141 17.8261 6.46679 17.8657 6.56625 17.8657H11.3639V18.244C11.3617 18.8026 11.5588 19.3438 11.9197 19.7702C12.2806 20.1967 12.7817 20.4805 13.333 20.5707V20.8453H12.7992C12.6998 20.8453 12.6044 20.8848 12.5341 20.9551C12.4637 21.0255 12.4242 21.1209 12.4242 21.2203V23.0156C12.4242 23.1151 12.4637 23.2105 12.5341 23.2808C12.6044 23.3511 12.6998 23.3906 12.7992 23.3906H20.3848C20.4842 23.3906 20.5796 23.3511 20.6499 23.2808C20.7203 23.2105 20.7598 23.1151 20.7598 23.0156V21.2203C20.7598 21.1209 20.7203 21.0255 20.6499 20.9551C20.5796 20.8848 20.4842 20.8453 20.3848 20.8453H19.851V14.1625C19.8552 13.8523 19.7962 13.5444 19.6775 13.2578C19.5588 12.9712 19.3829 12.7118 19.1605 12.4955L17.8088 11.1438V8.62191H21.6231C22.1721 8.62191 22.6186 8.21461 22.6186 7.71403V1.51716C22.6186 1.01663 22.1719 0.609375 21.6231 0.609375Z" fill="#60607C"/>
<path d="M6.19125 3.23907H5.47031C5.10809 3.23942 4.76079 3.38344 4.50462 3.63953C4.24844 3.89563 4.10432 4.24288 4.10386 4.60511V4.6277C4.10427 4.98995 4.24837 5.33725 4.50455 5.59338C4.76073 5.8495 5.10806 5.99354 5.47031 5.99387H6.19125V3.23907Z" fill="#484868"/>
<path d="M18.5299 3.23907H17.8088V5.99406H18.5299C18.8921 5.99366 19.2394 5.8496 19.4955 5.59348C19.7517 5.33736 19.8957 4.9901 19.8961 4.62789V4.60529C19.8957 4.24308 19.7517 3.89581 19.4955 3.63968C19.2394 3.38356 18.8921 3.23948 18.5299 3.23907Z" fill="#484868"/>
<path d="M13.333 20.8455H19.851V14.1625C19.8552 13.8523 19.7962 13.5444 19.6775 13.2578C19.5588 12.9712 19.3829 12.7118 19.1605 12.4955L17.8087 11.1438V16.3787C17.8132 16.0674 17.7539 15.7584 17.6343 15.4709C17.5147 15.1834 17.3375 14.9235 17.1136 14.7072L14.2441 11.8525C14.1515 11.7609 14.0415 11.6887 13.9206 11.6402C13.7997 11.5917 13.6703 11.5679 13.5401 11.5701C13.4098 11.5723 13.2813 11.6004 13.1621 11.653C13.0429 11.7055 12.9354 11.7813 12.8459 11.8759L12.7274 12.0025C12.3389 12.4112 12.1247 12.955 12.1301 13.5189C12.1355 14.0827 12.3601 14.6223 12.7563 15.0235L13.9647 16.2531C14.0139 16.3012 14.0528 16.3589 14.0788 16.4226C14.1047 16.4863 14.1173 16.5547 14.1157 16.6235V17.8661H11.3641V18.2444C11.3619 18.8031 11.559 19.3442 11.9199 19.7707C12.2808 20.1971 12.7819 20.4809 13.3332 20.5712L13.333 20.8455Z" fill="#FFDDAB"/>
<path d="M6.19125 3.23907V17.4909C6.19125 17.5904 6.23076 17.6857 6.30108 17.7561C6.37141 17.8264 6.46679 17.8659 6.56625 17.8659H14.1157V16.6232C14.1173 16.5545 14.1047 16.4861 14.0788 16.4224C14.0528 16.3586 14.0139 16.301 13.9647 16.2529L12.7563 15.0234C12.3601 14.6223 12.1355 14.0826 12.1301 13.5188C12.1247 12.9549 12.3389 12.4111 12.7274 12.0024L12.8459 11.8758C12.9354 11.7812 13.0429 11.7054 13.1621 11.6529C13.2814 11.6004 13.4098 11.5722 13.5401 11.57C13.6703 11.5678 13.7997 11.5917 13.9206 11.6402C14.0415 11.6887 14.1515 11.7608 14.2441 11.8524L17.1136 14.7071C17.3375 14.9234 17.5147 15.1834 17.6343 15.4709C17.7539 15.7584 17.8132 16.0673 17.8088 16.3787V3.23907H6.19125Z" fill="#679B67"/>
<path d="M13.9647 16.2528L12.7563 15.0234C12.3601 14.6223 12.1355 14.0826 12.1301 13.5188C12.1247 12.9549 12.3389 12.4111 12.7274 12.0024L12.8459 11.8758C12.9354 11.7812 13.0429 11.7054 13.1621 11.6529C13.2813 11.6004 13.4098 11.5722 13.5401 11.57C13.6703 11.5678 13.7997 11.5917 13.9206 11.6402C14.0415 11.6887 14.1515 11.7608 14.2441 11.8524L16.484 14.0808V3.23907H7.51598V15.0793C7.51598 15.1787 7.55549 15.2741 7.62582 15.3444C7.69614 15.4148 7.79153 15.4543 7.89098 15.4543C8.07955 15.4547 8.26025 15.5298 8.39346 15.6633C8.52667 15.7968 8.60151 15.9776 8.60156 16.1662C8.60156 16.2656 8.64107 16.361 8.7114 16.4313C8.78172 16.5017 8.87711 16.5412 8.97656 16.5412H14.1096C14.0948 16.4316 14.0438 16.3301 13.9647 16.2528Z" fill="#7EBC7E"/>
<path d="M14.8575 3.23907H9.14199C8.43069 3.82729 7.91823 4.62067 7.67455 5.51093C7.43087 6.40119 7.46784 7.34496 7.78041 8.21342C8.09299 9.08189 8.66595 9.83275 9.42108 10.3635C10.1762 10.8943 11.0767 11.1791 11.9997 11.1791C12.9228 11.1791 13.8233 10.8943 14.5784 10.3635C15.3335 9.83275 15.9065 9.08189 16.2191 8.21342C16.5316 7.34496 16.5686 6.40119 16.3249 5.51093C16.0813 4.62067 15.5688 3.82729 14.8575 3.23907Z" fill="#EAE8E8"/>
<path d="M20.3848 20.8456H12.7992C12.5921 20.8456 12.4242 21.0134 12.4242 21.2206V23.0156C12.4242 23.2227 12.5921 23.3906 12.7992 23.3906H20.3848C20.5919 23.3906 20.7598 23.2227 20.7598 23.0156V21.2206C20.7598 21.0134 20.5919 20.8456 20.3848 20.8456Z" fill="#484868"/>
<path d="M20.3848 20.8456H12.7992C12.5921 20.8456 12.4242 21.0134 12.4242 21.2206V23.0156C12.4242 23.2227 12.5921 23.3906 12.7992 23.3906H20.3848C20.5919 23.3906 20.7598 23.2227 20.7598 23.0156V21.2206C20.7598 21.0134 20.5919 20.8456 20.3848 20.8456Z" fill="#484868"/>
<path d="M20.3848 20.8456H19.851V22.6349C19.851 22.7344 19.8114 22.8297 19.7411 22.9001C19.6708 22.9704 19.5754 23.0099 19.476 23.0099H12.4242V23.0156C12.4242 23.1151 12.4637 23.2105 12.5341 23.2808C12.6044 23.3511 12.6998 23.3906 12.7992 23.3906H20.3848C20.4842 23.3906 20.5796 23.3511 20.6499 23.2808C20.7203 23.2105 20.7598 23.1151 20.7598 23.0156V21.2203C20.7597 21.1209 20.7202 21.0256 20.6498 20.9553C20.5795 20.885 20.4842 20.8456 20.3848 20.8456Z" fill="#3D3D54"/>
<path d="M21.6231 0.609375H20.8731C21.4221 0.609375 21.8686 1.01663 21.8686 1.51716V7.71403C21.8686 8.21461 21.4221 8.62191 20.8731 8.62191H21.6231C22.1721 8.62191 22.6186 8.21461 22.6186 7.71403V1.51716C22.6186 1.01663 22.1719 0.609375 21.6231 0.609375Z" fill="#595975"/>
<path d="M18.5299 3.23907H17.8088V3.80157H18.5299C18.8453 3.80199 19.1509 3.91133 19.3949 4.11109C19.6389 4.31084 19.8065 4.58877 19.8692 4.89784C19.8871 4.80897 19.8961 4.71854 19.8961 4.62789V4.60529C19.8957 4.24308 19.7517 3.89581 19.4955 3.63968C19.2394 3.38356 18.8921 3.23948 18.5299 3.23907Z" fill="#3D3D54"/>
<path d="M6.19125 3.23907H5.47031C5.10809 3.23942 4.76079 3.38344 4.50462 3.63953C4.24844 3.89563 4.10432 4.24288 4.10386 4.60511V4.6277C4.10388 4.71835 4.11289 4.80878 4.13077 4.89765C4.19354 4.58857 4.36115 4.31067 4.60524 4.11094C4.84934 3.91121 5.15492 3.80193 5.47031 3.80157H6.19125V3.23907Z" fill="#3D3D54"/>
<path d="M16.484 3.23886H17.8088V3.80136H16.484V3.23886Z" fill="#5B8E5B"/>
<path d="M6.19125 3.23886H7.51598V3.80136H6.19125V3.23886Z" fill="#5B8E5B"/>
<path d="M8.5747 3.80157H15.425C15.2528 3.59769 15.0629 3.40946 14.8575 3.23907H9.14198C8.93668 3.40949 8.74685 3.59772 8.5747 3.80157Z" fill="#DDD7D7"/>
<path d="M14.8268 6.31614H14.4953C14.3413 5.61503 13.7657 5.09247 13.0809 5.09247C11.9527 5.09247 11.76 6.00789 11.6325 6.61366C11.4883 7.29883 11.3953 7.53855 10.9191 7.53855C10.53 7.53855 10.2139 7.15844 10.2139 6.69114C10.2139 6.22384 10.5302 5.84247 10.9191 5.84247C11.0186 5.84247 11.1139 5.80296 11.1843 5.73263C11.2546 5.66231 11.2941 5.56692 11.2941 5.46747C11.2941 5.36801 11.2546 5.27263 11.1843 5.2023C11.1139 5.13198 11.0186 5.09247 10.9191 5.09247C10.2343 5.09247 9.65874 5.61503 9.50466 6.31614H9.17316C9.0737 6.31614 8.97832 6.35565 8.90799 6.42597C8.83767 6.4963 8.79816 6.59168 8.79816 6.69114C8.79816 6.7906 8.83767 6.88598 8.90799 6.9563C8.97832 7.02663 9.0737 7.06614 9.17316 7.06614H9.50475C9.65888 7.76659 10.2344 8.28855 10.9191 8.28855C12.0464 8.28855 12.239 7.37359 12.3664 6.76811C12.5108 6.08242 12.6038 5.84247 13.0809 5.84247C13.47 5.84247 13.7861 6.22319 13.7861 6.69114C13.7861 7.15909 13.4698 7.53855 13.0809 7.53855C12.9814 7.53855 12.8861 7.57806 12.8157 7.64838C12.7454 7.71871 12.7059 7.81409 12.7059 7.91355C12.7059 8.013 12.7454 8.10839 12.8157 8.17871C12.8861 8.24904 12.9814 8.28855 13.0809 8.28855C13.7656 8.28855 14.3411 7.76659 14.4953 7.06614H14.8268C14.9263 7.06614 15.0217 7.02663 15.092 6.9563C15.1623 6.88598 15.2018 6.7906 15.2018 6.69114C15.2018 6.59168 15.1623 6.4963 15.092 6.42597C15.0217 6.35565 14.9263 6.31614 14.8268 6.31614Z" fill="#679B67"/>
<path d="M7.51598 3.23907V3.80157H8.5747C8.74681 3.59772 8.93662 3.40949 9.14189 3.23907H7.51598Z" fill="#679B67"/>
<path d="M16.484 3.23907H14.8575C15.0628 3.40946 15.2527 3.59769 15.4249 3.80157H16.484L16.484 3.23907Z" fill="#679B67"/>
<path d="M19.1605 12.4955L18.9873 12.3223C19.1247 12.6283 19.1944 12.9605 19.1914 13.296L19.1947 20.8455H19.851V14.1625C19.8552 13.8523 19.7962 13.5444 19.6775 13.2578C19.5588 12.9712 19.3829 12.7118 19.1605 12.4955Z" fill="#F2BF81"/>
<path d="M13.4534 16.5412C13.4573 16.5684 13.4593 16.5958 13.4594 16.6232V17.8659H14.1157V16.6232C14.1155 16.5958 14.1135 16.5684 14.1096 16.5412H13.4534Z" fill="#5B8E5B"/>
<path d="M13.9647 16.2528L12.7563 15.0234C12.3601 14.6223 12.1355 14.0826 12.1301 13.5188C12.1247 12.9549 12.3389 12.4111 12.7274 12.0024L12.8459 11.8758C12.9515 11.763 13.0826 11.6772 13.2283 11.6258C13.1182 11.5867 13.0019 11.5678 12.8851 11.57C12.7544 11.5708 12.6253 11.5984 12.5057 11.651C12.3861 11.7036 12.2786 11.7801 12.1897 11.8758L12.0711 12.0024C11.6826 12.4111 11.4684 12.9549 11.4738 13.5188C11.4792 14.0826 11.7038 14.6223 12.1 15.0234L13.3084 16.2531C13.3875 16.3303 13.4385 16.4318 13.4534 16.5414H14.1096C14.0948 16.4317 14.0438 16.3302 13.9647 16.2528Z" fill="#679B67"/>
<path d="M16.4744 19.7148C16.0481 19.7145 15.6392 19.5451 15.3377 19.2438C15.0361 18.9424 14.8663 18.5337 14.8657 18.1074V16.6232C14.8669 16.4573 14.8352 16.2927 14.7725 16.1391C14.7098 15.9854 14.6173 15.8457 14.5004 15.7279L13.6954 14.9088L13.6946 14.9099L13.3141 14.5226C12.9426 14.1464 12.7211 13.6475 12.6914 13.1196C12.6617 12.5917 12.8258 12.071 13.1528 11.6555C13.0371 11.7082 12.9328 11.7831 12.8459 11.8758L12.7274 12.0024C12.3389 12.4111 12.1247 12.9549 12.1301 13.5188C12.1355 14.0826 12.3601 14.6222 12.7563 15.0234L13.9647 16.2531C14.0139 16.3011 14.0528 16.3588 14.0788 16.4225C14.1047 16.4862 14.1173 16.5546 14.1157 16.6234V18.1075C14.1165 18.7327 14.3654 19.332 14.8076 19.774C15.2498 20.2159 15.8492 20.4644 16.4744 20.465C16.5739 20.465 16.6692 20.4255 16.7396 20.3551C16.8099 20.2848 16.8494 20.1894 16.8494 20.09C16.8494 19.9905 16.8099 19.8951 16.7396 19.8248C16.6692 19.7545 16.5739 19.715 16.4744 19.715V19.7148Z" fill="#F2BF81"/>
<path d="M13.4534 22.607C13.6605 22.607 13.8284 22.4391 13.8284 22.232C13.8284 22.0249 13.6605 21.857 13.4534 21.857C13.2463 21.857 13.0784 22.0249 13.0784 22.232C13.0784 22.4391 13.2463 22.607 13.4534 22.607Z" fill="#3D3D54"/>
</svg>
