<svg version="1.1" id="Layer_1" xmlns="http://www.w3.org/2000/svg" xmlns:xlink="http://www.w3.org/1999/xlink" x="0px" y="0px"
	 width="100%" viewBox="0 0 512 512" enable-background="new 0 0 512 512" xml:space="preserve">
<path fill="#000000" opacity="1.000000" stroke="none" 
	d="
M1.000000,178.000000 
	C1.000000,118.666664 1.000000,59.833332 1.000000,1.000000 
	C171.666672,1.000000 342.333344,1.000000 513.000000,1.000000 
	C513.000000,171.666672 513.000000,342.333344 513.000000,513.000000 
	C342.333344,513.000000 171.666672,513.000000 1.000000,513.000000 
	C1.000000,401.500000 1.000000,290.000000 1.000000,178.000000 
M206.875900,290.316589 
	C206.309601,290.261353 205.743317,290.206116 204.398117,289.905884 
	C192.743332,287.539124 181.088562,285.172363 169.119766,282.741852 
	C169.119766,293.322662 168.673325,303.455444 169.248474,313.529938 
	C169.796402,323.127594 177.211838,331.493073 186.550720,333.808502 
	C193.286957,335.478638 200.188431,336.482300 207.870651,337.979858 
	C225.126968,338.134094 236.713043,323.674011 231.958878,307.916351 
	C228.869537,297.676788 220.420197,291.845795 207.094666,290.849579 
	C207.094666,290.849579 207.189102,290.812927 206.875900,290.316589 
M80.062744,433.022583 
	C72.457733,431.742218 63.656944,436.370178 57.870331,429.120575 
	C51.106747,435.883484 44.238636,442.750946 37.570045,449.418854 
	C43.964741,455.798370 50.754162,462.571686 56.464802,468.268738 
	C60.504826,467.077728 63.969616,465.571838 67.566864,465.119537 
	C71.982765,464.564331 76.509369,464.889587 81.915108,464.973236 
	C86.836395,464.973236 91.757675,464.973236 96.677155,464.973236 
	C96.677155,454.022430 96.677155,443.656433 96.677155,433.165771 
	C91.233864,433.165771 86.110947,433.165771 80.062744,433.022583 
M193.915131,464.973236 
	C198.836411,464.973236 203.757690,464.973236 208.677155,464.973236 
	C208.677155,454.022430 208.677155,443.656403 208.677155,433.165741 
	C203.234482,433.165741 198.111252,433.165741 192.062759,433.022583 
	C184.457748,431.742218 175.656937,436.370270 169.870300,429.120514 
	C163.106735,435.883484 156.238647,442.750946 149.569992,449.419006 
	C155.964645,455.798462 162.754059,462.571747 168.464630,468.268768 
	C172.498383,467.079620 175.966324,465.572601 179.566910,465.119537 
	C183.982697,464.563873 188.509384,464.889557 193.915131,464.973236 
M327.929901,48.982998 
	C330.762634,48.987030 333.598907,49.083912 336.427307,48.975094 
	C341.747009,48.770428 344.726257,45.832878 344.972504,40.568470 
	C345.086151,38.138470 344.991852,35.698746 344.991852,33.163609 
	C339.259094,33.163609 334.121918,33.163609 328.059418,33.017719 
	C301.842499,33.017719 275.625610,33.017719 249.004288,33.017719 
	C249.004288,35.702724 248.937393,37.987038 249.017548,40.266178 
	C249.213165,45.827988 252.164124,48.953175 257.722473,48.960407 
	C280.821808,48.990475 303.921295,48.890110 327.929901,48.982998 
M210.170395,231.990417 
	C197.754074,241.375183 184.070663,248.282822 169.241302,252.465103 
	C169.241302,257.376038 169.241302,261.818390 169.241302,266.601898 
	C181.944229,269.014496 194.479263,271.395203 207.868988,273.980194 
	C220.429169,274.109528 229.366150,267.613678 232.252747,256.256927 
	C234.879028,245.924408 229.997391,235.278778 220.532211,230.137695 
	C216.681488,228.046158 213.460800,227.703384 210.170395,231.990417 
M446.957092,480.979126 
	C457.014954,480.979126 467.072815,480.979126 477.827026,480.979126 
	C474.341522,470.439087 471.187103,460.662445 467.779633,450.974762 
	C467.449188,450.035248 465.558929,449.100342 464.383118,449.088104 
	C454.897308,448.989471 445.409210,449.112518 435.003693,449.027710 
	C423.187958,449.018616 411.372192,449.002960 399.556458,449.001709 
	C366.106018,448.998108 332.655457,448.974091 299.205353,449.077362 
	C297.513000,449.082581 294.700470,449.797424 294.309021,450.873108 
	C290.749969,460.653503 287.613495,470.587677 284.181091,480.999573 
	C286.685760,480.999573 288.482910,480.999573 290.280029,480.999573 
	C319.070709,480.999573 347.861450,481.020020 376.652100,480.993134 
	C399.780975,480.971527 422.909760,480.892578 446.957092,480.979126 
M241.858963,59.582336 
	C241.676102,59.276936 241.406815,59.129528 240.708405,58.539494 
	C233.189789,51.712555 232.454742,42.687679 233.013199,33.210968 
	C223.537369,32.544655 214.837372,32.772030 208.119919,40.385502 
	C235.678833,61.945442 252.295486,89.382881 256.144836,124.021057 
	C259.987946,158.603134 249.579849,188.912308 227.684235,215.567841 
	C252.591736,229.420822 257.247131,262.818970 232.971252,282.857513 
	C247.879059,295.974365 253.222855,311.723785 245.524841,330.681274 
	C242.505829,338.116058 237.197083,343.849701 230.365234,348.128265 
	C221.395950,353.745483 211.623718,355.111237 201.362900,353.354370 
	C198.189774,374.504608 212.520676,386.068024 229.435638,385.195801 
	C246.553986,384.313019 263.753357,385.022827 280.917206,384.996002 
	C306.908844,384.955414 332.900391,384.881042 359.833130,384.977509 
	C368.383209,385.035095 377.147369,385.955719 384.201202,379.086731 
	C382.520264,376.216919 381.096924,373.406128 379.279694,370.878540 
	C378.588501,369.917175 377.000793,369.103424 375.806885,369.082855 
	C369.167725,368.968384 362.524048,369.118408 354.969940,369.029663 
	C333.651978,369.019348 312.333984,369.023102 291.016052,368.994171 
	C275.072845,368.972534 265.022766,359.040070 265.009094,343.242981 
	C264.982452,312.431702 264.983612,281.620361 265.008606,250.809036 
	C265.021484,234.964874 275.030151,225.047638 290.954742,225.001038 
	C310.270294,224.944519 329.585876,224.886108 349.845154,224.978973 
	C356.779022,224.978973 363.712860,224.978973 370.484344,224.978973 
	C370.699738,224.428452 370.859406,224.213638 370.807007,224.126709 
	C367.546753,218.719299 364.124054,213.404404 361.018158,207.910355 
	C346.855988,182.858795 361.064697,152.214493 389.259918,146.825882 
	C390.500732,146.588745 391.699310,146.130310 393.001373,145.750504 
	C393.001373,117.138527 393.003723,88.824615 393.000580,60.510700 
	C392.998383,40.958801 380.868896,30.596600 360.998566,33.551369 
	C360.998566,34.950428 361.003479,36.411678 360.997833,37.872890 
	C360.929260,55.534359 351.456085,64.993698 333.820099,64.997292 
	C309.830536,65.002174 285.839661,64.859123 261.852203,65.083374 
	C254.642441,65.150772 247.987198,64.053551 241.968658,60.030186 
	C241.968658,60.030186 241.988174,60.046741 241.858963,59.582336 
M62.817665,209.728821 
	C89.975342,236.270248 122.355759,246.489487 159.408218,238.386520 
	C212.461639,226.784348 246.238892,178.420288 240.028229,124.023979 
	C237.271774,99.881546 226.914948,79.237885 208.790451,61.959194 
	C183.371368,38.295197 153.345154,28.565632 119.231758,34.729095 
	C71.349380,43.380280 37.993729,79.755974 33.500278,128.216888 
	C30.619377,159.286819 40.483418,186.559906 62.817665,209.728821 
M369.785828,352.979919 
	C371.024872,352.870575 372.263947,352.761200 373.210205,352.677704 
	C373.210205,347.253571 373.210205,342.237122 373.210205,337.163605 
	C371.580353,337.163605 370.282501,337.163605 368.059387,337.017731 
	C344.468689,337.017731 320.877960,337.017731 297.300537,337.017731 
	C297.300537,331.372314 297.300537,326.308228 297.300537,320.836365 
	C321.395111,320.836365 345.189941,320.836365 369.845764,320.979370 
	C372.551880,321.136688 375.258026,321.294006 377.207642,321.407349 
	C381.656097,315.662964 386.295197,309.860077 390.686615,303.875519 
	C391.849884,302.290283 392.856537,300.159729 392.900208,298.255798 
	C393.121613,288.605225 392.621857,278.926788 393.129272,269.297852 
	C393.498108,262.298126 390.988342,256.744263 387.960876,250.658875 
	C383.710541,242.115448 377.841217,239.281006 368.059418,241.017715 
	C342.265228,241.012085 316.471008,240.987152 290.676849,241.014450 
	C284.268677,241.021225 281.049316,243.847702 281.036285,249.786911 
	C280.967316,281.239075 280.972290,312.691559 281.031769,344.143768 
	C281.042419,349.768005 284.097626,352.949371 289.616730,352.955902 
	C316.072662,352.987213 342.528778,352.888733 369.785828,352.979919 
M413.736389,432.977203 
	C419.728638,432.985077 425.728424,432.817596 431.709961,433.074860 
	C434.697174,433.203339 436.011230,432.126495 437.081024,429.406677 
	C444.434601,410.711304 452.460083,392.262573 459.220947,373.359497 
	C462.358032,364.588409 464.576660,355.003174 464.744629,345.742279 
	C465.378510,310.798523 464.987885,275.836456 465.006805,240.881241 
	C465.012726,229.891541 461.263702,220.389023 453.838928,212.334702 
	C440.639923,198.016602 427.424530,183.713547 414.188049,169.430069 
	C407.542511,162.258881 398.116852,160.168655 387.972137,163.774017 
	C372.692230,169.667465 366.771210,186.626938 375.385193,200.777588 
	C385.418030,217.259018 395.910400,233.461044 405.903168,249.966064 
	C407.684601,252.908493 408.764862,256.714233 408.862518,260.158356 
	C409.211884,272.478333 408.543854,284.837158 409.161591,297.136017 
	C409.564270,305.152222 407.021576,310.824738 401.257568,316.395355 
	C386.432861,330.722687 384.852844,351.182343 396.408752,368.221985 
	C402.746063,377.566528 409.090088,386.906525 415.609375,396.511230 
	C411.094086,399.571899 406.872070,402.433807 402.430176,405.444733 
	C399.335602,400.968140 396.460052,396.808380 393.494965,392.519104 
	C384.505432,399.207520 374.842468,401.173035 364.358765,401.076904 
	C338.534821,400.840179 312.707214,400.995575 286.881104,401.008667 
	C285.344482,401.009460 283.807892,401.145355 281.359680,401.261688 
	C295.393066,411.777679 308.555176,421.678070 321.785217,431.486847 
	C322.891144,432.306824 324.454071,432.936096 325.805176,432.937042 
	C354.792542,432.957764 383.779938,432.876038 413.736389,432.977203 
z"/>
<path fill="#46F7FE" opacity="1.000000" stroke="none" 
	d="
M348.901428,224.828537 
	C329.585876,224.886108 310.270294,224.944519 290.954742,225.001038 
	C275.030151,225.047638 265.021484,234.964874 265.008606,250.809036 
	C264.983612,281.620361 264.982452,312.431702 265.009094,343.242981 
	C265.022766,359.040070 275.072845,368.972534 291.016052,368.994171 
	C312.333984,369.023102 333.651978,369.019348 355.514404,369.436096 
	C357.105530,371.485931 357.935547,373.331024 359.241211,374.733185 
	C362.571777,378.309875 362.253448,381.571075 358.891998,384.821014 
	C332.900391,384.881042 306.908844,384.955414 280.917206,384.996002 
	C263.753357,385.022827 246.553986,384.313019 229.435638,385.195801 
	C212.520676,386.068024 198.189774,374.504608 201.362900,353.354370 
	C211.623718,355.111237 221.395950,353.745483 230.365234,348.128265 
	C237.197083,343.849701 242.505829,338.116058 245.524841,330.681274 
	C253.222855,311.723785 247.879059,295.974365 232.971252,282.857513 
	C257.247131,262.818970 252.591736,229.420822 227.684235,215.567841 
	C249.579849,188.912308 259.987946,158.603134 256.144836,124.021057 
	C252.295486,89.382881 235.678833,61.945442 208.119919,40.385502 
	C214.837372,32.772030 223.537369,32.544655 233.013199,33.210968 
	C232.454742,42.687679 233.189789,51.712555 240.951462,59.064751 
	C241.372406,59.892647 241.636963,60.044891 241.988174,60.046741 
	C241.988174,60.046741 241.968658,60.030186 241.937439,60.406670 
	C243.638809,68.433060 249.452438,72.971779 257.819153,72.981255 
	C288.758850,73.016289 319.698669,72.995819 350.638428,72.996201 
	C356.565430,72.996269 362.492432,72.996208 369.206573,72.996208 
	C368.526886,72.017998 368.698547,72.149696 368.699066,72.282066 
	C368.801575,98.547249 368.924866,124.812576 368.853424,151.077377 
	C368.850769,152.051025 366.929810,153.871857 365.927429,153.854736 
	C358.308746,153.724686 351.594879,156.331421 345.089233,159.550018 
	C345.005432,154.090591 345.129303,149.092758 344.951385,144.105698 
	C344.504181,131.570038 334.396637,121.477013 321.870728,121.041512 
	C317.216064,120.879684 312.551514,121.001099 307.891449,120.998039 
	C303.029327,120.994850 298.167175,120.997330 293.305054,120.997330 
	C292.930084,120.360031 292.555145,119.722733 292.180206,119.085426 
	C295.668762,116.346298 299.157318,113.607162 302.550812,110.942657 
	C298.536407,106.828964 295.062683,103.269356 291.539459,99.659012 
	C283.261871,107.797096 274.952515,115.690956 266.994263,123.924187 
	C263.746002,127.284676 264.363007,131.320694 267.439545,134.715469 
	C270.006775,137.548248 272.831482,140.146774 275.523163,142.867844 
	C280.727722,148.129181 285.918854,153.403809 290.921783,158.476471 
	C295.126221,154.425186 298.703491,150.978271 303.118561,146.724045 
	C299.548676,143.830978 296.114868,141.048172 292.681030,138.265350 
	C292.933624,137.844452 293.186218,137.423553 293.438782,137.002655 
	C301.510956,137.002655 309.583130,136.997604 317.655304,137.003998 
	C326.572876,137.011063 328.990540,139.372116 328.994659,148.117645 
	C329.003479,166.758118 328.997345,185.398575 328.997375,204.039047 
	C328.997375,205.636322 328.997375,207.233612 328.997375,209.153549 
	C332.763031,209.153549 335.908722,209.153549 339.231750,209.432068 
	C342.573212,214.749908 345.737335,219.789215 348.901428,224.828537 
z"/>
<path fill="#FED9A9" opacity="1.000000" stroke="none" 
	d="
M412.767334,432.814178 
	C383.779938,432.876038 354.792542,432.957764 325.805176,432.937042 
	C324.454071,432.936096 322.891144,432.306824 321.785217,431.486847 
	C308.555176,421.678070 295.393066,411.777679 281.359680,401.261688 
	C283.807892,401.145355 285.344482,401.009460 286.881104,401.008667 
	C312.707214,400.995575 338.534821,400.840179 364.358765,401.076904 
	C374.842468,401.173035 384.505432,399.207520 393.494965,392.519104 
	C396.460052,396.808380 399.335602,400.968140 402.430176,405.444733 
	C406.872070,402.433807 411.094086,399.571899 415.609375,396.511230 
	C409.090088,386.906525 402.746063,377.566528 396.408752,368.221985 
	C384.852844,351.182343 386.432861,330.722687 401.257568,316.395355 
	C407.021576,310.824738 409.564270,305.152222 409.161591,297.136017 
	C408.543854,284.837158 409.211884,272.478333 408.862518,260.158356 
	C408.764862,256.714233 407.684601,252.908493 405.903168,249.966064 
	C395.910400,233.461044 385.418030,217.259018 375.385193,200.777588 
	C366.771210,186.626938 372.692230,169.667465 388.432129,164.080490 
	C389.437317,165.213699 389.880951,166.133850 390.542725,166.853348 
	C402.700256,180.071228 414.767517,193.375076 427.100189,206.428009 
	C436.368011,216.237061 441.000183,227.722137 441.001038,241.148621 
	C441.003296,276.112885 441.011475,311.077118 440.980164,346.041351 
	C440.977783,348.692413 440.735535,351.347595 440.514435,353.993347 
	C439.413361,367.170441 433.718109,378.921051 429.008362,390.981018 
	C423.566925,404.914581 418.178680,418.868866 412.767334,432.814178 
z"/>
<path fill="#FFDE55" opacity="1.000000" stroke="none" 
	d="
M368.984741,320.836365 
	C345.189941,320.836365 321.395111,320.836365 297.300537,320.836365 
	C297.300537,326.308228 297.300537,331.372314 297.300537,337.017731 
	C320.877960,337.017731 344.468689,337.017731 368.526733,337.546448 
	C368.990967,342.995575 368.987885,347.915955 368.984802,352.836365 
	C342.528778,352.888733 316.072662,352.987213 289.616730,352.955902 
	C284.097626,352.949371 281.042419,349.768005 281.031769,344.143768 
	C280.972290,312.691559 280.967316,281.239075 281.036285,249.786911 
	C281.049316,243.847702 284.268677,241.021225 290.676849,241.014450 
	C316.471008,240.987152 342.265228,241.012085 368.526733,241.546387 
	C368.991272,246.995468 368.988464,251.915909 368.522461,256.909271 
	C344.468506,256.982208 320.877747,256.982208 297.300690,256.982208 
	C297.300690,262.627991 297.300690,267.692078 297.300690,273.163666 
	C321.395691,273.163666 345.190613,273.163666 368.990692,273.619659 
	C368.992432,278.995880 368.989044,283.916107 368.522461,288.909271 
	C344.468506,288.982208 320.877747,288.982208 297.300690,288.982208 
	C297.300690,294.627991 297.300690,299.692078 297.300690,305.163666 
	C321.395691,305.163666 345.190613,305.163666 368.990662,305.619720 
	C368.992126,310.995972 368.988434,315.916168 368.984741,320.836365 
z"/>
<path fill="#FEB555" opacity="1.000000" stroke="none" 
	d="
M413.251862,432.895691 
	C418.178680,418.868866 423.566925,404.914581 429.008362,390.981018 
	C433.718109,378.921051 439.413361,367.170441 440.514435,353.993347 
	C440.735535,351.347595 440.977783,348.692413 440.980164,346.041351 
	C441.011475,311.077118 441.003296,276.112885 441.001038,241.148621 
	C441.000183,227.722137 436.368011,216.237061 427.100189,206.428009 
	C414.767517,193.375076 402.700256,180.071228 390.542725,166.853348 
	C389.880951,166.133850 389.437317,165.213699 388.789734,164.034332 
	C398.116852,160.168655 407.542511,162.258881 414.188049,169.430069 
	C427.424530,183.713547 440.639923,198.016602 453.838928,212.334702 
	C461.263702,220.389023 465.012726,229.891541 465.006805,240.881241 
	C464.987885,275.836456 465.378510,310.798523 464.744629,345.742279 
	C464.576660,355.003174 462.358032,364.588409 459.220947,373.359497 
	C452.460083,392.262573 444.434601,410.711304 437.081024,429.406677 
	C436.011230,432.126495 434.697174,433.203339 431.709961,433.074860 
	C425.728424,432.817596 419.728638,432.985077 413.251862,432.895691 
z"/>
<path fill="#FC7755" opacity="1.000000" stroke="none" 
	d="
M62.484657,209.099426 
	C40.483418,186.559906 30.619377,159.286819 33.500278,128.216888 
	C37.993729,79.755974 71.349380,43.380280 119.231758,34.729095 
	C153.345154,28.565632 183.371368,38.295197 208.959915,62.642448 
	C209.679855,65.047775 210.397293,66.736107 210.753326,68.497490 
	C212.827255,78.757278 214.816376,89.034210 216.567184,99.078049 
	C197.943695,63.497688 163.851120,45.101540 125.478447,49.843842 
	C64.200684,57.416889 29.764862,126.230316 60.270710,180.081192 
	C69.503250,196.379074 82.918030,208.169113 98.859734,216.858978 
	C94.673302,216.446243 90.853394,216.351105 87.210114,215.499939 
	C78.922218,213.563660 70.721062,211.256088 62.484657,209.099426 
z"/>
<path fill="#00D6DE" opacity="1.000000" stroke="none" 
	d="
M345.159485,160.016525 
	C351.594879,156.331421 358.308746,153.724686 365.927429,153.854736 
	C366.929810,153.871857 368.850769,152.051025 368.853424,151.077377 
	C368.924866,124.812576 368.801575,98.547249 368.699066,72.282066 
	C368.698547,72.149696 368.526886,72.017998 369.206573,72.996208 
	C362.492432,72.996208 356.565430,72.996269 350.638428,72.996201 
	C319.698669,72.995819 288.758850,73.016289 257.819153,72.981255 
	C249.452438,72.971779 243.638809,68.433060 241.927032,60.399239 
	C247.987198,64.053551 254.642441,65.150772 261.852203,65.083374 
	C285.839661,64.859123 309.830536,65.002174 333.820099,64.997292 
	C351.456085,64.993698 360.929260,55.534359 360.997833,37.872890 
	C361.003479,36.411678 360.998566,34.950428 360.998566,33.551369 
	C380.868896,30.596600 392.998383,40.958801 393.000580,60.510700 
	C393.003723,88.824615 393.001373,117.138527 393.001373,145.750504 
	C391.699310,146.130310 390.500732,146.588745 389.259918,146.825882 
	C361.064697,152.214493 346.855988,182.858795 361.018158,207.910355 
	C364.124054,213.404404 367.546753,218.719299 370.807007,224.126709 
	C370.859406,224.213638 370.699738,224.428452 370.484344,224.978973 
	C363.712860,224.978973 356.779022,224.978973 349.373291,224.903748 
	C345.737335,219.789215 342.573212,214.749908 339.666565,209.360504 
	C341.509674,209.010422 343.095245,209.010422 345.159485,209.010422 
	C345.159485,192.331009 345.159485,176.173767 345.159485,160.016525 
z"/>
<path fill="#57A4FF" opacity="1.000000" stroke="none" 
	d="
M446.038605,480.839081 
	C422.909760,480.892578 399.780975,480.971527 376.652100,480.993134 
	C347.861450,481.020020 319.070709,480.999573 290.280029,480.999573 
	C288.482910,480.999573 286.685760,480.999573 284.181091,480.999573 
	C287.613495,470.587677 290.749969,460.653503 294.309021,450.873108 
	C294.700470,449.797424 297.513000,449.082581 299.205353,449.077362 
	C332.655457,448.974091 366.106018,448.998108 399.556458,449.001709 
	C411.372192,449.002960 423.187958,449.018616 435.506073,449.474213 
	C439.351837,460.226837 442.695221,470.532959 446.038605,480.839081 
z"/>
<path fill="#FC4F23" opacity="1.000000" stroke="none" 
	d="
M62.651161,209.414124 
	C70.721062,211.256088 78.922218,213.563660 87.210114,215.499939 
	C90.853394,216.351105 94.673302,216.446243 99.220169,216.896072 
	C100.794746,217.220978 101.568092,217.520767 102.328728,217.849915 
	C159.809723,242.723831 224.680084,200.249573 225.025467,137.576385 
	C225.099289,124.179832 221.811035,111.581131 216.834137,99.305351 
	C214.816376,89.034210 212.827255,78.757278 210.753326,68.497490 
	C210.397293,66.736107 209.679855,65.047775 209.114975,62.915001 
	C226.914948,79.237885 237.271774,99.881546 240.028229,124.023979 
	C246.238892,178.420288 212.461639,226.784348 159.408218,238.386520 
	C122.355759,246.489487 89.975342,236.270248 62.651161,209.414124 
z"/>
<path fill="#FDD9A9" opacity="1.000000" stroke="none" 
	d="
M207.016205,337.783234 
	C200.188431,336.482300 193.286957,335.478638 186.550720,333.808502 
	C177.211838,331.493073 169.796402,323.127594 169.248474,313.529938 
	C168.673325,303.455444 169.119766,293.322662 169.119766,282.741852 
	C181.088562,285.172363 192.743332,287.539124 204.976562,290.242615 
	C206.099716,290.657227 206.644409,290.735077 207.189102,290.812927 
	C207.189102,290.812927 207.094666,290.849579 207.162842,291.143707 
	C220.527359,308.172852 220.460190,322.663605 207.016205,337.783234 
z"/>
<path fill="#E9BE00" opacity="1.000000" stroke="none" 
	d="
M368.985657,256.836334 
	C368.988464,251.915909 368.991272,246.995468 368.989380,241.619324 
	C377.841217,239.281006 383.710541,242.115448 387.960876,250.658875 
	C390.988342,256.744263 393.498108,262.298126 393.129272,269.297852 
	C392.621857,278.926788 393.121613,288.605225 392.900208,298.255798 
	C392.856537,300.159729 391.849884,302.290283 390.686615,303.875519 
	C386.295197,309.860077 381.656097,315.662964 377.207642,321.407349 
	C375.258026,321.294006 372.551880,321.136688 369.415253,320.907867 
	C368.988434,315.916168 368.992126,310.995972 369.439331,305.547852 
	C372.147064,305.019958 374.411255,305.019958 376.701141,305.019958 
	C376.701141,299.370087 376.701141,294.301697 376.701141,288.836334 
	C373.932831,288.836334 371.459259,288.836334 368.985657,288.836334 
	C368.989044,283.916107 368.992432,278.995880 369.439331,273.547791 
	C372.147064,273.019958 374.411255,273.019958 376.701141,273.019958 
	C376.701141,267.370087 376.701141,262.301697 376.701141,256.836334 
	C373.932831,256.836334 371.459259,256.836334 368.985657,256.836334 
z"/>
<path fill="#FDD9A9" opacity="1.000000" stroke="none" 
	d="
M207.014282,273.775879 
	C194.479263,271.395203 181.944229,269.014496 169.241302,266.601898 
	C169.241302,261.818390 169.241302,257.376038 169.241302,252.465103 
	C184.070663,248.282822 197.754074,241.375183 210.666779,232.220490 
	C220.193863,247.729279 218.917038,260.447052 207.014282,273.775879 
z"/>
<path fill="#FFDE55" opacity="1.000000" stroke="none" 
	d="
M327.020721,48.837608 
	C303.921295,48.890110 280.821808,48.990475 257.722473,48.960407 
	C252.164124,48.953175 249.213165,45.827988 249.017548,40.266178 
	C248.937393,37.987038 249.004288,35.702724 249.004288,33.017719 
	C275.625610,33.017719 301.842499,33.017719 328.526672,33.540108 
	C328.336212,38.987534 327.678467,43.912571 327.020721,48.837608 
z"/>
<path fill="#FE7956" opacity="1.000000" stroke="none" 
	d="
M192.988129,464.834229 
	C188.509384,464.889557 183.982697,464.563873 179.566910,465.119537 
	C175.966324,465.572601 172.498383,467.079620 168.464630,468.268768 
	C162.754059,462.571747 155.964645,455.798462 149.569992,449.419006 
	C156.238647,442.750946 163.106735,435.883484 169.870300,429.120514 
	C175.656937,436.370270 184.457748,431.742218 192.528778,433.552063 
	C192.992569,444.332428 192.990341,454.583344 192.988129,464.834229 
z"/>
<path fill="#FE7956" opacity="1.000000" stroke="none" 
	d="
M80.988113,464.834229 
	C76.509369,464.889587 71.982765,464.564331 67.566864,465.119537 
	C63.969616,465.571838 60.504826,467.077728 56.464802,468.268738 
	C50.754162,462.571686 43.964741,455.798370 37.570045,449.418854 
	C44.238636,442.750946 51.106747,435.883484 57.870331,429.120575 
	C63.656944,436.370178 72.457733,431.742218 80.528763,433.552063 
	C80.992561,444.332428 80.990341,454.583344 80.988113,464.834229 
z"/>
<path fill="#016DEF" opacity="1.000000" stroke="none" 
	d="
M446.497864,480.909119 
	C442.695221,470.532959 439.351837,460.226837 435.965149,449.544281 
	C445.409210,449.112518 454.897308,448.989471 464.383118,449.088104 
	C465.558929,449.100342 467.449188,450.035248 467.779633,450.974762 
	C471.187103,460.662445 474.341522,470.439087 477.827026,480.979126 
	C467.072815,480.979126 457.014954,480.979126 446.497864,480.909119 
z"/>
<path fill="#FEB555" opacity="1.000000" stroke="none" 
	d="
M207.443420,337.881531 
	C220.460190,322.663605 220.527359,308.172852 207.156799,291.093414 
	C220.420197,291.845795 228.869537,297.676788 231.958878,307.916351 
	C236.713043,323.674011 225.126968,338.134094 207.443420,337.881531 
z"/>
<path fill="#FEB555" opacity="1.000000" stroke="none" 
	d="
M207.441635,273.878052 
	C218.917038,260.447052 220.193863,247.729279 210.996552,232.125656 
	C213.460800,227.703384 216.681488,228.046158 220.532211,230.137695 
	C229.997391,235.278778 234.879028,245.924408 232.252747,256.256927 
	C229.366150,267.613678 220.429169,274.109528 207.441635,273.878052 
z"/>
<path fill="#FF5023" opacity="1.000000" stroke="none" 
	d="
M81.451614,464.903748 
	C80.990341,454.583344 80.992561,444.332428 80.991409,433.623657 
	C86.110947,433.165771 91.233864,433.165771 96.677155,433.165771 
	C96.677155,443.656433 96.677155,454.022430 96.677155,464.973236 
	C91.757675,464.973236 86.836395,464.973236 81.451614,464.903748 
z"/>
<path fill="#FF5023" opacity="1.000000" stroke="none" 
	d="
M193.451630,464.903748 
	C192.990341,454.583344 192.992569,444.332428 192.991425,433.623657 
	C198.111252,433.165741 203.234482,433.165741 208.677155,433.165741 
	C208.677155,443.656403 208.677155,454.022430 208.677155,464.973236 
	C203.757690,464.973236 198.836411,464.973236 193.451630,464.903748 
z"/>
<path fill="#00D6DE" opacity="1.000000" stroke="none" 
	d="
M359.362549,384.899261 
	C362.253448,381.571075 362.571777,378.309875 359.241211,374.733185 
	C357.935547,373.331024 357.105530,371.485931 355.970398,369.510223 
	C362.524048,369.118408 369.167725,368.968384 375.806885,369.082855 
	C377.000793,369.103424 378.588501,369.917175 379.279694,370.878540 
	C381.096924,373.406128 382.520264,376.216919 384.201202,379.086731 
	C377.147369,385.955719 368.383209,385.035095 359.362549,384.899261 
z"/>
<path fill="#E9BE00" opacity="1.000000" stroke="none" 
	d="
M327.475311,48.910301 
	C327.678467,43.912571 328.336212,38.987534 328.989319,33.613052 
	C334.121918,33.163609 339.259094,33.163609 344.991852,33.163609 
	C344.991852,35.698746 345.086151,38.138470 344.972504,40.568470 
	C344.726257,45.832878 341.747009,48.770428 336.427307,48.975094 
	C333.598907,49.083912 330.762634,48.987030 327.475311,48.910301 
z"/>
<path fill="#E9BE00" opacity="1.000000" stroke="none" 
	d="
M369.385315,352.908142 
	C368.987885,347.915955 368.990967,342.995575 368.989380,337.619385 
	C370.282501,337.163605 371.580353,337.163605 373.210205,337.163605 
	C373.210205,342.237122 373.210205,347.253571 373.210205,352.677704 
	C372.263947,352.761200 371.024872,352.870575 369.385315,352.908142 
z"/>
<path fill="#FEB555" opacity="1.000000" stroke="none" 
	d="
M207.032501,290.564758 
	C206.644409,290.735077 206.099716,290.657227 205.366028,290.365112 
	C205.743317,290.206116 206.309601,290.261353 207.032501,290.564758 
z"/>
<path fill="#00D6DE" opacity="1.000000" stroke="none" 
	d="
M241.923569,59.814537 
	C241.636963,60.044891 241.372406,59.892647 241.122803,59.365059 
	C241.406815,59.129528 241.676102,59.276936 241.923569,59.814537 
z"/>
<path fill="#010202" opacity="1.000000" stroke="none" 
	d="
M345.089233,159.550018 
	C345.159485,176.173767 345.159485,192.331009 345.159485,209.010422 
	C343.095245,209.010422 341.509674,209.010422 339.489258,209.081985 
	C335.908722,209.153549 332.763031,209.153549 328.997375,209.153549 
	C328.997375,207.233612 328.997375,205.636322 328.997375,204.039047 
	C328.997345,185.398575 329.003479,166.758118 328.994659,148.117645 
	C328.990540,139.372116 326.572876,137.011063 317.655304,137.003998 
	C309.583130,136.997604 301.510956,137.002655 293.438782,137.002655 
	C293.186218,137.423553 292.933624,137.844452 292.681030,138.265350 
	C296.114868,141.048172 299.548676,143.830978 303.118561,146.724045 
	C298.703491,150.978271 295.126221,154.425186 290.921783,158.476471 
	C285.918854,153.403809 280.727722,148.129181 275.523163,142.867844 
	C272.831482,140.146774 270.006775,137.548248 267.439545,134.715469 
	C264.363007,131.320694 263.746002,127.284676 266.994263,123.924187 
	C274.952515,115.690956 283.261871,107.797096 291.539459,99.659012 
	C295.062683,103.269356 298.536407,106.828964 302.550812,110.942657 
	C299.157318,113.607162 295.668762,116.346298 292.180206,119.085426 
	C292.555145,119.722733 292.930084,120.360031 293.305054,120.997330 
	C298.167175,120.997330 303.029327,120.994850 307.891449,120.998039 
	C312.551514,121.001099 317.216064,120.879684 321.870728,121.041512 
	C334.396637,121.477013 344.504181,131.570038 344.951385,144.105698 
	C345.129303,149.092758 345.005432,154.090591 345.089233,159.550018 
z"/>
<path fill="#000000" opacity="1.000000" stroke="none" 
	d="
M368.522461,256.909271 
	C371.459259,256.836334 373.932831,256.836334 376.701141,256.836334 
	C376.701141,262.301697 376.701141,267.370087 376.701141,273.019958 
	C374.411255,273.019958 372.147064,273.019958 369.434204,273.091797 
	C345.190613,273.163666 321.395691,273.163666 297.300690,273.163666 
	C297.300690,267.692078 297.300690,262.627991 297.300690,256.982208 
	C320.877747,256.982208 344.468506,256.982208 368.522461,256.909271 
z"/>
<path fill="#000000" opacity="1.000000" stroke="none" 
	d="
M368.522461,288.909271 
	C371.459259,288.836334 373.932831,288.836334 376.701141,288.836334 
	C376.701141,294.301697 376.701141,299.370087 376.701141,305.019958 
	C374.411255,305.019958 372.147064,305.019958 369.434204,305.091797 
	C345.190613,305.163666 321.395691,305.163666 297.300690,305.163666 
	C297.300690,299.692078 297.300690,294.627991 297.300690,288.982208 
	C320.877747,288.982208 344.468506,288.982208 368.522461,288.909271 
z"/>
<path fill="#040201" opacity="1.000000" stroke="none" 
	d="
M216.567169,99.078049 
	C221.811035,111.581131 225.099289,124.179832 225.025467,137.576385 
	C224.680084,200.249573 159.809723,242.723831 102.328728,217.849915 
	C101.568092,217.520767 100.794746,217.220978 99.666885,216.870392 
	C82.918030,208.169113 69.503250,196.379074 60.270710,180.081192 
	C29.764862,126.230316 64.200684,57.416889 125.478447,49.843842 
	C163.851120,45.101540 197.943695,63.497688 216.567169,99.078049 
M181.790771,80.706932 
	C181.646683,80.429352 181.419205,80.306755 180.602142,79.835472 
	C147.480392,54.679733 100.588936,62.370144 77.297935,96.777832 
	C59.570755,122.966095 61.217213,160.086777 81.245743,182.465683 
	C112.716705,219.240082 167.571594,217.527359 195.484634,178.898834 
	C217.821793,147.986649 211.461075,102.258133 181.974640,80.999969 
	C181.974640,80.999969 181.895081,81.106194 181.790771,80.706932 
z"/>
<path fill="#FEDD55" opacity="1.000000" stroke="none" 
	d="
M81.068047,181.778168 
	C61.217213,160.086777 59.570755,122.966095 77.297935,96.777832 
	C100.588936,62.370144 147.480392,54.679733 180.906570,80.281479 
	C181.366806,80.983948 181.594833,81.110184 181.895081,81.106194 
	C181.895081,81.106194 181.974640,80.999969 181.929810,81.459213 
	C182.452637,84.679817 183.107971,87.426445 183.574387,90.204781 
	C188.217636,117.863724 180.774231,141.754425 161.098053,161.385010 
	C161.019501,155.938461 161.047668,150.939911 160.991959,145.942322 
	C160.877640,135.685349 154.317032,129.116211 144.074203,129.008957 
	C139.137589,128.957260 134.199982,129.000061 129.309540,129.000061 
	C129.309540,123.358490 129.309540,118.293877 129.309540,112.788971 
	C140.016907,112.788971 150.421356,112.788971 160.648865,112.788971 
	C160.648865,107.267319 160.648865,102.197906 160.648865,96.699654 
	C155.225311,96.699654 150.153381,96.699654 144.832275,96.699654 
	C144.832275,91.301910 144.832275,86.350212 144.832275,81.241623 
	C139.494156,81.241623 134.429535,81.241623 128.998230,81.241623 
	C128.998230,86.584435 128.998230,91.693298 128.998230,96.726967 
	C117.525192,98.859344 113.014000,104.314934 112.999901,115.699036 
	C112.997429,117.698341 113.145340,119.710045 112.976677,121.695023 
	C111.483597,139.266464 119.570824,146.425613 136.065460,145.035248 
	C138.970551,144.790375 141.914001,145.000488 144.641220,145.000488 
	C144.641220,150.744644 144.641220,155.813995 144.641220,161.308945 
	C133.881943,161.308945 123.477425,161.308945 113.223495,161.308945 
	C113.223495,166.707840 113.223495,171.657516 113.223495,176.990448 
	C118.537193,176.990448 123.639832,176.990448 128.817108,176.990448 
	C128.817108,178.851379 128.817108,180.319168 128.414124,181.827637 
	C119.029900,182.903885 110.057976,184.626114 101.064384,184.747879 
	C94.413559,184.837936 87.734520,182.843781 81.068047,181.778168 
z"/>
<path fill="#E9BE00" opacity="1.000000" stroke="none" 
	d="
M161.166840,161.833450 
	C180.774231,141.754425 188.217636,117.863724 183.574387,90.204781 
	C183.107971,87.426445 182.452637,84.679817 181.882629,81.506500 
	C211.461075,102.258133 217.821793,147.986649 195.484634,178.898834 
	C167.571594,217.527359 112.716705,219.240082 81.156891,182.121918 
	C87.734520,182.843781 94.413559,184.837936 101.064384,184.747879 
	C110.057976,184.626114 119.029900,182.903885 128.492767,182.306427 
	C128.974426,186.024261 128.974426,189.303970 128.974426,192.742615 
	C134.513260,192.742615 139.565521,192.742615 145.006882,192.742615 
	C145.006882,187.399506 145.006882,182.305023 145.006882,177.228561 
	C154.467255,175.997604 159.708878,170.854614 161.166840,161.833450 
z"/>
<path fill="#E9BE00" opacity="1.000000" stroke="none" 
	d="
M181.842926,80.906563 
	C181.594833,81.110184 181.366806,80.983948 181.159668,80.533325 
	C181.419205,80.306755 181.646683,80.429352 181.842926,80.906563 
z"/>
<path fill="#010100" opacity="1.000000" stroke="none" 
	d="
M161.098053,161.385010 
	C159.708878,170.854614 154.467255,175.997604 145.006882,177.228561 
	C145.006882,182.305023 145.006882,187.399506 145.006882,192.742615 
	C139.565521,192.742615 134.513260,192.742615 128.974426,192.742615 
	C128.974426,189.303970 128.974426,186.024261 128.895767,182.265747 
	C128.817108,180.319168 128.817108,178.851379 128.817108,176.990448 
	C123.639832,176.990448 118.537193,176.990448 113.223495,176.990448 
	C113.223495,171.657516 113.223495,166.707840 113.223495,161.308945 
	C123.477425,161.308945 133.881943,161.308945 144.641220,161.308945 
	C144.641220,155.813995 144.641220,150.744644 144.641220,145.000488 
	C141.914001,145.000488 138.970551,144.790375 136.065460,145.035248 
	C119.570824,146.425613 111.483597,139.266464 112.976677,121.695023 
	C113.145340,119.710045 112.997429,117.698341 112.999901,115.699036 
	C113.014000,104.314934 117.525192,98.859344 128.998230,96.726967 
	C128.998230,91.693298 128.998230,86.584435 128.998230,81.241623 
	C134.429535,81.241623 139.494156,81.241623 144.832275,81.241623 
	C144.832275,86.350212 144.832275,91.301910 144.832275,96.699654 
	C150.153381,96.699654 155.225311,96.699654 160.648865,96.699654 
	C160.648865,102.197906 160.648865,107.267319 160.648865,112.788971 
	C150.421356,112.788971 140.016907,112.788971 129.309540,112.788971 
	C129.309540,118.293877 129.309540,123.358490 129.309540,129.000061 
	C134.199982,129.000061 139.137589,128.957260 144.074203,129.008957 
	C154.317032,129.116211 160.877640,135.685349 160.991959,145.942322 
	C161.047668,150.939911 161.019501,155.938461 161.098053,161.385010 
z"/>
</svg>