<svg width="24" height="24" viewBox="0 0 24 24" fill="none" xmlns="http://www.w3.org/2000/svg">
<g clip-path="url(#clip0_1_8)">
<path d="M19.6372 18.9069H20.7117C21.2781 18.9069 21.7909 19.1365 22.1622 19.5077C22.5334 19.8785 22.763 20.3913 22.763 20.9583C22.763 22.0911 21.8445 23.0092 20.7117 23.0092H18.3666H9.04781H6.70271C6.13628 23.0092 5.62344 22.7795 5.25222 22.4083C4.88146 22.0375 4.65181 21.5247 4.65181 20.9583C4.65181 19.825 5.56986 18.9069 6.70271 18.9069H7.77719" fill="#544F57"/>
<path d="M19.6511 19.3183C19.6511 20.7128 19.1712 21.9954 18.3666 23.0091H9.04781C8.24362 21.9954 7.76331 20.7128 7.76331 19.3183C7.76331 16.0355 10.4247 13.3741 13.7074 13.3741C16.9902 13.3741 19.6511 16.0355 19.6511 19.3183Z" fill="#FFE07D"/>
<path d="M8.6928 19.3183C8.6928 20.7123 9.17311 21.9954 9.9773 23.0091H9.04776C8.24358 21.9954 7.76327 20.7128 7.76327 19.3183C7.76327 16.0355 10.4241 13.3741 13.7069 13.3741C13.8634 13.3741 14.0189 13.3804 14.172 13.3923C11.1063 13.6291 8.6928 16.1919 8.6928 19.3183Z" fill="#FFC250"/>
<path d="M17.9748 19.3183C17.9748 20.8936 17.1213 22.27 15.8512 23.0091H11.5633C10.2931 22.27 9.43966 20.8936 9.43966 19.3183C9.43966 16.9612 11.3504 15.0505 13.7074 15.0505C16.064 15.0504 17.9748 16.9612 17.9748 19.3183Z" fill="#FFC250"/>
<path d="M3.76521 2.84909H12.729C13.8295 2.84909 14.9154 3.10096 15.9036 3.58549L22.4438 6.7922C23.5664 7.34264 23.9857 8.73031 23.3557 9.81033C22.7897 10.7806 21.573 11.1527 20.5611 10.665L13.7821 7.39805L3.76521 9.02452" fill="#FFDDCE"/>
<path d="M8.41552 6.93546L12.5634 8.26369L12.6932 8.30523C13.1264 8.44394 13.4651 8.73997 13.6676 9.10979C13.9901 9.6103 14.0946 10.2458 13.8988 10.8572C13.5514 11.942 12.3903 12.5399 11.3053 12.1925L8.69829 11.3577C7.96433 12.1212 6.83415 12.4471 5.75742 12.1023C4.25012 11.6196 3.41954 10.0065 3.90219 8.49921L5.36641 3.92667" fill="#FFDDCE"/>
<path d="M22.4438 6.79244L15.9034 3.58554C14.9153 3.10082 13.8296 2.84909 12.7289 2.84909H3.76508L2.55563 8.109C2.49952 8.28418 3.80778 8.85098 3.78613 9.02705C3.62158 10.3664 4.42521 11.6761 5.75724 12.1026C6.13671 12.2242 6.52233 12.262 6.89519 12.2273C6.05252 11.4988 5.67895 10.312 6.04019 9.18386L7.27026 5.34251H12.7289C13.8296 5.34251 14.9152 5.59471 15.9034 6.07891L22.4437 9.28581C22.7784 9.44989 23.0508 9.68849 23.2514 9.97117C23.2885 9.9196 23.3231 9.86616 23.3555 9.81038C23.9856 8.73031 23.5665 7.34278 22.4438 6.79244Z" fill="#FFCBBE"/>
<path d="M2.05839 0.990814C3.00106 0.990814 3.76521 1.75497 3.76521 2.69763V9.80114H0.351578V2.69763C0.351578 1.75497 1.11573 0.990814 2.05839 0.990814Z" fill="#B3E59F"/>
<path d="M3.76489 5.27351V2.69786C3.76489 1.75501 3.00069 0.990814 2.0584 0.990814C1.11555 0.990814 0.351349 1.75497 0.351349 2.69786V5.27351C0.351349 4.33122 1.11555 3.56702 2.0584 3.56702C3.00069 3.56702 3.76489 4.33122 3.76489 5.27351Z" fill="#95D6A4"/>
<path d="M23.8936 8.00103C23.6931 7.33752 23.2212 6.78202 22.5988 6.47699L16.0582 3.27004C15.0278 2.76479 13.8765 2.49773 12.7289 2.49773H4.10695C4.00607 1.45621 3.12594 0.639221 2.0584 0.639221C0.923396 0.639221 0 1.56262 0 2.69762V9.80113C0 9.9953 0.157368 10.1527 0.351582 10.1527H3.50832C3.70755 10.9569 4.21135 11.6588 4.93354 12.1066C4.99125 12.1423 5.05524 12.1594 5.11848 12.1594C5.23609 12.1594 5.35108 12.1003 5.4176 11.993C5.51994 11.8279 5.46912 11.6112 5.30407 11.5089C4.58862 11.0654 4.13377 10.2665 4.11698 9.42672C4.11656 9.39254 4.11656 9.35837 4.11698 9.32378C4.11698 9.32213 4.1168 9.32059 4.1168 9.31895V3.2009H12.7289C13.7698 3.2009 14.814 3.44311 15.7486 3.90139L22.2892 7.10838C22.7434 7.33101 23.0742 7.72023 23.2205 8.20443C23.3668 8.68877 23.3069 9.19622 23.0516 9.63359C22.7302 10.1852 22.1337 10.5278 21.4947 10.5278C21.2235 10.5278 20.9607 10.4674 20.7137 10.3484L13.9346 7.08152C13.8697 7.05026 13.7969 7.03966 13.7256 7.05119L11.2063 7.46015L8.5224 6.60056C8.33761 6.54126 8.13955 6.64326 8.08035 6.82815C8.02109 7.01308 8.12301 7.211 8.30794 7.27021L12.4558 8.59862L12.5859 8.64039C12.9174 8.74676 13.1922 8.97341 13.3595 9.27859C13.3635 9.28576 13.3676 9.29279 13.372 9.29963C13.6504 9.73269 13.7203 10.2613 13.564 10.75C13.3363 11.4618 12.6815 11.9401 11.9347 11.9401C11.7582 11.9401 11.5825 11.9125 11.4124 11.8579L8.80503 11.023C8.6771 10.982 8.53726 11.0175 8.44431 11.1142C7.92879 11.6507 7.20922 11.931 6.47099 11.8827C6.27696 11.8699 6.10994 12.0169 6.09728 12.2107C6.08467 12.4044 6.23149 12.5717 6.42529 12.5844C7.29674 12.6412 8.14715 12.3414 8.79129 11.757L11.1978 12.5275C11.4373 12.6043 11.6851 12.6433 11.9347 12.6433C12.9885 12.6433 13.9124 11.9686 14.2338 10.9643C14.453 10.2789 14.3568 9.53805 13.9701 8.92977C13.7153 8.47149 13.3005 8.13116 12.8008 7.97093L12.6823 7.93301L13.729 7.76308L20.4084 10.9819C20.7513 11.1472 21.1168 11.231 21.4947 11.231C22.3829 11.231 23.2123 10.7546 23.659 9.98789C24.0086 9.38884 24.0941 8.66467 23.8936 8.00103ZM0.703165 9.44955V2.69762C0.703165 1.95034 1.31112 1.34239 2.0584 1.34239C2.80567 1.34239 3.41363 1.95034 3.41363 2.69762V2.8466C3.41363 2.84753 3.41349 2.84842 3.41349 2.84932C3.41349 2.85021 3.41363 2.85114 3.41363 2.85203V9.36001C3.41358 9.37 3.41358 9.38026 3.41363 9.39034V9.44955H0.703165Z" fill="black"/>
<path d="M15.0526 16.5516C14.8778 16.4674 14.6675 16.5408 14.5833 16.7157L12.2724 21.5124C12.1881 21.6873 12.2617 21.8975 12.4366 21.9818C12.4858 22.0054 12.5377 22.0167 12.5889 22.0167C12.7197 22.0167 12.8454 21.9433 12.9059 21.8176L15.2168 17.0209C15.301 16.846 15.2275 16.6358 15.0526 16.5516Z" fill="black"/>
<path d="M13.5194 17.6784C13.5194 16.9146 12.9036 16.2932 12.1468 16.2932C11.39 16.2932 10.7742 16.9146 10.7742 17.6784C10.7742 18.4421 11.39 19.0636 12.1468 19.0636C12.9036 19.0636 13.5194 18.4422 13.5194 17.6784ZM12.1468 18.3604C11.7776 18.3604 11.4773 18.0544 11.4773 17.6784C11.4773 17.3023 11.7776 16.9963 12.1468 16.9963C12.516 16.9963 12.8163 17.3023 12.8163 17.6784C12.8163 18.0544 12.516 18.3604 12.1468 18.3604Z" fill="black"/>
<path d="M16.6403 20.958C16.6403 20.1941 16.0245 19.5727 15.2677 19.5727C14.5108 19.5727 13.8951 20.1941 13.8951 20.958C13.8951 21.7217 14.5108 22.3431 15.2677 22.3431C16.0245 22.3431 16.6403 21.7217 16.6403 20.958ZM14.5982 20.958C14.5982 20.5819 14.8985 20.2759 15.2676 20.2759C15.6368 20.2759 15.9371 20.5819 15.9371 20.958C15.9371 21.334 15.6368 21.64 15.2676 21.64C14.8985 21.64 14.5982 21.334 14.5982 20.958Z" fill="black"/>
<path d="M20.7117 18.5553H19.9567C19.7798 17.092 19.0973 15.742 18.0127 14.725C16.8421 13.6272 15.3131 13.0226 13.7074 13.0226C12.1017 13.0226 10.5726 13.6272 9.40188 14.725C8.31727 15.742 7.63464 17.0918 7.45767 18.5554H6.7028C5.37804 18.5554 4.30032 19.6333 4.30032 20.9583C4.30032 21.5998 4.54995 22.2029 5.0033 22.6569C5.45726 23.1108 6.06081 23.3608 6.7028 23.3608H19.3677C19.562 23.3608 19.7193 23.2034 19.7193 23.0092C19.7193 22.8151 19.562 22.6577 19.3677 22.6577H19.0457C19.6736 21.6603 20.0026 20.5188 20.0026 19.3183C20.0026 19.2986 20.0018 19.2784 20.0016 19.2586H20.7117C21.1655 19.2586 21.5923 19.4354 21.9137 19.7567C22.2347 20.0773 22.4115 20.5041 22.4115 20.9583C22.4115 21.8833 21.6877 22.6294 20.7637 22.6569C20.5695 22.6626 20.4169 22.8246 20.4227 23.0187C20.4283 23.2093 20.5846 23.3598 20.7739 23.3598C20.7774 23.3598 20.781 23.3598 20.7846 23.3597C21.411 23.3411 21.9971 23.083 22.4347 22.6331C22.8732 22.1822 23.1147 21.5874 23.1147 20.9583C23.1147 20.316 22.8646 19.7126 22.4108 19.2594C21.9567 18.8053 21.3534 18.5553 20.7117 18.5553ZM5.50072 22.1597C5.18008 21.8387 5.00354 21.412 5.00354 20.9583C5.00354 20.021 5.76586 19.2585 6.70285 19.2585H7.41277C7.41258 19.2783 7.41173 19.2985 7.41173 19.3183C7.41173 20.5184 7.74082 21.6599 8.36879 22.6576H6.70285C6.24865 22.6576 5.82164 22.4807 5.50072 22.1597ZM9.7912 19.3182C9.7912 19.1927 9.79724 19.0655 9.8092 18.9403C9.90155 17.9758 10.348 17.0831 11.0663 16.4265C11.7892 15.7658 12.7271 15.402 13.7074 15.402C14.6875 15.402 15.6253 15.7659 16.3481 16.4265C17.0664 17.0831 17.5128 17.9758 17.6051 18.9402C17.6171 19.0655 17.6231 19.1927 17.6231 19.3182C17.6231 20.6772 16.9088 21.9479 15.7531 22.6576H11.6613C10.5056 21.9479 9.7912 20.6772 9.7912 19.3182ZM18.1923 22.6576H16.897C17.7963 21.7954 18.3264 20.5896 18.3264 19.3183C18.3264 19.1705 18.3192 19.0209 18.3052 18.8734C18.1962 17.7351 17.6697 16.6818 16.8226 15.9075C15.9698 15.1281 14.8635 14.6989 13.7074 14.6989C12.5512 14.6989 11.4448 15.1281 10.592 15.9075C9.74479 16.6818 9.21821 17.7351 9.10927 18.8735C9.0952 19.0209 9.08808 19.1705 9.08808 19.3182C9.08808 20.5896 9.61817 21.7954 10.5174 22.6576H9.2222C8.4978 21.6879 8.11495 20.5373 8.11495 19.3182C8.11495 19.191 8.11935 19.0604 8.12798 18.9308C8.2245 17.52 8.84774 16.2085 9.88294 15.2378C10.9229 14.2627 12.2812 13.7257 13.7075 13.7257C15.1338 13.7257 16.492 14.2627 17.5318 15.2378C18.5668 16.2085 19.19 17.52 19.2865 18.9302C19.2952 19.0605 19.2996 19.191 19.2996 19.3182C19.2995 20.5379 18.9167 21.6885 18.1923 22.6576Z" fill="black"/>
<path d="M17.6125 13.0901V11.1639C17.6125 10.9697 17.4551 10.8123 17.2609 10.8123C17.0667 10.8123 16.9093 10.9697 16.9093 11.1639V13.0901C16.9093 13.2843 17.0667 13.4417 17.2609 13.4417C17.4551 13.4417 17.6125 13.2843 17.6125 13.0901Z" fill="black"/>
<path d="M15.6189 11.8424V9.91622C15.6189 9.72205 15.4616 9.56464 15.2673 9.56464C15.0731 9.56464 14.9158 9.72205 14.9158 9.91622V11.8424C14.9158 12.0366 15.0731 12.194 15.2673 12.194C15.4616 12.194 15.6189 12.0366 15.6189 11.8424Z" fill="black"/>
<path d="M9.23284 13.967V13.0039C9.23284 12.8097 9.07547 12.6523 8.88125 12.6523C8.68704 12.6523 8.52967 12.8097 8.52967 13.0039V13.967C8.52967 14.1611 8.68704 14.3185 8.88125 14.3185C9.07547 14.3185 9.23284 14.1611 9.23284 13.967Z" fill="black"/>
</g>
<defs>
<clipPath id="clip0_1_8">
<rect width="24" height="24" fill="white"/>
</clipPath>
</defs>
</svg>
