<svg width="24" height="24" viewBox="0 0 24 24" fill="none" xmlns="http://www.w3.org/2000/svg">
<path d="M22.4742 18.7507L21.6641 12.435C21.5532 11.4247 21.096 10.4838 20.3702 9.77225C19.8714 9.29805 19.2659 8.95069 18.6047 8.75946C17.9435 8.56823 17.2461 8.53873 16.5711 8.67345C15.4372 8.81537 14.7271 9.64001 13.7358 10.0123C12.6715 10.3969 11.5101 10.4193 10.4317 10.0761C9.36551 9.73499 8.62108 8.82497 7.43139 8.67345C6.75585 8.53858 6.0578 8.568 5.396 8.75923C4.7342 8.95045 4.12804 9.29789 3.62854 9.77228C2.90379 10.4835 2.44563 11.4223 2.3309 12.4313L1.52457 18.7507C1.44621 19.3878 1.58196 20.0329 1.91045 20.5844C2.23895 21.1359 2.74153 21.5625 3.33908 21.7971C3.93663 22.0316 4.59521 22.0608 5.21115 21.88C5.82709 21.6992 6.36541 21.3186 6.74136 20.7983L8.30151 18.6119C8.0771 18.4464 7.89719 18.228 7.77786 17.976C7.65854 17.724 7.60352 17.4463 7.61773 17.1679C7.63193 16.8894 7.71492 16.6189 7.85927 16.3803C8.00362 16.1418 8.20483 15.9427 8.44492 15.801C8.685 15.6592 8.95648 15.5792 9.23507 15.568C9.51366 15.5568 9.79068 15.6148 10.0414 15.7368C10.292 15.8589 10.5086 16.0411 10.6716 16.2673C10.8346 16.4935 10.939 16.7566 10.9755 17.033H13.0195C13.0558 16.7568 13.1599 16.4939 13.3226 16.2679C13.4853 16.0418 13.7015 15.8595 13.9518 15.7374C14.2021 15.6152 14.4788 15.557 14.7572 15.5679C15.0355 15.5788 15.3068 15.6586 15.5468 15.7999C15.7868 15.9413 15.988 16.1399 16.1325 16.3781C16.277 16.6162 16.3602 16.8865 16.3747 17.1646C16.3892 17.4428 16.3346 17.7202 16.2157 17.9721C16.0969 18.224 15.9174 18.4426 15.6935 18.6082L17.2574 20.7984C19.0067 23.2274 22.8498 21.7147 22.4742 18.7507ZM8.08774 13.2264H6.96262V14.3515C6.95882 14.4484 6.91764 14.5401 6.84772 14.6073C6.77781 14.6745 6.68458 14.7121 6.58759 14.7121C6.49059 14.7121 6.39737 14.6745 6.32745 14.6073C6.25753 14.5401 6.21636 14.4484 6.21255 14.3515V13.2264H5.08748C4.99019 13.2231 4.89798 13.1822 4.83031 13.1122C4.76265 13.0422 4.72482 12.9487 4.72481 12.8513C4.72481 12.754 4.76263 12.6605 4.83029 12.5905C4.89796 12.5205 4.99016 12.4796 5.08745 12.4763H6.21255V11.3512C6.2161 11.2541 6.25717 11.1622 6.32711 11.0947C6.39705 11.0273 6.49042 10.9896 6.58758 10.9896C6.68473 10.9896 6.7781 11.0273 6.84805 11.0947C6.91799 11.1621 6.95906 11.2541 6.96262 11.3512V12.4763H8.08774C8.18631 12.4776 8.28039 12.5177 8.34962 12.5879C8.41885 12.6581 8.45766 12.7527 8.45766 12.8513C8.45766 12.9499 8.41885 13.0445 8.34962 13.1147C8.28039 13.1849 8.18631 13.225 8.08774 13.2264ZM12.9482 14.4153C12.916 14.4724 12.8691 14.5198 12.8124 14.5528C12.7557 14.5857 12.6913 14.603 12.6257 14.6028H11.0205C10.9221 14.6012 10.8282 14.561 10.7591 14.4909C10.6901 14.4207 10.6514 14.3262 10.6514 14.2277C10.6514 14.1293 10.6901 14.0348 10.7592 13.9646C10.8282 13.8944 10.9221 13.8542 11.0206 13.8527H12.6257C12.6913 13.8532 12.7556 13.8709 12.8122 13.904C12.8688 13.9371 12.9158 13.9845 12.9484 14.0414C12.9811 14.0983 12.9982 14.1627 12.9982 14.2283C12.9981 14.2939 12.9809 14.3584 12.9482 14.4153ZM13.5408 12.5438C13.5085 12.6009 13.4616 12.6484 13.405 12.6813C13.3483 12.7143 13.2838 12.7315 13.2183 12.7313H10.428C10.3295 12.7298 10.2356 12.6896 10.1665 12.6194C10.0974 12.5493 10.0587 12.4548 10.0587 12.3563C10.0587 12.2578 10.0975 12.1633 10.1665 12.0931C10.2356 12.023 10.3295 11.9828 10.428 11.9813H13.2183C13.2838 11.9819 13.3481 11.9996 13.4046 12.0328C13.4612 12.0659 13.5081 12.1132 13.5407 12.1701C13.5733 12.227 13.5905 12.2914 13.5905 12.357C13.5905 12.4225 13.5734 12.4869 13.5408 12.5438ZM15.896 13.3201C15.7729 13.3184 15.6553 13.2682 15.5688 13.1805C15.4823 13.0928 15.4338 12.9745 15.4338 12.8513C15.4338 12.7281 15.4823 12.6099 15.5688 12.5222C15.6553 12.4344 15.7729 12.3843 15.8961 12.3825C16.0192 12.3843 16.1368 12.4344 16.2233 12.5222C16.3098 12.6099 16.3583 12.7281 16.3583 12.8513C16.3583 12.9745 16.3098 13.0928 16.2233 13.1805C16.1368 13.2682 16.0192 13.3184 15.896 13.3201ZM17.1674 14.5953C17.0442 14.5935 16.9267 14.5434 16.8402 14.4556C16.7537 14.3679 16.7052 14.2497 16.7052 14.1265C16.7052 14.0033 16.7537 13.885 16.8402 13.7973C16.9267 13.7096 17.0442 13.6594 17.1674 13.6577C17.2905 13.6596 17.4079 13.7098 17.4943 13.7975C17.5807 13.8852 17.6291 14.0034 17.6291 14.1265C17.6291 14.2496 17.5807 14.3678 17.4943 14.4555C17.4079 14.5432 17.2905 14.5934 17.1674 14.5953ZM17.1674 12.045C17.0442 12.0433 16.9267 11.9931 16.8402 11.9054C16.7537 11.8176 16.7052 11.6994 16.7052 11.5762C16.7052 11.453 16.7537 11.3348 16.8402 11.247C16.9267 11.1593 17.0442 11.1091 17.1674 11.1074C17.2905 11.1093 17.4079 11.1595 17.4943 11.2472C17.5807 11.3349 17.6291 11.4531 17.6291 11.5762C17.6291 11.6993 17.5807 11.8175 17.4943 11.9052C17.4079 11.9929 17.2905 12.0431 17.1674 12.045ZM18.4425 13.3201C18.3193 13.3184 18.2018 13.2682 18.1153 13.1805C18.0288 13.0928 17.9803 12.9745 17.9803 12.8513C17.9803 12.7281 18.0288 12.6099 18.1153 12.5222C18.2018 12.4344 18.3194 12.3843 18.4426 12.3825C18.5657 12.3843 18.6833 12.4344 18.7698 12.5222C18.8563 12.6099 18.9048 12.7281 18.9048 12.8513C18.9048 12.9745 18.8563 13.0928 18.7698 13.1805C18.6833 13.2682 18.5657 13.3184 18.4425 13.3201ZM10.1955 9.1685V8.86095C10.1959 8.58757 10.3048 8.32553 10.4981 8.13222C10.6914 7.93891 10.9534 7.83009 11.2268 7.82961H11.6467V7.33547C11.6467 6.63813 12.1089 6.07081 12.6769 6.07081H13.1622C13.519 6.01846 13.5185 5.11191 13.1622 5.05961H11.6251C11.057 5.05961 10.5948 4.49228 10.5948 3.79494V2.36258C10.5963 2.2641 10.6365 2.17015 10.7066 2.10103C10.7768 2.03191 10.8714 1.99317 10.9698 1.99316C11.0683 1.99316 11.1629 2.0319 11.2331 2.10101C11.3032 2.17013 11.3434 2.26407 11.3449 2.36255V3.79494C11.3449 4.10441 11.5134 4.30952 11.6251 4.30952H13.1622C14.5138 4.35714 14.5125 6.77377 13.1622 6.82089H12.6769C12.5652 6.82089 12.3968 7.02599 12.3968 7.33548V7.8296H12.862C13.1354 7.83007 13.3974 7.93888 13.5907 8.13219C13.784 8.3255 13.8929 8.58755 13.8933 8.86094V9.12347C13.3204 9.40976 12.69 9.56254 12.0496 9.57033C11.4091 9.57813 10.7752 9.44077 10.1955 9.1685ZM10.128 16.8043C10.2389 17.0143 10.2663 17.2585 10.2045 17.4879C10.1428 17.7172 9.99647 17.9147 9.79505 18.0406C9.59363 18.1665 9.35201 18.2115 9.11877 18.1665C8.88554 18.1215 8.67798 17.9899 8.53783 17.7981C8.4616 17.6938 8.40769 17.5749 8.37946 17.4489C8.35123 17.3228 8.34928 17.1923 8.37375 17.0654C8.39821 16.9386 8.44856 16.8181 8.52165 16.7116C8.59473 16.6051 8.68899 16.5148 8.79854 16.4463C8.90809 16.3778 9.03057 16.3327 9.15835 16.3136C9.28613 16.2946 9.41645 16.3021 9.5412 16.3357C9.66594 16.3693 9.78243 16.4282 9.88338 16.5088C9.98433 16.5894 10.0676 16.69 10.128 16.8043ZM14.6922 18.1919C14.4452 18.1892 14.2093 18.0893 14.0357 17.9137C13.862 17.7382 13.7646 17.5012 13.7646 17.2543C13.7646 17.0073 13.862 16.7704 14.0357 16.5948C14.2093 16.4193 14.4452 16.3193 14.6921 16.3167C14.9391 16.3193 15.175 16.4193 15.3486 16.5948C15.5223 16.7704 15.6197 17.0073 15.6197 17.2543C15.6197 17.5012 15.5223 17.7382 15.3486 17.9137C15.175 18.0892 14.9391 18.1892 14.6922 18.1919ZM4.95991 8.1071L4.95993 7.72457C4.96332 7.44802 5.04769 7.17854 5.2026 6.94943C5.35752 6.72033 5.57619 6.54166 5.83158 6.43551C6.08696 6.32936 6.36786 6.3004 6.63953 6.3522C6.9112 6.404 7.16173 6.53429 7.36014 6.72696C7.5167 6.8934 7.6348 7.09218 7.70609 7.30928C7.77738 7.52637 7.80012 7.75647 7.7727 7.98332C7.52617 7.92471 7.27535 7.88583 7.02264 7.86707C6.32585 7.8032 5.6234 7.88494 4.95991 8.1071ZM16.2298 7.98332C16.0897 5.69327 19.3175 5.82648 19.0426 8.1071C18.1344 7.80702 17.1608 7.76418 16.2298 7.98332Z" fill="white"/>
</svg>
