<svg width="30" height="30" viewBox="0 0 30 30" fill="none" xmlns="http://www.w3.org/2000/svg">
<g clip-path="url(#clip0_1_193)">
<path d="M22.8 13.9594C26.5334 13.9594 29.56 10.9328 29.56 7.19941C29.56 3.46599 26.5334 0.439453 22.8 0.439453C19.0666 0.439453 16.04 3.46599 16.04 7.19941C16.04 10.9328 19.0666 13.9594 22.8 13.9594Z" fill="#FFDC64"/>
<path d="M23.8938 12.1019C20.7645 11.7754 18.2245 9.23549 17.8981 6.10612C17.8246 5.40258 17.8593 4.71803 17.9875 4.06706C18.102 3.48505 17.3331 3.17889 17.0243 3.68532C16.2651 4.93026 15.8971 6.43987 16.0912 8.04346C16.4586 11.0794 18.9205 13.5413 21.9565 13.9088C23.5601 14.1028 25.0697 13.7348 26.3146 12.9757C26.8211 12.6668 26.5149 11.8979 25.9329 12.0125C25.2819 12.1406 24.5974 12.1753 23.8938 12.1019Z" fill="#FFC850"/>
<path d="M7.19941 13.9594C10.9328 13.9594 13.9594 10.9328 13.9594 7.19941C13.9594 3.46599 10.9328 0.439453 7.19941 0.439453C3.46599 0.439453 0.439453 3.46599 0.439453 7.19941C0.439453 10.9328 3.46599 13.9594 7.19941 13.9594Z" fill="#FF507D"/>
<path d="M9.57662 6.75381L5.90713 4.55215C5.56054 4.3442 5.11957 4.59387 5.11957 4.99805V9.40137C5.11957 9.80561 5.56054 10.0553 5.90713 9.84733L9.57662 7.64567C9.9133 7.44363 9.9133 6.95572 9.57662 6.75381Z" fill="white"/>
<path d="M8.29324 12.1019C5.16386 11.7754 2.62394 9.23549 2.29746 6.10612C2.22404 5.40258 2.25873 4.71803 2.38687 4.06706C2.50142 3.48505 1.73256 3.17889 1.42371 3.68532C0.664567 4.93026 0.29654 6.43987 0.490661 8.04346C0.858102 11.0794 3.31998 13.5413 6.35595 13.9088C7.95955 14.1028 9.46916 13.7348 10.7141 12.9757C11.2206 12.6668 10.9144 11.8979 10.3324 12.0125C9.68132 12.1406 8.99683 12.1753 8.29324 12.1019Z" fill="#D23C69"/>
<path d="M7.19941 29.56C10.9328 29.56 13.9594 26.5334 13.9594 22.8C13.9594 19.0666 10.9328 16.04 7.19941 16.04C3.46599 16.04 0.439453 19.0666 0.439453 22.8C0.439453 26.5334 3.46599 29.56 7.19941 29.56Z" fill="#B4E66E"/>
<path d="M8.29325 27.7025C5.16387 27.376 2.62395 24.8361 2.29746 21.7067C2.22405 21.0032 2.25873 20.3186 2.38688 19.6676C2.50143 19.0856 1.73256 18.7794 1.42371 19.2859C0.664515 20.5308 0.296546 22.0405 0.490609 23.644C0.85805 26.68 3.31993 29.1419 6.3559 29.5093C7.9595 29.7034 9.4691 29.3354 10.714 28.5762C11.2205 28.2674 10.9143 27.4985 10.3323 27.6131C9.68133 27.7412 8.99684 27.7759 8.29325 27.7025Z" fill="#A0D755"/>
<path d="M3.86051 23.1351L6.26977 24.8358C6.44198 24.9574 6.67975 24.8342 6.67975 24.6234V21.2221C6.67975 21.0113 6.44203 20.8881 6.26977 21.0097L3.86051 22.7104C3.71373 22.8138 3.71373 23.0315 3.86051 23.1351Z" fill="white"/>
<path d="M6.98063 23.1351L9.38988 24.8358C9.56209 24.9574 9.79987 24.8342 9.79987 24.6234V21.2221C9.79987 21.0113 9.56215 20.8881 9.38988 21.0097L6.98063 22.7104C6.83385 22.8138 6.83385 23.0315 6.98063 23.1351Z" fill="white"/>
<path d="M22.8 29.56C26.5334 29.56 29.56 26.5334 29.56 22.8C29.56 19.0666 26.5334 16.04 22.8 16.04C19.0666 16.04 16.04 19.0666 16.04 22.8C16.04 26.5334 19.0666 29.56 22.8 29.56Z" fill="#00C3FF"/>
<path d="M23.8938 27.7025C20.7645 27.376 18.2245 24.8361 17.8981 21.7067C17.8246 21.0032 17.8593 20.3186 17.9875 19.6676C18.102 19.0856 17.3331 18.7794 17.0243 19.2859C16.2651 20.5308 15.8971 22.0405 16.0912 23.644C16.4586 26.68 18.9205 29.1419 21.9565 29.5093C23.5601 29.7034 25.0697 29.3354 26.3146 28.5762C26.8211 28.2674 26.5149 27.4985 25.9329 27.6131C25.2819 27.7412 24.5974 27.7759 23.8938 27.7025Z" fill="#00AAF0"/>
<path d="M23.0194 23.1351L20.6101 24.8358C20.4379 24.9574 20.2001 24.8342 20.2001 24.6234V21.2221C20.2001 21.0113 20.4378 20.8881 20.6101 21.0097L23.0194 22.7104C23.1662 22.8138 23.1662 23.0315 23.0194 23.1351Z" fill="white"/>
<path d="M26.1395 23.1351L23.7302 24.8358C23.558 24.9574 23.3203 24.8342 23.3203 24.6234V21.2221C23.3203 21.0113 23.558 20.8881 23.7302 21.0097L26.1395 22.7104C26.2863 22.8138 26.2863 23.0315 26.1395 23.1351Z" fill="white"/>
<path d="M12.3994 2.85656C12.2036 3 12.1612 3.27504 12.3046 3.47074C13.1864 4.67461 13.6123 6.16213 13.5039 7.6592C13.3944 9.1715 12.7428 10.5955 11.6692 11.6691C10.4754 12.863 8.88809 13.5205 7.19977 13.5205C5.51145 13.5205 3.92414 12.863 2.73035 11.6691C1.53639 10.4753 0.878906 8.88803 0.878906 7.19971C0.878906 5.51139 1.53639 3.92408 2.73029 2.73029C3.80385 1.65668 5.22791 1.00512 6.74021 0.895547C8.23711 0.78709 9.72486 1.21307 10.9287 2.0949C11.1244 2.23822 11.3994 2.19586 11.5429 2.00004C11.6862 1.80428 11.6438 1.5293 11.448 1.38586C10.0761 0.38086 8.38189 -0.10459 6.67664 0.0188675C4.95387 0.143672 3.33158 0.885879 2.10873 2.10873C0.748887 3.46857 0 5.2766 0 7.19971C0 9.12281 0.748887 10.9308 2.10873 12.2907C3.46857 13.6505 5.27654 14.3994 7.19971 14.3994C9.12287 14.3994 10.9308 13.6505 12.2906 12.2907C13.5135 11.0678 14.2557 9.44555 14.3805 7.72277C14.504 6.01781 14.0186 4.32334 13.0137 2.95143C12.8701 2.75555 12.5952 2.71318 12.3994 2.85656Z" fill="black"/>
<path d="M22.8003 14.3994C24.7234 14.3994 26.5314 13.6505 27.8912 12.2907C29.1141 11.0678 29.8563 9.44555 29.9811 7.72277C30.1046 6.01781 29.6191 4.32334 28.6143 2.95143C28.4708 2.75555 28.1958 2.71318 28.0001 2.85656C27.8043 3 27.7618 3.27504 27.9052 3.47074C28.7871 4.67461 29.213 6.16213 29.1046 7.6592C28.995 9.1715 28.3434 10.5955 27.2698 11.6691C26.076 12.863 24.4887 13.5205 22.8004 13.5205C21.1121 13.5205 19.5248 12.863 18.331 11.6691C17.1371 10.4753 16.4796 8.88803 16.4796 7.19971C16.4796 5.51139 17.1371 3.92408 18.331 2.73029C19.4046 1.65668 20.8286 1.00512 22.3409 0.895547C23.8377 0.78709 25.3256 1.21307 26.5294 2.0949C26.7251 2.23822 27.0001 2.19586 27.1436 2.00004C27.2869 1.80428 27.2445 1.5293 27.0487 1.38586C25.6767 0.38086 23.9822 -0.10459 22.2772 0.0188675C20.5545 0.143672 18.9322 0.885879 17.7093 2.10873C16.3495 3.46857 15.6006 5.27654 15.6006 7.19971C15.6006 9.12287 16.3495 10.9308 17.7093 12.2907C19.0692 13.6505 20.8772 14.3994 22.8003 14.3994Z" fill="black"/>
<path d="M5.59992 4.92791C5.62705 4.9125 5.65436 4.91279 5.68113 4.9289L7.74305 6.16611C7.95111 6.29109 8.22105 6.22353 8.34592 6.01541C8.47084 5.80728 8.40334 5.5374 8.19522 5.41254L6.1333 4.17527C5.83295 3.99509 5.47172 3.99052 5.16691 4.16314C4.86217 4.3357 4.68018 4.64777 4.68018 4.99804V9.40136C4.68018 9.75164 4.86211 10.0637 5.16691 10.2363C5.31568 10.3205 5.47793 10.3625 5.63994 10.3625C5.8098 10.3625 5.97961 10.3163 6.1333 10.2241L9.80273 8.02242C10.0945 7.84746 10.2686 7.5399 10.2686 7.1997C10.2686 6.85951 10.0944 6.55195 9.80273 6.37699C9.59467 6.25201 9.32473 6.31957 9.19986 6.52769C9.07494 6.73582 9.14244 7.0057 9.35057 7.13056C9.37646 7.14621 9.38965 7.16941 9.38965 7.1997C9.38965 7.23 9.37646 7.2532 9.35057 7.26879L5.68113 9.47045C5.65436 9.48644 5.62705 9.48674 5.59992 9.4715C5.57279 9.45615 5.55908 9.43259 5.55908 9.40142V4.99804C5.55908 4.96681 5.57279 4.94326 5.59992 4.92791Z" fill="black"/>
<path d="M6.74156 20.601C6.50848 20.4802 6.23069 20.4993 6.01629 20.6506L3.60715 22.3512C3.4217 22.4821 3.31096 22.6957 3.31096 22.9227C3.31096 23.1496 3.4217 23.3633 3.60709 23.4941L6.01629 25.1947C6.13699 25.2799 6.27774 25.3232 6.41936 25.3232C6.52928 25.3232 6.63967 25.2971 6.74145 25.2443C6.97447 25.1236 7.11914 24.8856 7.11914 24.6233V23.7707L9.13647 25.1946C9.25717 25.2798 9.39791 25.323 9.53953 25.323C9.6494 25.323 9.75985 25.297 9.86162 25.2442C10.0946 25.1235 10.2393 24.8855 10.2393 24.6231V21.2218C10.2393 20.9595 10.0945 20.7215 9.86168 20.6008C9.6286 20.4799 9.35086 20.499 9.13647 20.6504L7.11914 22.0746V21.222C7.11914 20.9597 6.97442 20.7217 6.74156 20.601ZM6.24024 24.277L4.32164 22.9227L6.24024 21.5683V24.277ZM9.36035 21.5683V24.277L7.44176 22.9227L9.36035 21.5683Z" fill="black"/>
<path d="M20.8008 5.11963V9.27979C20.8008 9.52254 20.9975 9.71924 21.2403 9.71924C21.483 9.71924 21.6797 9.52254 21.6797 9.27979V5.11963C21.6797 4.87687 21.483 4.68018 21.2403 4.68018C20.9975 4.68018 20.8008 4.87687 20.8008 5.11963Z" fill="black"/>
<path d="M23.921 5.11963V9.27979C23.921 9.52254 24.1177 9.71924 24.3604 9.71924C24.6032 9.71924 24.7999 9.52254 24.7999 9.27979V5.11963C24.7999 4.87687 24.6032 4.68018 24.3604 4.68018C24.1177 4.68018 23.921 4.87687 23.921 5.11963Z" fill="black"/>
<path d="M12.3994 18.4572C12.2036 18.6006 12.1612 18.8756 12.3046 19.0713C13.1864 20.2752 13.6123 21.7627 13.5039 23.2598C13.3944 24.7721 12.7428 26.1961 11.6692 27.2697C10.4753 28.4636 8.88803 29.1211 7.19971 29.1211C5.51139 29.1211 3.92408 28.4636 2.73029 27.2697C1.53639 26.0759 0.878906 24.4886 0.878906 22.8003C0.878906 21.112 1.53639 19.5247 2.73029 18.3309C3.80385 17.2573 5.22791 16.6057 6.74021 16.4961C8.23711 16.3876 9.72486 16.8136 10.9287 17.6955C11.1244 17.8388 11.3994 17.7965 11.5429 17.6006C11.6862 17.4049 11.6438 17.1299 11.448 16.9865C10.0761 15.9816 8.38189 15.4961 6.67664 15.6196C4.95387 15.7444 3.33158 16.4866 2.10873 17.7094C0.748887 19.0692 0 20.8772 0 22.8003C0 24.7234 0.748887 26.5314 2.10873 27.8913C3.46857 29.2511 5.2766 30 7.19971 30C9.12281 30 10.9308 29.2511 12.2906 27.8913C13.5135 26.6684 14.2557 25.0461 14.3805 23.3234C14.504 21.6184 14.0186 19.9239 13.0137 18.552C12.8701 18.3561 12.5952 18.3138 12.3994 18.4572Z" fill="black"/>
<path d="M23.2586 25.2444C23.3603 25.2971 23.4707 25.3232 23.5806 25.3232C23.7222 25.3232 23.863 25.28 23.9837 25.1948L26.3929 23.4942C26.5783 23.3633 26.689 23.1497 26.689 22.9228C26.689 22.6958 26.5783 22.4821 26.3929 22.3514L23.9837 20.6506C23.7693 20.4993 23.4914 20.4802 23.2584 20.6011C23.0255 20.7218 22.8809 20.9598 22.8809 21.2221V22.0747L20.8635 20.6506C20.6491 20.4993 20.3713 20.4802 20.1383 20.6011C19.9054 20.7218 19.7607 20.9598 19.7607 21.2221V24.6234C19.7607 24.8858 19.9055 25.1238 20.1384 25.2445C20.2402 25.2973 20.3505 25.3233 20.4605 25.3233C20.602 25.3233 20.7429 25.2801 20.8635 25.1949L22.8809 23.771V24.6236C22.8809 24.8857 23.0256 25.1237 23.2586 25.2444ZM23.7598 21.5682L25.6784 22.9226L23.7598 24.277V21.5682ZM20.6396 24.277V21.5683L22.5582 22.9226L20.6396 24.277Z" fill="black"/>
<path d="M28 18.4572C27.8042 18.6006 27.7618 18.8756 27.9052 19.0713C28.787 20.2752 29.2129 21.7627 29.1045 23.2598C28.9949 24.7721 28.3434 26.1961 27.2698 27.2697C26.0759 28.4636 24.4886 29.1211 22.8003 29.1211C21.112 29.1211 19.5247 28.4636 18.3309 27.2697C17.137 26.0759 16.4795 24.4886 16.4795 22.8003C16.4795 21.112 17.137 19.5247 18.3309 18.3309C19.4044 17.2573 20.8285 16.6057 22.3408 16.4961C23.8376 16.3876 25.3254 16.8136 26.5293 17.6955C26.725 17.8388 26.9999 17.7965 27.1434 17.6006C27.2868 17.4049 27.2444 17.1299 27.0486 16.9865C25.6767 15.9816 23.9822 15.4961 22.2772 15.6196C20.5545 15.7444 18.9322 16.4866 17.7093 17.7094C16.3495 19.0693 15.6006 20.8773 15.6006 22.8004C15.6006 24.7236 16.3495 26.5315 17.7093 27.8914C19.0692 29.2512 20.8772 30 22.8003 30C24.7234 30 26.5314 29.2511 27.8912 27.8913C29.1141 26.6684 29.8563 25.0461 29.9811 23.3234C30.1046 21.6184 29.6191 19.9239 28.6143 18.552C28.4707 18.3561 28.1958 18.3138 28 18.4572Z" fill="black"/>
</g>
<defs>
<clipPath id="clip0_1_193">
<rect width="30" height="30" fill="white"/>
</clipPath>
</defs>
</svg>
