<svg width="21" height="20" viewBox="0 0 21 20" fill="none" xmlns="http://www.w3.org/2000/svg">
<path d="M13.0002 8.54167C10.3577 8.54167 8.2085 10.6917 8.2085 13.3333C8.2085 15.975 10.3577 18.125 13.0002 18.125C15.6427 18.125 17.7918 15.975 17.7918 13.3333C17.7918 10.6917 15.6427 8.54167 13.0002 8.54167ZM14.6293 13.9583H13.0002C12.6552 13.9583 12.3752 13.6783 12.3752 13.3333V11.6375C12.3752 11.2925 12.6552 11.0125 13.0002 11.0125C13.3452 11.0125 13.6252 11.2925 13.6252 11.6375V12.7083H14.6293C14.9743 12.7083 15.2543 12.9883 15.2543 13.3333C15.2543 13.6783 14.9743 13.9583 14.6293 13.9583ZM13.8335 1.875H5.50016C4.2335 1.875 3.2085 2.9 3.2085 4.16667V15C3.2085 16.2667 4.2335 17.2917 5.50016 17.2917H8.45016C7.51683 16.2333 6.9585 14.85 6.9585 13.3333C6.9585 10 9.66683 7.29167 13.0002 7.29167C14.1502 7.29167 15.2168 7.60833 16.1252 8.175V4.16667C16.1252 2.9 15.1002 1.875 13.8335 1.875ZM7.16683 10.625H6.3335C5.99183 10.625 5.7085 10.3417 5.7085 10C5.7085 9.65833 5.99183 9.375 6.3335 9.375H7.16683C7.5085 9.375 7.79183 9.65833 7.79183 10C7.79183 10.3417 7.5085 10.625 7.16683 10.625ZM9.66683 8.125H6.3335C5.99183 8.125 5.7085 7.84167 5.7085 7.5C5.7085 7.15833 5.99183 6.875 6.3335 6.875H9.66683C10.0085 6.875 10.2918 7.15833 10.2918 7.5C10.2918 7.84167 10.0085 8.125 9.66683 8.125ZM13.0002 5.625H6.3335C5.99183 5.625 5.7085 5.34167 5.7085 5C5.7085 4.65833 5.99183 4.375 6.3335 4.375H13.0002C13.3418 4.375 13.6252 4.65833 13.6252 5C13.6252 5.34167 13.3418 5.625 13.0002 5.625Z" fill="#9C9E9F"/>
</svg>
