<svg width="21" height="20" viewBox="0 0 21 20" fill="none" xmlns="http://www.w3.org/2000/svg">
<path fill-rule="evenodd" clip-rule="evenodd" d="M8.85284 2.28882C9.84575 1.60946 11.1539 1.60946 12.1468 2.28882L17.5635 5.99496C18.3581 6.53862 18.8332 7.43935 18.8332 8.40212V15.4168C18.8332 17.0276 17.5273 18.3335 15.9165 18.3335H5.08317C3.47234 18.3335 2.1665 17.0276 2.1665 15.4168V8.40212C2.1665 7.43935 2.6416 6.53862 3.43618 5.99496L8.85284 2.28882ZM8.4165 14.5835C8.18639 14.5835 7.99984 14.77 7.99984 15.0001C7.99984 15.2302 8.18639 15.4168 8.4165 15.4168H12.5832C12.8133 15.4168 12.9998 15.2302 12.9998 15.0001C12.9998 14.77 12.8133 14.5835 12.5832 14.5835H8.4165Z" fill="#9C9E9F"/>
</svg>
