<svg width="30" height="30" viewBox="0 0 30 30" fill="none" xmlns="http://www.w3.org/2000/svg">
<g clip-path="url(#clip0_1_221)">
<path d="M15 5.30748C14.7537 5.30748 14.554 5.10785 14.554 4.86152V2.89834C14.554 2.88434 14.5427 2.87297 14.5287 2.87297H9.55693C9.05115 2.87297 8.63959 2.46146 8.63959 1.95563V0.917344C8.63953 0.411563 9.05103 0 9.55687 0H17.8973C18.1436 0 18.3433 0.199629 18.3433 0.445957C18.3433 0.692285 18.1437 0.891914 17.8973 0.891914H9.55687C9.54287 0.891914 9.5315 0.903281 9.5315 0.917285V1.95557C9.5315 1.96957 9.54287 1.98094 9.55687 1.98094H14.5286C15.0344 1.98094 15.446 2.39244 15.446 2.89828V4.86141C15.446 5.10779 15.2463 5.30748 15 5.30748Z" fill="#454045"/>
<path d="M27.849 26.8309H2.15098V10.8828C2.15098 9.9532 2.90455 9.19957 3.8342 9.19957H26.1658C27.0954 9.19957 27.849 9.95314 27.849 10.8828V26.8309Z" fill="#756E78"/>
<path d="M26.1658 9.19957H25.1707C26.1003 9.19957 26.8539 9.95314 26.8539 10.8828V24.59C26.8539 25.3244 26.2586 25.9197 25.5242 25.9197H2.15098V26.8309H26.8539H27.849V25.9197V10.8828C27.849 9.95314 27.0954 9.19957 26.1658 9.19957Z" fill="#665E66"/>
<path d="M9.52922 15.2359C10.919 15.2359 12.2129 14.6879 13.1793 13.6914H16.8207C17.7871 14.6879 19.0809 15.2359 20.4708 15.2359C20.5191 15.2359 20.5673 15.2352 20.6159 15.2338C21.9179 15.1975 23.1452 14.6649 24.0717 13.7343C24.9981 12.8038 25.5253 11.5743 25.5563 10.2721C25.5649 9.90767 25.5346 9.54884 25.4691 9.19951H4.53399C4.47709 9.49523 4.44469 9.79939 4.4424 10.1105C4.43233 11.4768 4.95668 12.7632 5.91891 13.7325C6.88119 14.702 8.1634 15.2359 9.52922 15.2359Z" fill="#665E66"/>
<path d="M4.02082 24.5725V11.4579C4.02082 11.2945 4.15336 11.1619 4.31689 11.1619H25.6832C25.8467 11.1619 25.9792 11.2944 25.9792 11.4579V24.5725C25.9792 24.7359 25.8467 24.8685 25.6832 24.8685H4.31684C4.15336 24.8685 4.02082 24.736 4.02082 24.5725Z" fill="#B1E4F9"/>
<path d="M25.6832 11.1619H25.455H4.54336C4.73748 12.1279 5.2084 13.0168 5.9189 13.7326C6.88113 14.702 8.16334 15.2359 9.52916 15.2359C10.9189 15.2359 12.2128 14.6879 13.1792 13.6914H16.8207C17.7871 14.6879 19.0809 15.2359 20.4707 15.2359C20.519 15.2359 20.5673 15.2352 20.6158 15.2338C21.9179 15.1975 23.1452 14.6649 24.0717 13.7343C24.2026 13.6028 24.3254 13.4654 24.4399 13.3225C24.6445 13.0675 25.0568 13.2156 25.0568 13.5425V24.5725C25.0568 24.7359 24.9243 24.8685 24.7607 24.8685H25.683C25.8465 24.8685 25.9791 24.736 25.9791 24.5725V11.4579C25.9792 11.2945 25.8466 11.1619 25.6832 11.1619Z" fill="#90D8F9"/>
<path d="M29.112 30H0.888046C0.520722 30 0.223007 29.7022 0.223007 29.335V27.4959C0.223007 27.1286 0.520781 26.8309 0.888046 26.8309H29.0737C29.4622 26.8309 29.7771 27.1458 29.7771 27.5342V29.335C29.777 29.7022 29.4792 30 29.112 30Z" fill="#756E78"/>
<path d="M29.0738 26.8309H28.1119C28.5003 26.8309 28.8151 27.1458 28.8151 27.5342V29.335C28.8151 29.7023 28.5173 30 28.1501 30H29.112C29.4793 30 29.777 29.7022 29.777 29.335V27.5342C29.777 27.1457 29.4621 26.8309 29.0738 26.8309Z" fill="#665E66"/>
<path d="M17.1827 28.4154H12.8173C12.5807 28.4154 12.3684 28.2696 12.2837 28.0486L11.8167 26.8309H18.1832L17.7162 28.0486C17.6316 28.2696 17.4193 28.4154 17.1827 28.4154Z" fill="#F9F6F6"/>
<path d="M20.4708 5.954H9.58189C7.26884 5.954 5.35154 7.8041 5.33443 10.1171C5.31715 12.4485 7.20187 14.3439 9.52927 14.3439C10.7276 14.3439 11.8083 13.8412 12.5726 13.0354C12.7157 12.8845 12.9146 12.7995 13.1226 12.7995H16.8775C17.085 12.7995 17.2838 12.8839 17.4266 13.0346C18.2165 13.8677 19.3444 14.3771 20.591 14.3423C22.8087 14.2802 24.6119 12.4689 24.6645 10.251C24.7206 7.88754 22.8214 5.954 20.4708 5.954Z" fill="#4A81F6"/>
<path d="M11.2591 13.0354C10.6374 13.6908 9.80648 14.1456 8.8732 14.2926C9.08695 14.3262 9.30597 14.3439 9.52916 14.3439C10.7275 14.3439 11.8082 13.8412 12.5725 13.0354C12.7156 12.8845 12.9145 12.7995 13.1225 12.7995H11.809C11.6011 12.7995 11.4022 12.8846 11.2591 13.0354Z" fill="#4070F6"/>
<path d="M20.4708 5.954H19.1573C21.508 5.954 23.4071 7.88754 23.351 10.2509C23.3027 12.2869 21.7788 13.9791 19.8138 14.2912C20.0662 14.331 20.3256 14.3497 20.591 14.3422C22.8086 14.2802 24.6118 12.4688 24.6644 10.2509C24.7206 7.88754 22.8214 5.954 20.4708 5.954Z" fill="#4070F6"/>
<path d="M9.52921 9.12932C9.28289 9.12932 9.0832 8.92969 9.0832 8.6833V8.21608C9.0832 7.96975 9.28283 7.77012 9.52921 7.77012C9.7756 7.77012 9.97517 7.96975 9.97517 8.21608V8.6833C9.97517 8.92963 9.77554 9.12932 9.52921 9.12932Z" fill="#544F57"/>
<path d="M9.52921 12.5279C9.28289 12.5279 9.0832 12.3282 9.0832 12.0819V11.6147C9.0832 11.3684 9.28283 11.1687 9.52921 11.1687C9.7756 11.1687 9.97517 11.3684 9.97517 11.6147V12.0819C9.97517 12.3282 9.77554 12.5279 9.52921 12.5279Z" fill="#544F57"/>
<path d="M11.4622 10.595H10.9949C10.7486 10.595 10.549 10.3953 10.549 10.149C10.549 9.90269 10.7486 9.70306 10.9949 9.70306H11.4622C11.7085 9.70306 11.9081 9.90269 11.9081 10.149C11.9081 10.3953 11.7085 10.595 11.4622 10.595Z" fill="#544F57"/>
<path d="M8.06355 10.595H7.59632C7.35 10.595 7.15037 10.3953 7.15037 10.149C7.15037 9.90269 7.35 9.70306 7.59632 9.70306H8.06355C8.30988 9.70306 8.50951 9.90269 8.50951 10.149C8.50951 10.3953 8.30988 10.595 8.06355 10.595Z" fill="#544F57"/>
<path d="M18.4956 5.954H11.5044V4.93728C11.5044 4.56703 11.8045 4.26685 12.1748 4.26685H17.8252C18.1954 4.26685 18.4956 4.56703 18.4956 4.93728V5.954Z" fill="#756E78"/>
<path d="M17.8252 4.26685H16.8513C17.2216 4.26685 17.5218 4.56703 17.5218 4.93728V5.95406H18.4956V4.93728C18.4956 4.56697 18.1955 4.26685 17.8252 4.26685Z" fill="#665E66"/>
<path d="M20.696 11.5293C21.4583 11.5293 22.0763 10.9113 22.0763 10.149C22.0763 9.38665 21.4583 8.76867 20.696 8.76867C19.9337 8.76867 19.3157 9.38665 19.3157 10.149C19.3157 10.9113 19.9337 11.5293 20.696 11.5293Z" fill="#544F57"/>
<path d="M20.696 8.76867C20.5532 8.76867 20.4155 8.79035 20.286 8.8306C20.8481 9.00521 21.2562 9.52945 21.2562 10.149C21.2562 10.7685 20.8481 11.2927 20.286 11.4673C20.4155 11.5076 20.5532 11.5293 20.696 11.5293C21.4583 11.5293 22.0763 10.9113 22.0763 10.149C22.0763 9.38666 21.4583 8.76867 20.696 8.76867Z" fill="#454045"/>
<path d="M14.2301 9.11039H13.8308C13.5845 9.11039 13.3849 8.91076 13.3849 8.66443C13.3849 8.4181 13.5845 8.21848 13.8308 8.21848H14.2301C14.4764 8.21848 14.676 8.4181 14.676 8.66443C14.676 8.91076 14.4764 9.11039 14.2301 9.11039Z" fill="#F9F6F6"/>
<path d="M16.1692 9.11039H15.7699C15.5236 9.11039 15.324 8.91076 15.324 8.66443C15.324 8.4181 15.5236 8.21848 15.7699 8.21848H16.1692C16.4155 8.21848 16.6151 8.4181 16.6151 8.66443C16.6151 8.91076 16.4155 9.11039 16.1692 9.11039Z" fill="#F9F6F6"/>
</g>
<defs>
<clipPath id="clip0_1_221">
<rect width="30" height="30" fill="white"/>
</clipPath>
</defs>
</svg>
