<?xml version="1.0" encoding="UTF-8" standalone="no"?>
<svg
   xmlns="http://www.w3.org/2000/svg"
   width="100%"
   height="100%"
   viewBox="0 0 1000 1000"
   version="1.1"
   id="svg8">
  <path
     style="display:inline;opacity:1;fill:#000000;fill-opacity:1;stroke:#000004;stroke-width:2.06961536;stroke-linejoin:round;stroke-miterlimit:4;stroke-dasharray:none;stroke-dashoffset:0;stroke-opacity:1"
     d="m 33.617188,34.494141 v 62.08789 62.089849 62.08789 62.08789 62.08984 62.08789 h 62.08789 62.087892 62.08789 62.08984 62.08789 62.08789 V 344.9375 282.84766 220.75977 158.67188 96.582031 34.494141 H 344.05859 281.9707 219.88086 157.79297 95.705078 Z m 558.794922,0 v 62.08789 62.089849 62.08789 62.08789 62.08984 62.08789 h 62.08984 62.08789 62.08789 62.08985 62.08789 62.08789 V 344.9375 282.84766 220.75977 158.67188 96.582031 34.494141 H 902.85547 840.76758 778.67773 716.58984 654.50195 Z M 95.705078,96.582031 h 62.087892 62.08789 62.08984 62.08789 v 62.089849 62.08789 62.08789 62.08984 H 281.9707 219.88086 157.79297 95.705078 v -62.08984 -62.08789 -62.08789 z m 558.796872,0 h 62.08789 62.08789 62.08985 62.08789 v 62.089849 62.08789 62.08789 62.08984 H 840.76758 778.67773 716.58984 654.50195 V 282.84766 220.75977 158.67188 Z M 33.617188,593.29102 v 62.08789 62.08984 62.08789 62.08789 62.08985 62.08789 h 62.08789 62.087892 62.08789 62.08984 62.08789 62.08789 V 903.73438 841.64453 779.55664 717.46875 655.37891 593.29102 H 344.05859 281.9707 219.88086 157.79297 95.705078 Z m 558.794922,0 v 62.08789 62.08984 62.08789 62.08789 62.08985 62.08789 h 62.08984 62.08789 62.08789 62.08985 62.08789 62.08789 V 903.73438 841.64453 779.55664 717.46875 655.37891 593.29102 H 902.85547 840.76758 778.67773 716.58984 654.50195 Z M 95.705078,655.37891 h 62.087892 62.08789 62.08984 62.08789 v 62.08984 62.08789 62.08789 62.08985 H 281.9707 219.88086 157.79297 95.705078 v -62.08985 -62.08789 -62.08789 z m 558.796872,0 h 62.08789 62.08789 62.08985 62.08789 v 62.08984 62.08789 62.08789 62.08985 h -62.08789 -62.08985 -62.08789 -62.08789 v -62.08985 -62.08789 -62.08789 z"
     id="rect13285"/>
  <path
     style="display:inline;opacity:1;fill:#00a300;fill-opacity:1;stroke:#000004;stroke-width:2.07;stroke-linejoin:round;stroke-miterlimit:4;stroke-dasharray:none;stroke-dashoffset:0;stroke-opacity:1"
     d="m 95.704788,282.84839 h 62.088492 v 62.08842 H 95.704788 Z m 62.088482,0 h 62.0885 v 62.08842 h -62.0885 z m 62.0885,0 h 62.0885 v 62.08842 h -62.0885 z m 62.08851,0 h 62.08849 v 62.08842 H 281.97028 Z M 95.704788,96.582794 H 157.79328 V 158.67122 H 95.704788 Z m 62.088482,0 h 62.0885 v 62.088426 h -62.0885 z m 62.0885,0 h 62.0885 v 62.088426 h -62.0885 z m 62.08851,0 h 62.08849 V 158.67122 H 281.97028 Z M 95.704788,220.75986 h 62.088492 v 62.08842 H 95.704788 Z m 186.265492,0 h 62.08849 v 62.08842 H 281.97028 Z M 95.704788,158.67133 h 62.088492 v 62.08842 H 95.704788 Z m 186.265492,0 h 62.08849 v 62.08842 h -62.08849 z"
     id="rect13863"/>
  <path
     style="display:inline;opacity:1;fill:#ffc400;fill-opacity:1;stroke:#000004;stroke-width:2.06961536;stroke-linejoin:round;stroke-miterlimit:4;stroke-dasharray:none;stroke-dashoffset:0;stroke-opacity:1"
     d="m 778.67895,282.84908 h 62.08849 v 62.08842 h -62.08849 z m -124.177,0 h 62.08849 v 62.08842 h -62.08849 z m 186.2655,0 h 62.0885 v 62.08842 h -62.0885 z m -124.177,0 h 62.08849 v 62.08842 h -62.08849 z m 62.0885,-186.265596 h 62.08849 v 62.088426 h -62.08849 z m -124.177,0 h 62.08849 v 62.088426 h -62.08849 z m 186.2655,0 h 62.0885 v 62.088426 h -62.0885 z m -124.177,0 h 62.08849 v 62.088426 h -62.08849 z m -62.0885,124.177066 h 62.08849 v 62.08842 h -62.08849 z m 186.2655,0 h 62.0885 v 62.08842 h -62.0885 z m -186.2655,-62.08853 h 62.08849 v 62.08842 h -62.08849 z m 186.2655,0 h 62.0885 v 62.08842 h -62.0885 z"
     id="rect13861"/>
  <path
     style="display:inline;opacity:1;fill:#f30f00;fill-opacity:1;stroke:#000004;stroke-width:2.06961536;stroke-linejoin:round;stroke-miterlimit:4;stroke-dasharray:none;stroke-dashoffset:0;stroke-opacity:1"
     d="m 95.704788,841.64514 h 62.088492 v 62.08843 H 95.704788 Z m 62.088482,0 h 62.0885 v 62.08843 h -62.0885 z m 62.0885,0 h 62.0885 v 62.08843 h -62.0885 z m 62.08851,0 h 62.08849 v 62.08843 H 281.97028 Z M 95.704788,779.55664 h 62.088492 v 62.08843 H 95.704788 Z m 186.265492,0 h 62.08849 v 62.08843 H 281.97028 Z M 95.704788,717.46808 H 157.79328 V 779.5565 H 95.704788 Z m 186.265492,0 h 62.08849 V 779.5565 H 281.97028 Z M 95.704788,655.37958 H 157.79328 V 717.468 H 95.704788 Z m 62.088482,0 h 62.0885 V 717.468 h -62.0885 z m 62.0885,0 h 62.0885 V 717.468 h -62.0885 z m 62.08851,0 h 62.08849 V 717.468 h -62.08849 z"
     id="rect13735"/>
  <path
     style="display:inline;opacity:1;fill:#008cf8;fill-opacity:1;stroke:#000004;stroke-width:2.06961536;stroke-linejoin:round;stroke-miterlimit:4;stroke-dasharray:none;stroke-dashoffset:0;stroke-opacity:1"
     d="m 778.67816,841.64514 h 62.08849 v 62.08843 h -62.08849 z m -124.177,0 h 62.08849 v 62.08843 h -62.08849 z m 186.2655,0 h 62.0885 v 62.08843 h -62.0885 z m -124.177,0 h 62.08849 v 62.08843 h -62.08849 z m -62.0885,-62.0885 h 62.08849 v 62.08843 h -62.08849 z m 186.2655,0 h 62.0885 v 62.08843 h -62.0885 z m -186.2655,-62.08856 h 62.08849 v 62.08842 h -62.08849 z m 186.2655,0 h 62.0885 v 62.08842 h -62.0885 z m -62.0885,-62.0885 h 62.08849 V 717.468 h -62.08849 z m -124.177,0 h 62.08849 V 717.468 h -62.08849 z m 186.2655,0 h 62.0885 V 717.468 h -62.0885 z m -124.177,0 h 62.08849 V 717.468 h -62.08849 z"
     id="rect13733"/>
  <path
     style="display:inline;opacity:1;fill:none;fill-opacity:1;stroke:#000004;stroke-width:2.06961536;stroke-linejoin:round;stroke-miterlimit:4;stroke-dasharray:none;stroke-dashoffset:0;stroke-opacity:1"
     d="m 778.67816,779.55664 h 62.08849 v 62.08843 h -62.08849 z m -620.88489,0 h 62.0885 v 62.08843 h -62.0885 z m 62.0885,0 h 62.0885 v 62.08843 h -62.0885 z m 496.70789,0 h 62.08849 v 62.08843 h -62.08849 z m 62.0885,-558.79678 h 62.08849 v 62.08842 h -62.08849 z m -620.88489,0 h 62.0885 v 62.08842 h -62.0885 z m 62.0885,0 h 62.0885 v 62.08842 h -62.0885 z m 496.70789,0 h 62.08849 v 62.08842 h -62.08849 z m 62.0885,496.70822 h 62.08849 v 62.08842 h -62.08849 z m -620.88489,0 h 62.0885 v 62.08842 h -62.0885 z m 62.0885,0 h 62.0885 v 62.08842 h -62.0885 z m 496.70789,0 h 62.08849 v 62.08842 h -62.08849 z m 62.0885,-558.79675 h 62.08849 v 62.08842 h -62.08849 z m -620.88489,0 h 62.0885 v 62.08842 h -62.0885 z m 62.0885,0 h 62.0885 v 62.08842 h -62.0885 z m 496.70789,0 h 62.08849 v 62.08842 h -62.08849 z"
     id="rect13701"/>
  <path
     style="display:inline;opacity:1;fill:#00a300;fill-opacity:1;stroke:#000000;stroke-width:2.06961536;stroke-linejoin:round;stroke-miterlimit:4;stroke-dasharray:none;stroke-dashoffset:0;stroke-opacity:1"
     d="m 95.704788,469.11398 h 62.088492 v 62.08843 H 95.704788 Z m 62.088482,0 h 62.0885 v 62.08843 h -62.0885 z m 62.0885,0 h 62.0885 v 62.08843 h -62.0885 z m 124.17698,0 h 62.08849 v 62.08843 h -62.08849 z m -62.08847,0 h 62.08849 v 62.08843 H 281.97028 Z M 95.704788,407.02545 h 62.088492 v 62.08843 H 95.704788 Z"
     id="rect13479"/>
  <path
     style="display:inline;opacity:1;fill:#ffc400;fill-opacity:1;stroke:#000000;stroke-width:2.06961536;stroke-linejoin:round;stroke-miterlimit:4;stroke-dasharray:none;stroke-dashoffset:0;stroke-opacity:1"
     d="m 468.23572,282.84839 h 62.08849 v 62.08842 h -62.08849 z m 62.0885,-186.265596 h 62.08849 v 62.088426 h -62.08849 z m -62.0885,0 h 62.08849 v 62.088426 h -62.08849 z m 0,248.354126 h 62.08849 v 62.08842 h -62.08849 z m 0,-124.17706 h 62.08849 v 62.08842 h -62.08849 z m 0,-62.08853 h 62.08849 v 62.08842 h -62.08849 z"
     id="rect13841"/>
  <path
     style="display:inline;opacity:1;fill:#f30f00;fill-opacity:1;stroke:#000000;stroke-width:2.06961536;stroke-linejoin:round;stroke-miterlimit:4;stroke-dasharray:none;stroke-dashoffset:0;stroke-opacity:1"
     d="m 406.14725,841.64514 h 62.08849 v 62.08843 h -62.08849 z m 62.08847,0 h 62.08849 v 62.08843 h -62.08849 z m 0,-62.0885 h 62.08849 v 62.08843 h -62.08849 z m 0,-186.26562 h 62.08849 v 62.08842 h -62.08849 z m 0,124.17706 h 62.08849 v 62.08842 h -62.08849 z m 0,-62.0885 h 62.08849 V 717.468 h -62.08849 z"
     id="rect13727"/>
  <path
     style="display:inline;opacity:1;fill:#008cf8;fill-opacity:1;stroke:#000000;stroke-width:2.06961536;stroke-linejoin:round;stroke-miterlimit:4;stroke-dasharray:none;stroke-dashoffset:0;stroke-opacity:1"
     d="m 840.76666,531.20251 h 62.0885 v 62.08843 h -62.0885 z m -62.0885,-62.08853 h 62.08849 v 62.08843 h -62.08849 z m -124.177,0 h 62.08849 v 62.08843 h -62.08849 z m -62.08844,0 h 62.08849 v 62.08843 h -62.08849 z m 248.35394,0 h 62.0885 v 62.08843 h -62.0885 z m -124.177,0 h 62.08849 v 62.08843 h -62.08849 z"
     id="rect13559"/>
  <path
     style="display:inline;opacity:1;fill:#646464;fill-opacity:1;stroke:#000004;stroke-width:2.06961536;stroke-linejoin:round;stroke-miterlimit:4;stroke-dasharray:none;stroke-dashoffset:0;stroke-opacity:1"
     d="m 530.32422,779.55664 h 62.08849 v 62.08843 H 530.32422 Z M 157.79327,531.20251 h 62.0885 v 62.08843 h -62.0885 z M 778.67816,407.02545 h 62.08849 v 62.08843 H 778.67816 Z M 406.14725,158.67133 h 62.08849 v 62.08842 h -62.08849 z"
     id="rect13699"/>
  <path
     style="display:inline;opacity:1;fill:none;fill-opacity:1;stroke:#000004;stroke-width:2.06961536;stroke-linejoin:round;stroke-miterlimit:4;stroke-dasharray:none;stroke-dashoffset:0;stroke-opacity:1"
     d="m 530.32422,282.84839 h 62.08849 v 62.08842 h -62.08849 z m -124.17697,0 h 62.08849 v 62.08842 H 406.14725 Z M 530.32422,34.49427 h 62.08849 v 62.088425 h -62.08849 z m -124.17697,0 h 62.08849 v 62.088425 h -62.08849 z m 62.08847,0 h 62.08849 v 62.088425 h -62.08849 z m -62.08847,62.088524 h 62.08849 V 158.67122 H 406.14725 Z M 530.32422,903.7337 h 62.08849 v 62.08843 h -62.08849 z m -124.17697,0 h 62.08849 v 62.08843 h -62.08849 z m 62.08847,0 h 62.08849 v 62.08843 h -62.08849 z m 62.0885,-62.08856 h 62.08849 v 62.08843 h -62.08849 z m -124.17697,-62.0885 h 62.08849 v 62.08843 H 406.14725 Z M 530.32422,344.93692 h 62.08849 v 62.08842 h -62.08849 z m -124.17697,0 h 62.08849 v 62.08842 H 406.14725 Z M 530.32422,220.75986 h 62.08849 v 62.08842 h -62.08849 z m -124.17697,0 h 62.08849 v 62.08842 H 406.14725 Z M 33.616295,531.20251 h 62.088493 v 62.08843 H 33.616295 Z m 62.088493,0 h 62.088492 v 62.08843 H 95.704788 Z m 682.973372,0 h 62.08849 v 62.08843 h -62.08849 z m -124.177,0 h 62.08849 v 62.08843 h -62.08849 z m -434.61939,0 h 62.0885 v 62.08843 h -62.0885 z m 372.53095,0 h 62.08849 v 62.08843 h -62.08849 z m -248.35397,0 h 62.08849 v 62.08843 h -62.08849 z m 558.79641,0 h 62.0885 v 62.08843 h -62.0885 z m -186.2655,0 h 62.08849 v 62.08843 h -62.08849 z m -434.61938,0 h 62.08849 v 62.08843 h -62.08849 z m 248.35394,62.08851 h 62.08849 v 62.08842 h -62.08849 z m -124.17697,0 h 62.08849 v 62.08842 h -62.08849 z m 124.17697,124.17706 h 62.08849 v 62.08842 h -62.08849 z m -124.17697,0 h 62.08849 V 779.5565 H 406.14725 Z M 33.616295,469.11398 h 62.088493 v 62.08843 H 33.616295 Z m 869.238865,0 h 62.0885 v 62.08843 h -62.0885 z M 33.616295,407.02545 h 62.088493 v 62.08843 H 33.616295 Z m 620.884865,0 h 62.08849 v 62.08843 h -62.08849 z m -496.70789,0 h 62.0885 v 62.08843 h -62.0885 z m 62.0885,0 h 62.0885 v 62.08843 h -62.0885 z m 372.53095,0 h 62.08849 v 62.08843 h -62.08849 z m 248.35394,0 h 62.0885 v 62.08843 h -62.0885 z m -496.70791,0 h 62.08849 v 62.08843 h -62.08849 z m 558.79641,0 h 62.0885 v 62.08843 h -62.0885 z m -186.2655,0 h 62.08849 v 62.08843 h -62.08849 z m -434.61938,0 h 62.08849 v 62.08843 H 281.97028 Z M 530.32422,158.67133 h 62.08849 v 62.08842 h -62.08849 z m 0,496.70825 h 62.08849 V 717.468 h -62.08849 z m -124.17697,0 h 62.08849 V 717.468 h -62.08849 z"
     id="rect13859"/>
  <path
     style="display:inline;opacity:1;vector-effect:none;fill:#6700dc;fill-opacity:1;stroke:#000000;stroke-width:2.06999993;stroke-linecap:butt;stroke-linejoin:miter;stroke-miterlimit:4;stroke-dasharray:none;stroke-dashoffset:0;stroke-opacity:1"
     d="M 406.14648,593.29102 592.41211,407.02539"
     id="path15365"/>
  <path
     style="display:inline;opacity:1;vector-effect:none;fill:#6700dc;fill-opacity:1;stroke:#000000;stroke-width:2.06999993;stroke-linecap:butt;stroke-linejoin:miter;stroke-miterlimit:4;stroke-dasharray:none;stroke-dashoffset:0;stroke-opacity:1"
     d="M 406.14648,407.02539 592.41211,593.29102"
     id="path15369"/>
  <path
     style="display:inline;opacity:1;vector-effect:none;fill:#f30f00;fill-opacity:1;stroke:#f30f00;stroke-width:0.89117908;stroke-linecap:butt;stroke-linejoin:round;stroke-miterlimit:4;stroke-dasharray:none;stroke-dashoffset:0;stroke-opacity:1"
     d="m 454.17269,547.10525 45.10522,-45.10523 45.10523,45.10523 45.10523,45.10522 h -90.21046 -90.21045 z"
     id="path15391"/>
  <path
     style="display:inline;opacity:1;vector-effect:none;fill:#008cf8;fill-opacity:1;stroke:#008cf8;stroke-width:0.89117908;stroke-linecap:butt;stroke-linejoin:round;stroke-miterlimit:4;stroke-dasharray:none;stroke-dashoffset:0;stroke-opacity:1"
     d="m 546.06782,545.06355 -44.88941,-44.89095 44.99784,-44.9963 44.99783,-44.99629 v 89.88725 c 0,49.43799 -0.0488,89.88725 -0.10842,89.88725 -0.0596,0 -20.30866,-20.20093 -44.99784,-44.89096 z"
     id="path15393"/>
  <path
     style="display:inline;opacity:1;vector-effect:none;fill:#ffc400;fill-opacity:1;stroke:#ffc400;stroke-width:0.89117908;stroke-linecap:butt;stroke-linejoin:round;stroke-miterlimit:4;stroke-dasharray:none;stroke-dashoffset:0;stroke-opacity:1"
     d="m 454.24287,453.2386 -44.99629,-44.99784 h 89.99413 89.99412 l -44.99629,44.99784 c -24.74796,24.74881 -44.99698,44.99783 -44.99783,44.99783 -8.5e-4,0 -20.24988,-20.24902 -44.99784,-44.99783 z"
     id="path15395"/>
  <path
     style="display:inline;opacity:1;vector-effect:none;fill:#00a300;fill-opacity:1;stroke:#00a300;stroke-width:0.89117908;stroke-linecap:butt;stroke-linejoin:round;stroke-miterlimit:4;stroke-dasharray:none;stroke-dashoffset:0;stroke-opacity:1"
     d="m 407.50915,500.06726 v -89.88725 l 44.99783,44.99629 44.99784,44.9963 -44.88941,44.89095 c -24.68918,24.69003 -44.93821,44.89096 -44.99784,44.89096 -0.0596,0 -0.10842,-40.44926 -0.10842,-89.88725 z"
     id="path15397"/>
</svg>
