<svg width="21" height="20" viewBox="0 0 21 20" fill="none" xmlns="http://www.w3.org/2000/svg">
<path d="M10.5 10.625C13.2614 10.625 15.5 8.38642 15.5 5.625C15.5 2.86358 13.2614 0.625 10.5 0.625C7.73858 0.625 5.5 2.86358 5.5 5.625C5.5 8.38642 7.73858 10.625 10.5 10.625Z" fill="#9C9E9F"/>
<path d="M3.625 19.3751H11.35C10.2525 18.4955 9.52581 17.2355 9.31395 15.8451C9.10209 14.4547 9.42058 13.0354 10.2063 11.8688C8.59048 11.7886 7.06803 11.0878 5.95625 9.9126C4.70994 10.4387 3.64629 11.3204 2.8982 12.4476C2.15011 13.5747 1.75074 14.8973 1.75 16.2501V17.5001C1.75148 17.9969 1.9495 18.473 2.30081 18.8243C2.65212 19.1756 3.12818 19.3736 3.625 19.3751Z" fill="#9C9E9F"/>
<path d="M10.5 15C10.5 15.8653 10.7566 16.7112 11.2373 17.4306C11.7181 18.1501 12.4013 18.7108 13.2008 19.042C14.0002 19.3731 14.8799 19.4597 15.7285 19.2909C16.5772 19.1221 17.3567 18.7054 17.9686 18.0936C18.5804 17.4817 18.9971 16.7022 19.1659 15.8535C19.3347 15.0049 19.2481 14.1252 18.917 13.3258C18.5858 12.5263 18.0251 11.8431 17.3056 11.3623C16.5862 10.8816 15.7403 10.625 14.875 10.625C13.7151 10.6263 12.6031 11.0877 11.7829 11.9079C10.9627 12.7281 10.5013 13.8401 10.5 15ZM15.5 13.75V14.375H16.125C16.2908 14.375 16.4497 14.4408 16.5669 14.5581C16.6842 14.6753 16.75 14.8342 16.75 15C16.75 15.1658 16.6842 15.3247 16.5669 15.4419C16.4497 15.5592 16.2908 15.625 16.125 15.625H15.5V16.25C15.5 16.4158 15.4342 16.5747 15.3169 16.6919C15.1997 16.8092 15.0408 16.875 14.875 16.875C14.7092 16.875 14.5503 16.8092 14.4331 16.6919C14.3158 16.5747 14.25 16.4158 14.25 16.25V15.625H13.625C13.4592 15.625 13.3003 15.5592 13.1831 15.4419C13.0658 15.3247 13 15.1658 13 15C13 14.8342 13.0658 14.6753 13.1831 14.5581C13.3003 14.4408 13.4592 14.375 13.625 14.375H14.25V13.75C14.25 13.5842 14.3158 13.4253 14.4331 13.3081C14.5503 13.1908 14.7092 13.125 14.875 13.125C15.0408 13.125 15.1997 13.1908 15.3169 13.3081C15.4342 13.4253 15.5 13.5842 15.5 13.75Z" fill="#9C9E9F"/>
</svg>
